<?xml version="1.0" standalone="no"?><!DOCTYPE svg PUBLIC "-//W3C//DTD SVG 1.1//EN" "http://www.w3.org/Graphics/SVG/1.1/DTD/svg11.dtd"><svg t="1761877071762" class="icon" viewBox="0 0 1024 1024" version="1.1" xmlns="http://www.w3.org/2000/svg" p-id="22344" xmlns:xlink="http://www.w3.org/1999/xlink" width="200" height="200"><path d="M512 32c265.6 0 480 214.4 480 480s-214.4 480-480 480S32 777.6 32 512 246.4 32 512 32z m12.8 384h-25.6c-28.8 0-51.2 22.4-51.2 48v288c0 25.6 22.4 48 51.2 48h25.6c28.8 0 51.2-22.4 51.2-48v-288c0-25.6-22.4-48-51.2-48zM512 224c-35.2 0-64 28.8-64 64s28.8 64 64 64 64-28.8 64-64-28.8-64-64-64z" fill="#999999" p-id="22345"></path></svg>
