<svg width="20" height="20" viewBox="0 0 20 20" fill="none" xmlns="http://www.w3.org/2000/svg">
<path d="M10 4C14.1421 4 17.5 7.35787 17.5 11.5V17H2.5V11.5C2.5 7.35786 5.85786 4 10 4ZM9.5 6.25C6.87665 6.25 4.75 8.37665 4.75 11V11.3936H6.25V11C6.25 9.20507 7.70507 7.75 9.5 7.75V6.25Z" fill="currentColor"/>
<path d="M1.5 18H18.5V19.5H1.5V18Z" fill="currentColor"/>
<path d="M10.4464 0V2.5H8.94635V0H10.4464Z" fill="currentColor"/>
<path d="M17.03 3.03039L15.2622 4.79815L14.2015 3.73749L15.9693 1.96973L17.03 3.03039Z" fill="currentColor"/>
<path d="M2.96411 2.5L4.73188 4.26777" stroke="black" stroke-width="1.5"/>
<path d="M2.43379 3.03039L4.20155 4.79815L5.26221 3.73749L3.49445 1.96973L2.43379 3.03039Z" fill="currentColor"/>
</svg>
