<?xml version="1.0" standalone="no"?><!DOCTYPE svg PUBLIC "-//W3C//DTD SVG 1.1//EN" "http://www.w3.org/Graphics/SVG/1.1/DTD/svg11.dtd"><svg t="1761876788884" class="icon" viewBox="0 0 1024 1024" version="1.1" xmlns="http://www.w3.org/2000/svg" p-id="19709" xmlns:xlink="http://www.w3.org/1999/xlink" width="200" height="200"><path d="M300.8 70.4c28.8-12.8 41.6-3.2 41.6 22.4l-12.8 307.2c0 32-22.4 41.6-48 28.8l-48-22.4c-12.8 32-22.4 76.8-22.4 118.4 0 179.2 147.2 323.2 323.2 323.2s320-144 320-323.2S713.6 201.6 531.2 201.6c-28.8 0-57.6 0-86.4 9.6l9.6-140.8c22.4-3.2 48-3.2 76.8-3.2C784 67.2 992 268.8 992 521.6s-208 454.4-460.8 454.4S73.6 771.2 73.6 521.6c0-67.2 12.8-131.2 41.6-188.8l-64-38.4C25.6 278.4 25.6 256 51.2 240l249.6-169.6z m224 265.6v3.2h41.6c12.8 0 22.4 9.6 22.4 22.4v204.8l80 160c9.6 12.8 3.2 12.8-3.2 3.2l-166.4-166.4v-204.8c0-12.8 9.6-22.4 25.6-22.4z" fill="#999999" p-id="19710"></path></svg>