<svg width="20" height="20" viewBox="0 0 20 20" fill="none" xmlns="http://www.w3.org/2000/svg">
<path d="M10 0.5C15.2467 0.5 19.5 4.75337 19.5 10C19.4999 15.2466 15.2466 19.5 10 19.5C4.75336 19.5 0.500082 15.2466 0.5 10C0.5 6.68664 2.19661 3.77059 4.76562 2.07129L4.05176 1.04688L7.81738 0.724609L6.21484 4.14746L5.64746 3.33496C3.47438 4.7572 2.04102 7.21175 2.04102 10C2.0411 14.3957 5.60415 17.959 10 17.959C14.3959 17.959 17.9589 14.3957 17.959 10C17.959 5.60421 14.3959 2.04102 10 2.04102V0.5ZM10.0078 3.45508C13.6237 3.45508 16.5555 6.38619 16.5557 10.002C16.5557 13.6179 13.6238 16.5498 10.0078 16.5498C6.39203 16.5496 3.46094 13.6177 3.46094 10.002C3.4611 6.38633 6.39214 3.45531 10.0078 3.45508ZM9.25 10.3604L9.53125 10.5859L12.0312 12.5859L12.9688 11.4141L10.75 9.63867V6.5H9.25V10.3604Z" fill="currentColor"/>
</svg>
