<svg width="20" height="20" viewBox="0 0 20 20" fill="none" xmlns="http://www.w3.org/2000/svg">
<path d="M9.04004 10.7017C9.20427 10.7059 9.36573 10.7126 9.52441 10.7212C8.87686 11.7319 8.5 12.9327 8.5 14.2222C8.50001 15.7553 9.03207 17.1635 9.91992 18.2749H1V15.1675C1.00031 12.6968 3.59021 10.6958 8.5791 10.6958L9.04004 10.7017ZM8.5791 0.777832C9.17198 0.777809 9.75888 0.89397 10.3066 1.11865C10.8543 1.34332 11.3522 1.67226 11.7715 2.0874C12.1908 2.50268 12.524 2.99597 12.751 3.53857C12.9779 4.08114 13.0947 4.66322 13.0947 5.25049C13.0947 5.83758 12.9778 6.41902 12.751 6.96143C12.524 7.50403 12.1908 7.99732 11.7715 8.4126C11.3522 8.82775 10.8544 9.15667 10.3066 9.38135C9.75887 9.60604 9.17199 9.72219 8.5791 9.72217C7.38184 9.72208 6.23336 9.25107 5.38672 8.4126C4.54015 7.57403 4.06457 6.43634 4.06445 5.25049C4.06445 4.06453 4.54012 2.92704 5.38672 2.08838C6.23339 1.24971 7.38168 0.777923 8.5791 0.777832Z" fill="currentColor"/>
<path d="M15 9.22217C17.7614 9.22218 20 11.4608 20 14.2222C20 16.9836 17.7614 19.2222 15 19.2222C12.2386 19.2222 10 16.9836 10 14.2222C10 11.4608 12.2386 9.22217 15 9.22217ZM14.25 11.7778V14.7417L16.665 15.9487L17.335 14.6069L15.75 13.814V11.7778H14.25Z" fill="currentColor"/>
</svg>
