<?xml version="1.0" encoding="utf-8"?>
<!-- Generator: Adobe Illustrator 18.0.0, SVG Export Plug-In . SVG Version: 6.00 Build 0)  -->
<!DOCTYPE svg PUBLIC "-//W3C//DTD SVG 1.1//EN" "http://www.w3.org/Graphics/SVG/1.1/DTD/svg11.dtd">
<svg version="1.1" id="Layer_1" xmlns="http://www.w3.org/2000/svg" xmlns:xlink="http://www.w3.org/1999/xlink" x="0px" y="0px"
	 viewBox="0 0 30 30" enable-background="new 0 0 30 30" xml:space="preserve">
<g>
	<!-- User body (bottom part of person icon) -->
	<path fill="#A2A2A2" d="M20.2,17.5c-0.1,0-0.2,0-0.3,0c-0.6,4.3-3.7,7.7-7.8,8.5c1.4,0.3,3.8,0.3,8,0.3c8.6,0,9.8,0,9.8-2.5C30,20.3,25.6,17.5,20.2,17.5z"/>
	<!-- User head (top part of person icon) -->
	<path fill="#A2A2A2" d="M20.2,3.6c-2.3,0-4.3,1.7-4.8,4c2.8,1.8,4.6,5,4.6,8.6c0,0,0,0.1,0,0.1c0.1,0,0.1,0,0.2,0c3.1,0,4.9-4.8,4.9-7.6C25.1,5.9,22.9,3.6,20.2,3.6z"/>
	<!-- Clock with circular arrow (history/log symbol) -->
	<path fill="#A2A2A2" d="M1.8,12.4C1.3,13.6,1,14.9,1,16.2c0,5,4,9.1,8.9,9.1s8.9-4.1,8.9-9.1s-4-9.1-8.9-9.1c-0.5,0-1,0-1.5,0.1l-0.2,2.8c0.5-0.1,1.1-0.2,1.6-0.2c3.4,0,6.2,2.9,6.2,6.4s-2.8,6.4-6.2,6.4s-6.2-2.9-6.2-6.4c0-0.8,0.2-1.7,0.5-2.4L5,14.3c0.5,0.3,0.9,0,0.9-0.5l0.3-6.1c0-0.6-0.3-0.8-0.8-0.5l-4.9,3.3c-0.5,0.3-0.5,0.8,0,1.1L1.8,12.4z"/>
	<!-- Clock hand -->
	<path fill="#A2A2A2" d="M9.6,12.6c-0.3,0-0.5,0.2-0.5,0.5v4l3.2,3.3c0.2,0.2,0.3,0.2,0.1-0.1l-1.6-3.2c0-1.5,0-4,0-4c0-0.3-0.2-0.5-0.5-0.5H9.6z"/>
</g>
</svg>
