<?xml version="1.0" encoding="utf-8"?>
<!-- Generator: Adobe Illustrator 21.0.0, SVG Export Plug-In . SVG Version: 6.00 Build 0)  -->
<svg version="1.1" id="图层_1" xmlns="http://www.w3.org/2000/svg" xmlns:xlink="http://www.w3.org/1999/xlink" x="0px" y="0px"
	 viewBox="0 0 32 32" style="enable-background:new 0 0 32 32;" xml:space="preserve">
<style type="text/css">
	.st0{fill:#999999;}
</style>
<title>AI-search</title>
<g id="AI-search">
	<g id="search" transform="translate(-0.000000, 0.000000)">
		<path id="形状结合" class="st0" d="M14,0c7.7,0,14,6.3,14,14c0,3-0.9,5.7-2.5,8l5.7,5.7c1,1,1,2.6,0,3.6c-1,1-2.6,1-3.6,0
			L22,25.6c-2.3,1.6-5,2.5-8,2.5c-7.7,0-14-6.3-14-14C0,6.3,6.3,0,14,0z M14,4C8.5,4,4,8.5,4,14s4.5,10,10,10s10-4.5,10-10
			S19.5,4,14,4z"/>
		<path id="形状结合_1_" class="st0" d="M12.4,8c0.5,0,0.9,0.3,1.1,0.8l3.1,9.7c0.2,0.7-0.3,1.5-1.1,1.5h-0.1
			c-0.5,0-1-0.3-1.1-0.8l-0.6-2.2H9.9l-0.6,2.2C9.1,19.7,8.7,20,8.1,20c-0.8,0-1.3-0.8-1.1-1.5l3.1-9.7C10.3,8.3,10.8,8,11.3,8H12.4
			z M11.8,9.8L11.8,9.8c-0.4,1.3-0.7,2.7-1.1,3.9l-0.4,1.3h2.9l-0.4-1.3C12.5,12.5,12.2,11.1,11.8,9.8z M19.9,8
			C20.5,8,21,8.5,21,9.1v9.7c0,0.6-0.5,1.1-1.1,1.1h-0.1c-0.6,0-1.1-0.5-1.1-1.1V9.1c0-0.6,0.5-1.1,1.1-1.1H19.9z"/>
	</g>
</g>
</svg>
