<svg width="32" height="32" viewBox="0 0 32 32" fill="none" xmlns="http://www.w3.org/2000/svg">
<path d="M14 8.00037C16.7614 8.00037 19 10.239 19 13.0004V22.0004H16V17.0004H13V14.0004H16V13.0004C16 11.8958 15.1046 11.0004 14 11.0004C12.8954 11.0004 12 11.8958 12 13.0004V22.0004H9V13.0004C9.00002 10.239 11.2386 8.00037 14 8.00037Z" fill="black"/>
<path d="M23.5 22.0004H20.5V12.5004H23.5V22.0004Z" fill="black"/>
<path d="M22 8.50037C22.8284 8.50037 23.5 9.17194 23.5 10.0004C23.4997 10.8285 22.8282 11.5004 22 11.5004C21.1718 11.5004 20.5003 10.8285 20.5 10.0004C20.5 9.17194 21.1716 8.50037 22 8.50037Z" fill="black"/>
<path fill-rule="evenodd" clip-rule="evenodd" d="M16 0.499634C24.7299 0.499634 32 7.09718 32 15.4645C31.9997 23.8315 24.7297 30.4274 16 30.4274C14.4247 30.4274 12.8992 30.2146 11.457 29.816C11.4291 29.8083 11.3991 29.7979 11.3672 29.7887L4.5 31.5004L5.08008 26.4039C5.0684 26.3936 5.05731 26.3838 5.04688 26.3746C1.95784 23.6613 0.000168611 19.7866 0 15.4645C0 7.09718 7.27007 0.499634 16 0.499634ZM16 3.49963C8.71368 3.49963 3 8.95953 3 15.4645C3.00017 18.8487 4.52837 21.9257 7.02734 24.1207C7.13858 24.2184 7.30571 24.3658 7.43945 24.486C7.50691 24.5466 7.5671 24.6023 7.61133 24.6422C7.63343 24.6621 7.65163 24.6798 7.66406 24.691C7.67026 24.6966 7.67638 24.6998 7.67969 24.7028L7.68359 24.7067L8.27539 25.2438L8.16406 26.0328L7.88867 27.9567L10.7305 26.8121L11.2227 26.6129L11.7324 26.7692H11.7363C11.7363 26.7692 11.743 26.7715 11.748 26.7731C11.7581 26.7762 11.7727 26.7812 11.791 26.7867C11.8278 26.798 11.8791 26.8127 11.9355 26.8297C12.0534 26.8652 12.1794 26.9043 12.2559 26.9254C13.439 27.2524 14.6961 27.4274 16 27.4274C23.2861 27.4274 28.9997 21.9692 29 15.4645C29 8.95953 23.2863 3.49963 16 3.49963Z" fill="black"/>
</svg>
