<svg width="16" height="16" viewBox="0 0 16 16" fill="none" xmlns="http://www.w3.org/2000/svg">
<path d="M14.25 7.42773C14.25 4.23054 11.4927 1.56641 8 1.56641C4.50725 1.56641 1.75 4.23054 1.75 7.42773C1.75007 9.16643 2.55824 10.7376 3.86035 11.8184C3.87438 11.83 3.89843 11.849 3.9209 11.8672C3.93165 11.8759 3.94119 11.884 3.94824 11.8896C3.95161 11.8924 3.95413 11.8949 3.95605 11.8965L3.95898 11.8984L4.26367 12.1436L4.15918 13.6982L5.78906 13.0791L6.00684 12.9961L6.23242 13.0518L6.24219 13.0537L6.24512 13.0547C6.24683 13.0551 6.24956 13.0558 6.25293 13.0566L6.60156 13.1416L6.94141 13.2051C7.28505 13.26 7.6387 13.2891 8 13.2891C11.4927 13.2891 14.2499 10.6248 14.25 7.42773ZM15.75 7.42773C15.7499 11.5329 12.2392 14.7891 8 14.7891C7.41232 14.7891 6.83883 14.7266 6.28711 14.6084C6.23307 14.5968 6.16566 14.5798 6.10254 14.5645L2.50684 15.9336L2.71582 12.8096C1.20668 11.4723 0.250065 9.56096 0.25 7.42773C0.25 3.32249 3.76076 0.0664063 8 0.0664062C12.2392 0.0664062 15.75 3.32249 15.75 7.42773Z" fill="black"/>
<path d="M7.82324 6.32959C7.82324 5.83429 7.422 5.43235 6.92676 5.43213C6.43132 5.43213 6.0293 5.83416 6.0293 6.32959V10.5386H4.5293V6.32959C4.5293 5.00573 5.6029 3.93213 6.92676 3.93213C8.25043 3.93235 9.32324 5.00586 9.32324 6.32959V10.5386H7.82324V6.32959Z" fill="black"/>
<path d="M8.388 6.86018V8.36018H6.44366V6.86018H8.388Z" fill="black"/>
<path d="M11.5163 6.14616V10.5387H10.0163V6.14616H11.5163Z" fill="black"/>
<path d="M11.6006 4.81601C11.6006 5.25784 11.2424 5.61601 10.8006 5.61601C10.3588 5.61601 10.0006 5.25784 10.0006 4.81601C10.0006 4.37418 10.3588 4.01601 10.8006 4.01601C11.2424 4.01601 11.6006 4.37418 11.6006 4.81601Z" fill="black"/>
</svg>
