<?xml version="1.0" encoding="utf-8"?>
<!-- Generator: Adobe Illustrator 21.0.0, SVG Export Plug-In . SVG Version: 6.00 Build 0)  -->
<svg version="1.1" id="图层_1" xmlns="http://www.w3.org/2000/svg" xmlns:xlink="http://www.w3.org/1999/xlink" x="0px" y="0px"
	 viewBox="0 0 32 32" style="enable-background:new 0 0 32 32;" xml:space="preserve">
<title>ai</title>
<path id="形状" class="st0" d="M16.1,0C24.9,0,32,6.8,32,15s-7.1,15-15.9,15c-0.1,0-0.3,0-0.6,0c-0.4,0-3.7,0.2-4.9,0.6
	c-1,0.2-2.8,0.9-3.9,1.2C6.6,31.9,6.2,32,6,32c-0.5,0-0.9-0.4-1-1c-0.2-1.1-0.2-3,0.4-4.7C2.1,23.5,0,19.6,0,15
	C0.1,6.8,7.2,0,16.1,0z M16,3C8.8,3,3,8.6,3,15.4c0,3.5,1.7,6.6,4.5,9.1l1.2,1.1c-0.4,0.8-0.7,1.3-0.8,1.7
	c-0.2,0.5-0.3,1.3-0.2,1.7c0.8-0.4,2-1,2.9-1.2c1.7-0.4,4.2-0.6,5.4-0.6c5.7,0,13-5,13-11.8S23.2,3,16,3z M13.1,6.9
	C10.3,6.9,8,9.1,8,11.8v10c0,0.1,0.1,0.3,0.3,0.3h2.8V11.9c0-1,0.9-1.9,1.9-1.9s1.9,0.9,1.9,1.9v2.3H12c-0.1,0-0.3,0-0.4,0.1
	c-0.1,0.1-0.1,0.3-0.1,0.4v1.9c0,0.4,0.3,0.6,0.6,0.6H15v4.9h2.8c0.1,0,0.3-0.1,0.3-0.3v-10C18.1,9.1,15.9,6.9,13.1,6.9L13.1,6.9z
		M22.4,11h-1.8c-0.4,0-0.6,0.2-0.6,0.6v9.8c0,0.4,0.2,0.6,0.6,0.6h1.8c0.4,0,0.6-0.2,0.6-0.6v-9.8C23,11.2,22.8,11,22.4,11z
		M21.5,10c0.8,0,1.5-0.7,1.5-1.5S22.3,7,21.5,7S20,7.7,20,8.5S20.7,10,21.5,10z" fill="currentColor"/>

</svg>
