<?xml version="1.0" encoding="utf-8"?>
<!-- Generator: Adobe Illustrator 18.0.0, SVG Export Plug-In . SVG Version: 6.00 Build 0)  -->
<!DOCTYPE svg PUBLIC "-//W3C//DTD SVG 1.1//EN" "http://www.w3.org/Graphics/SVG/1.1/DTD/svg11.dtd">
<svg version="1.1" id="Layer_1" xmlns="http://www.w3.org/2000/svg" xmlns:xlink="http://www.w3.org/1999/xlink" x="0px" y="0px"
	 viewBox="0 0 24 24" enable-background="new 0 0 24 24" xml:space="preserve">
<path fill="#A3A3A3" d="M12.1,0.6C9.8,3.6,5.3,4,4.2,4C4.1,4,4,4.1,4,4.2v5l0,6c0,0,0,0,0,0c2.6,6.3,7.9,8.1,7.9,8.1
	c5.5-1.6,8.1-7.8,8.1-7.9c0,0,0,0,0,0L20,4c0,0,0,0,0,0C14.2,3.7,12.2,0.8,12.1,0.6C12.1,0.6,12.1,0.6,12.1,0.6z M14.2,15.8
	l-2.4-2.4c0,0,0,0,0,0l-2.2,2.2c0,0,0,0,0,0l-1.2-1.2c0,0,0,0,0,0l2.2-2.2c0,0,0,0,0,0l-2-2c0,0,0,0,0,0L9.9,9c0,0,0,0,0,0l2,2
	c0,0,0,0,0,0L14,8.8c0,0,0,0,0,0l1.2,1.2c0,0,0,0,0,0l-2.2,2.2c0,0,0,0,0,0l2.4,2.4c0,0,0,0,0,0L14.2,15.8
	C14.2,15.8,14.2,15.8,14.2,15.8z"/>
</svg>
