<?xml version="1.0" encoding="utf-8"?>
<!-- Generator: Adobe Illustrator 21.0.0, SVG Export Plug-In . SVG Version: 6.00 Build 0)  -->
<svg version="1.1" id="图层_1" xmlns="http://www.w3.org/2000/svg" xmlns:xlink="http://www.w3.org/1999/xlink" x="0px" y="0px"
	 viewBox="0 0 32 32" style="enable-background:new 0 0 32 32;" xml:space="preserve">
<style type="text/css">
	.st0{fill:#FFFFFF;}
	.st1{fill:#949494;}
</style>
<g>
	<path fill="currentColor" id="path-1" class="st0" d="M17.6,17.6v4.8c0,0.9-0.7,1.6-1.6,1.6s-1.6-0.7-1.6-1.6v-3.2c0-0.9-0.7-1.6-1.6-1.6
		c-0.9,0-1.6-0.7-1.6-1.6s0.7-1.6,1.6-1.6h1.6C16.2,14.4,17.6,15.8,17.6,17.6L17.6,17.6z M29,27.3c0,0.9-0.7,1.7-1.6,1.7H4.6
		C3.7,29,3,28.3,3,27.3V10.7C3,9.7,3.7,9,4.6,9h22.8c0.9,0,1.6,0.7,1.6,1.7V27.3z M28.8,1.6c0-0.9-0.7-1.6-1.6-1.6
		c-0.9,0-1.6,0.7-1.6,1.6V3h-8V1.6C17.6,0.7,16.9,0,16,0s-1.6,0.7-1.6,1.6V3h-8V1.6C6.4,0.7,5.7,0,4.8,0S3.2,0.7,3.2,1.6V3
		C1.4,3,0,4.4,0,6.2v22.6C0,30.6,1.4,32,3.2,32h25.6c1.8,0,3.2-1.4,3.2-3.2V6.2C32,4.4,30.6,3,28.8,3V1.6z"/>
</g>
<title>app-calendar</title>
<g id="app-calendar">
	<g id="calendar">
		<path fill="currentColor" id="path-1_1_" class="st1" d="M17.6,17.6v4.8c0,0.9-0.7,1.6-1.6,1.6s-1.6-0.7-1.6-1.6v-3.2c0-0.9-0.7-1.6-1.6-1.6
			c-0.9,0-1.6-0.7-1.6-1.6s0.7-1.6,1.6-1.6h1.6C16.2,14.4,17.6,15.8,17.6,17.6L17.6,17.6z M29,27.3c0,0.9-0.7,1.7-1.6,1.7H4.6
			C3.7,29,3,28.3,3,27.3V10.7C3,9.7,3.7,9,4.6,9h22.8c0.9,0,1.6,0.7,1.6,1.7V27.3z M28.8,1.6c0-0.9-0.7-1.6-1.6-1.6
			c-0.9,0-1.6,0.7-1.6,1.6V3h-8V1.6C17.6,0.7,16.9,0,16,0s-1.6,0.7-1.6,1.6V3h-8V1.6C6.4,0.7,5.7,0,4.8,0S3.2,0.7,3.2,1.6V3
			C1.4,3,0,4.4,0,6.2v22.6C0,30.6,1.4,32,3.2,32h25.6c1.8,0,3.2-1.4,3.2-3.2V6.2C32,4.4,30.6,3,28.8,3V1.6z"/>
	</g>
</g>
</svg>
