<?xml version="1.0" encoding="utf-8"?>
<!-- Generator: Adobe Illustrator 21.0.0, SVG Export Plug-In . SVG Version: 6.00 Build 0)  -->
<svg version="1.1" id="图层_1" xmlns="http://www.w3.org/2000/svg" xmlns:xlink="http://www.w3.org/1999/xlink" x="0px" y="0px"
	 viewBox="0 0 32 32" style="enable-background:new 0 0 32 32;" xml:space="preserve">
<style type="text/css">
	.st0{fill:#949494;}
</style>
<title>app-external_links</title>
<g id="app-external_links">
	<path fill="currentColor" id="形状结合" class="st0" d="M18,3v3H5C3.9,6,3.1,6.8,3,7.9L3,8v19c0,1.1,0.8,1.9,1.9,2L5,29h19c1.1,0,1.9-0.8,2-1.9
		l0-0.1V14h3v15c0,1.7-1.3,3-3,3H3c-1.7,0-3-1.3-3-3V6c0-1.7,1.3-3,3-3H18z"/>
	<path fill="currentColor" id="椭圆形" class="st0" d="M27.5,15.5c0.8,0,1.5-0.7,1.5-1.5s-0.7-1.5-1.5-1.5S26,13.2,26,14S26.7,15.5,27.5,15.5z"/>
	<path fill="currentColor" id="椭圆形_1_" class="st0" d="M18,6c0.8,0,1.5-0.7,1.5-1.5S18.8,3,18,3s-1.5,0.7-1.5,1.5S17.2,6,18,6z"/>
	<path fill="currentColor" id="形状结合_1_" class="st0" d="M32,1.5l0,0.1c0,0.1,0,0.1,0,0.2v7.3c0,1.2-0.5,1.8-1.5,1.8S29,10.4,29,9.2l0-3.5
		L14.5,20.2c-0.7,0.7-1.4,0.8-2.1,0.1l-0.1-0.1c-0.8-0.8-0.8-1.5,0-2.3L27.1,3h-4.3C21.6,3,21,2.5,21,1.5S21.6,0,22.8,0h7.3
		c0.1,0,0.1,0,0.2,0l0.1,0l0,0c0.5,0,0.8,0.1,1.1,0.4l0.1,0.1C31.9,0.7,32,1.1,32,1.5z"/>
</g>
</svg>
