<?xml version="1.0" encoding="utf-8"?>
<!-- Generator: Adobe Illustrator 21.0.0, SVG Export Plug-In . SVG Version: 6.00 Build 0)  -->
<svg version="1.1" id="图层_1" xmlns="http://www.w3.org/2000/svg" xmlns:xlink="http://www.w3.org/1999/xlink" x="0px" y="0px"
	 viewBox="0 0 32 32" style="enable-background:new 0 0 32 32;" xml:space="preserve">
<style type="text/css">
	.st0{fill:#949494;}
</style>
<title>app-post-sale</title>
<g id="app-post-sale">
	<g id="post-sale" transform="translate(0.000000, -0.000000)">
		<path fill="currentColor" id="Icon" class="st0" d="M24.4,20.5c0.1-0.1,0.3-0.1,0.5-0.1c4.6,2.3,7.1,6.2,7.1,11.1c0,0.2-0.2,0.4-0.4,0.4l0,0H0.4
			C0.2,32,0,31.8,0,31.6c0-4.9,2.5-8.8,7-11.1c0.2-0.1,0.4,0,0.5,0.1c2.3,2.1,5.3,3.3,8.4,3.3C19.1,23.8,22.1,22.6,24.4,20.5z
			 M24.5,24.3c-2.2,1.3-5.6,2.2-8.5,2.2c-3.3,0-5.9-0.8-8.4-2.2c-1.8,0.8-3.6,2.4-4.1,4.9l0,0h25.1C28.3,27.2,26.9,25.4,24.5,24.3z
			 M16,4c5.1,0,9.2,4,9.2,9S21,22,16,22S6.8,18,6.8,13S10.9,4,16,4z M16,7.2c-3.3,0-6.1,2.7-6.1,5.9c0,3.3,2.7,5.9,6.1,5.9
			s6.1-2.7,6.1-5.9S19.4,7.2,16,7.2z M15.9,0c5.6,0,10.6,3.4,12.4,8.6c1.3,0.8,2.2,2.2,2.2,3.8c0,2.4-2,4.4-4.5,4.4
			c-0.2,0-0.4-0.2-0.4-0.4l0,0V8.4c0-0.1,0.1-0.2,0.1-0.3c-1.9-3.6-5.7-5.9-9.8-5.9S8,4.5,6.1,8c0.1,0.1,0.1,0.2,0.1,0.3l0,0v7.9
			c0,0.2-0.2,0.4-0.4,0.4c-2.5,0-4.5-2-4.5-4.4c0-1.5,0.8-3,2.1-3.8C5.4,3.4,10.4,0,15.9,0z"/>
	</g>
</g>
</svg>
