<?xml version="1.0" encoding="utf-8"?>
<!-- Generator: Adobe Illustrator 21.0.0, SVG Export Plug-In . SVG Version: 6.00 Build 0)  -->
<svg version="1.1" id="图层_1" xmlns="http://www.w3.org/2000/svg" xmlns:xlink="http://www.w3.org/1999/xlink" x="0px" y="0px"
	 viewBox="0 0 32 32" style="enable-background:new 0 0 32 32;" xml:space="preserve">
<style type="text/css">
	.st0{fill:#FFFFFF;}
	.st1{fill:#949494;}
</style>
<g>
	<path fill="currentColor" id="path-1" class="st0" d="M29,13H3V4.7C3,3.8,3.5,3,4.4,3h5.5c0.6,0,1.2,0.4,1.5,0.9l1.8,3.2C13.7,8.3,14.9,9,16.1,9h11.1
		c0.9,0,1.8,0.7,1.8,1.7V13z M29,27.4c0,0.9-0.9,1.6-1.8,1.6H4.4C3.5,29,3,28.3,3,27.4V16h26V27.4z M17.8,6c-1.2,0-2.3-0.7-2.9-1.8
		l-1.4-2.5C13,0.7,11.9,0,10.6,0H3C1.3,0,0,1.4,0,3.2v25.6C0,30.6,1.3,32,3,32h25.6c1.8,0,3.4-1.4,3.4-3.2V9.2C32,7.5,30.4,6,28.6,6
		H17.8z"/>
</g>
<title>app-folder</title>
<g id="app-folder">
	<g id="folder">
		<path fill="currentColor" id="path-1_1_" class="st1" d="M29,13H3V4.7C3,3.8,3.5,3,4.4,3h5.5c0.6,0,1.2,0.4,1.5,0.9l1.8,3.2C13.7,8.3,14.9,9,16.1,9
			h11.1c0.9,0,1.8,0.7,1.8,1.7V13z M29,27.4c0,0.9-0.9,1.6-1.8,1.6H4.4C3.5,29,3,28.3,3,27.4V16h26V27.4z M17.8,6
			c-1.2,0-2.3-0.7-2.9-1.8l-1.4-2.5C13,0.7,11.9,0,10.6,0H3C1.3,0,0,1.4,0,3.2v25.6C0,30.6,1.3,32,3,32h25.6c1.8,0,3.4-1.4,3.4-3.2
			V9.2C32,7.5,30.4,6,28.6,6H17.8z"/>
	</g>
</g>
</svg>
