<?xml version="1.0" encoding="utf-8"?>
<!-- Generator: Adobe Illustrator 21.0.0, SVG Export Plug-In . SVG Version: 6.00 Build 0)  -->
<svg version="1.1" id="图层_1" xmlns="http://www.w3.org/2000/svg" xmlns:xlink="http://www.w3.org/1999/xlink" x="0px" y="0px"
	 viewBox="0 0 32 32" style="enable-background:new 0 0 32 32;" xml:space="preserve">
<style type="text/css">
	.st0{fill:#999;}
</style>
<title>app-address-book</title>
<g id="app-address-book">
	<g id="通讯录">
		<path fill="currentColor" id="形状结合" class="st0" d="M27.7,0C30.3,0,32,1.7,32,4.3v23.4c0,2.6-1.7,4.3-4.3,4.3h-21C4,32,2,30.3,2,27.7v-2.3
			C2,24.6,2.8,24,3.5,24S5,24.6,5,25.3v2C5,28.5,5.5,29,6.7,29h20.7c1.1,0,1.7-0.5,1.7-1.7V4.7C29,3.5,28.5,3,27.3,3H6.7
			C5.5,3,5,3.5,5,4.7v1C5,6.4,4.3,7,3.5,7S2,6.4,2,5.7V4.3C2,1.7,4,0,6.7,0H27.7z M18,6c3.3,0,6,2.7,6,6c0,1.9-0.9,3.7-2.4,4.8
			c1,0.4,1.9,1.1,2.7,1.9c1.7,1.7,2.6,4,2.6,6.4c0,0.8-0.7,1.5-1.5,1.5S24,25.8,24,25c0-3.3-2.7-6-6-6s-6,2.7-6,6
			c0,0.8-0.7,1.5-1.5,1.5C9.7,26.5,9,25.8,9,25c0-2.4,0.9-4.7,2.6-6.4c0.8-0.8,1.7-1.4,2.7-1.9C12.9,15.7,12,13.9,12,12
			C12,8.7,14.7,6,18,6z M5.5,19C6.3,19,7,19.7,7,20.5S6.3,22,5.5,22h-4C0.7,22,0,21.3,0,20.5S0.7,19,1.5,19H5.5z M5.5,14
			C6.3,14,7,14.7,7,15.5C7,16.3,6.3,17,5.5,17h-4C0.7,17,0,16.3,0,15.5C0,14.7,0.7,14,1.5,14H5.5z M18,8.8c-1.8,0-3.2,1.5-3.2,3.2
			s1.4,3.2,3.2,3.2c1.8,0,3.2-1.5,3.2-3.2S19.8,8.8,18,8.8z M5.5,9C6.3,9,7,9.7,7,10.5S6.3,12,5.5,12h-4C0.7,12,0,11.3,0,10.5
			S0.7,9,1.5,9H5.5z"/>
	</g>
</g>
</svg>
