<?xml version="1.0" encoding="utf-8"?>
<!-- Generator: Adobe Illustrator 21.0.0, SVG Export Plug-In . SVG Version: 6.00 Build 0)  -->
<svg version="1.1" id="图层_1" xmlns="http://www.w3.org/2000/svg" xmlns:xlink="http://www.w3.org/1999/xlink" x="0px" y="0px"
	 viewBox="0 0 32 32" style="enable-background:new 0 0 32 32;" xml:space="preserve">
<style type="text/css">
	.st0{fill:#949494;}
</style>
<title>app-logistics</title>
<g id="app-logistics">
	<g id="物流" transform="translate(0.000000, 3.000000)">
		<path fill="currentColor" id="形状" class="st0" d="M16.1,0H1.9C0.9,0,0,0.9,0,2v16c0,1.1,0.9,2,1.9,2h14.1c1.1,0,1.9-0.9,1.9-2V2
			C18,0.9,17.1,0,16.1,0z M15,3v14H3V3H15z M8.6,6.1c0.7,0,1.3,0.5,1.4,1.2l0,0.2v2.9h1.8c0.7,0,1.3,0.5,1.4,1.2l0,0.2
			c0,0.7-0.5,1.3-1.2,1.4l-0.2,0H8.6c-0.7,0-1.3-0.5-1.4-1.2l0-0.2V7.6C7.2,6.8,7.8,6.1,8.6,6.1L8.6,6.1z"/>
		<path fill="currentColor" id="形状_1_" class="st0" d="M24.3,3h-7.1C16,3,15,3.9,15,5v15h14.9c1.2,0,2.1-0.9,2.1-2v-8c0-0.5-0.2-1-0.6-1.4l-5.6-5.1
			C25.4,3.2,24.8,3,24.3,3z M24,6l5,4.4V17H18V6H24z"/>
		<path fill="currentColor" id="路径" class="st0" d="M21.2,8h2.5C24.6,8,25,8.5,25,9.5l0,0c0,1-0.4,1.5-1.2,1.5h-2.5c-0.8,0-1.2-0.5-1.2-1.5l0,0
			C20,8.5,20.4,8,21.2,8z"/>
		<path fill="currentColor" id="形状_2_" class="st0" d="M8.7,17.3c-2.8,0-5,2.2-5,5s2.2,5,5,5s5-2.2,5-5S11.4,17.3,8.7,17.3z M8.7,20.3
			c1.1,0,2,0.9,2,2c0,1.1-0.9,2-2,2s-2-0.9-2-2C6.7,21.2,7.6,20.3,8.7,20.3z M24.7,17.3c-2.8,0-5,2.2-5,5s2.2,5,5,5s5-2.2,5-5
			S27.4,17.3,24.7,17.3L24.7,17.3z M24.7,20.3c1.1,0,2,0.9,2,2c0,1.1-0.9,2-2,2c-1.1,0-2-0.9-2-2C22.7,21.2,23.6,20.3,24.7,20.3z"/>
	</g>
</g>
</svg>
