<?xml version="1.0" encoding="utf-8"?>
<!-- Generator: Adobe Illustrator 21.0.0, SVG Export Plug-In . SVG Version: 6.00 Build 0)  -->
<svg version="1.1" id="图层_1" xmlns="http://www.w3.org/2000/svg" xmlns:xlink="http://www.w3.org/1999/xlink" x="0px" y="0px"
	 viewBox="0 0 32 32" style="enable-background:new 0 0 32 32;" xml:space="preserve">
<style type="text/css">
	.st0{fill:#999;}
</style>
<title>app-achievement-distribution</title>
<g id="app-achievement-distribution">
	<g id="achievement-distribution" transform="translate(0.000000, 0.000342)">
		<path fill="currentColor" id="形状" class="st0" d="M31.7,16.5C31.7,16.5,31.7,16.5,31.7,16.5L27.9,6.2c0-0.1,0-0.2,0.1-0.2h2.9
			C30.9,6,31,5.9,31,5.9c0-0.5-0.7-2-1-2.3S29.2,3,28.7,3H18c-0.3,0-0.5-0.2-0.5-0.5V1c0-0.5-1-1-1.5-1c-0.5,0-1.5,0.5-1.5,1v1.5
			C14.5,2.8,14.3,3,14,3H3.4C2.4,3,1,4.8,1,5.9c0,0,0,0.1,0,0.1s0.1,0,0.1,0h2.8C4,6,4.1,6.1,4.1,6.2L0.3,16.5c0,0,0,0,0,0.1
			c-0.4,0.8-0.4,1.7,0.1,2.5c0.4,0.6,0.8,1.1,1.4,1.5C2.9,21.5,4.4,22,6.1,22c2.5,0,4.7-1.3,5.8-3.2c0.4-0.7-0.1-2.3-0.1-2.3
			L8.1,6.2c0-0.1,0-0.2,0.1-0.2h3.3c1.7,0,3,1.3,3,3v19.2c0,0.7-0.5,1.4-1.3,1.5c-2,0.3-3.8,1.4-4.7,2.3h15c-1-0.9-2.5-2.1-4.6-2.4
			c-0.8-0.1-1.3-0.7-1.3-1.5V9c0-1.7,1.3-3,3-3h3.3c0.1,0,0.1,0.1,0.1,0.2c-2.5,6.9-3.8,10.4-3.8,10.4c-0.3,0.8-0.4,1.7,0,2.4
			c1.1,1.8,3.3,3.1,5.7,3.1c2.5,0,4.7-1.3,5.8-3.2C32.1,18.1,32.1,17.2,31.7,16.5z M9.9,18H2.2L6,7.8c0-0.1,0.2-0.1,0.2,0L9.9,18z
			 M25.8,7.8c0-0.1,0.2-0.1,0.2,0L29.7,18h-7.6L25.8,7.8z"/>
	</g>
</g>
</svg>
