<?xml version="1.0" encoding="utf-8"?>
<!-- Generator: Adobe Illustrator 21.0.0, SVG Export Plug-In . SVG Version: 6.00 Build 0)  -->
<svg version="1.1" id="图层_1" xmlns="http://www.w3.org/2000/svg" xmlns:xlink="http://www.w3.org/1999/xlink" x="0px" y="0px"
	 viewBox="0 0 32 32" style="enable-background:new 0 0 32 32;" xml:space="preserve">
<style type="text/css">
	.st0{fill:#999999;}
</style>
<title>app-version</title>
<g id="app-version">
	<path fill="currentColor" id="形状" class="st0" d="M16,1C11,1,6.5,3.5,3.8,7.3V4.7c0-0.8-0.6-1.4-1.4-1.4S1,4,1,4.7v5.6c0,0.8,0.6,1.4,1.4,1.4h6.1
		c0.8,0,1.4-0.6,1.4-1.4C9.9,9.6,9.3,9,8.5,9H6.1c2.2-3.1,5.8-5.2,9.9-5.2c6.7,0,12.2,5.5,12.2,12.2c0,6.7-5.5,12.2-12.2,12.2
		c-5.7,0-10.4-3.9-11.8-9.1l0,0c-0.2-0.6-0.7-1-1.3-1c-0.8,0-1.4,0.6-1.4,1.4c0,0.1,0,0.3,0.1,0.4l0,0c0,0,0,0.1,0,0.1
		c0,0,0,0.1,0,0.1C3.4,26.4,9.1,31,16,31c8.3,0,15-6.7,15-15C31,7.7,24.3,1,16,1L16,1z M16,7.3c-0.8,0-1.4,0.6-1.4,1.4v8.4
		c0,0.8,0.6,1.4,1.4,1.4h6.1c0.8,0,1.4-0.6,1.4-1.4c0-0.8-0.6-1.4-1.4-1.4h-4.7v-7C17.4,8,16.8,7.3,16,7.3L16,7.3z"/>
</g>
</svg>
