<?xml version="1.0" encoding="utf-8"?>
<!-- Generator: Adobe Illustrator 21.0.0, SVG Export Plug-In . SVG Version: 6.00 Build 0)  -->
<svg version="1.1" id="图层_1" xmlns="http://www.w3.org/2000/svg" xmlns:xlink="http://www.w3.org/1999/xlink" x="0px" y="0px"
	 viewBox="0 0 32 32" style="enable-background:new 0 0 32 32;" xml:space="preserve">
<style type="text/css">
	.st0{fill:#949494;}
</style>
<title>app-link</title>
<g id="app-link">
	<g id="link" transform="translate(-0.111031, -0.111117)">
		<path fill="currentColor" id="形状" class="st0" d="M19.8,12.3l-0.1-0.1c-0.2-0.2-0.5-0.5-0.8-0.7L16.5,14c0.3,0.2,0.6,0.4,0.8,0.6l0.1,0.1
			c1.6,1.6,1.6,4.2,0,5.8l-6.8,6.8c-1.6,1.6-4.2,1.6-5.8,0l-0.1-0.1c-1.6-1.6-1.6-4.2,0-5.8l3.1-3.1C7.2,17,7,15.6,7,14.2L2.2,19
			c-2.9,2.9-2.9,7.8,0,10.7l0.1,0.1c2.9,2.9,7.8,2.9,10.7,0l6.8-6.8C22.8,20,22.8,15.2,19.8,12.3L19.8,12.3z M29.8,2.3l-0.1-0.1
			c-2.9-2.9-7.8-2.9-10.7,0L12.2,9c-2.9,2.9-2.9,7.8,0,10.7l0.1,0.1c0.2,0.2,0.5,0.5,0.8,0.7l2.5-2.5c-0.3-0.2-0.6-0.4-0.8-0.6
			l-0.1-0.1c-1.6-1.6-1.6-4.2,0-5.8l6.8-6.8c1.6-1.6,4.2-1.6,5.8,0l0.1,0.1c1.6,1.6,1.6,4.2,0,5.8l-3.1,3.1c0.5,1.3,0.8,2.7,0.8,4.1
			l4.8-4.8C32.7,10.1,32.7,5.3,29.8,2.3L29.8,2.3z"/>
	</g>
</g>
</svg>
