<?xml version="1.0" encoding="utf-8"?>
<!-- Generator: Adobe Illustrator 21.0.0, SVG Export Plug-In . SVG Version: 6.00 Build 0)  -->
<svg version="1.1" id="图层_1" xmlns="http://www.w3.org/2000/svg" xmlns:xlink="http://www.w3.org/1999/xlink" x="0px" y="0px"
	 viewBox="0 0 32 32" style="enable-background:new 0 0 32 32;" xml:space="preserve">
<style type="text/css">
	.st0{fill:#FFFFFF;}
	.st1{fill:#949494;}
</style>
<g>
	<path fill="currentColor" id="path-1" class="st0" d="M26,29h-5v-6H11v6H6l0-14.8l10-10l10,10L26,29z M28.8,12.8L28.8,12.8L16,0L0,16l2.3,2.3L3,17.6V32
		h11v-6h4v6h11V17.6l0.7,0.7L32,16L28.8,12.8z"/>
</g>
<title>app-home</title>
<g id="app-home">
	<g id="home">
		<path fill="currentColor" id="path-1_1_" class="st1" d="M26,29h-5v-6H11v6H6l0-14.8l10-10l10,10L26,29z M28.8,12.8L28.8,12.8L16,0L0,16l2.3,2.3
			L3,17.6V32h11v-6h4v6h11V17.6l0.7,0.7L32,16L28.8,12.8z"/>
	</g>
</g>
</svg>
