<?xml version="1.0" encoding="utf-8"?>
<!-- Generator: Adobe Illustrator 21.0.0, SVG Export Plug-In . SVG Version: 6.00 Build 0)  -->
<svg version="1.1" id="图层_1" xmlns="http://www.w3.org/2000/svg" xmlns:xlink="http://www.w3.org/1999/xlink" x="0px" y="0px"
	 viewBox="0 0 32 32" style="enable-background:new 0 0 32 32;" xml:space="preserve">
<style type="text/css">
	.st0{fill:#949494;}
</style>
<title>app-product-library</title>
<g id="app-product-library">
	<g id="product-library">
		<path fill="currentColor" id="形状" class="st0" d="M29.6,5.8L18.2,0.5c-1.4-0.6-3-0.6-4.4,0L2.5,5.9C0.9,6.7,0,8.1,0,9.8v12.3c0,1.7,1,3.1,2.5,3.9
			l11.4,5.5c0.7,0.3,1.5,0.5,2.2,0.5c0.8,0,1.5-0.2,2.2-0.5l11.2-5.4c1.6-0.8,2.6-2.3,2.5-3.9V9.8C32.1,8.1,31.2,6.7,29.6,5.8z
			 M15,3.1c0.3-0.2,0.7-0.3,1-0.3c0.3,0,0.7,0.1,1,0.2l11.4,5.2c0.1,0.1,0.3,0.2,0.5,0.3l-12.8,6.3L3.2,8.6c0.1-0.1,0.3-0.2,0.5-0.3
			L15,3.1z M3,21.3v-9.7l4.1,2v4.9c0,0.4,0.2,0.8,0.7,1c1,0.5,1.6,0.7,1.6,0.7c0.3,0,0.6-0.2,0.6-0.5V15l4.5,2.3v11l-10.2-5
			C3.5,22.9,3,22.1,3,21.3z M27.7,23.3l-10.2,5V17.4L29,11.7v9.6C29,22.1,28.5,22.9,27.7,23.3z"/>
	</g>
</g>
</svg>
