<?xml version="1.0" encoding="utf-8"?>
<!-- Generator: Adobe Illustrator 21.0.0, SVG Export Plug-In . SVG Version: 6.00 Build 0)  -->
<svg version="1.1" id="图层_1" xmlns="http://www.w3.org/2000/svg" xmlns:xlink="http://www.w3.org/1999/xlink" x="0px" y="0px"
	 viewBox="0 0 32 32" style="enable-background:new 0 0 32 32;" xml:space="preserve">
<style type="text/css">
	.st0{fill:#949494;}
</style>
<title>app-invoice</title>
<g id="app-invoice">
	<path fill="currentColor" id="形状结合" class="st0" d="M13.2,0.6L16,3l2.9-2.4c0.4-0.3,0.9-0.3,1.3,0L23,3l4.5-2.3c0.5-0.2,1.1,0,1.3,0.4
		C29,1.3,29,1.5,29,1.6v28.8c0,0.6-0.4,1-1,1c-0.2,0-0.3,0-0.4-0.1L23,29l-2.8,2.4c-0.4,0.3-0.9,0.3-1.3,0L16,29l-2.8,2.4
		c-0.4,0.3-0.9,0.3-1.3,0L9,29l-4.6,2.3c-0.5,0.2-1.1,0-1.3-0.4C3,30.7,3,30.5,3,30.4V1.6c0-0.6,0.4-1,1-1c0.2,0,0.3,0,0.5,0.1
		L8.9,3l3-2.5C12.2,0.2,12.8,0.2,13.2,0.6z M19.5,4L16,7l-3.5-3L8.9,7L6,5.5v21.1L8.9,25l3.6,3l3.5-3l3.5,3l3.5-3l3,1.6V5.5L23,7
		L19.5,4z"/>
	<path fill="currentColor" id="形状结合_1_" class="st0" d="M21.5,20c0.8,0,1.5,0.7,1.5,1.5S22.3,23,21.5,23h-11C9.7,23,9,22.3,9,21.5
		S9.7,20,10.5,20H21.5z M21.5,14.5c0.8,0,1.5,0.7,1.5,1.5c0,0.8-0.7,1.5-1.5,1.5h-11C9.7,17.5,9,16.9,9,16c0-0.8,0.7-1.5,1.5-1.5
		H21.5z M21.5,9c0.8,0,1.5,0.7,1.5,1.5S22.3,12,21.5,12h-11C9.7,12,9,11.3,9,10.5S9.7,9,10.5,9H21.5z"/>
</g>
</svg>
