<?xml version="1.0" encoding="utf-8"?>
<!-- Generator: Adobe Illustrator 21.0.0, SVG Export Plug-In . SVG Version: 6.00 Build 0)  -->
<svg version="1.1" id="图层_1" xmlns="http://www.w3.org/2000/svg" xmlns:xlink="http://www.w3.org/1999/xlink" x="0px" y="0px"
	 viewBox="0 0 32 32" style="enable-background:new 0 0 32 32;" xml:space="preserve">
<style type="text/css">
	.st0{fill:#949494;}
</style>
<title>app-inquire</title>
<g id="app-inquire">
	<path fill="currentColor" id="形状" class="st0" d="M13,26C5.8,26,0,20.1,0,13S5.8,0,13,0s13,5.8,13,13S20.1,26,13,26z M13,23c5.5,0,10-4.5,10-10
		S18.5,3,13,3S3,7.5,3,13S7.5,23,13,23z M21.4,22.1l0.8-0.8c0.7-0.7,1.7-0.7,2.3,0l7,7c0.7,0.7,0.7,1.7,0,2.3l-0.8,0.8
		c-0.7,0.7-1.7,0.7-2.3,0l-7-7C20.7,23.8,20.7,22.8,21.4,22.1z"/>
</g>
</svg>
