<?xml version="1.0" encoding="utf-8"?>
<!-- Generator: Adobe Illustrator 21.0.0, SVG Export Plug-In . SVG Version: 6.00 Build 0)  -->
<svg version="1.1" id="图层_1" xmlns="http://www.w3.org/2000/svg" xmlns:xlink="http://www.w3.org/1999/xlink" x="0px" y="0px"
	 viewBox="0 0 32 32" style="enable-background:new 0 0 32 32;" xml:space="preserve">
<style type="text/css">
	.st0{fill:#FFFFFF;}
	.st1{fill:#949494;}
</style>
<g>
	<path fill="currentColor" id="path-1" class="st0" d="M0,32h32v-3H0V32z M11,21v-4.2l9-8.3l3.1,3.4l-8,9H11z M24.8,4.2L27.5,7l-2.2,2.3l-2.9-2.9
		L24.8,4.2z M32,7.4L24.6,0L8,15.5V24h8.4L32,7.4z"/>
</g>
<title>app-edit</title>
<g id="app-edit">
	<g id="edit">
		<path fill="currentColor" id="path-1_1_" class="st1" d="M0,32h32v-3H0V32z M11,21v-4.2l9-8.3l3.1,3.4l-8,9H11z M24.8,4.2L27.5,7l-2.2,2.3l-2.9-2.9
			L24.8,4.2z M32,7.4L24.6,0L8,15.5V24h8.4L32,7.4z"/>
	</g>
</g>
</svg>
