<?xml version="1.0" encoding="utf-8"?>
<!-- Generator: Adobe Illustrator 21.0.0, SVG Export Plug-In . SVG Version: 6.00 Build 0)  -->
<svg version="1.1" id="图层_1" xmlns="http://www.w3.org/2000/svg" xmlns:xlink="http://www.w3.org/1999/xlink" x="0px" y="0px"
	 viewBox="0 0 32 32" style="enable-background:new 0 0 32 32;" xml:space="preserve">
<style type="text/css">
	.st0{fill:#949494;}
</style>
<title>app-map</title>
<g id="app-map">
	<path fill="currentColor" id="形状结合" class="st0" d="M31.4,7.2C31.8,7.5,32,7.9,32,8.3v18.8c0,0.5-0.3,1.1-0.9,1.3l-9.3,3.6
		c-0.3,0.1-0.6,0.1-0.9,0l-10.2-3.4l-8.9,3.4c-0.4,0.2-0.9,0.1-1.2-0.1C0.2,31.5,0,31.1,0,30.7V11.9c0-0.6,0.3-1.1,0.9-1.3L5.1,9
		c-0.2,1.2-0.2,2.4,0,3.6L3,13.6v14.3l6-2.5v-5.8l3,3.8v2.8l8,2.7v-5.6l3-3.8l0,8.5l6-2.3V11.1l-2.1,0.8c0.1-1.2,0.1-2.4-0.2-3.5
		l3.5-1.3C30.6,6.9,31.1,7,31.4,7.2z M8.9,2.9C12.8-1,19.1-1,23,2.9c3.5,3.3,3.9,8.5,1.2,12.4l0,0l-6.7,8.4
		c-0.1,0.1-0.2,0.2-0.3,0.3c-0.9,0.7-2.1,0.6-2.8-0.3l0,0l-6.7-8.3C5,11.5,5.5,6.2,8.9,2.9z M20.7,5.1c-2.6-2.4-6.8-2.4-9.4,0
		C9,7.3,8.7,10.6,10.5,13l0,0l4.4,5.9c0.5,0.7,1.6,0.7,2.1,0l0,0l4.4-5.9C23.3,10.6,23,7.3,20.7,5.1z M16,6c2.2,0,4,1.8,4,4
		c0,1.4-0.8,2.7-2,3.5s-2.8,0.7-4,0s-2-2-2-3.5C12,7.8,13.8,6,16,6z M16,9c-0.6,0-1,0.4-1,1c0,0.4,0.2,0.7,0.5,0.9
		c0.3,0.2,0.7,0.2,1,0c0.3-0.2,0.5-0.5,0.5-0.9C17,9.4,16.6,9,16,9z"/>
</g>
</svg>
