<?xml version="1.0" encoding="utf-8"?>
<!-- Generator: Adobe Illustrator 21.0.0, SVG Export Plug-In . SVG Version: 6.00 Build 0)  -->
<svg version="1.1" id="图层_1" xmlns="http://www.w3.org/2000/svg" xmlns:xlink="http://www.w3.org/1999/xlink" x="0px" y="0px"
	 viewBox="0 0 32 32" style="enable-background:new 0 0 32 32;" xml:space="preserve">
<style type="text/css">
	.st0{fill:#949494;}
</style>
<title>app-design</title>
<g id="app-design">
	<path fill="currentColor" id="形状结合" class="st0" d="M9,4h16c1.7,0,3,1.3,3,3v23.5c0,0.8-0.7,1.5-1.5,1.5c-0.8,0-1.4-0.6-1.5-1.4l0-0.1V7H9V4z
		 M1.5,7L1.4,7C0.6,6.9,0,6.3,0,5.5S0.6,4.1,1.4,4l0.1,0H7v3H1.5z"/>
	<path fill="currentColor" id="形状结合_1_" class="st0" d="M5.5,0C6.3,0,6.9,0.6,7,1.4l0,0.1V25h16v3H7c-1.7,0-3-1.3-3-3V1.5C4,0.7,4.6,0.1,5.4,0
		L5.5,0z M25,25h5.5l0.1,0c0.8,0.1,1.4,0.7,1.4,1.5s-0.6,1.4-1.4,1.5l-0.1,0H25V25z"/>
</g>
</svg>
