<?xml version="1.0" encoding="utf-8"?>
<!-- Generator: Adobe Illustrator 21.0.0, SVG Export Plug-In . SVG Version: 6.00 Build 0)  -->
<svg version="1.1" id="图层_1" xmlns="http://www.w3.org/2000/svg" xmlns:xlink="http://www.w3.org/1999/xlink" x="0px" y="0px"
	 viewBox="0 0 32 32" style="enable-background:new 0 0 32 32;" xml:space="preserve">
<style type="text/css">
	.st0{fill:#FFFFFF;}
	.st1{fill:#949494;}
</style>
<g>
	<path fill="currentColor" id="path-1" class="st0" d="M26.5,29.2h-21c-1.1,0-2-1.2-1.5-2.2c2-4.9,6.6-7.8,12-7.8c5.4,0,10.1,2.8,12,7.8
		C28.5,28,27.6,29.2,26.5,29.2 M16,3c3.9,0,7,2.9,7,6.5S19.9,16,16,16c-3.9,0-7-2.9-7-6.5S12.1,3,16,3z M31.9,28.2
		c-1.2-5.4-4.9-9.3-9.8-11.1c2.6-2,4.1-5.3,3.5-9c-0.6-4.2-4.2-7.6-8.5-8c-5.9-0.7-11,3.9-11,9.5c0,3,1.4,5.7,3.7,7.5
		C5,18.9,1.3,22.8,0.1,28.2c-0.4,2,1.2,3.8,3.2,3.8h25.4C30.8,32,32.4,30.2,31.9,28.2"/>
</g>
<title>app-personnel</title>
<g id="app-personnel">
	<g id="personnel">
		<path fill="currentColor" id="path-1_1_" class="st1" d="M26.5,29.2h-21c-1.1,0-2-1.2-1.5-2.2c2-4.9,6.6-7.8,12-7.8c5.4,0,10.1,2.8,12,7.8
			C28.5,28,27.6,29.2,26.5,29.2 M16,3c3.9,0,7,2.9,7,6.5S19.9,16,16,16c-3.9,0-7-2.9-7-6.5S12.1,3,16,3z M31.9,28.2
			c-1.2-5.4-4.9-9.3-9.8-11.1c2.6-2,4.1-5.3,3.5-9c-0.6-4.2-4.2-7.6-8.5-8c-5.9-0.7-11,3.9-11,9.5c0,3,1.4,5.7,3.7,7.5
			C5,18.9,1.3,22.8,0.1,28.2c-0.4,2,1.2,3.8,3.2,3.8h25.4C30.8,32,32.4,30.2,31.9,28.2"/>
	</g>
</g>
</svg>
