<?xml version="1.0" encoding="utf-8"?>
<!-- Generator: Adobe Illustrator 21.0.0, SVG Export Plug-In . SVG Version: 6.00 Build 0)  -->
<svg version="1.1" id="图层_1" xmlns="http://www.w3.org/2000/svg" xmlns:xlink="http://www.w3.org/1999/xlink" x="0px" y="0px"
	 viewBox="0 0 32 32" style="enable-background:new 0 0 32 32;" xml:space="preserve">
<style type="text/css">
	.st0{fill:#FFFFFF;}
	.st1{fill:#949494;}
</style>
<g>
	<path fill="currentColor" id="path-1" class="st0" d="M23,8c1.1,0,2,0.9,2,2s-0.9,2-2,2s-2-0.9-2-2S21.9,8,23,8z M19.5,16.4c0.6-0.9,1.6-0.9,2.2,0
		l3.8,5.7c0.3,0.5,0.1,0.8-0.4,0.8H7c-0.5,0-0.8-0.4-0.5-0.8l5.9-9.5c0.6-0.9,1.5-0.9,2.1,0l3.7,5.7L19.5,16.4z M29,26.3
		c0,0.9-0.7,1.7-1.6,1.7H4.6C3.7,28,3,27.2,3,26.3V5.7C3,4.8,3.7,4,4.6,4h22.8C28.3,4,29,4.8,29,5.7V26.3z M3.2,1C1.4,1,0,2.5,0,4.3
		v23.3C0,29.5,1.4,31,3.2,31h25.6c1.8,0,3.2-1.5,3.2-3.3V4.3C32,2.5,30.6,1,28.8,1H3.2z"/>
</g>
<title>app-gallery</title>
<g id="app-gallery">
	<g id="image_x5F_picture-_x5B__x23_973_x5D_">
		<path fill="currentColor" id="path-1_1_" class="st1" d="M23,8c1.1,0,2,0.9,2,2s-0.9,2-2,2s-2-0.9-2-2S21.9,8,23,8z M19.5,16.4c0.6-0.9,1.6-0.9,2.2,0
			l3.8,5.7c0.3,0.5,0.1,0.8-0.4,0.8H7c-0.5,0-0.8-0.4-0.5-0.8l5.9-9.5c0.6-0.9,1.5-0.9,2.1,0l3.7,5.7L19.5,16.4z M29,26.3
			c0,0.9-0.7,1.7-1.6,1.7H4.6C3.7,28,3,27.2,3,26.3V5.7C3,4.8,3.7,4,4.6,4h22.8C28.3,4,29,4.8,29,5.7V26.3z M3.2,1
			C1.4,1,0,2.5,0,4.3v23.3C0,29.5,1.4,31,3.2,31h25.6c1.8,0,3.2-1.5,3.2-3.3V4.3C32,2.5,30.6,1,28.8,1H3.2z"/>
	</g>
</g>
</svg>
