<?xml version="1.0" encoding="utf-8"?>
<!-- Generator: Adobe Illustrator 21.0.0, SVG Export Plug-In . SVG Version: 6.00 Build 0)  -->
<svg version="1.1" id="图层_1" xmlns="http://www.w3.org/2000/svg" xmlns:xlink="http://www.w3.org/1999/xlink" x="0px" y="0px"
	 viewBox="0 0 32 32" style="enable-background:new 0 0 32 32;" xml:space="preserve">
<style type="text/css">
	.st0{fill:#949494;}
</style>
<title>app-individual-bill</title>
<g id="app-individual-bill">
	<g id="individual-bill" transform="translate(0.000000, 0.407982)">
		<path fill="currentColor" id="形状结合" class="st0" d="M17.2,8.7l4.8,0.1L22,8.8h-4.7L17.2,8.7z M11,0.2C11.1,0.2,11.1,0.2,11,0.2L14.7,3L13,5.4
			l-2-1.6l-3.4,5H4l5.7-8.4C10,0,10.6-0.1,11,0.2z"/>
		<path fill="currentColor" id="形状结合_1_" class="st0" d="M17,0.2C17.1,0.2,17.1,0.2,17,0.2l11,8.6h-4.6l-6.4-5l-3.5,5H10l5.7-8.4
			C16,0,16.6-0.1,17,0.2z"/>
		<path fill="currentColor" id="形状" class="st0" d="M29,8.6H3c-1.5,0-3,1.5-3,3v16c0,1.6,1.5,3,3,3h26c1.5,0,3-1.4,3-3v-16C32,9.8,30.8,8.6,29,8.6z
			 M29,14.8v9.6v2.7c0,0.3-0.3,0.5-0.6,0.5H3.6c-0.3,0-0.6-0.2-0.6-0.5V12.1c0-0.3,0.3-0.5,0.6-0.5h24.8c0.3,0,0.6,0.2,0.6,0.5V14.8
			z"/>
		<path fill="currentColor" id="形状结合_2_" class="st0" d="M23,15.6c2.2,0,4,1.8,4,4s-1.8,4-4,4s-4-1.8-4-4S20.8,15.6,23,15.6z M23,18.1
			c-0.8,0-1.5,0.7-1.5,1.5s0.7,1.5,1.5,1.5c0.8,0,1.5-0.7,1.5-1.5S23.9,18.1,23,18.1z"/>
	</g>
</g>
</svg>
