<?xml version="1.0" encoding="utf-8"?>
<!-- Generator: Adobe Illustrator 21.0.0, SVG Export Plug-In . SVG Version: 6.00 Build 0)  -->
<svg version="1.1" id="图层_1" xmlns="http://www.w3.org/2000/svg" xmlns:xlink="http://www.w3.org/1999/xlink" x="0px" y="0px"
	 viewBox="0 0 32 32" style="enable-background:new 0 0 32 32;" xml:space="preserve">
<style type="text/css">
	.st0{fill:#949494;}
</style>
<title>app-form</title>
<g id="app-form">
	<path fill="currentColor" id="形状结合" class="st0" d="M29,0c1.7,0,3,1.3,3,3v26c0,1.7-1.3,3-3,3H3c-1.7,0-3-1.3-3-3V3c0-1.7,1.3-3,3-3H29z M27,3
		H5C3.9,3,3.1,3.8,3,4.9L3,5v22c0,1.1,0.8,1.9,1.9,2L5,29h22c1.1,0,1.9-0.8,2-1.9l0-0.1V5C29,3.9,28.1,3,27,3z M24.5,23
		c0.8,0,1.5,0.7,1.5,1.5S25.3,26,24.5,26h-17C6.7,26,6,25.3,6,24.5S6.7,23,7.5,23H24.5z M16.5,18c0.8,0,1.5,0.7,1.5,1.5
		S17.3,21,16.5,21h-9C6.7,21,6,20.3,6,19.5S6.7,18,7.5,18H16.5z M24.5,11c0.8,0,1.5,0.7,1.5,1.5S25.3,14,24.5,14h-17
		C6.7,14,6,13.3,6,12.5S6.7,11,7.5,11H24.5z M18.5,6C19.3,6,20,6.7,20,7.5S19.3,9,18.5,9h-11C6.7,9,6,8.3,6,7.5S6.7,6,7.5,6H18.5z"
		/>
</g>
</svg>
