<?xml version="1.0" encoding="utf-8"?>
<!-- Generator: Adobe Illustrator 21.0.0, SVG Export Plug-In . SVG Version: 6.00 Build 0)  -->
<svg version="1.1" id="图层_1" xmlns="http://www.w3.org/2000/svg" xmlns:xlink="http://www.w3.org/1999/xlink" x="0px" y="0px"
	 viewBox="0 0 32 32" style="enable-background:new 0 0 32 32;" xml:space="preserve">
<style type="text/css">
	.st0{fill:#949494;}
</style>
<title>app-distribution</title>
<g id="app-distribution">
	<g id="distribution" transform="translate(0.000000, 1.000000)">
		<path fill="currentColor" id="形状结合" class="st0" d="M19.2,0C20.7,0,22,1.3,22,2.8v6.4c0,1.5-1.3,2.8-2.8,2.8h-6.4c-1.5,0-2.8-1.3-2.8-2.8V2.8
			C10,1.3,11.3,0,12.8,0H19.2z M18.7,3h-5.3C13.1,3,13,3.1,13,3.3v5.3C13,8.9,13.1,9,13.3,9h5.3C18.9,9,19,8.9,19,8.7V3.3
			C19,3.1,18.9,3,18.7,3z"/>
		<path fill="currentColor" id="路径" class="st0" d="M27.5,22.3c-0.6,0-1.5-0.5-1.5-1.1V17H6v4.2c0,0.6-0.9,1.1-1.5,1.1S3,21.8,3,21.2v-6.1
			C3,14.5,3.5,14,4.1,14h23.8c0.6,0,1.1,0.5,1.1,1.1v6.1C29,21.8,28.1,22.3,27.5,22.3z"/>
		<path fill="currentColor" id="形状结合_1_" class="st0" d="M7,21c1.1,0,2,0.9,2,2v5c0,1.1-0.9,2-2,2H2c-1.1,0-2-0.9-2-2v-5c0-1.1,0.9-2,2-2H7z
			 M6,23.5H3c-0.3,0-0.5,0.2-0.5,0.5l0,0v3c0,0.3,0.2,0.5,0.5,0.5l0,0h3c0.3,0,0.5-0.2,0.5-0.5l0,0v-3C6.5,23.7,6.3,23.5,6,23.5
			L6,23.5z"/>
		<path fill="currentColor" id="形状结合_2_" class="st0" d="M30,21c1.1,0,2,0.9,2,2v5c0,1.1-0.9,2-2,2h-5c-1.1,0-2-0.9-2-2v-5c0-1.1,0.9-2,2-2H30z
			 M29,23.5h-3c-0.3,0-0.5,0.2-0.5,0.5l0,0v3c0,0.3,0.2,0.5,0.5,0.5l0,0h3c0.3,0,0.5-0.2,0.5-0.5l0,0v-3
			C29.5,23.7,29.3,23.5,29,23.5L29,23.5z"/>
		<path fill="currentColor" id="形状结合_3_" class="st0" d="M18.5,21c1.1,0,2,0.9,2,2v5c0,1.1-0.9,2-2,2h-5c-1.1,0-2-0.9-2-2v-5c0-1.1,0.9-2,2-2
			H18.5z M17.5,23.5h-3c-0.3,0-0.5,0.2-0.5,0.5l0,0v3c0,0.3,0.2,0.5,0.5,0.5l0,0h3c0.3,0,0.5-0.2,0.5-0.5l0,0v-3
			C18,23.7,17.8,23.5,17.5,23.5L17.5,23.5z"/>
		<path fill="currentColor" id="路径_1_" class="st0" d="M16,22.3c-0.8,0-1.5-0.5-1.5-1.1v-6c0-0.6,0.7-1.1,1.5-1.1s1.5,0.5,1.5,1.1v6
			C17.5,21.8,16.8,22.3,16,22.3z"/>
	</g>
</g>
</svg>
