<?xml version="1.0" encoding="utf-8"?>
<!-- Generator: Adobe Illustrator 21.0.0, SVG Export Plug-In . SVG Version: 6.00 Build 0)  -->
<svg version="1.1" id="图层_1" xmlns="http://www.w3.org/2000/svg" xmlns:xlink="http://www.w3.org/1999/xlink" x="0px" y="0px"
	 viewBox="0 0 32 32" style="enable-background:new 0 0 32 32;" xml:space="preserve">
<style type="text/css">
	.st0{fill:#FFFFFF;}
	.st1{fill:#949494;}
</style>
<g>
	<path fill="currentColor" id="path-1" class="st0" d="M25.5,16.5c-1.9,1.9-2.7,4.7-2.3,7.4L24,29l-4.3-2.4c-1.1-0.6-2.4-1-3.7-1c-1.3,0-2.6,0.3-3.7,1
		L8,29l0.8-5.1c0.4-2.7-0.4-5.5-2.3-7.4L3,12.9l4.8-0.7c2.6-0.4,4.8-2.1,6-4.6L16,3l2.2,4.6c1.2,2.5,3.4,4.2,6,4.6l4.8,0.7
		L25.5,16.5z M31.1,15.1c1.7-1.7,0.8-4.8-1.6-5.1l-6-0.9c-0.9-0.1-1.8-0.8-2.2-1.7l-2.7-5.7C18.1,0.6,17,0,16,0
		c-1,0-2.1,0.6-2.6,1.7l-2.7,5.7C10.3,8.3,9.5,8.9,8.5,9l-6,0.9c-2.4,0.4-3.3,3.4-1.6,5.1l4.4,4.4c0.7,0.7,1,1.7,0.8,2.7l-1,6.3
		c-0.3,2,1.2,3.5,2.9,3.5c0.4,0,0.9-0.1,1.3-0.4l5.4-3c0.4-0.2,0.9-0.3,1.3-0.3c0.5,0,0.9,0.1,1.3,0.3l5.4,3
		c0.4,0.2,0.9,0.4,1.3,0.4c1.7,0,3.2-1.6,2.9-3.5l-1-6.3c-0.2-1,0.1-2,0.8-2.7L31.1,15.1z"/>
</g>
<title>app-star-mark</title>
<g id="app-star-mark">
	<g id="star-mark">
		<path fill="currentColor" id="path-1_1_" class="st1" d="M25.5,16.5c-1.9,1.9-2.7,4.7-2.3,7.4L24,29l-4.3-2.4c-1.1-0.6-2.4-1-3.7-1
			c-1.3,0-2.6,0.3-3.7,1L8,29l0.8-5.1c0.4-2.7-0.4-5.5-2.3-7.4L3,12.9l4.8-0.7c2.6-0.4,4.8-2.1,6-4.6L16,3l2.2,4.6
			c1.2,2.5,3.4,4.2,6,4.6l4.8,0.7L25.5,16.5z M31.1,15.1c1.7-1.7,0.8-4.8-1.6-5.1l-6-0.9c-0.9-0.1-1.8-0.8-2.2-1.7l-2.7-5.7
			C18.1,0.6,17,0,16,0c-1,0-2.1,0.6-2.6,1.7l-2.7,5.7C10.3,8.3,9.5,8.9,8.5,9l-6,0.9c-2.4,0.4-3.3,3.4-1.6,5.1l4.4,4.4
			c0.7,0.7,1,1.7,0.8,2.7l-1,6.3c-0.3,2,1.2,3.5,2.9,3.5c0.4,0,0.9-0.1,1.3-0.4l5.4-3c0.4-0.2,0.9-0.3,1.3-0.3
			c0.5,0,0.9,0.1,1.3,0.3l5.4,3c0.4,0.2,0.9,0.4,1.3,0.4c1.7,0,3.2-1.6,2.9-3.5l-1-6.3c-0.2-1,0.1-2,0.8-2.7L31.1,15.1z"/>
	</g>
</g>
</svg>
