<?xml version="1.0" encoding="utf-8"?>
<!-- Generator: Adobe Illustrator 21.0.0, SVG Export Plug-In . SVG Version: 6.00 Build 0)  -->
<svg version="1.1" id="图层_1" xmlns="http://www.w3.org/2000/svg" xmlns:xlink="http://www.w3.org/1999/xlink" x="0px" y="0px"
	 viewBox="0 0 32 32" style="enable-background:new 0 0 32 32;" xml:space="preserve">
<style type="text/css">
	.st0{fill:#999999;}
</style>
<title>app-contract</title>
<g id="app-contract">
	<g id="contract" transform="translate(1.835284, 0.000000)">
		<path fill="currentColor" id="Icon" class="st0" d="M22.6,0c1.8,0,3.2,1.2,3.2,3l0,0v10.2c0,0.1,0,0.2-0.1,0.3c-0.1,0.1-0.2,0.1-0.3,0.1
			c-0.1,0-1.5-0.4-2.2-0.6c-0.4-0.1-0.6-0.3-0.6-0.7l0,0V3.8c0-0.4-0.3-0.8-0.8-0.8l0,0H4.1c-0.5,0-1,0.5-1,1l0,0v24
			c0,0.5,0.5,1,1,1l0,0h6.2c0.3,0,0.5,0.1,0.7,0.4c0.2,0.3,0.9,1,1.5,1.9c0.1,0.1,0.1,0.3,0.1,0.4c-0.1,0.1-0.2,0.2-0.4,0.2l0,0H3.2
			c-0.8,0-1.5-0.3-2.1-0.9s-0.9-1.2-0.9-2l0,0L0,3c0-1.8,1.4-3,3.2-3l0,0H22.6z M21,16c4.4,0,8,3.6,8,8s-3.6,8-8,8s-8-3.6-8-8
			S16.5,16,21,16z M21,19c-2.8,0-5,2.2-5,5s2.2,5,5,5s5-2.2,5-5S23.7,19,21,19z M21,20.8c0.2,0,0.3,0.1,0.4,0.3l0,0l0.7,1.6l1.6,0.2
			c0.2,0,0.3,0.2,0.4,0.3c0.1,0.2,0,0.3-0.1,0.5l0,0l-1.2,1.2l0.3,1.7c0,0.1,0,0.3-0.1,0.4c-0.1,0.1-0.4,0.2-0.6,0.1l0,0L21,26.3
			l-1.5,0.8c-0.2,0.1-0.5,0-0.6-0.1c-0.1-0.1-0.1-0.3-0.1-0.4l0,0l0.3-1.7l-1.2-1.2c-0.1-0.1-0.2-0.3-0.1-0.5
			c0.1-0.2,0.2-0.3,0.4-0.3l0,0l1.6-0.2l0.7-1.6C20.6,20.9,20.8,20.8,21,20.8z M9.8,19.2c0.9,0,1.6,0.7,1.6,1.5
			c0,0.8-0.7,1.5-1.6,1.5l0,0H8.2c-0.9,0-1.6-0.7-1.6-1.5c0-0.8,0.7-1.5,1.6-1.5l0,0H9.8z M14.6,12.8c0.9,0,1.6,0.7,1.6,1.5
			s-0.7,1.5-1.6,1.5l0,0H8.2c-0.9,0-1.6-0.7-1.6-1.5s0.7-1.5,1.6-1.5l0,0H14.6z M17.8,6.4c0.9,0,1.6,0.7,1.6,1.5s-0.7,1.5-1.6,1.5
			l0,0H8.2c-0.9,0-1.6-0.7-1.6-1.5s0.7-1.5,1.6-1.5l0,0H17.8z"/>
	</g>
</g>
</svg>
