<?xml version="1.0" encoding="utf-8"?>
<!-- Generator: Adobe Illustrator 21.0.0, SVG Export Plug-In . SVG Version: 6.00 Build 0)  -->
<svg version="1.1" id="图层_1" xmlns="http://www.w3.org/2000/svg" xmlns:xlink="http://www.w3.org/1999/xlink" x="0px" y="0px"
	 viewBox="0 0 32 32" style="enable-background:new 0 0 32 32;" xml:space="preserve">
<style type="text/css">
	.st0{fill:#949494;}
</style>
<title>app-purchase</title>
<g id="app-purchase">
	<g id="purchase">
		<path fill="currentColor" id="形状" class="st0" d="M29.7,9.1H10.9c-1,0-1.9-0.7-2.2-1.7L7.4,2.3C7.1,1.2,6.2,0,5,0H0v3h2.7c1.6,0,2,0.9,2.4,2.4
			L9,20.9c0.3,1.3,1.3,2.1,2.4,2.1h16L32,11.5C32,10.7,32,9.1,29.7,9.1z M25.8,20.1l-13.7,0l-2.4-8.3c0.4,0.1,0.9,0.2,1.3,0.2h17.8
			L25.8,20.1z"/>
		<path fill="currentColor" id="形状_1_" class="st0" d="M12.5,25C10.6,25,9,26.6,9,28.5s1.6,3.5,3.5,3.5c1.9,0,3.5-1.6,3.5-3.5S14.4,25,12.5,25z
			 M12.5,29.7c-0.6,0-1.2-0.5-1.2-1.2s0.5-1.2,1.2-1.2s1.2,0.5,1.2,1.2S13.1,29.7,12.5,29.7z"/>
		<path fill="currentColor" id="形状_2_" class="st0" d="M24.5,25c-1.9,0-3.5,1.6-3.5,3.5s1.6,3.5,3.5,3.5s3.5-1.6,3.5-3.5S26.4,25,24.5,25z
			 M24.5,29.7c-0.6,0-1.2-0.5-1.2-1.2s0.5-1.2,1.2-1.2c0.6,0,1.2,0.5,1.2,1.2S25.1,29.7,24.5,29.7z"/>
	</g>
</g>
</svg>
