<?xml version="1.0" encoding="utf-8"?>
<!-- Generator: Adobe Illustrator 21.0.0, SVG Export Plug-In . SVG Version: 6.00 Build 0)  -->
<svg version="1.1" id="图层_1" xmlns="http://www.w3.org/2000/svg" xmlns:xlink="http://www.w3.org/1999/xlink" x="0px" y="0px"
	 viewBox="0 0 32 32" style="enable-background:new 0 0 32 32;" xml:space="preserve">
<style type="text/css">
	.st0{fill:#949494;}
</style>
<title>app-table</title>
<g id="app-table">
	<path fill="currentColor" id="形状结合" class="st0" d="M32,29c0,1.7-1.3,3-3,3H3c-1.7,0-3-1.3-3-3V3c0-1.7,1.3-3,3-3h26c1.7,0,3,1.3,3,3V29z
		 M10,22H3v5c0,1.1,0.8,1.9,1.9,2L5,29h5V22z M19,22h-6v7h6V22z M29,22h-7v7h5c1.1,0,1.9-0.8,2-1.9l0-0.1V22z M10,12H3v7h7V12z
		 M19,12h-6v7h6V12z M29,12h-7v7h7V12z M27,3H5C3.9,3,3.1,3.8,3,4.9L3,5v4h26V5C29,3.9,28.1,3,27,3z"/>
</g>
</svg>
