<?xml version="1.0" encoding="utf-8"?>
<!-- Generator: Adobe Illustrator 21.0.0, SVG Export Plug-In . SVG Version: 6.00 Build 0)  -->
<svg version="1.1" id="图层_1" xmlns="http://www.w3.org/2000/svg" xmlns:xlink="http://www.w3.org/1999/xlink" x="0px" y="0px"
	 viewBox="0 0 32 32" style="enable-background:new 0 0 32 32;" xml:space="preserve">
<style type="text/css">
	.st0{fill:#FFFFFF;}
	.st1{fill:#949494;}
</style>
<g>
	<path fill="currentColor" id="path-1" class="st0" d="M6.4,8.9L6.4,8.9c0-1.4,1.1-2.5,2.5-2.5c1.4,0,2.5,1.1,2.5,2.5s-1.1,2.5-2.5,2.5
		C7.5,11.4,6.4,10.2,6.4,8.9L6.4,8.9z M18.6,28.5L3.1,12.7c-0.2-0.2-0.3-0.4-0.3-0.6V4.2c0-1,0.4-1.3,1.4-1.3h7.8
		c0.2,0,0.5,0.1,0.6,0.3L28,18c0.7,0.7,0.7,1.8,0,2.5L20.5,28c-0.7,0.7-1.8,0.7-2.5,0L18.6,28.5z M25.5,11.3L25.5,11.3
		C25.2,11.1,14.4,0.2,14.7,0.5C14.3,0.2,13.9,0,13.5,0H3.3C1.5,0,0,1.5,0,3.3v10.1c0,0.4,0.2,0.9,0.5,1.2L16.9,31
		c1.3,1.3,3.4,1.3,4.7,0l0,0c0.3-0.3,9.5-9.5,9.4-9.4c1.3-1.3,1.3-3.4,0-4.7L25.5,11.3z"/>
</g>
<title>app-label</title>
<g id="app-label">
	<g id="tag_x5F_round-_x5B__x23_1174_x5D_">
		<path fill="currentColor" id="path-1_1_" class="st1" d="M6.4,8.9L6.4,8.9c0-1.4,1.1-2.5,2.5-2.5c1.4,0,2.5,1.1,2.5,2.5s-1.1,2.5-2.5,2.5
			C7.5,11.4,6.4,10.2,6.4,8.9L6.4,8.9z M18.6,28.5L3.1,12.7c-0.2-0.2-0.3-0.4-0.3-0.6V4.2c0-1,0.4-1.3,1.4-1.3h7.8
			c0.2,0,0.5,0.1,0.6,0.3L28,18c0.7,0.7,0.7,1.8,0,2.5L20.5,28c-0.7,0.7-1.8,0.7-2.5,0L18.6,28.5z M25.5,11.3L25.5,11.3
			C25.2,11.1,14.4,0.2,14.7,0.5C14.3,0.2,13.9,0,13.5,0H3.3C1.5,0,0,1.5,0,3.3v10.1c0,0.4,0.2,0.9,0.5,1.2L16.9,31
			c1.3,1.3,3.4,1.3,4.7,0l0,0c0.3-0.3,9.5-9.5,9.4-9.4c1.3-1.3,1.3-3.4,0-4.7L25.5,11.3z"/>
	</g>
</g>
</svg>
