<?xml version="1.0" encoding="utf-8"?>
<!-- Generator: Adobe Illustrator 21.0.0, SVG Export Plug-In . SVG Version: 6.00 Build 0)  -->
<svg version="1.1" id="图层_1" xmlns="http://www.w3.org/2000/svg" xmlns:xlink="http://www.w3.org/1999/xlink" x="0px" y="0px"
	 viewBox="0 0 32 32" style="enable-background:new 0 0 32 32;" xml:space="preserve">
<style type="text/css">
	.st0{fill:#FFFFFF;}
	.st1{fill:#949494;}
</style>
<g>
	<path fill="currentColor" id="path-1" class="st0" d="M27,27.4c0,0.9-0.6,1.6-1.4,1.6H6.4C5.6,29,5,28.3,5,27.4V4.6C5,3.7,5.6,3,6.4,3H19v5.7
		c0,1.8,1.2,3.2,2.8,3.2H27V27.4z M22,0.5C21.7,0.2,21.4,0,21,0H4.8C3.3,0,2,1.4,2,3.2v25.6C2,30.6,3.3,32,4.8,32h22.4
		c1.5,0,2.8-1.4,2.8-3.2V10.3c0-0.4-0.1-0.8-0.4-1.1L22,0.5z"/>
</g>
<title>app-page</title>
<g id="app-page">
	<g id="Icon_x2F_20px_x2F_file-_x5B__x23_1699_x5D_">
		<path fill="currentColor" id="path-1_1_" class="st1" d="M27,27.4c0,0.9-0.6,1.6-1.4,1.6H6.4C5.6,29,5,28.3,5,27.4V4.6C5,3.7,5.6,3,6.4,3H19v5.7
			c0,1.8,1.2,3.2,2.8,3.2H27V27.4z M22,0.5C21.7,0.2,21.4,0,21,0H4.8C3.3,0,2,1.4,2,3.2v25.6C2,30.6,3.3,32,4.8,32h22.4
			c1.5,0,2.8-1.4,2.8-3.2V10.3c0-0.4-0.1-0.8-0.4-1.1L22,0.5z"/>
	</g>
</g>
</svg>
