<?xml version="1.0" encoding="utf-8"?>
<!-- Generator: Adobe Illustrator 21.0.0, SVG Export Plug-In . SVG Version: 6.00 Build 0)  -->
<svg version="1.1" id="图层_1" xmlns="http://www.w3.org/2000/svg" xmlns:xlink="http://www.w3.org/1999/xlink" x="0px" y="0px"
	 viewBox="0 0 32 32" style="enable-background:new 0 0 32 32;" xml:space="preserve">
<style type="text/css">
	.st0{fill:#949494;}
</style>
<title>app-email</title>
<g id="app-email">
	<g id="email" transform="translate(0.000000, 3.000000)">
		<path fill="currentColor" id="形状" class="st0" d="M30,0H2C0.9,0,0,0.9,0,2v22c0,1.1,0.9,2,2,2h28c1.1,0,2-0.9,2-2V2C32,0.9,31.1,0,30,0z M32,23.1
			h-0.4H32z M16,11L5,3h22L16,11L16,11z M3,22.5V5.6l0,0l11.9,8.5l0.2,0.1l0,0c0.6,0.3,1.4,0.3,2-0.1L29,5.6v16.9
			c0,0.3-0.2,0.5-0.5,0.5h-25C3.2,23,3,22.8,3,22.5z"/>
	</g>
</g>
</svg>
