<?xml version="1.0" encoding="utf-8"?>
<!-- Generator: Adobe Illustrator 21.0.0, SVG Export Plug-In . SVG Version: 6.00 Build 0)  -->
<svg version="1.1" id="图层_1" xmlns="http://www.w3.org/2000/svg" xmlns:xlink="http://www.w3.org/1999/xlink" x="0px" y="0px"
	 viewBox="0 0 32 32" style="enable-background:new 0 0 32 32;" xml:space="preserve">
<style type="text/css">
	.st0{fill:#949494;}
</style>
<title>app-information</title>
<g id="app-information">
	<path fill="currentColor" id="形状结合" class="st0" d="M16,0c8.8,0,16,7.2,16,16s-7.2,16-16,16S0,24.8,0,16S7.2,0,16,0z M16,3C8.8,3,3,8.8,3,16
		s5.8,13,13,13s13-5.8,13-13S23.2,3,16,3z M17,12c0.5,0,0.9,0.4,1,0.9l0,0.1v8.3h1c0.5,0,0.9,0.4,1,0.9l0,0.1V24
		c0,0.5-0.4,0.9-0.9,1L19,25h-5c-0.5,0-0.9-0.4-1-0.9l0-0.1l0-1.7c0-0.5,0.4-0.9,0.9-1l0.1,0h1V15h-1c-0.5,0-0.9-0.4-1-0.9l0-0.1v-1
		c0-0.5,0.4-0.9,0.9-1l0.1,0H17z M17,7c0.6,0,1,0.4,1,1v2c0,0.6-0.4,1-1,1h-2c-0.6,0-1-0.4-1-1V8c0-0.6,0.4-1,1-1H17z"/>
</g>
</svg>
