<?xml version="1.0" encoding="utf-8"?>
<!-- Generator: Adobe Illustrator 21.0.0, SVG Export Plug-In . SVG Version: 6.00 Build 0)  -->
<svg version="1.1" id="图层_1" xmlns="http://www.w3.org/2000/svg" xmlns:xlink="http://www.w3.org/1999/xlink" x="0px" y="0px"
	 viewBox="0 0 32 32" style="enable-background:new 0 0 32 32;" xml:space="preserve">
<style type="text/css">
	.st0{fill:#949494;}
</style>
<title>app-history</title>
<g id="app-history">
	<g id="history">
		<path fill="currentColor" id="形状" class="st0" d="M22.6,13.2c3.4,0,6.5,1.8,8.2,4.7c1.7,2.9,1.7,6.5,0,9.4C29.1,30.2,26,32,22.6,32
			c-5.2,0-9.4-4.2-9.4-9.4S17.4,13.2,22.6,13.2z M24.3,0c2.5,0,3.9,1.5,3.9,4l0,7.7c-0.9-0.5-2-0.8-3-1.1l0-6.7c0-0.5-0.4-1-0.9-1
			L4,3C3.5,3,3,3.5,3,4l0,22c0,0.6,0.5,1.1,1,1.1l7.3,0c0.4,1,1,2.1,1.7,3H4c-2.5,0-4-1.6-4-4.1V4c0-2.5,1.5-4,4-4H24.3z M22.6,16
			c-3.6,0-6.6,2.9-6.6,6.6s2.9,6.6,6.6,6.6s6.6-2.9,6.6-6.6S26.2,16,22.6,16L22.6,16z M22.6,17.1c0.7,0,1.3,0.5,1.4,1.2l0,0.2v2.9
			h1.8c0.7,0,1.3,0.5,1.4,1.2l0,0.2c0,0.7-0.5,1.3-1.2,1.4l-0.2,0h-3.2c-0.7,0-1.3-0.5-1.4-1.2l0-0.2v-4.3
			C21.2,17.8,21.8,17.1,22.6,17.1L22.6,17.1z M12.5,12.2c0.8,0,1.4,0.6,1.5,1.4s-0.5,1.5-1.3,1.6l-0.2,0h-6c-0.8,0-1.4-0.6-1.5-1.4
			c-0.1-0.8,0.5-1.5,1.3-1.6l0.2,0H12.5L12.5,12.2z M18.6,6.6C19.4,6.6,20,7.2,20,8c0.1,0.8-0.5,1.5-1.2,1.6l-0.2,0H6.4
			C5.7,9.6,5.1,9,5,8.2C5,7.4,5.5,6.7,6.3,6.6l0.2,0H18.6z"/>
	</g>
</g>
</svg>
