<?xml version="1.0" encoding="UTF-8"?>
<svg xmlns="http://www.w3.org/2000/svg" version="1.1" viewBox="0 0 32 32">
  <defs>
    <style>
      .cls-1 {
        fill: #999;
      }
    </style>
  </defs>
  <!-- Generator: Adobe Illustrator 28.6.0, SVG Export Plug-In . SVG Version: 1.2.0 Build 709)  -->
  <g>
    <g id="_图层_1" data-name="图层_1">
      <g id="_图层_1-2" data-name="_图层_1">
        <g id="_图层_1-2">
          <g id="archive">
            <path id="_形状" class="cls-1" d="M29.5,1c.3,0,.8.1,1.1.4s.4.8.4,1.1v7c0,.8-.7,1.5-1.5,1.5h-.5v18c0,1.1-.9,2-2,2H5c-1.1,0-2-.9-2-2V11h-.5c-.4,0-.8-.1-1.1-.4-.3-.3-.4-.6-.4-1V2.5c0-.4,0-.8.3-1.1s.6-.4,1.2-.4h27ZM6,11v17h20V11H6ZM18.5,14c.4,0,.8.1,1.1.4s.4.7.4,1.1-.1.8-.4,1.1-.7.4-1.1.4h-5c-.4,0-.8-.1-1.1-.4s-.4-.7-.4-1.1.1-.8.4-1.1c.3-.3.7-.4,1.1-.4h5ZM28,4H4v4h24v-4Z"/>
          </g>
        </g>
      </g>
    </g>
  </g>
</svg>