<?xml version="1.0" encoding="utf-8"?>
<!-- Generator: Adobe Illustrator 21.0.0, SVG Export Plug-In . SVG Version: 6.00 Build 0)  -->
<svg version="1.1" id="图层_1" xmlns="http://www.w3.org/2000/svg" xmlns:xlink="http://www.w3.org/1999/xlink" x="0px" y="0px"
	 viewBox="0 0 32 32" style="enable-background:new 0 0 32 32;" xml:space="preserve">
<title>arrow</title>
<desc>Created with Sketch.</desc>
<path class="st0" d="M19.9,29.3l11.4-11.5c0.7-0.7,0.9-1.7,0.5-2.5c0-0.1-0.1-0.1-0.1-0.2c-0.1-0.3-0.3-0.4-0.4-0.6l0,0l0,0
L20,2.7c-0.9-1-2.3-1-3.2-0.1C15.8,3.5,15.8,5,16.6,6l0.1,0.1l7.3,7.6H2.3c-1.3,0-2.3,1-2.3,2.3s0.9,2.4,2.2,2.4h0.1h21.9L16.6,26
c-0.9,0.9-0.9,2.4-0.1,3.3C17.4,30.2,18.9,30.3,19.9,29.3C19.8,29.3,19.9,29.3,19.9,29.3L19.9,29.3z" fill="currentColor"/>

</svg>
