<svg width="28" height="28" viewBox="0 0 28 28" fill="none" xmlns="http://www.w3.org/2000/svg">
<g clip-path="url(#clip0_3388_3051)">
<path d="M24 14C24 19.5228 19.5228 24 14 24C8.47715 24 4 19.5228 4 14C4 8.47715 8.47715 4 14 4C19.5228 4 24 8.47715 24 14Z" stroke="#444444" stroke-width="2"/>
<path d="M14 13L14 19" stroke="#444444" stroke-width="2"/>
<path d="M15.25 10.25C15.25 10.9404 14.6904 11.5 14 11.5C13.3096 11.5 12.75 10.9404 12.75 10.25C12.75 9.55964 13.3096 9 14 9C14.6904 9 15.25 9.55964 15.25 10.25Z" fill="#444444"/>
</g>
<defs>
<clipPath id="clip0_3388_3051">
<rect width="28" height="28" fill="white"/>
</clipPath>
</defs>
</svg>
