<?xml version="1.0" encoding="utf-8"?>
<!-- Generator: Adobe Illustrator 21.0.0, SVG Export Plug-In . SVG Version: 6.00 Build 0)  -->
<svg version="1.1" id="图层_1" xmlns="http://www.w3.org/2000/svg" xmlns:xlink="http://www.w3.org/1999/xlink" x="0px" y="0px"
	 viewBox="0 0 32 32" style="enable-background:new 0 0 32 32;" xml:space="preserve">
<path class="st0" d="M14.3,1c-4.1,0-7.4,3.3-7.4,7.4s3.3,7.4,7.4,7.4s7.4-3.3,7.4-7.4S18.4,1,14.3,1z M16.3,20.2l1-1.4
c0-0.4-0.3-0.8-0.8-0.8h-6c-4.9,0-8.9,4-8.9,8.9l0,2.7c0,0.8,0.7,1.4,1.4,1.4h13.3c0.4,0,0.8-0.3,0.8-0.8l-1-1.4
c-0.1-0.2-0.8-2-0.8-3.9C15.5,22.8,15.9,21,16.3,20.2z M24.3,30.8c-3.5,0-6.3-2.9-6.3-6.3s2.9-6.3,6.3-6.3s6.3,2.9,6.3,6.3
S27.8,30.8,24.3,30.8z M27.8,22.3c0.3-0.3,0.3-0.7,0-0.9c-0.3-0.3-0.6-0.3-0.9,0l-2.3,2.4l-2.5-2.4c-0.3-0.3-0.6-0.3-0.9,0
c-0.3,0.3-0.3,0.7,0,0.9l2.3,2.4L21.2,27c-0.3,0.3-0.3,0.7,0,0.9c0.3,0.3,0.6,0.3,0.9,0l2.3-2.4l2.3,2.4c0.3,0.3,0.6,0.3,0.9,0
c0.3-0.3,0.3-0.7,0-0.9l-2.3-2.4C25.5,24.8,27.8,22.3,27.8,22.3z" fill="currentColor"/>

</svg>
