<?xml version="1.0" encoding="utf-8"?>
<!-- Generator: Adobe Illustrator 21.0.0, SVG Export Plug-In . SVG Version: 6.00 Build 0)  -->
<svg version="1.1" id="图层_1" xmlns="http://www.w3.org/2000/svg" xmlns:xlink="http://www.w3.org/1999/xlink" x="0px" y="0px"
	 viewBox="0 0 32 32" style="enable-background:new 0 0 32 32;" xml:space="preserve">
<style type="text/css">
	.st0{fill:#999999;}
</style>
<path class="st0" d="M12,2c1.7,0,3,1.3,3,3v7c0,1.7-1.3,3-3,3H4c-1.7,0-3-1.3-3-3V5c0-1.7,1.3-3,3-3H12z M11,5H5C4.4,5,4,5.4,4,6v5
	c0,0.6,0.4,1,1,1h6c0.6,0,1-0.4,1-1V6C12,5.4,11.6,5,11,5z M28,2c1.7,0,3,1.3,3,3v7c0,1.7-1.3,3-3,3h-8c-1.7,0-3-1.3-3-3V5
	c0-1.7,1.3-3,3-3H28z M27,5h-6c-0.6,0-1,0.4-1,1v5c0,0.6,0.4,1,1,1h6c0.6,0,1-0.4,1-1V6C28,5.4,27.6,5,27,5z M12,17c1.7,0,3,1.3,3,3
	v7c0,1.7-1.3,3-3,3H4c-1.7,0-3-1.3-3-3v-7c0-1.7,1.3-3,3-3H12z M11,20H5c-0.6,0-1,0.4-1,1v5c0,0.6,0.4,1,1,1h6c0.6,0,1-0.4,1-1v-5
	C12,20.4,11.6,20,11,20z M28,17c1.7,0,3,1.3,3,3v7c0,1.7-1.3,3-3,3h-8c-1.7,0-3-1.3-3-3v-7c0-1.7,1.3-3,3-3H28z M27,20h-6
	c-0.6,0-1,0.4-1,1v5c0,0.6,0.4,1,1,1h6c0.6,0,1-0.4,1-1v-5C28,20.4,27.6,20,27,20z"/>
</svg>
