<?xml version="1.0" standalone="no"?><!DOCTYPE svg PUBLIC "-//W3C//DTD SVG 1.1//EN" "http://www.w3.org/Graphics/SVG/1.1/DTD/svg11.dtd"><svg t="1718873383615" class="icon" viewBox="0 0 1024 1024" version="1.1" xmlns="http://www.w3.org/2000/svg" p-id="17658" xmlns:xlink="http://www.w3.org/1999/xlink" width="200" height="200"><path d="M992 512c0 266.336-213.664 480-480 480S32 778.336 32 512 245.664 32 512 32s480 213.664 480 480z m-535.744 253.92l356.16-356.128a29.92 29.92 0 0 0 0-43.328l-43.392-43.36a29.92 29.92 0 0 0-43.36 0l-291.072 291.104-136.256-136.288a29.92 29.92 0 0 0-43.36 0L211.616 521.28a29.92 29.92 0 0 0 0 43.36l201.28 201.28a29.92 29.92 0 0 0 43.36 0z" p-id="17659" fill="currentColor"></path></svg>
