<?xml version="1.0" standalone="no"?><!DOCTYPE svg PUBLIC "-//W3C//DTD SVG 1.1//EN" "http://www.w3.org/Graphics/SVG/1.1/DTD/svg11.dtd"><svg t="1720076454490" class="icon" viewBox="0 0 1024 1024" version="1.1" xmlns="http://www.w3.org/2000/svg" p-id="15388" xmlns:xlink="http://www.w3.org/1999/xlink" width="200" height="200"><path d="M128 32h768c54.4 0 96 41.6 96 96v768c0 54.4-41.6 96-96 96H128c-54.4 0-96-41.6-96-96V128c0-54.4 41.6-96 96-96z m275.2 713.6c12.8 12.8 28.8 19.2 41.6 19.2 19.2 0 28.8-6.4 41.6-19.2l323.2-323.2c25.6-25.6 25.6-60.8 0-83.2s-60.8-25.6-83.2 0l-281.6 281.6-124.8-128c-25.6-25.6-60.8-25.6-83.2 0s-25.6 60.8 0 83.2l166.4 169.6z" p-id="15389"></path></svg>