<svg width="20" height="20" viewBox="0 0 20 20" fill="none" xmlns="http://www.w3.org/2000/svg">
<path fill-rule="evenodd" clip-rule="evenodd" d="M17.25 0.902832C18.3543 0.903029 19.2498 1.79858 19.25 2.90283V13.9028C19.25 15.0074 18.3545 15.9028 17.25 15.9028H11.5889L11.8311 17.5972H15.1494V19.0972H4.59375V17.5972H7.91016L8.15234 15.9028H2.75C1.64543 15.9028 0.75 15.0074 0.75 13.9028V2.90283C0.750206 1.79844 1.64556 0.902832 2.75 0.902832H17.25ZM1.75 13.7427C1.75021 14.1843 2.1082 14.5424 2.5498 14.5425H17.4502C17.8918 14.5424 18.2498 14.1843 18.25 13.7427V12.8198H1.75V13.7427Z" fill="black"/>
</svg>
