<svg width="20" height="20" viewBox="0 0 20 20" fill="none" xmlns="http://www.w3.org/2000/svg">
<path d="M4.58203 17.5967H15.1376V19.0967H4.58203V17.5967Z" fill="currentColor"/>
<path d="M17.2344 0.902344C18.3446 0.902344 19.2424 1.80678 19.2344 2.91699L19.1543 13.917C19.1463 15.0157 18.253 15.9022 17.1543 15.9023H2.76367C1.65342 15.9023 0.755556 14.9979 0.763672 13.8877L0.84375 2.8877C0.85186 1.78906 1.74512 0.902564 2.84375 0.902344H17.2344ZM1.74902 12.8193V13.7412C1.74902 14.183 2.10712 14.5409 2.54883 14.541H16.9492C17.391 14.5409 17.749 14.183 17.749 13.7412V12.8193H1.74902Z" fill="currentColor"/>
<path d="M8.27582 14.958H11.4425L11.9703 18.6525H7.74805L8.27582 14.958Z" fill="currentColor"/>
</svg>
