<svg width="20" height="20" viewBox="0 0 20 20" fill="currentColor" xmlns="http://www.w3.org/2000/svg">
<path fill-rule="evenodd" clip-rule="evenodd" d="M17.25 0.902344C18.3543 0.90254 19.2498 1.79809 19.25 2.90234V13.9023C19.25 15.0069 18.3545 15.9023 17.25 15.9023H11.5889L11.8311 17.5967H15.1494V19.0967H4.59375V17.5967H7.91016L8.15234 15.9023H2.75C1.64543 15.9023 0.75 15.0069 0.75 13.9023V2.90234C0.750206 1.79795 1.64556 0.902344 2.75 0.902344H17.25ZM1.75 13.7422C1.75021 14.1838 2.1082 14.5419 2.5498 14.542H17.4502C17.8918 14.5419 18.2498 14.1838 18.25 13.7422V12.8193H1.75V13.7422Z" fill="currentColor"/>
</svg>
