<?xml version="1.0" encoding="utf-8"?>
<!-- Generator: Adobe Illustrator 21.0.0, SVG Export Plug-In . SVG Version: 6.00 Build 0)  -->
<svg version="1.1" id="图层_1" xmlns="http://www.w3.org/2000/svg" xmlns:xlink="http://www.w3.org/1999/xlink" x="0px" y="0px"
	 viewBox="0 0 32 32" style="enable-background:new 0 0 32 32;" xml:space="preserve">
<style type="text/css">
	.st0{fill:#999999;}
</style>
<title>clients</title>
<g id="clients">
	<path id="形状结合" class="st0" d="M30,2c0.6,0,1,0.4,1,1v20c0,0.6-0.4,1-1,1H18l0,0.9c0,1.1,2.9,2.2,4.1,2.2h1.4V30h-15v-2.8
		h1.4c1.1,0,4.1-1.1,4.1-2.2l0-0.9H2c-0.6,0-1-0.4-1-1V3c0-0.6,0.4-1,1-1H30z M28,5H4v16h24V5z"/>
</g>
</svg>
