<svg width="20" height="20" viewBox="0 0 20 20" fill="none" xmlns="http://www.w3.org/2000/svg">
<path d="M4.77734 17.6943H15.3329V19.1943H4.77734V17.6943Z"/>
<path fill-rule="evenodd" clip-rule="evenodd" d="M17.5401 0.805664C18.6504 0.805664 19.5482 1.71006 19.5401 2.82031L19.4581 14.0146C19.45 15.1135 18.5569 16 17.4581 16H2.45904C1.34876 16 0.450925 15.0956 0.459039 13.9854L0.540094 2.79102C0.54814 1.6923 1.44139 0.805844 2.54009 0.805664H17.5401ZM1.94439 12.917V13.8389C1.94439 14.2807 2.30237 14.6387 2.7442 14.6387H17.1436C17.5854 14.6387 17.9444 14.2807 17.9444 13.8389V12.917H1.94439Z"/>
<path d="M8.47114 15.0557H11.6378L12.1656 18.7501H7.94336L8.47114 15.0557Z"/>
</svg>
