<?xml version="1.0" encoding="UTF-8"?>
<svg width="53px" height="40px" viewBox="0 0 53 40" version="1.1" xmlns="http://www.w3.org/2000/svg" xmlns:xlink="http://www.w3.org/1999/xlink">
    <title>协作者数量</title>
    <g id="seafile" stroke="none" stroke-width="1" fill="none" fill-rule="evenodd">
        <g id="统计视图" transform="translate(-1456, -706)">
            <g id="创建时间" transform="translate(345, 577)">
                <g id="协作者数量" transform="translate(1111, 129)">
                    <rect id="path4" fill="#EDF0FF" x="0" y="4.89230769" width="34.4615385" height="34.4615385" rx="17.2307692"></rect>
                    <path d="M33.4969591,15.9579086 C35.4668826,14.2447402 36.595837,11.7606028 36.5909414,9.1499476 C36.5909414,6.72396149 35.6309469,4.39597483 33.9249567,2.67998465 C32.2217201,0.965837683 29.9054605,0.00132934377 27.4889935,0 C25.0718332,0.00079707802 22.7547557,0.965346255 21.0510304,2.67998465 C19.3424397,4.39969246 18.3839696,6.72576198 18.3850456,9.1499476 C18.386452,11.7596665 19.5151182,14.2415655 21.4810279,15.9579086 C18.9285513,17.120788 16.7655028,18.9949671 15.2510636,21.3558777 C13.7332088,23.720935 12.9252904,26.4716056 12.9230769,29.2818323 C12.9230769,29.7658295 13.1150758,30.2318269 13.4570739,30.5758249 C13.9769377,31.1022131 14.7641583,31.2606097 15.4471528,30.9762483 C16.1301474,30.691887 16.5723592,30.0216226 16.5650561,29.2818323 C16.5650561,26.369849 17.7150495,23.575865 19.7650377,21.5158768 C21.8094462,19.4594377 24.589244,18.3027482 27.4889935,18.3018952 C30.3849769,18.3018952 33.162961,19.4578886 35.2129493,21.5158768 C37.2639289,23.579961 38.4144073,26.3720284 38.412931,29.2818323 C38.412931,30.2869848 39.227768,31.1018219 40.2329205,31.1018219 C41.238073,31.1018219 42.0529101,30.2869848 42.0529101,29.2818323 C42.0511911,26.4709089 41.2432482,23.7194608 39.7249234,21.3538777 C38.2107288,18.9939991 36.0484363,17.1205678 33.4969591,15.9579086 Z M27.4889935,14.6399162 C26.4089997,14.6399162 25.3510058,14.319918 24.4530109,13.7159215 C23.0943784,12.796111 22.2157334,11.3192208 22.0556919,9.68633367 C21.8956505,8.05344653 22.4708256,6.43406547 23.6250156,5.26796983 C25.1849947,3.70112469 27.5365869,3.23112223 29.5789815,4.07797665 C30.5769758,4.49397426 31.4289709,5.19797023 32.0289675,6.09996507 C33.4767135,8.27903679 33.1925611,11.1757198 31.3489714,13.0319254 C30.3274205,14.0600206 28.938319,14.6386929 27.4889935,14.6399162 L27.4889935,14.6399162 Z M45.220892,15.2259128 C47.6047862,12.5280618 48.1898846,8.68502911 46.7168834,5.39996908 C45.9989126,3.79308935 44.832179,2.42773331 43.3569026,1.46799159 C41.8856836,0.510562868 40.1682528,0.000613754306 38.412931,0 C37.9293602,0 37.4657811,0.192970931 37.1249383,0.535996931 C36.6083615,1.06067186 36.4551998,1.84320694 36.7358521,2.52391958 C37.0165044,3.20463222 37.6766775,3.65183593 38.412931,3.65997904 C39.8609227,3.65997904 41.2509147,4.23997572 42.2729088,5.26796983 C43.298903,6.29796393 43.8728997,7.69395594 43.8728997,9.1499476 C43.8667727,11.1019729 42.8282882,12.9050558 41.1429153,13.8899205 C40.5920195,14.2086993 40.2471357,14.7915909 40.2329205,15.4279117 C40.218051,16.0585239 40.5276006,16.6527081 41.0529158,17.0019026 L41.7629118,17.4778999 L41.9989104,17.6058992 C44.1960103,18.6545639 46.0474398,20.3096087 47.3348799,22.3758719 C48.6255814,24.4466232 49.3005167,26.8418455 49.2808687,29.2818323 C49.2830333,30.2877146 50.095003,31.1041457 51.1008583,31.1118218 C51.584429,31.1118218 52.0480081,30.9188509 52.3888509,30.5758249 C52.7309364,30.232063 52.9230769,29.7668011 52.9228479,29.2818323 C52.9376203,26.4746314 52.237652,23.70986 50.8888595,21.2478783 C49.5434655,18.7909637 47.5923906,16.7187211 45.220892,15.2279128 L45.220892,15.2259128 Z" id="combie" fill="#6395FA" fill-rule="nonzero"></path>
                </g>
            </g>
        </g>
    </g>
</svg>