<?xml version="1.0" standalone="no"?><!DOCTYPE svg PUBLIC "-//W3C//DTD SVG 1.1//EN" "http://www.w3.org/Graphics/SVG/1.1/DTD/svg11.dtd"><svg t="1721027899660" class="icon" viewBox="0 0 1024 1024" version="1.1" xmlns="http://www.w3.org/2000/svg" p-id="18963" xmlns:xlink="http://www.w3.org/1999/xlink" width="200" height="200"><path d="M761.6 892.8c25.6-16 41.6-32 41.6-54.4 0-105.6-51.2-201.6-131.2-265.6h3.2c51.2 0 102.4-12.8 147.2-38.4 115.2 48 198.4 150.4 198.4 265.6 3.2 51.2-118.4 83.2-259.2 92.8z m-192-793.6c48-12.8 99.2-12.8 147.2 6.4 25.6 9.6 51.2 25.6 70.4 44.8 41.6 38.4 64 92.8 64 147.2 0 25.6-6.4 51.2-16 76.8-9.6 25.6-25.6 51.2-48 67.2-19.2 19.2-44.8 35.2-70.4 44.8-48 19.2-102.4 19.2-150.4 6.4 16-9.6 28.8-19.2 41.6-32 22.4-19.2 41.6-48 54.4-76.8 12.8-28.8 19.2-57.6 19.2-89.6 0-60.8-25.6-121.6-70.4-166.4-12.8-6.4-25.6-19.2-41.6-28.8z" p-id="18964" fill="currentColor"></path><path d="M518.4 524.8c115.2 57.6 195.2 176 195.2 313.6 0 144-688 147.2-688 0 0-134.4 80-256 195.2-313.6 41.6 25.6 92.8 44.8 147.2 44.8 54.4 0 105.6-16 150.4-44.8z m-307.2-89.6c-22.4-19.2-41.6-41.6-51.2-70.4-12.8-25.6-16-54.4-16-83.2s3.2-54.4 16-83.2c9.6-25.6 28.8-51.2 51.2-70.4 19.2-19.2 44.8-35.2 73.6-48 54.4-22.4 118.4-22.4 172.8 0 28.8 9.6 54.4 28.8 73.6 48 41.6 41.6 67.2 96 67.2 153.6 0 28.8-6.4 54.4-16 83.2-9.6 28.8-28.8 51.2-51.2 70.4-19.2 19.2-44.8 35.2-73.6 48-54.4 22.4-118.4 22.4-172.8 0-28.8-12.8-51.2-28.8-73.6-48z" p-id="18965" fill="currentColor"></path></svg>
