<?xml version="1.0" encoding="utf-8"?>
<!-- Generator: Adobe Illustrator 21.0.0, SVG Export Plug-In . SVG Version: 6.00 Build 0)  -->
<svg version="1.1" id="图层_1" xmlns="http://www.w3.org/2000/svg" xmlns:xlink="http://www.w3.org/1999/xlink" x="0px" y="0px"
	 viewBox="0 0 32 32" style="enable-background:new 0 0 32 32;" xml:space="preserve">
<style type="text/css">
	.st0{fill:#999999;}
</style>
<title>column-read-only</title>
<g id="column-read-only">
	<path id="形状结合" fill="currentColor" class="st0" d="M10.3,14.8l8.1,6.4l-7.4,7.4L1,31.5l2.9-10.1L10.3,14.8z M3.7,2.6l10.6,8.3L20,5.1l7.2,7.2
		l-4.8,4.8l8.9,7c0.7,0.5,0.8,1.5,0.3,2.1c-0.5,0.7-1.4,0.8-2.1,0.3L1.9,4.9C1.2,4.4,1.1,3.5,1.6,2.8C2.1,2.2,3,2.1,3.7,2.6z
		 M25.9,1.5c1.2,1.2,3.5,3.5,4.7,4.8c1.3,1.3,0.1,2.5,0.1,2.5l-2.4,2.4l-7.2-7.2l2.4-2.4C23.6,1.5,24.7,0.4,25.9,1.5z"/>
</g>
</svg>
