<svg width="32" height="32" viewBox="0 0 32 32" fill="none" xmlns="http://www.w3.org/2000/svg">
<path d="M27.5005 6.53711C27.5005 5.15656 26.381 4.03737 25.0005 4.03711H6.99951C5.6188 4.03711 4.49951 5.1564 4.49951 6.53711V21.5371C4.49978 22.9176 5.61896 24.0371 6.99951 24.0371H12.4995V26.1084L16.645 24.0371H25.0005C26.3808 24.0368 27.5002 22.9174 27.5005 21.5371V6.53711ZM30.5005 21.5371C30.5002 24.5743 28.0377 27.0368 25.0005 27.0371H17.3521L9.49951 30.9629V27.0371H6.99951C3.96211 27.0371 1.49978 24.5745 1.49951 21.5371V6.53711C1.49951 3.49954 3.96195 1.03711 6.99951 1.03711H25.0005C28.0378 1.03737 30.5005 3.49971 30.5005 6.53711V21.5371Z" fill="currentColor"/>
<path d="M22.9968 9.04249V12.0425H8.99683V9.04249H22.9968Z" fill="currentColor"/>
<path d="M16.9968 15.042V18.042H8.99677V15.042H16.9968Z" fill="currentColor"/>
</svg>
