<?xml version="1.0" encoding="utf-8"?>
<!-- Generator: Adobe Illustrator 21.0.0, SVG Export Plug-In . SVG Version: 6.00 Build 0)  -->
<svg version="1.1" id="图层_1" xmlns="http://www.w3.org/2000/svg" xmlns:xlink="http://www.w3.org/1999/xlink" x="0px" y="0px"
	 viewBox="0 0 32 32" style="enable-background:new 0 0 32 32;" xml:space="preserve">
<style type="text/css">
	.st0{fill:#949494;}
</style>
<title>copy</title>
<desc>Created with Sketch.</desc>
<g id="copy">
	<g id="_x31_复制" transform="translate(2.000000, 2.000000)">
		<path id="路径" class="st0" d="M21,23v3c0,1-1,2-2,2H2.6C1.3,28,0,26.6,0,25.4V9.2C0,8,1.1,7,2.2,7H5v14c0,1.1,0.6,2,1.9,2
			C7.5,23,20.9,23,21,23z"/>
		<path id="矩形" class="st0" d="M9,0h17c1.1,0,2,0.9,2,2v17c0,1.1-0.9,2-2,2H9c-1.1,0-2-0.9-2-2V2C7,0.9,7.9,0,9,0z"/>
	</g>
</g>
</svg>
