<?xml version="1.0" standalone="no"?><!DOCTYPE svg PUBLIC "-//W3C//DTD SVG 1.1//EN" "http://www.w3.org/Graphics/SVG/1.1/DTD/svg11.dtd"><svg t="1762151401551" class="icon" viewBox="0 0 1024 1024" version="1.1" xmlns="http://www.w3.org/2000/svg" p-id="29207" xmlns:xlink="http://www.w3.org/1999/xlink" width="200" height="200"><path d="M704 256c35.2 0 64 28.8 64 64v352h96c16 0 28.8-12.8 32-28.8V160c0-19.2-12.8-32-32-32H384c-19.2 0-32 12.8-32 32v96h352z m-44.8 96H140.8c-6.4 0-12.8 6.4-12.8 12.8v518.4c0 6.4 6.4 12.8 12.8 12.8h518.4c9.6 0 12.8-6.4 12.8-12.8V364.8c0-6.4-6.4-12.8-12.8-12.8zM256 96c0-35.2 28.8-64 64-64h608c35.2 0 64 28.8 64 64v608c0 35.2-28.8 64-64 64h-160v160c0 35.2-25.6 60.8-60.8 64H96c-35.2 0-64-28.8-64-64V320c0-35.2 28.8-64 64-64h160V96z" fill="currentColor" p-id="29208"></path></svg>
