<svg width="32" height="32" viewBox="0 0 32 32" fill="none" xmlns="http://www.w3.org/2000/svg">
<path fill-rule="evenodd" clip-rule="evenodd" d="M24 1.50217C27.5897 1.50232 30.5 4.41241 30.5 8.00217V18.9983C30.5 22.0357 28.0374 24.4981 25 24.4983H24.4971V24.9973C24.4971 28.0348 22.0345 30.4971 18.9971 30.4973H7C3.96244 30.4973 1.5 28.0349 1.5 24.9973V13.0012C1.50008 9.96369 3.96249 7.50119 7 7.50119H7.50293V7.00217C7.50293 3.96466 9.96545 1.50227 13.0029 1.50217H24ZM7 10.5012C5.61934 10.5012 4.50008 11.6206 4.5 13.0012V24.9973C4.5 26.378 5.61929 27.4973 7 27.4973H18.9971C20.3777 27.4971 21.4971 26.3779 21.4971 24.9973V13.0012C21.497 11.6206 20.3776 10.5013 18.9971 10.5012H7ZM13.0029 4.50217C11.6223 4.50227 10.5029 5.62152 10.5029 7.00217V7.50119H18.9971C22.0345 7.50134 24.497 9.96379 24.4971 13.0012V21.4983H25C26.3806 21.4981 27.5 20.3789 27.5 18.9983V8.00217C27.5 6.06927 25.9329 4.50232 24 4.50217H13.0029Z" fill="currentColor"/>
</svg>
