<svg width="32" height="32" viewBox="0 0 32 32" fill="none" xmlns="http://www.w3.org/2000/svg">
<path fill-rule="evenodd" clip-rule="evenodd" d="M26 18C29.3137 18 32 20.6863 32 24C32 27.3137 29.3137 30 26 30C22.6863 30 20 27.3137 20 24C20 20.6863 22.6863 18 26 18ZM25 24.5352L28.4453 26.832L29.5547 25.168L27 23.4648V20H25V24.5352Z" fill="currentColor"/>
<path fill-rule="evenodd" clip-rule="evenodd" d="M29 16.584C28.0733 16.2088 27.0612 16 26 16C21.5818 16 18 19.5818 18 24C18 25.4574 18.3913 26.8232 19.0723 28H3V12H29V16.584ZM7 24.5996H11V21.5996H7V24.5996ZM7 19H11V16H7V19Z" fill="currentColor"/>
<path d="M12 4.80273H20V2H23V4.80273H29V10H3V4.80273H9V2H12V4.80273Z" fill="currentColor"/>
</svg>
