<?xml version="1.0" standalone="no"?><!DOCTYPE svg PUBLIC "-//W3C//DTD SVG 1.1//EN" "http://www.w3.org/Graphics/SVG/1.1/DTD/svg11.dtd"><svg t="1718865369801" class="icon" viewBox="0 0 1024 1024" version="1.1" xmlns="http://www.w3.org/2000/svg" p-id="16662" xmlns:xlink="http://www.w3.org/1999/xlink" width="200" height="200"><path d="M681.6 480c-9.6 0-19.2 6.4-19.2 16-44.8 16-83.2 41.6-115.2 76.8v-70.4c0-12.8-9.6-22.4-22.4-22.4h-70.4c-12.8 0-22.4 9.6-22.4 22.4v70.4c0 12.8 9.6 22.4 22.4 22.4H531.2c-25.6 32-41.6 70.4-48 112h-28.8c-12.8 0-22.4 9.6-22.4 22.4V800c0 12.8 9.6 22.4 22.4 22.4h32c9.6 41.6 28.8 80 57.6 112L124.8 928c-54.4 0-83.2-38.4-83.2-83.2V368h896v182.4c-48-44.8-112-70.4-182.4-70.4h-73.6zM300.8 704H230.4c-12.8 0-22.4 9.6-22.4 22.4v70.4c0 12.8 9.6 22.4 22.4 22.4h70.4c12.8 0 22.4-9.6 22.4-22.4v-70.4c0-12.8-9.6-22.4-22.4-22.4z m0-224H230.4c-12.8 0-22.4 9.6-22.4 22.4v70.4c0 12.8 9.6 22.4 22.4 22.4h70.4c12.8 0 22.4-9.6 22.4-22.4v-70.4c0-12.8-9.6-22.4-22.4-22.4z m48-448c16 0 28.8 12.8 28.8 28.8v83.2h227.2V60.8c0-16 12.8-28.8 28.8-28.8h57.6c16 0 28.8 12.8 28.8 28.8v83.2h140.8c48 0 80 38.4 80 83.2v83.2h-896V227.2c0-44.8 38.4-83.2 83.2-83.2h140.8V60.8c-3.2-16 9.6-28.8 25.6-28.8h54.4z" p-id="16663"></path><path d="M758.4 979.2c-60.8 0-118.4-22.4-156.8-64-41.6-41.6-64-99.2-64-156.8-3.2-124.8 99.2-227.2 224-227.2s224 99.2 224 224-105.6 224-227.2 224z m86.4-195.2c12.8 0 25.6-9.6 25.6-25.6s-9.6-25.6-25.6-25.6h-73.6v-118.4c0-12.8-9.6-25.6-25.6-25.6s-25.6 9.6-25.6 25.6v144c0 12.8 9.6 25.6 25.6 25.6h99.2z" p-id="16664"></path></svg>