<svg width="32" height="32" viewBox="0 0 32 32" fill="none" xmlns="http://www.w3.org/2000/svg">
<path d="M27.5 16C27.5 9.64873 22.3513 4.5 16 4.5C9.64873 4.5 4.5 9.64873 4.5 16C4.5 22.3513 9.64873 27.5 16 27.5C22.3513 27.5 27.5 22.3513 27.5 16ZM30.5 16C30.5 24.0081 24.0081 30.5 16 30.5C7.99187 30.5 1.5 24.0081 1.5 16C1.5 7.99187 7.99187 1.5 16 1.5C24.0081 1.5 30.5 7.99187 30.5 16Z" fill="currentColor"/>
<path d="M20 16C20 18.2091 18.2091 20 16 20C13.7909 20 12 18.2091 12 16C12 13.7909 13.7909 12 16 12C18.2091 12 20 13.7909 20 16Z" fill="currentColor"/>
<path d="M8 14.5V17.5H3V14.5H8Z" fill="currentColor"/>
<path d="M29 14.5V17.5H24V14.5H29Z" fill="currentColor"/>
<path d="M14.4902 24.01H17.4902V29.01H14.4902V24.01Z" fill="currentColor"/>
<path d="M14.4902 3.01001L17.4902 3.01001V8.01001H14.4902V3.01001Z" fill="currentColor"/>
</svg>
