<?xml version="1.0" encoding="utf-8"?>
<!-- Generator: Adobe Illustrator 21.0.0, SVG Export Plug-In . SVG Version: 6.00 Build 0)  -->
<svg version="1.1" id="图层_1" xmlns="http://www.w3.org/2000/svg" xmlns:xlink="http://www.w3.org/1999/xlink" x="0px" y="0px"
	 viewBox="0 0 32 32" style="enable-background:new 0 0 32 32;" xml:space="preserve">
<style type="text/css">
	.st0{fill:#999999;}
</style>
<title>currency</title>
<g id="currency">
	<path id="路径" class="st0" d="M24.4,20.4c0,3.3-2.3,6.1-6.5,6.8V30c0,0.6-0.4,1-1,1h-1.6c-0.6,0-1-0.4-1-1v-2.5l0,0
		c-2.5-0.1-4.9-0.8-6.2-1.6l1.1-4.3c1.5,0.8,3.7,1.6,6.1,1.6c2.1,0,3.6-0.8,3.6-2.3c0-1.4-1.2-2.3-3.9-3.2c-3.9-1.3-6.6-3.2-6.6-6.7
		c0-3.3,2.3-5.8,6.2-6.5V2c0-0.6,0.4-1,1-1H17c0.6,0,1,0.4,1,1v2.2l0,0c2.4,0.1,4.1,0.6,5.4,1.2l-1.1,4.2c-0.9-0.4-2.6-1.3-5.3-1.3
		c-2.4,0-3.2,1.1-3.2,2.1c0,1.2,1.3,2,4.4,3.1C22.7,15.1,24.4,17.1,24.4,20.4z"/>
</g>
</svg>
