<svg width="20" height="20" viewBox="0 0 20 20" fill="none" xmlns="http://www.w3.org/2000/svg">
<path fill-rule="evenodd" clip-rule="evenodd" d="M10 0.5C15.2467 0.5 19.5 4.75329 19.5 10C19.5 15.2467 15.2467 19.5 10 19.5C4.75329 19.5 0.5 15.2467 0.5 10C0.5 4.75329 4.75329 0.5 10 0.5ZM9.5 5.08398C8.74384 5.14019 8.12906 5.33674 7.63086 5.6875C6.95228 6.14897 6.62022 6.8086 6.62012 7.67871C6.62012 8.65454 7.07235 9.39343 8.00391 9.89453L9.53418 10.4482L10.4121 10.7646C10.4652 10.7778 10.5055 10.7911 10.5586 10.8174C11.4768 11.1339 11.9434 11.596 11.9434 12.1895C11.9432 12.6244 11.7563 12.9668 11.3838 13.2041C11.1176 13.3755 10.7847 13.4814 10.4121 13.5342H9.53418C9.12175 13.4814 8.80239 13.3496 8.57617 13.1387C8.27009 12.8486 8.09718 12.3468 8.04395 11.6611H6.5C6.57985 12.7425 6.89907 13.5477 7.45801 14.0752C7.93102 14.5178 8.61194 14.7662 9.5 14.8359V16H11V14.7715C11.5519 14.6772 12.0242 14.5022 12.4219 14.2461C13.1404 13.7714 13.4999 13.0728 13.5 12.1367C13.5 11.1741 13.0343 10.4352 12.1162 9.9209C12.0364 9.86815 11.4634 9.65683 10.4121 9.27441L9.53418 8.94531C8.62924 8.60246 8.17676 8.17981 8.17676 7.67871C8.17685 7.19103 8.3498 6.83496 8.70898 6.62402C8.9086 6.49216 9.18819 6.39991 9.53418 6.36035L10.4121 6.37402C10.7447 6.41357 11.0113 6.50539 11.2109 6.65039C11.5302 6.8745 11.7297 7.25696 11.8096 7.81055H13.3271C13.194 6.84812 12.861 6.14946 12.3154 5.72754C11.9703 5.45393 11.5299 5.25992 11 5.15625V4H9.5V5.08398Z" fill="currentColor"/>
</svg>
