<?xml version="1.0" standalone="no"?><!DOCTYPE svg PUBLIC "-//W3C//DTD SVG 1.1//EN" "http://www.w3.org/Graphics/SVG/1.1/DTD/svg11.dtd"><svg t="1715912574269" class="icon" viewBox="0 0 1024 1024" version="1.1" xmlns="http://www.w3.org/2000/svg" p-id="13472" xmlns:xlink="http://www.w3.org/1999/xlink" width="200" height="200"><path d="M643.2 467.2l-217.6-64c-25.6-6.4-41.6-32-41.6-57.6 0-32 25.6-57.6 57.6-57.6H576c25.6 0 48 6.4 67.2 22.4 12.8 9.6 28.8 6.4 38.4-3.2l70.4-67.2c16-16 12.8-38.4-3.2-51.2C700.8 150.4 640 128 576 128V32c0-19.2-16-32-32-32h-64c-19.2 0-32 12.8-32 32v96h-6.4c-128 0-230.4 108.8-217.6 240 9.6 92.8 80 166.4 166.4 192l204.8 60.8c25.6 6.4 41.6 32 41.6 57.6 0 32-25.6 57.6-57.6 57.6H448c-25.6 0-48-6.4-67.2-22.4-12.8-9.6-28.8-6.4-38.4 3.2l-70.4 67.2c-16 16-12.8 38.4 3.2 51.2C323.2 873.6 384 896 448 896v96c0 16 16 32 32 32h64c19.2 0 32-16 32-32v-96c92.8-3.2 179.2-57.6 211.2-144 44.8-124.8-28.8-252.8-144-284.8z" fill="#949494" p-id="13473"></path></svg>