<?xml version="1.0" encoding="utf-8"?>
<!-- Generator: Adobe Illustrator 21.0.0, SVG Export Plug-In . SVG Version: 6.00 Build 0)  -->
<svg version="1.1" id="图层_1" xmlns="http://www.w3.org/2000/svg" xmlns:xlink="http://www.w3.org/1999/xlink" x="0px" y="0px"
	 viewBox="0 0 32 32" style="enable-background:new 0 0 32 32;" xml:space="preserve">
<style type="text/css">
	.st0{fill:#999999;}
</style>
<title>dark-mode</title>
<g id="dark-mode">
	<path id="形状" class="st0" d="M12.4,1.1c1.5-0.4,2.7,1.2,2,2.5c-2.1,4-1.3,8.9,2,11.9s8.2,3.4,12,0.9c1.3-0.8,2.9,0.2,2.7,1.7
		C29.8,25.6,23.5,31,16.1,31C7.8,31,1,24.2,1,15.8C1,8.8,5.7,2.7,12.4,1.1L12.4,1.1z M10.4,4.9c-4.3,2.9-7.2,7.9-6.1,13
		s5.2,9,10.4,9.8s10.1-2.6,12.8-7.1c0.2-0.4,0.3-0.6,0.3-0.6c-6.6,2.6-11.8,0-14.6-3.1s-3.1-7.2-2.6-11.3l0.1-0.9L10.4,4.9z"/>
</g>
</svg>
