<svg width="32" height="32" viewBox="0 0 32 32" fill="none" xmlns="http://www.w3.org/2000/svg">
<path d="M14.5518 8C14.5518 7.17419 14.6278 6.36556 14.7705 5.58008C9.57601 6.21219 5.55176 10.6348 5.55176 16C5.55176 21.799 10.2528 26.5 16.0518 26.5C19.9614 26.5 23.3701 24.36 25.1768 21.1855C19.1025 19.8676 14.5518 14.4693 14.5518 8ZM17.5518 8C17.5518 13.5984 21.9347 18.1721 27.4561 18.4805L29.4482 18.5918L28.7881 20.4766C26.9421 25.7287 21.9412 29.5 16.0518 29.5C8.59591 29.5 2.55176 23.4558 2.55176 16C2.55176 8.54416 8.59591 2.5 16.0518 2.5C16.3101 2.5 16.5646 2.50763 16.8135 2.52148L18.8076 2.63281L18.1455 4.51758C17.7626 5.60683 17.5518 6.77763 17.5518 8Z" fill="currentColor"/>
</svg>
