<?xml version="1.0" standalone="no"?><!DOCTYPE svg PUBLIC "-//W3C//DTD SVG 1.1//EN" "http://www.w3.org/Graphics/SVG/1.1/DTD/svg11.dtd"><svg t="1721027924347" class="icon" viewBox="0 0 1024 1024" version="1.1" xmlns="http://www.w3.org/2000/svg" p-id="19106" xmlns:xlink="http://www.w3.org/1999/xlink" width="200" height="200"><path d="M38.4 902.4c0 51.2 32 89.6 89.6 89.6h780.8c57.6 0 83.2-41.6 83.2-89.6v-512H38.4v512z m662.4-368c0-12.8 9.6-22.4 22.4-22.4h73.6c12.8 0 22.4 9.6 22.4 22.4V608c0 12.8-9.6 22.4-22.4 22.4h-73.6c-12.8 0-22.4-9.6-22.4-22.4v-73.6z m0 240c0-12.8 9.6-22.4 22.4-22.4h73.6c12.8 0 22.4 9.6 22.4 22.4v73.6c0 12.8-9.6 22.4-22.4 22.4h-73.6c-12.8 0-22.4-9.6-22.4-22.4v-73.6z m-240-240c0-12.8 9.6-22.4 22.4-22.4h73.6c12.8 0 22.4 9.6 22.4 22.4V608c0 12.8-9.6 22.4-22.4 22.4h-73.6c-12.8 0-22.4-9.6-22.4-22.4v-73.6z m0 240c0-12.8 9.6-22.4 22.4-22.4h73.6c12.8 0 22.4 9.6 22.4 22.4v73.6c0 12.8-9.6 22.4-22.4 22.4h-73.6c-12.8 0-22.4-9.6-22.4-22.4v-73.6z m-240-240c0-12.8 9.6-22.4 22.4-22.4h73.6c12.8 0 22.4 9.6 22.4 22.4V608c0 12.8-9.6 22.4-22.4 22.4H243.2c-12.8 0-22.4-9.6-22.4-22.4v-73.6z m0 240c0-12.8 9.6-22.4 22.4-22.4h73.6c12.8 0 22.4 9.6 22.4 22.4v73.6c0 12.8-9.6 22.4-22.4 22.4H243.2c-12.8 0-22.4-9.6-22.4-22.4v-73.6zM908.8 153.6h-147.2V60.8c0-16-12.8-28.8-28.8-28.8H672c-19.2 0-32 12.8-32 28.8v89.6h-240V60.8c0-16-12.8-28.8-28.8-28.8H310.4c-16 0-28.8 12.8-28.8 28.8v89.6H131.2C80 153.6 38.4 192 38.4 240v89.6H992V240c0-48-35.2-86.4-83.2-86.4z" p-id="19107"></path></svg>