<?xml version="1.0" standalone="no"?><!DOCTYPE svg PUBLIC "-//W3C//DTD SVG 1.1//EN" "http://www.w3.org/Graphics/SVG/1.1/DTD/svg11.dtd"><svg t="1761888878950" class="icon" viewBox="0 0 1024 1024" version="1.1" xmlns="http://www.w3.org/2000/svg" p-id="26744" xmlns:xlink="http://www.w3.org/1999/xlink" width="200" height="200"><path d="M672 32c35.2 0 64 28.8 64 64v96h240c9.6 0 16 6.4 16 16v64c0 9.6-6.4 16-16 16H864v640c0 35.2-28.8 64-64 64H224c-35.2 0-64-28.8-64-64V288H48c-9.6 0-16-6.4-16-16v-64c0-9.6 6.4-16 16-16H288V96c0-35.2 28.8-64 64-64h320z m96 256H256v576c0 19.2 12.8 32 32 32h448c19.2 0 32-12.8 32-32V288z m-121.6 128c6.4 0 9.6 3.2 9.6 9.6v329.6c0 9.6-3.2 9.6-9.6 9.6h-76.8c-6.4 0-9.6-3.2-9.6-9.6V425.6c0-9.6 3.2-9.6 9.6-9.6h76.8z m-192 0c6.4 0 9.6 3.2 9.6 9.6v329.6c0 9.6-3.2 9.6-9.6 9.6h-76.8c-6.4 0-9.6-3.2-9.6-9.6V425.6c0-9.6 3.2-9.6 9.6-9.6h76.8zM640 128h-256v64h256V128z" fill="currentColor" p-id="26745"></path></svg>
