<?xml version="1.0" encoding="utf-8"?>
<!-- Generator: Adobe Illustrator 21.0.0, SVG Export Plug-In . SVG Version: 6.00 Build 0)  -->
<svg version="1.1" id="图层_1" xmlns="http://www.w3.org/2000/svg" xmlns:xlink="http://www.w3.org/1999/xlink" x="0px" y="0px"
	 viewBox="0 0 32 32" style="enable-background:new 0 0 32 32;" xml:space="preserve">
<title>delete</title>
<path class="st0" d="M19.4,0c0.8,0,1.6,0.7,1.7,1.5l0.4,2.7h7.2c0.7,0,1.3,0.6,1.3,1.2s-0.6,1.2-1.3,1.2h-2.5v20
c0,0.8-0.4,1.7-1,2.4c-0.7,0.7-1.5,0.9-2.4,0.9H7.3c-0.9,0-1.8-0.4-2.4-0.9c-0.7-0.7-1-1.5-1-2.4v-20H1.3C0.6,6.7,0,6.1,0,5.5
s0.6-1.2,1.3-1.2h7.1V4.1l0.4-2.7C8.9,0.7,9.6,0,10.5,0H19.4z M18.3,11.2c-0.8,0-1.4,0.6-1.4,1.4l0,0V23c0,0.8,0.6,1.4,1.4,1.4
s1.4-0.6,1.4-1.4l0,0V12.7C19.7,11.9,19.1,11.2,18.3,11.2z M11.7,11.2c-0.8,0-1.4,0.6-1.4,1.4l0,0V23c0,0.8,0.6,1.4,1.4,1.4
s1.4-0.6,1.4-1.4l0,0V12.7C13.1,11.9,12.5,11.2,11.7,11.2z" fill="currentColor"/>

</svg>
