<?xml version="1.0" encoding="utf-8"?>
<!-- Generator: Adobe Illustrator 21.0.0, SVG Export Plug-In . SVG Version: 6.00 Build 0)  -->
<svg version="1.1" id="图层_1" xmlns="http://www.w3.org/2000/svg" xmlns:xlink="http://www.w3.org/1999/xlink" x="0px" y="0px"
	 viewBox="0 0 32 32" style="enable-background:new 0 0 32 32;" xml:space="preserve">
<style type="text/css">
	.st0{fill:#999999;}
</style>
<path class="st0" d="M22,0c1.1,0,2,0.9,2,2v3h7.5C31.8,5,32,5.2,32,5.5v2C32,7.8,31.8,8,31.5,8H28v22c0,1.1-0.9,2-2,2H6
	c-1.1,0-2-0.9-2-2V8H0.5C0.2,8,0,7.8,0,7.5v-2C0,5.2,0.2,5,0.5,5H8V2c0-1.1,0.9-2,2-2H22z M25,8H7v20c0,0.6,0.4,1,1,1h16
	c0.6,0,1-0.4,1-1V8z M20.7,12c0.2,0,0.3,0.1,0.3,0.4v12.2c0,0.3-0.1,0.4-0.3,0.4h-2.4c-0.2,0-0.3-0.1-0.3-0.4V12.4
	c0-0.3,0.1-0.4,0.3-0.4H20.7z M13.7,12c0.2,0,0.3,0.1,0.3,0.4v12.2c0,0.3-0.1,0.4-0.3,0.4h-2.4c-0.2,0-0.3-0.1-0.3-0.4V12.4
	c0-0.3,0.1-0.4,0.3-0.4H13.7z M21,3H11v2h10V3z"/>
</svg>
