<svg width="32" height="32" viewBox="0 0 32 32" fill="none" xmlns="http://www.w3.org/2000/svg">
<path d="M14.457 23.304H11.457V13.5648H14.457V23.304Z" fill="currentColor"/>
<path d="M20.543 23.304H17.543V13.5648H20.543V23.304Z" fill="currentColor"/>
<path fill-rule="evenodd" clip-rule="evenodd" d="M30 8.97784H27.8477V25.3909C27.8476 28.4284 25.3852 30.8909 22.3477 30.8909H9.65234C6.61481 30.8909 4.15238 28.4285 4.15234 25.3909V8.97784H2V5.97784H30V8.97784ZM7.15234 25.3909C7.15238 26.7716 8.27166 27.8909 9.65234 27.8909H22.3477C23.7283 27.8909 24.8476 26.7716 24.8477 25.3909V8.97784H7.15234V25.3909Z" fill="currentColor"/>
<path d="M21.4785 4.1087H9.30469V1.1087H21.4785V4.1087Z" fill="currentColor"/>
</svg>
