<?xml version="1.0" standalone="no"?><!DOCTYPE svg PUBLIC "-//W3C//DTD SVG 1.1//EN" "http://www.w3.org/Graphics/SVG/1.1/DTD/svg11.dtd"><svg t="1761880414493" class="icon" viewBox="0 0 1024 1024" version="1.1" xmlns="http://www.w3.org/2000/svg" p-id="24181" xmlns:xlink="http://www.w3.org/1999/xlink" width="200" height="200"><path d="M790.4 32c25.6 0 48 9.6 67.2 25.6 19.2 19.2 28.8 41.6 28.8 67.2v800H928c16 0 32 12.8 32 32 0 16-12.8 38.4-32 38.4L96 992c-16 0-32-19.2-32-38.4s12.8-32 32-32h44.8V124.8c0-25.6 9.6-48 28.8-67.2S211.2 32 236.8 32h553.6zM576 736h-128v192h128v-192z m-160-192H288v128h128v-128z m320 0h-128v128h128v-128z m-320-192H288v128h128v-128z m320 0h-128v128h128v-128z m0-192h-128v128h128V160zM416 160H288v128h128V160z" fill="#999999" p-id="24182"></path></svg>