<?xml version="1.0" standalone="no"?><!DOCTYPE svg PUBLIC "-//W3C//DTD SVG 1.1//EN" "http://www.w3.org/Graphics/SVG/1.1/DTD/svg11.dtd"><svg t="1719975260555" class="icon" viewBox="0 0 1024 1024" version="1.1" xmlns="http://www.w3.org/2000/svg" p-id="16923" xmlns:xlink="http://www.w3.org/1999/xlink" width="200" height="200"><path d="M512 32C249.6 32 32 246.4 32 512s217.6 480 480 480 480-214.4 480-480S777.6 32 512 32z m-32 755.2c-19.2 0-35.2-16-35.2-35.2v-275.2c0-19.2 16-35.2 35.2-35.2h67.2c19.2 0 35.2 16 35.2 35.2v275.2c0 19.2-16 35.2-35.2 35.2H480z m0-412.8c-19.2 0-35.2-16-35.2-35.2V272c0-19.2 16-35.2 35.2-35.2h67.2c19.2 0 35.2 16 35.2 35.2v67.2c0 19.2-16 35.2-35.2 35.2H480z" p-id="16924"></path></svg>