<svg width="20" height="20" viewBox="0 0 20 20" fill="none" xmlns="http://www.w3.org/2000/svg">
<path d="M18 1.5C18.5523 1.5 19 1.94772 19 2.5V5.5C19 6.05228 18.5523 6.5 18 6.5H2C1.44772 6.5 1 6.05228 1 5.5V2.5C1.00001 1.94772 1.44772 1.5 2 1.5H18ZM11 3.5V4.5H17V3.5H11Z" fill="currentColor"/>
<path d="M18 7.5C18.5523 7.5 19 7.94772 19 8.5V11.5C19 12.0523 18.5523 12.5 18 12.5H2C1.44772 12.5 1 12.0523 1 11.5V8.5C1 7.94772 1.44772 7.5 2 7.5H18ZM10.5625 9.5V10.5H16.5625V9.5H10.5625Z" fill="currentColor"/>
<path d="M18 13.5C18.5523 13.5 19 13.9477 19 14.5V17.5C19 18.0523 18.5523 18.5 18 18.5H2C1.44772 18.5 1 18.0523 1 17.5V14.5C1 13.9477 1.44772 13.5 2 13.5H18ZM10.5625 15.5V16.5H16.5625V15.5H10.5625Z" fill="currentColor"/>
</svg>
