<?xml version="1.0" standalone="no"?><!DOCTYPE svg PUBLIC "-//W3C//DTD SVG 1.1//EN" "http://www.w3.org/Graphics/SVG/1.1/DTD/svg11.dtd"><svg t="1762913424777" class="icon" viewBox="0 0 1024 1024" version="1.1" xmlns="http://www.w3.org/2000/svg" p-id="5795" xmlns:xlink="http://www.w3.org/1999/xlink" width="200" height="200"><path d="M512 992C249.6 992 32 774.4 32 512S249.6 32 512 32s480 217.6 480 480-217.6 480-480 480z m0-896C281.6 96 96 281.6 96 512s185.6 416 416 416 416-185.6 416-416S742.4 96 512 96z m217.6 380.8c-22.4 44.8-70.4 134.4-70.4 134.4l-19.2 25.6h73.6l-144 198.4 32-134.4H544l22.4-89.6c-22.4 6.4-38.4 12.8-60.8 19.2 0 0-28.8 32-89.6-22.4 0 0-38.4-35.2-19.2-44.8 9.6-3.2 41.6-16 70.4-22.4 38.4-6.4 70.4-16 70.4-16s-121.6 3.2-150.4-3.2-67.2-48-73.6-92.8c0 0-12.8-25.6 25.6-12.8s198.4 35.2 198.4 35.2-208-67.2-217.6-83.2-41.6-86.4-38.4-128c0 0 0-12.8 12.8-9.6 0 0 153.6 70.4 259.2 115.2 105.6 38.4 195.2 60.8 182.4 112-3.2 6.4-6.4 12.8-6.4 19.2z" fill="#949494" p-id="5796"></path></svg>