<svg width="20" height="20" viewBox="0 0 20 20" fill="none" xmlns="http://www.w3.org/2000/svg">
<path d="M10 0.5C4.75331 0.5 0.5 4.75329 0.5 10C0.5 15.2467 4.75331 19.5 10 19.5C15.2467 19.5 19.5 15.2467 19.5 10C19.5 4.75331 15.2467 0.5 10 0.5ZM14.4027 8.73519C14.3829 8.81849 14.3343 8.94053 14.2659 9.08791H14.2674L14.2596 9.10156C13.8609 9.95459 12.82 11.6276 12.82 11.6276C12.82 11.6276 12.8185 11.6237 12.8145 11.6171L12.5103 12.1466H13.9763L11.1764 15.8699L11.8121 13.337H10.6585L11.0593 11.6621C10.7349 11.7404 10.3518 11.8479 9.89771 11.9938C9.89771 11.9938 9.28365 12.3535 8.12867 11.302C8.12867 11.302 7.34978 10.6158 7.8014 10.4443C7.99349 10.3714 8.73386 10.2788 9.31646 10.2001C10.1037 10.0936 10.5881 10.0373 10.5881 10.0373C10.5881 10.0373 8.16087 10.0736 7.58508 9.98295C7.00919 9.89243 6.27871 8.93155 6.12313 8.0869C6.12313 8.0869 5.88247 7.62315 6.64059 7.84267C7.39869 8.0622 10.537 8.6972 10.537 8.6972C10.537 8.6972 6.45558 7.44617 6.18403 7.14096C5.91241 6.83572 5.3847 5.47456 5.45341 4.63822C5.45341 4.63822 5.48321 4.42973 5.69701 4.48556C5.69701 4.48556 8.71434 5.86434 10.7775 6.6191C12.8407 7.37389 14.6345 7.75787 14.4027 8.73521V8.73519Z" fill="currentColor"/>
</svg>
