<?xml version="1.0" encoding="utf-8"?>
<!-- Generator: Adobe Illustrator 18.0.0, SVG Export Plug-In . SVG Version: 6.00 Build 0)  -->
<!DOCTYPE svg PUBLIC "-//W3C//DTD SVG 1.1//EN" "http://www.w3.org/Graphics/SVG/1.1/DTD/svg11.dtd">
<svg version="1.0" id="Layer_1" xmlns="http://www.w3.org/2000/svg" xmlns:xlink="http://www.w3.org/1999/xlink" x="0px" y="0px"
	 viewBox="0 0 24 24" enable-background="new 0 0 24 24" xml:space="preserve">
<g>
	<!-- Right chat bubble (background) -->
	<path fill="#A2A2A2" d="M8.6,4.8c1.4-2,3.9-3.4,6.8-3.4c4.3,0,7.8,3.1,7.8,6.8c0,1.5-0.5,2.8-1.4,3.9c-0.3,0.5-0.5,1.1-0.5,1.9c0,1.1,0.6,1.9,0.6,1.9c0.2,0.3,0,0.5-0.3,0.5c0,0-2.3,0.2-2.8-2.2c0,0,0,0,0,0C18.5,9.3,14.2,5.2,8.6,4.8z"/>
	<!-- Left chat bubble (foreground) -->
	<path fill="#A2A2A2" d="M0.8,13.8C0.8,10,4.3,7,8.7,7s7.8,3.1,7.8,6.8s-3.5,6.8-7.8,6.8c-0.8,0-1.6-0.1-2.3-0.3c-0.6,1.3-2,2.3-3.5,2.3c-0.4,0-0.7-0.1-0.7-0.1c-0.3-0.1-0.4-0.3-0.2-0.5c0,0,0.9-1.3,0.9-2.3c0-0.8-0.3-1.4-0.5-1.9C1.4,16.6,0.8,15.3,0.8,13.8z"/>
</g>
</svg>
