<?xml version="1.0" encoding="utf-8"?>
<!-- Generator: Adobe Illustrator 21.0.0, SVG Export Plug-In . SVG Version: 6.00 Build 0)  -->
<svg version="1.1" id="图层_1" xmlns="http://www.w3.org/2000/svg" xmlns:xlink="http://www.w3.org/1999/xlink" x="0px" y="0px"
	 viewBox="0 0 32 32" style="enable-background:new 0 0 32 32;" xml:space="preserve">
<style type="text/css">
	.st0{fill:#999999;}
</style>
<title>unfold</title>
<g id="unfold">
	<path id="形状结合" class="st0" d="M16,17.6c0.3,0,0.7-0.1,0.9-0.4l10.7-11c0.5-0.5,0.5-1.4,0-1.9c-0.5-0.5-1.3-0.5-1.8,0
		l-9.8,10l-9.8-10c-0.5-0.5-1.3-0.5-1.8,0C4.1,4.6,4,5,4,5.3C4,5.7,4.1,6,4.4,6.3l10.7,11C15.3,17.5,15.7,17.6,16,17.6z M16,28
		c0.3,0,0.7-0.1,0.9-0.4l10.7-11c0.5-0.5,0.5-1.4,0-1.9c-0.5-0.5-1.3-0.5-1.8,0l-9.8,10l-9.8-10c-0.5-0.5-1.3-0.5-1.8,0
		C4.1,15,4,15.3,4,15.7s0.1,0.7,0.4,0.9l10.7,11C15.3,27.9,15.7,28,16,28z"/>
</g>
</svg>
