<svg width="32" height="32" viewBox="0 0 32 32" fill="none" xmlns="http://www.w3.org/2000/svg">
<path d="M15.6897 5.81042H7.6897C6.30907 5.81042 5.18983 6.92983 5.1897 8.31042V24.3104C5.1897 25.6911 6.30899 26.8104 7.6897 26.8104H23.6897C25.0704 26.8104 26.1897 25.6911 26.1897 24.3104V16.3104H29.1897V24.3104C29.1897 27.348 26.7273 29.8104 23.6897 29.8104H7.6897C4.65213 29.8104 2.1897 27.348 2.1897 24.3104V8.31042C2.18983 5.27297 4.65221 2.81042 7.6897 2.81042H15.6897V5.81042Z" fill="currentColor"/>
<path fill-rule="evenodd" clip-rule="evenodd" d="M29.8108 9.31042L16.7034 22.4159L16.1057 22.4335L9.20337 22.6249L9.40063 15.4784L22.6897 2.18933L29.8108 9.31042ZM12.3694 16.7518L12.2913 19.537L15.426 19.451L25.5686 9.31042L22.6897 6.43152L12.3694 16.7518Z" fill="currentColor"/>
</svg>
