<?xml version="1.0" encoding="utf-8"?>
<!-- Generator: Adobe Illustrator 21.0.0, SVG Export Plug-In . SVG Version: 6.00 Build 0)  -->
<svg version="1.1" id="图层_1" xmlns="http://www.w3.org/2000/svg" xmlns:xlink="http://www.w3.org/1999/xlink" x="0px" y="0px"
	 viewBox="0 0 32 32" style="enable-background:new 0 0 32 32;" xml:space="preserve">
<style type="text/css">
	.st0{fill:#949494;}
</style>
<path class="st0" d="M21.6,8l4.4,4.4c0.2,0.2,0.2,0.5,0,0.7L15.3,23.7l-4.5,0.5c-0.6,0.1-1.1-0.4-1-1l0.5-4.5L20.9,8
	C21.1,7.9,21.4,7.9,21.6,8z M29.4,6.9L27,4.5c-0.7-0.7-1.9-0.7-2.7,0l-1.7,1.7c-0.2,0.2-0.2,0.5,0,0.7l4.4,4.4
	c0.2,0.2,0.5,0.2,0.7,0l1.7-1.7C30.2,8.9,30.2,7.7,29.4,6.9z M20.7,20.8v4.9H5.1V10.2h11.2c0.2,0,0.3-0.1,0.4-0.2l1.9-1.9
	c0.4-0.4,0.1-1-0.4-1H4.3C3,7.1,2,8.2,2,9.4v17.1c0,1.3,1,2.3,2.3,2.3h17.1c1.3,0,2.3-1,2.3-2.3v-7.7c0-0.5-0.6-0.8-1-0.4l-1.9,1.9
	C20.7,20.5,20.7,20.7,20.7,20.8z"/>
</svg>
