<?xml version="1.0" encoding="utf-8"?>
<!-- Generator: Adobe Illustrator 21.0.0, SVG Export Plug-In . SVG Version: 6.00 Build 0)  -->
<svg version="1.1" id="图层_1" xmlns="http://www.w3.org/2000/svg" xmlns:xlink="http://www.w3.org/1999/xlink" x="0px" y="0px"
	 viewBox="0 0 32 32" style="enable-background:new 0 0 32 32;" xml:space="preserve">
<style type="text/css">
	.st0{fill:#949494;}
</style>
<path class="st0" d="M21,23.4c-0.2,0.2-0.2,0.4,0,0.6h0.1c0.9,0.8,1.5,2,1.6,3.2c0.3,0.9,1.2,1.5,2.1,1.2s1.5-1.2,1.2-2.1
	c-0.2-0.7-0.8-1.2-1.5-1.3c-1.1-0.2-2.2-0.8-3-1.6C21.4,23.3,21.2,23.3,21,23.4z M28,20.7c-0.3,0.3-0.5,0.6-0.5,1
	c-0.2,1.1-0.8,2.2-1.6,3c-0.2,0.2-0.2,0.4,0,0.6s0.4,0.2,0.6,0l0.1-0.1c0.8-0.9,2-1.5,3.2-1.6c0.9-0.2,1.5-1.2,1.2-2.1
	c-0.2-0.9-1.2-1.5-2.1-1.2C28.5,20.3,28.3,20.5,28,20.7z M23.2,15.8c-0.7,0.7-0.7,1.8,0,2.4c0.3,0.3,0.6,0.5,1,0.5
	c1.1,0.2,2.2,0.8,3,1.6c0.2,0.2,0.4,0.2,0.6,0s0.2-0.4,0-0.6l-0.1-0.1c-0.9-0.8-1.5-2-1.6-3.2c-0.3-0.9-1.2-1.5-2.1-1.2
	C23.6,15.4,23.4,15.6,23.2,15.8z M22.3,18.5c-0.9,1-2,1.6-3.3,1.7c-0.9,0.2-1.5,1.2-1.2,2.1c0.1,0.3,0.2,0.6,0.5,0.8
	c0.7,0.7,1.8,0.7,2.4,0c0.3-0.3,0.5-0.6,0.5-1c0.2-1.1,0.8-2.2,1.6-3c0.2-0.2,0.2-0.4,0-0.6C22.8,18.4,22.5,18.4,22.3,18.5z"/>
<path class="st0" d="M11.9,3.6c-3.1,0.3-6,1.6-8,3.7C3.1,8.1,2.5,9,2,10c-1.5,3.1-1.3,6.8,0.7,9.6c0.5,0.8,1.5,1.9,2.3,2.6l-0.4,2.9
	v0.4c0,0.5,0.5,0.9,1,0.9c0.1,0,0.3-0.1,0.4-0.1h0.1L7,25.9l2.7-1.3c1.3,0.4,2.6,0.5,3.9,0.5c1.6,0,3.2-0.3,4.8-0.8
	c-0.8-0.3-1.3-1-1.2-1.8c-1.6,0.5-3.3,0.7-4.9,0.5H12c-0.6-0.1-1.2-0.2-1.8-0.4c-0.3-0.1-0.7-0.1-0.9,0.1H9.2L7,24l-0.1,0.1H6.8
	c-0.1,0-0.1-0.1-0.1-0.2l0.1-0.3l0.1-0.4l0.2-0.6l0.2-0.7c0.1-0.4,0-0.8-0.3-1c-0.9-0.6-1.6-1.4-2.2-2.3C3,16.3,2.8,13.4,4,11
	c0.4-0.8,0.9-1.5,1.6-2.2c1.7-1.7,4-2.8,6.6-3.1c0.9-0.1,1.8-0.1,2.7,0c2.6,0.3,4.9,1.4,6.5,3.1c0.6,0.7,1.2,1.4,1.5,2.2
	c0.5,1,0.8,2.2,0.8,3.3v0.4c0.7-0.4,1.6-0.3,2.1,0.2l0.1,0.1c0.1-1.7-0.2-3.4-0.9-4.9c-0.5-1-1.1-1.9-1.9-2.7
	c-2.1-2.1-4.9-3.5-7.9-3.8C14,3.4,12.9,3.4,11.9,3.6z"/>
</svg>
