<svg width="20" height="20" viewBox="0 0 20 20" fill="none" xmlns="http://www.w3.org/2000/svg">
<path d="M16 1C17.6567 1 18.9997 2.34337 19 4V15.999C18.9999 17.6558 17.6568 19 16 19H4C2.34333 18.9999 1.0002 17.6566 1 16V4C1 2.34319 2.34321 1.00007 4 1H16ZM13.0947 12.9746C13.074 12.9828 13.055 12.9952 13.0391 13.0107C13.005 13.0478 12.9865 13.0971 12.9873 13.1475C12.9898 13.1719 12.9975 13.1956 13.0098 13.2168C13.0221 13.2379 13.0387 13.2563 13.0586 13.2705C13.4246 13.6126 13.6618 14.0708 13.7285 14.5674C13.8195 14.9112 14.1567 15.1319 14.5078 15.0801C14.8581 15.0274 15.118 14.7227 15.1113 14.373C15.1078 14.2014 15.0418 14.0367 14.9258 13.9102C14.8097 13.7837 14.6512 13.7039 14.4805 13.6855C14.0187 13.5981 13.5974 13.3637 13.2793 13.0176C13.2642 13.0011 13.2459 12.9878 13.2256 12.9785C13.2052 12.9692 13.1826 12.9645 13.1602 12.9639C13.1379 12.9633 13.1155 12.9665 13.0947 12.9746ZM10.5098 4.50586C10.0555 4.45585 9.59727 4.45438 9.14258 4.5C7.81651 4.64206 6.61233 5.20965 5.74414 6.09766C5.40664 6.43972 5.12697 6.83484 4.91602 7.2666C4.59343 7.91369 4.44946 8.63614 4.5 9.35742C4.55059 10.0786 4.79351 10.7735 5.20312 11.3691C5.43541 11.7241 5.82485 12.1685 6.17383 12.4824L6.01758 13.7402L5.99707 13.7949C5.99043 13.8082 5.99023 13.8295 5.99023 13.8428L5.9834 13.8838L5.99023 13.9248C5.99705 13.9923 6.02115 14.0573 6.05957 14.1133C6.09794 14.1691 6.14952 14.2145 6.20996 14.2451C6.27054 14.2757 6.33841 14.2903 6.40625 14.2881C6.47397 14.2858 6.54031 14.2669 6.59863 14.2324H6.60547L6.63281 14.2129L7.01562 14.0205L8.15137 13.4463C8.69159 13.6035 9.25335 13.6785 9.81348 13.6719C10.5102 13.6718 11.2009 13.5559 11.8506 13.3164C11.6915 13.2639 11.5547 13.1587 11.4629 13.0186C11.3711 12.8784 11.3293 12.7108 11.3447 12.5439C10.6677 12.7617 9.95151 12.8317 9.24512 12.749L9.12891 12.7363C8.87494 12.7008 8.62376 12.6477 8.37695 12.5781C8.31045 12.5575 8.24017 12.5506 8.1709 12.5576C8.10155 12.5647 8.03369 12.5855 7.97266 12.6191L7.93945 12.6328L7.00195 13.1807L6.96094 13.207C6.94102 13.221 6.92656 13.2285 6.91992 13.2285C6.88573 13.2283 6.85864 13.1937 6.8584 13.1602L6.89258 13.0156L7.00195 12.5986L7.07715 12.3125C7.103 12.2337 7.10306 12.1482 7.07715 12.0693C7.05123 11.9906 7.00113 11.9221 6.93359 11.874C6.56539 11.6021 6.24576 11.2688 5.98926 10.8896C5.6672 10.4202 5.47544 9.8735 5.43457 9.30566C5.39374 8.73749 5.50594 8.16815 5.75781 7.65723C5.93078 7.31569 6.15411 7.00211 6.4209 6.72754C7.13179 5.99605 8.13027 5.53103 9.23145 5.4082C9.61335 5.36719 9.99895 5.36719 10.3809 5.4082C11.482 5.53105 12.4735 6.01021 13.1777 6.73438C13.4512 7.01513 13.6704 7.33573 13.835 7.6709C14.0532 8.12208 14.163 8.59312 14.1631 9.07812C14.1631 9.12592 14.1562 9.1817 14.1562 9.22949C14.2978 9.14212 14.4647 9.10516 14.6299 9.125C14.795 9.14489 14.9487 9.22038 15.0654 9.33887L15.0996 9.37891C15.1551 8.65403 15.016 7.92735 14.6963 7.27441C14.485 6.84463 14.2073 6.4503 13.875 6.10547C12.9729 5.19784 11.7832 4.63231 10.5098 4.50586ZM16.2754 11.5957C16.1038 11.5993 15.939 11.6653 15.8125 11.7812C15.686 11.8973 15.6063 12.0559 15.5879 12.2266C15.5005 12.6885 15.2661 13.1096 14.9199 13.4277C14.9034 13.4429 14.8902 13.462 14.8809 13.4824C14.8717 13.5027 14.8668 13.5246 14.8662 13.5469C14.8656 13.5693 14.8698 13.5914 14.8779 13.6123C14.8861 13.6332 14.8984 13.6519 14.9141 13.668C14.9511 13.702 14.9995 13.7205 15.0498 13.7197C15.0743 13.7173 15.0979 13.7096 15.1191 13.6973C15.1403 13.6849 15.1586 13.6684 15.1729 13.6484C15.515 13.2824 15.9741 13.0461 16.4707 12.9795C16.8143 12.8884 17.0341 12.5512 16.9824 12.2002C16.93 11.8497 16.6252 11.5891 16.2754 11.5957ZM13.7393 10.8906C13.6749 10.8264 13.566 10.8205 13.501 10.8848L13.4883 10.8984C13.1476 11.2755 12.6835 11.5191 12.1797 11.5859C11.9407 11.6503 11.7477 11.839 11.6826 12.0859C11.6184 12.3254 11.6898 12.5846 11.8701 12.7598C12.0633 12.9483 12.3411 13.0138 12.5986 12.9229C12.8501 12.8319 13.0293 12.6041 13.0625 12.332C13.149 11.8708 13.382 11.4494 13.7266 11.1309C13.7434 11.1161 13.7578 11.0983 13.7676 11.0781C13.7773 11.058 13.783 11.036 13.7842 11.0137C13.7853 10.9915 13.7819 10.9692 13.7744 10.9482C13.7668 10.9271 13.7545 10.9071 13.7393 10.8906ZM14.668 9.53906C14.5491 9.50444 14.4227 9.50237 14.3027 9.5332C14.183 9.56407 14.0737 9.62633 13.9863 9.71387C13.8935 9.80877 13.8294 9.92796 13.8008 10.0576C13.7722 10.1872 13.78 10.3221 13.8242 10.4473C13.9151 10.6995 14.1429 10.8822 14.415 10.9141C14.875 10.999 15.2973 11.2332 15.6152 11.583C15.6603 11.6286 15.7252 11.647 15.79 11.6279C15.8197 11.6175 15.8467 11.6 15.8672 11.5762C15.8877 11.5522 15.9015 11.5223 15.9072 11.4912C15.9112 11.4604 15.9071 11.4288 15.8945 11.4004C15.882 11.372 15.8614 11.3478 15.8359 11.3301C15.4702 10.9876 15.2335 10.5288 15.167 10.0322C15.1337 9.91381 15.0699 9.80619 14.9824 9.71973C14.8949 9.63327 14.7868 9.57095 14.668 9.53906Z" fill="currentColor"/>
</svg>
