<?xml version="1.0" standalone="no"?><!DOCTYPE svg PUBLIC "-//W3C//DTD SVG 1.1//EN" "http://www.w3.org/Graphics/SVG/1.1/DTD/svg11.dtd"><svg t="1763024496453" class="icon" viewBox="0 0 1024 1024" version="1.1" xmlns="http://www.w3.org/2000/svg" p-id="13492" xmlns:xlink="http://www.w3.org/1999/xlink" width="200" height="200"><path d="M912 128c25.6 0 48 25.6 48 48V608c0 54.4-41.6 96-96 96H240l124.8 124.8c19.2 19.2 19.2 51.2 3.2 73.6-19.2 22.4-51.2 22.4-70.4 6.4l-6.4-3.2-211.2-211.2c-19.2-19.2-19.2-54.4 0-73.6l211.2-211.2c19.2-19.2 51.2-19.2 73.6-3.2 22.4 19.2 22.4 51.2 6.4 70.4l-6.4 3.2-124.8 128H832c19.2 0 32-12.8 32-32V176c0-28.8 19.2-48 48-48z" fill="currentColor" p-id="13493"></path></svg>
