<?xml version="1.0" standalone="no"?><!DOCTYPE svg PUBLIC "-//W3C//DTD SVG 1.1//EN" "http://www.w3.org/Graphics/SVG/1.1/DTD/svg11.dtd"><svg t="1718873396854" class="icon" viewBox="0 0 1024 1024" version="1.1" xmlns="http://www.w3.org/2000/svg" p-id="17800" xmlns:xlink="http://www.w3.org/1999/xlink" width="200" height="200"><path d="M579.168 800v-102.016c0-5.984-3.008-8.96-6.016-12-3.008-2.976-5.984-5.984-12-5.984H459.2c-6.016 0-9.024 3.008-12 6.016-3.008 2.976-6.016 8.96-6.016 12V800c0 6.016 3.008 8.992 6.016 12 2.976 3.008 5.984 6.016 12 6.016h101.984c6.016 0 8.992-3.008 12-6.016 3.008-3.008 6.016-8.992 6.016-12z m-3.008-200.992l8.992-246.016c0-3.008-3.008-8.992-5.984-8.992-6.016-3.008-9.024-6.016-12-6.016h-117.024c-2.976 0-8.96 3.008-12 6.016-2.976 3.008-5.984 6.016-5.984 12l8.992 246.016c0 2.976 3.008 5.984 6.016 8.96 2.976 3.04 8.96 3.04 12 3.04h98.976c6.016 0 9.024 0 12-3.008 3.008-3.008 6.016-9.024 6.016-12z m-6.016-501.024l411.008 753.024c12 24 12 44.992 0 65.984a91.296 91.296 0 0 1-24 24c-12 6.016-20.992 9.024-32.992 9.024H99.168c-12 0-24-3.008-33.024-9.024a91.296 91.296 0 0 1-24-24c-12-24-14.976-44.992 0-65.984l408-753.024c6.016-11.968 15.04-20.992 24-26.976 12-6.016 24-8.992 36-8.992s24 2.976 36 8.96c12 6.016 18.016 15.04 24 27.04z" p-id="17801" fill="currentColor"></path></svg>
