<?xml version="1.0" standalone="no"?><!DOCTYPE svg PUBLIC "-//W3C//DTD SVG 1.1//EN" "http://www.w3.org/Graphics/SVG/1.1/DTD/svg11.dtd"><svg t="1718873403625" class="icon" viewBox="0 0 1024 1024" version="1.1" xmlns="http://www.w3.org/2000/svg" p-id="17942" xmlns:xlink="http://www.w3.org/1999/xlink" width="200" height="200"><path d="M512 32c87.584 0 168.16 21.024 241.76 63.04a467.136 467.136 0 0 1 175.168 175.2C970.976 343.84 992 424.416 992 512s-21.024 168.16-63.04 241.76a467.136 467.136 0 0 1-175.2 175.168C680.16 970.976 599.584 992 512 992s-168.16-21.024-241.76-63.04a467.136 467.136 0 0 1-175.168-175.2C53.024 680.16 32 599.584 32 512s21.024-168.16 63.04-241.76a467.136 467.136 0 0 1 175.2-175.168C343.84 53.024 424.416 32 512 32z m80.576 781.312v-119.136c0-7.008-3.52-10.496-7.008-14.016-3.52-3.488-7.008-7.008-14.016-7.008H452.48c-7.04 0-10.528 3.52-14.016 7.04-3.52 3.488-7.04 10.496-7.04 13.984v119.136c0 7.008 3.52 10.528 7.04 14.016 3.52 3.52 10.496 7.008 14.016 7.008h119.104c7.04 0 10.528-3.52 14.016-7.008 3.52-3.52 7.04-10.496 7.04-14.016z m-3.52-217.216l10.56-388.928c0-3.488-3.52-7.008-7.04-10.496-3.52-3.52-10.496-3.52-14.016-3.52h-136.64c-7.008 0-10.496 0-14.016 3.52-3.52 3.52-7.008 7.008-7.008 10.496l10.528 388.928c0 3.52 3.52 7.008 7.008 10.496 3.52 3.52 10.496 3.52 14.016 3.52h115.616c7.008 0 10.496 0 14.016-3.52 7.008-3.52 7.008-7.008 7.008-10.496z" p-id="17943" fill="currentColor"></path></svg>
