<?xml version="1.0" standalone="no"?><!DOCTYPE svg PUBLIC "-//W3C//DTD SVG 1.1//EN" "http://www.w3.org/Graphics/SVG/1.1/DTD/svg11.dtd"><svg t="1720504436505" class="icon" viewBox="0 0 1024 1024" version="1.1" xmlns="http://www.w3.org/2000/svg" p-id="6548" xmlns:xlink="http://www.w3.org/1999/xlink" width="200" height="200"><path d="M80.91936 102.4l156.8 124.8C311.31936 169.6 400.91936 128 512.91936 128c134.4 0 243.2 64 320 137.6 76.8 73.6 131.2 163.2 153.6 224 6.4 12.8 6.4 28.8 0 41.6-22.4 51.2-64 124.8-124.8 192l140.8 112c19.2 16 22.4 44.8 6.4 67.2-16 19.2-48 22.4-67.2 6.4l-928-736C-2.28064 160-5.48064 128 10.51936 108.8s48-22.4 70.4-6.4z m32 256L186.51936 416C160.91936 454.4 141.71936 486.4 128.91936 515.2c22.4 51.2 64 121.6 128 179.2 67.2 64 153.6 112 256 112 44.8 0 86.4-9.6 124.8-22.4l76.8 64c-57.6 32-124.8 51.2-201.6 51.2-134.4 0-243.2-64-320-137.6-76.8-73.6-131.2-163.2-153.6-224-6.4-12.8-6.4-28.8 0-41.6 12.8-41.6 38.4-89.6 73.6-137.6z m185.6 150.4l112 89.6c12.8 16 25.6 25.6 44.8 35.2l112 89.6c-16 3.2-35.2 6.4-51.2 6.4-121.6 3.2-217.6-96-217.6-220.8zM512.91936 224c-76.8 0-144 25.6-198.4 64l67.2 51.2c35.2-28.8 80-48 131.2-48 118.4 0 214.4 99.2 214.4 220.8 0 32-6.4 60.8-19.2 89.6l86.4 70.4c48-54.4 83.2-112 102.4-153.6-22.4-51.2-64-121.6-128-179.2C704.91936 272 618.51936 224 512.91936 224z m0 150.4h-3.2c3.2 9.6 3.2 19.2 3.2 28.8 0 12.8-3.2 25.6-6.4 38.4l134.4 108.8c3.2-12.8 3.2-22.4 3.2-35.2 3.2-80-57.6-140.8-131.2-140.8z" p-id="6549" fill="currentColor"></path></svg>
