<?xml version="1.0" standalone="no"?><!DOCTYPE svg PUBLIC "-//W3C//DTD SVG 1.1//EN" "http://www.w3.org/Graphics/SVG/1.1/DTD/svg11.dtd"><svg t="1763029927156" class="icon" viewBox="0 0 1024 1024" version="1.1" xmlns="http://www.w3.org/2000/svg" p-id="14383" xmlns:xlink="http://www.w3.org/1999/xlink" width="200" height="200"><path d="M512 224c-105.6 0-192 48-256 112-60.8 60.8-105.6 131.2-128 179.2 22.4 51.2 64 121.6 128 179.2 67.2 64 153.6 112 256 112s192-48 256-112c60.8-60.8 105.6-131.2 128-179.2-22.4-51.2-64-121.6-128-179.2-64-64-150.4-112-256-112zM192 265.6C268.8 192 377.6 128 512 128s243.2 64 320 137.6c76.8 73.6 131.2 163.2 153.6 224 6.4 12.8 6.4 28.8 0 41.6-25.6 60.8-76.8 150.4-153.6 224C755.2 832 646.4 896 512 896s-243.2-64-320-137.6c-76.8-73.6-131.2-163.2-153.6-224-6.4-12.8-6.4-28.8 0-41.6 22.4-64 73.6-153.6 153.6-227.2z m320 384c73.6 0 134.4-60.8 134.4-137.6s-60.8-137.6-134.4-137.6h-3.2c3.2 9.6 3.2 19.2 3.2 28.8 0 60.8-48 108.8-105.6 108.8-9.6 0-19.2 0-25.6-3.2v3.2c-3.2 76.8 57.6 137.6 131.2 137.6z m0-358.4c118.4 0 214.4 99.2 214.4 220.8s-96 220.8-214.4 220.8-214.4-99.2-214.4-220.8 96-220.8 214.4-220.8z" fill="currentColor" p-id="14384"></path></svg>
