<?xml version="1.0" encoding="utf-8"?>
<!-- Generator: Adobe Illustrator 21.0.0, SVG Export Plug-In . SVG Version: 6.00 Build 0)  -->
<svg version="1.1" id="图层_1" xmlns="http://www.w3.org/2000/svg" xmlns:xlink="http://www.w3.org/1999/xlink" x="0px" y="0px"
	 viewBox="0 0 32 32" style="enable-background:new 0 0 32 32;" xml:space="preserve">
<style type="text/css">
	.st0{fill:#999999;}
</style>
<title>photos-classfied-by-people</title>
<g id="photos-classfied-by-people">
	<path id="形状" class="st0" d="M13.7,17.5c1.4,0.8,3.1,0.8,4.5,0s2.3-2.3,2.3-3.9c0-2.5-2-4.5-4.5-4.5s-4.5,2-4.5,4.5
		C11.5,15.2,12.3,16.7,13.7,17.5z M26,25.8c0,1.6-4.5,3.9-9.3,4C11.5,29.8,6,27.5,6,25.8c0-3.3,4.5-5.3,10-5.3S26,22.5,26,25.8z"/>
	<path id="形状结合" class="st0" d="M16,0c8.8,0,16,7.2,16,16s-7.2,16-16,16S0,24.8,0,16S7.2,0,16,0z M16,3C8.8,3,3,8.8,3,16
		s5.8,13,13,13s13-5.8,13-13S23.2,3,16,3z"/>
</g>
</svg>
