<svg width="32" height="32" viewBox="0 0 32 32" fill="none" xmlns="http://www.w3.org/2000/svg">
<path d="M4.5 27.5H9V30.5H1.5V23H4.5V27.5Z" fill="currentColor"/>
<path d="M30.5 30.5H23V27.5H27.5V23H30.5V30.5Z" fill="currentColor"/>
<path fill-rule="evenodd" clip-rule="evenodd" d="M16 6.5C16.7213 6.49996 17.4367 6.64108 18.1035 6.91602C18.7701 7.19096 19.3758 7.59493 19.8867 8.10352C20.3978 8.61227 20.8031 9.2172 21.0801 9.88281C21.3569 10.5483 21.5 11.2617 21.5 11.9824C21.5 12.7032 21.357 13.4165 21.0801 14.082C20.8031 14.7477 20.3978 15.3526 19.8867 15.8613C19.4991 16.2472 19.0563 16.5717 18.5742 16.8262C19.9749 17.0397 21.2582 17.4254 22.3262 17.957C23.9309 18.7559 25.4998 20.1381 25.5 22.1152V24.5H6.5V22.1152C6.50017 20.1381 8.06906 18.7559 9.67383 17.957C10.7413 17.4257 12.0239 17.0398 13.4238 16.8262C12.9458 16.5736 12.5033 16.2496 12.1133 15.8613C11.0812 14.8338 10.5001 13.4384 10.5 11.9824C10.5 10.5264 11.0812 9.13109 12.1133 8.10352C13.1451 7.07616 14.5435 6.50011 16 6.5ZM16 19.6328C13.9715 19.6328 12.2105 20.046 11.0117 20.6426C10.398 20.9481 10.0277 21.2476 9.80664 21.5H22.1934C21.9723 21.2476 21.602 20.9481 20.9883 20.6426C19.7895 20.046 18.0285 19.6328 16 19.6328ZM16 9.5C15.3352 9.50008 14.6987 9.7627 14.2305 10.2285C13.7624 10.6945 13.5 11.3263 13.5 11.9824C13.5001 12.6384 13.7625 13.2684 14.2305 13.7344C14.6987 14.2006 15.3349 14.4648 16 14.4648C16.3291 14.4649 16.6553 14.4006 16.959 14.2754C17.2628 14.1501 17.5377 13.9652 17.7695 13.7344C18.0014 13.5036 18.1854 13.2304 18.3105 12.9297C18.4356 12.6291 18.5 12.3074 18.5 11.9824C18.5 11.6575 18.4355 11.3357 18.3105 11.0352C18.1854 10.7345 18.0014 10.4593 17.7695 10.2285C17.5378 9.99809 17.2624 9.81457 16.959 9.68945C16.6552 9.56424 16.3292 9.49997 16 9.5Z" fill="currentColor"/>
<path d="M9 4.5H4.5V9H1.5V1.5H9V4.5Z" fill="currentColor"/>
<path d="M30.5 9H27.5V4.5H23V1.5H30.5V9Z" fill="currentColor"/>
</svg>
