<svg width="20" height="20" viewBox="0 0 20 20" fill="none" xmlns="http://www.w3.org/2000/svg">
<path d="M9.0493 1.61125C9.41606 0.79625 10.5839 0.79625 10.9507 1.61125L12.9186 5.9843C13.0699 6.32044 13.3906 6.55122 13.7601 6.58985L18.567 7.09239C19.4629 7.18604 19.8238 8.28623 19.1546 8.88359L15.5639 12.0888C15.2879 12.3352 15.1654 12.7086 15.2425 13.0686L16.2454 17.7523C16.4323 18.6251 15.4875 19.3051 14.7072 18.8593L10.52 16.4672C10.1982 16.2833 9.8018 16.2833 9.47995 16.4672L5.29284 18.8593C4.5125 19.3051 3.56766 18.6251 3.75457 17.7523L4.75749 13.0686C4.83458 12.7086 4.71209 12.3352 4.43608 12.0888L0.845391 8.88359C0.176198 8.28623 0.537094 7.18604 1.43296 7.09239L6.2399 6.58985C6.6094 6.55122 6.93009 6.32044 7.08136 5.9843L9.0493 1.61125Z" fill="currentColor"/>
</svg>
