<svg width="20" height="20" viewBox="0 0 20 20" fill="none" xmlns="http://www.w3.org/2000/svg">
<path d="M11.9648 0.509767C12.229 0.510072 12.4828 0.615344 12.6699 0.801759L18.2051 6.31543C18.3935 6.50308 18.5 6.75852 18.5 7.02442V17.4072C18.5 18.563 17.5587 19.5 16.3984 19.5L3.60156 19.4883C2.4414 19.4883 1.50021 18.5511 1.5 17.3955V2.5C1.5002 1.3947 2.39758 0.498727 3.50293 0.500001L11.9648 0.509767ZM9.44727 6.22461C7.26733 6.22465 5.50005 7.98295 5.5 10.1514C5.5 12.3198 7.2673 14.0781 9.44727 14.0781C10.2516 14.0781 10.9991 13.8377 11.623 13.4268L13.626 15.418L14.7422 14.3076L12.7402 12.3164C13.1535 11.6957 13.3945 10.9516 13.3945 10.1514C13.3945 7.98293 11.6272 6.22461 9.44727 6.22461ZM9.44727 7.7959C10.7552 7.7959 11.8154 8.85033 11.8154 10.1514C11.8154 11.4525 10.7553 12.5068 9.44727 12.5068C8.1393 12.5068 7.0791 11.4524 7.0791 10.1514C7.07915 8.85035 8.13933 7.79594 9.44727 7.7959Z" fill="currentColor"/>
</svg>
