<?xml version="1.0" encoding="utf-8"?>
<!-- Generator: Adobe Illustrator 21.0.0, SVG Export Plug-In . SVG Version: 6.00 Build 0)  -->
<svg version="1.1" id="图层_1" xmlns="http://www.w3.org/2000/svg" xmlns:xlink="http://www.w3.org/1999/xlink" x="0px" y="0px"
	 viewBox="0 0 32 32" style="enable-background:new 0 0 32 32;" xml:space="preserve">
<style type="text/css">
	.st0{fill:#949494;}
</style>
<title>file1</title>
<desc>Created with Sketch.</desc>
<g id="file1">
	<g id="编组-5">
		<g id="文件" transform="translate(3.000000, 0.000000)">
			<path id="形状" class="st0" d="M25.6,6.9l-6.7-6.6C18.6,0,18.3,0,18,0H4C2.1,0,1,2.3,1,3.9C1,4.9,1,13.3,1,29c0,1,1.3,3,3,3
				s17.4,0,19.1,0s2.9-1.4,2.9-3c0-1,0-8.2,0-21.3C26,7.4,25.7,7,25.6,6.9z M17.9,3.7L22.3,8H18V3.7H17.9z M22.8,29H4V3h11v5.3
				c0,1.8,0.8,2.7,2.9,2.7H23v18H22.8z"/>
		</g>
	</g>
</g>
</svg>
