<?xml version="1.0" encoding="UTF-8"?>
<svg width="70px" height="46px" viewBox="0 0 70 46" version="1.1" xmlns="http://www.w3.org/2000/svg" xmlns:xlink="http://www.w3.org/1999/xlink">
    <title>文件数量</title>
    <g id="seafile" stroke="none" stroke-width="1" fill="none" fill-rule="evenodd">
        <g id="统计视图" transform="translate(-1144, -702)">
            <g id="文件数量" transform="translate(1144, 702)">
                <rect id="矩形" x="0" y="0" width="70" height="46"></rect>
                <rect id="path9" fill="#FCEFC9" x="0" y="8.87044271" width="36.4583333" height="36.4583333" rx="18.2291667"></rect>
                <g id="wenjian" transform="translate(16.2435, 0)" fill="#FBBC30" fill-rule="nonzero">
                    <path d="M17.5671967,8.24617523 C17.7556807,8.24617523 17.9348218,8.32782455 18.0583113,8.4704062 L22.5079962,13.6009083 C22.6104019,13.719101 22.6668265,13.8702366 22.6668265,14.0266222 L22.6668265,33.5940242 C22.6668265,33.9523063 22.3751637,34.2439691 22.0168816,34.2439691 L3.24972423,34.2439691 C2.89144213,34.2439691 2.59977938,33.9523063 2.59977938,33.5940242 L2.59977938,8.89612007 C2.59977938,8.53783798 2.89144213,8.24617523 3.24972423,8.24617523 L17.5671967,8.24617523 M17.5671967,5.64639585 L3.24972423,5.64639585 C1.45506402,5.64639585 0,7.10145987 0,8.89612007 L0,33.5940242 C0,35.3886844 1.45506402,36.8437484 3.24972423,36.8437484 L22.0168816,36.8437484 C23.8115418,36.8437484 25.2666059,35.3886844 25.2666059,33.5940242 L25.2666059,14.0266222 C25.2666059,13.2442511 24.9842861,12.488284 24.4720483,11.8972404 L20.0223634,6.76673827 C19.40501,6.05513054 18.5092746,5.64639585 17.5671967,5.64639585 Z" id="image"></path>
                    <path d="M29.2999199,32.4159992 L27.4345781,32.4159992 C26.7167953,32.4159992 26.1346885,31.8338923 26.1346885,31.1161095 C26.1346885,30.3983266 26.7167953,29.8162198 27.4345781,29.8162198 L29.2999199,29.8162198 C30.3239892,29.8162198 31.156731,29.006226 31.156731,28.0101856 L31.156731,9.30924127 C31.156731,8.87824659 30.9979008,8.46106324 30.7094877,8.13365353 L26.3869483,3.23022588 C26.0335408,2.82929116 25.5196781,2.59977938 24.9773804,2.59977938 L11.0689669,2.59977938 C10.3511841,2.59977938 9.76907724,2.01767253 9.76907724,1.29988969 C9.76907724,0.582106852 10.3511841,0 11.0689669,0 L24.9769742,0 C26.2654899,0 27.4902297,0.550828257 28.3367828,1.51112177 L32.6597285,6.41454941 C33.3669497,7.21682508 33.7565104,8.24495658 33.7565104,9.30924127 L33.7565104,28.0101856 C33.7565104,30.4397606 31.7571176,32.4159992 29.2999199,32.4159992 Z" id="path6"></path>
                    <path d="M24.5354179,16.3298642 L18.4458409,16.3298642 C16.7413606,16.3298642 15.354947,15.051504 15.354947,13.4802623 L15.354947,7.08846097 L17.9547264,7.08846097 L17.9547264,13.4802623 C17.9547264,13.5566308 18.1403669,13.7300849 18.4458409,13.7300849 L24.5354179,13.7300849 L24.5354179,16.3298642 Z M32.4972423,10.5616037 L26.4076653,10.5616037 C24.7031849,10.5616037 23.3167713,9.28324347 23.3167713,7.71200181 L23.3167713,1.32020047 L25.9165507,1.32020047 L25.9165507,7.71200181 C25.9165507,7.78837033 26.1021912,7.96182436 26.4076653,7.96182436 L32.4972423,7.96182436 L32.4972423,10.5616037 Z M17.7568994,29.1865857 L6.69768163,29.1865857 C5.97989879,29.1865857 5.39779194,29.7686926 5.39779194,30.4864754 C5.39779194,31.2042583 5.97989879,31.7863651 6.69768163,31.7863651 L17.7568994,31.7863651 C18.4746822,31.7863651 19.0567891,31.2042583 19.0567891,30.4864754 C19.0567891,29.7686926 18.4746822,29.1865857 17.7568994,29.1865857 Z M17.7568994,23.2659944 L6.69768163,23.2659944 C5.97989879,23.2659944 5.39779194,23.8481012 5.39779194,24.5658841 C5.39779194,25.2836669 5.97989879,25.8657738 6.69768163,25.8657738 L17.7568994,25.8657738 C18.4746822,25.8657738 19.0567891,25.2836669 19.0567891,24.5658841 C19.0567891,23.8481012 18.4746822,23.2659944 17.7568994,23.2659944 Z M17.7568994,17.3454031 L6.69768163,17.3454031 C5.97989879,17.3454031 5.39779194,17.9275099 5.39779194,18.6452928 C5.39779194,19.3630756 5.97989879,19.9451824 6.69768163,19.9451824 L17.7568994,19.9451824 C18.4746822,19.9451824 19.0567891,19.3630756 19.0567891,18.6452928 C19.0567891,17.9275099 18.4746822,17.3454031 17.7568994,17.3454031 Z" id="combie"></path>
                </g>
            </g>
        </g>
    </g>
</svg>