<?xml version="1.0" encoding="utf-8"?>
<!-- Generator: Adobe Illustrator 21.0.0, SVG Export Plug-In . SVG Version: 6.00 Build 0)  -->
<svg version="1.1" id="图层_1" xmlns="http://www.w3.org/2000/svg" xmlns:xlink="http://www.w3.org/1999/xlink" x="0px" y="0px"
	 viewBox="0 0 32 32" style="enable-background:new 0 0 32 32;" xml:space="preserve">
<title>file</title>
<path id="形状" class="st0" d="M20,30H4c-2.3,0-4-1.8-4-4.1V4.1C0,1.8,1.7,0,4,0h9.3c0.4,0,0.7,0.1,0.9,0.4l9.3,9.5
c0.3,0.3,0.4,0.5,0.4,1v15C24,28.2,22.3,30,20,30z M4.3,3C3.5,3,3,3.5,3,4.3v21.3C3,26.5,3.5,27,4.3,27h15.4
c0.8,0,1.3-0.5,1.3-1.3V11.5L12.8,3H4.3z" fill="currentColor"/>
<path id="路径" class="st0" d="M21.7,13h-9.3c-0.8,0-1.3-0.5-1.3-1.3V2.3C11,1.5,11.5,1,12.3,1s1.3,0.5,1.3,1.3v8h8
c0.8,0,1.3,0.5,1.3,1.3S22.5,13,21.7,13L21.7,13z" fill="currentColor"/>
</svg>
