<?xml version="1.0" standalone="no"?><!DOCTYPE svg PUBLIC "-//W3C//DTD SVG 1.1//EN" "http://www.w3.org/Graphics/SVG/1.1/DTD/svg11.dtd"><svg t="1720504407707" class="icon" viewBox="0 0 1024 1024" version="1.1" xmlns="http://www.w3.org/2000/svg" p-id="6260" xmlns:xlink="http://www.w3.org/1999/xlink" width="200" height="200"><path d="M617.6 736c28.8 0 54.4 22.4 54.4 48s-22.4 48-54.4 48h-214.4c-28.8 0-54.4-22.4-54.4-48s22.4-48 54.4-48h214.4z m169.6-272c25.6 0 44.8 22.4 44.8 48s-19.2 48-44.8 48H236.8c-25.6 0-44.8-22.4-44.8-48s19.2-48 44.8-48h550.4z m236.8-224c0 25.6-22.4 48-48 48h-928C22.4 288 0 265.6 0 240S22.4 192 48 192h931.2c22.4 0 44.8 22.4 44.8 48z" p-id="6261"></path></svg>