<?xml version="1.0" encoding="utf-8"?>
<!-- Generator: Adobe Illustrator 21.0.0, SVG Export Plug-In . SVG Version: 6.00 Build 0)  -->
<svg version="1.1" id="图层_1" xmlns="http://www.w3.org/2000/svg" xmlns:xlink="http://www.w3.org/1999/xlink" x="0px" y="0px"
	 viewBox="0 0 32 32" style="enable-background:new 0 0 32 32;" xml:space="preserve">
<style type="text/css">
	.st0{fill:#999999;}
</style>
<title>filter-circled</title>
<g id="filter-circled">
	<path id="形状结合" class="st0" d="M16,1c8.3,0,15,6.7,15,15s-6.7,15-15,15S1,24.3,1,16S7.7,1,16,1z M16,4C9.4,4,4,9.4,4,16
		s5.4,12,12,12s12-5.4,12-12S22.6,4,16,4z M20,20c0.6,0,1,0.4,1,1s-0.4,1-1,1h-8c-0.6,0-1-0.4-1-1s0.4-1,1-1H20z M22,15
		c0.6,0,1,0.4,1,1s-0.4,1-1,1H10c-0.6,0-1-0.4-1-1s0.4-1,1-1H22z M24,10c0.6,0,1,0.4,1,1s-0.4,1-1,1H8c-0.6,0-1-0.4-1-1s0.4-1,1-1
		H24z"/>
</g>
</svg>
