<?xml version="1.0" standalone="no"?><!DOCTYPE svg PUBLIC "-//W3C//DTD SVG 1.1//EN" "http://www.w3.org/Graphics/SVG/1.1/DTD/svg11.dtd"><svg t="1718866549156" class="icon" viewBox="0 0 1024 1024" version="1.1" xmlns="http://www.w3.org/2000/svg" p-id="16805" xmlns:xlink="http://www.w3.org/1999/xlink" width="200" height="200"><path d="M985.6 704h-236.8c-22.4 0-38.4-32-38.4-70.4 0-38.4 19.2-70.4 38.4-70.4h236.8c22.4 0 38.4 32 38.4 70.4 0 38.4-19.2 70.4-38.4 70.4z m0-230.4h-236.8c-22.4 0-38.4-32-38.4-70.4s19.2-70.4 38.4-70.4h236.8c22.4 0 38.4 32 38.4 70.4s-19.2 70.4-38.4 70.4z m-211.2-243.2L556.8 480v348.8L384 944c-38.4 22.4-86.4 9.6-108.8-28.8-6.4-9.6-9.6-25.6-9.6-38.4V476.8L22.4 230.4c-28.8-32-28.8-83.2 3.2-115.2 12.8-12.8 35.2-19.2 51.2-19.2h636.8c41.6 0 76.8 35.2 76.8 80 6.4 19.2 0 38.4-16 54.4z m-409.6 192c9.6 9.6 12.8 22.4 12.8 32V800l57.6-38.4v-304c0-9.6 3.2-22.4 12.8-28.8l195.2-227.2H166.4l198.4 220.8z m320 374.4h288c25.6 0 48 32 48 70.4 0 38.4-22.4 70.4-48 70.4h-288c-25.6 0-48-32-48-70.4 0-38.4 22.4-70.4 48-70.4z" p-id="16806"></path></svg>