<?xml version="1.0" encoding="utf-8"?>
<!-- Generator: Adobe Illustrator 21.0.0, SVG Export Plug-In . SVG Version: 6.00 Build 0)  -->
<svg version="1.1" id="图层_1" xmlns="http://www.w3.org/2000/svg" xmlns:xlink="http://www.w3.org/1999/xlink" x="0px" y="0px"
	 viewBox="0 0 32 32" style="enable-background:new 0 0 32 32;" xml:space="preserve">
<style type="text/css">
	.st0{fill:#949494;}
</style>
<title>folders</title>
<g id="folders">
	<g id="形状结合" transform="translate(1.000000, 3.000000)">
		<path class="st0" d="M28.6,8.4C29.4,8.4,30,9,30,9.7l0,0l-2.7,15.2v0c0,0.4-0.2,0.7-0.4,1c-0.3,0.3-0.6,0.4-1,0.4l0,0H3.2
			c-0.7,0-1.4-0.6-1.4-1.3l0,0L4.6,9.8v0c0-0.4,0.2-0.7,0.4-1c0.3-0.3,0.6-0.4,1-0.4l0,0H28.6z M9.9,0l2.5,2.6h12.4
			c0.9,0,1.7,0.8,1.7,1.8l0,0v2.2h-22c-1,0-1.8,0.8-1.8,1.8l0,0L0,23V1.8C0,0.8,0.7,0,1.7,0l0,0H9.9z"/>
	</g>
</g>
</svg>
