<?xml version="1.0" standalone="no"?><!DOCTYPE svg PUBLIC "-//W3C//DTD SVG 1.1//EN" "http://www.w3.org/Graphics/SVG/1.1/DTD/svg11.dtd"><svg t="1719816737147" class="icon" viewBox="0 0 1024 1024" version="1.1" xmlns="http://www.w3.org/2000/svg" p-id="4110" xmlns:xlink="http://www.w3.org/1999/xlink" width="200" height="200"><path d="M448 224H160c-16 0-32 9.6-32 32v512c0 16 16 32 32 32h704c16 0 32-16 32-32V368c0-16-16-28.8-32-28.8h-304c-9.6 0-16-6.4-19.2-9.6L448 224z m144 22.4H896c54.4 0 96 41.6 96 96V800c0 54.4-41.6 96-96 96H128c-54.4 0-96-41.6-96-96V224c0-54.4 41.6-96 96-96h345.6c9.6 0 16 6.4 22.4 9.6l96 108.8z" fill="currentColor" p-id="4111"></path></svg>
