<?xml version="1.0" standalone="no"?><!DOCTYPE svg PUBLIC "-//W3C//DTD SVG 1.1//EN" "http://www.w3.org/Graphics/SVG/1.1/DTD/svg11.dtd"><svg t="1718875410271" class="icon" viewBox="0 0 1024 1024" version="1.1" xmlns="http://www.w3.org/2000/svg" p-id="18084" xmlns:xlink="http://www.w3.org/1999/xlink" width="200" height="200"><path d="M611.2 512l300.8-300.8c28.8-28.8 28.8-73.6 0-99.2s-73.6-28.8-99.2 0L512 412.8 211.2 112c-28.8-28.8-73.6-28.8-99.2 0s-28.8 73.6 0 99.2l300.8 300.8-300.8 300.8c-28.8 28.8-28.8 73.6 0 99.2 28.8 25.6 73.6 28.8 99.2 0l300.8-300.8 300.8 300.8c28.8 28.8 73.6 28.8 99.2 0 28.8-28.8 28.8-73.6 0-99.2L611.2 512z" p-id="18085" fill="currentColor"></path></svg>
