<?xml version="1.0" encoding="utf-8"?>
<!-- Generator: Adobe Illustrator 21.0.0, SVG Export Plug-In . SVG Version: 6.00 Build 0)  -->
<svg version="1.1" id="图层_1" xmlns="http://www.w3.org/2000/svg" xmlns:xlink="http://www.w3.org/1999/xlink" x="0px" y="0px"
	 viewBox="0 0 32 32" style="enable-background:new 0 0 32 32;" xml:space="preserve">
<style type="text/css">
	.st0{fill:#949494;}
</style>
<title>fullscreen</title>
<desc>Created with Sketch.</desc>
<g id="fullscreen">
	<g id="形状" transform="translate(3.000000, 3.000000)">
		<path class="st0" d="M9.5,0c0.6,0,1.2,0.5,1.2,1.2s-0.5,1.2-1.2,1.2H2.4v7.1c0,0.6-0.5,1.2-1.2,1.2S0,10.1,0,9.5V1.2
			C0,0.5,0.5,0,1.2,0H9.5z M9.5,23.6c0.6,0,1.2,0.5,1.2,1.2S10.1,26,9.5,26H1.2c0,0-0.1,0-0.1,0c0,0,0,0,0,0h0c0,0,0,0-0.1,0
			c0,0,0,0,0,0c-0.2,0-0.4-0.2-0.6-0.3c-0.2-0.2-0.3-0.4-0.3-0.6c0,0,0,0,0,0C0,25,0,25,0,25c0,0,0,0,0,0c0,0,0-0.1,0-0.1v0v-8.3
			c0-0.6,0.5-1.2,1.2-1.2s1.2,0.5,1.2,1.2V22l5.9-5.9c0.5-0.5,1.2-0.5,1.7,0c0.5,0.5,0.5,1.2,0,1.7l-5.9,5.9L9.5,23.6L9.5,23.6z
			 M26,1.1C26,1.2,26,1.2,26,1.1v8.3c0,0.6-0.5,1.2-1.2,1.2s-1.2-0.5-1.2-1.2V4l-5.9,5.9c-0.5,0.5-1.2,0.5-1.7,0
			c-0.5-0.5-0.5-1.2,0-1.7L22,2.4h-5.4c-0.6,0-1.2-0.5-1.2-1.2S15.9,0,16.5,0h8.3c0,0,0,0,0.1,0c0,0,0,0,0.1,0c0,0,0,0,0,0
			c0,0,0.1,0,0.1,0l0,0c0.5,0.1,0.8,0.4,0.9,0.9c0,0,0,0,0,0L26,1C26,1,26,1,26,1.1C26,1.1,26,1.1,26,1.1L26,1.1z M24.8,15.4
			c0.6,0,1.2,0.5,1.2,1.2v8.3c0,0.6-0.5,1.2-1.2,1.2h-8.3c-0.6,0-1.2-0.5-1.2-1.2s0.5-1.2,1.2-1.2h7.1v-7.1
			C23.6,15.9,24.2,15.4,24.8,15.4L24.8,15.4z"/>
	</g>
</g>
</svg>
