<?xml version="1.0" encoding="utf-8"?>
<!-- Generator: Adobe Illustrator 21.0.0, SVG Export Plug-In . SVG Version: 6.00 Build 0)  -->
<svg version="1.1" id="图层_1" xmlns="http://www.w3.org/2000/svg" xmlns:xlink="http://www.w3.org/1999/xlink" x="0px" y="0px"
	 viewBox="0 0 32 32" style="enable-background:new 0 0 32 32;" xml:space="preserve">
<style type="text/css">
	.st0{fill:#999999;}
</style>
<path class="st0" d="M4.6,12.7c0.9,0,1.7-0.7,1.7-1.6V7.8c0-0.4,0.2-0.8,0.5-1.1s0.7-0.5,1.1-0.5h3.3c0.9,0,1.6-0.7,1.6-1.6
	C12.7,3.7,12,3,11.2,3H4.6C3.7,3,3,3.7,3,4.6v6.6C3,12,3.7,12.7,4.6,12.7z M7.9,25.8c-0.4,0-0.8-0.2-1.1-0.5s-0.5-0.7-0.5-1.1v-3.3
	c0-0.4-0.2-0.8-0.5-1.1s-0.7-0.5-1.1-0.5c-1,0-1.7,0.7-1.7,1.6v6.5C3,28.3,3.7,29,4.6,29h6.5c0.9,0,1.6-0.7,1.6-1.6
	s-0.7-1.6-1.6-1.6C11.1,25.8,7.9,25.8,7.9,25.8z M27.3,19.2c-0.9,0-1.6,0.7-1.6,1.6v3.3c0,0.4-0.2,0.8-0.5,1.1
	c-0.3,0.3-0.7,0.5-1.1,0.5h-3.3c-0.9,0-1.6,0.7-1.6,1.6v0.1c0,0.4,0.2,0.8,0.5,1.1c0.3,0.3,0.7,0.5,1.1,0.5h6.6
	c0.4,0,0.8-0.2,1.1-0.5c0.3-0.3,0.5-0.7,0.5-1.1v-6.6C29,20,28.3,19.2,27.3,19.2z M20.8,3c-0.9,0-1.6,0.7-1.6,1.6v0.1
	c0,0.9,0.7,1.6,1.6,1.6h3.3c0.4,0,0.8,0.2,1.1,0.5c0.3,0.3,0.5,0.7,0.5,1.1v3.3c0,0.9,0.7,1.6,1.6,1.6h0.1c0.9-0.1,1.6-0.8,1.6-1.6
	V4.6C29,3.7,28.3,3,27.4,3H20.8z M21,13v6c0,1.1-0.9,2-2,2h-6c-1.1,0-2-0.9-2-2v-6c0-1.1,0.9-2,2-2h6C20.1,11,21,11.9,21,13z"/>
</svg>
