<svg width="32" height="32" viewBox="0 0 32 32" fill="none" xmlns="http://www.w3.org/2000/svg">
<path d="M9.71729 9.7168C10.8738 9.717 11.811 10.655 11.811 11.8115C11.8109 12.968 10.8737 13.9051 9.71729 13.9053C8.5607 13.9053 7.6227 12.9681 7.62256 11.8115C7.62256 10.6548 8.56061 9.7168 9.71729 9.7168Z" fill="black"/>
<path fill-rule="evenodd" clip-rule="evenodd" d="M30.0649 28.5L1.93408 28.499V3.5H30.0659L30.0649 28.5ZM20.605 18.3643C20.407 18.191 20.1085 18.2008 19.9224 18.3867L17.0327 21.2773C15.9676 22.3425 14.3401 22.6061 12.9927 21.9326L11.1704 21.0225C11.0049 20.9397 10.8074 20.955 10.6567 21.0625L4.93408 25.1494V25.499H27.0649V24.0166L20.605 18.3643ZM4.93408 21.4629L8.9126 18.6211C9.96754 17.8676 11.3527 17.7591 12.5122 18.3389L14.3345 19.25C14.5268 19.3458 14.7596 19.3082 14.9116 19.1562L17.8003 16.2656C19.1032 14.9625 21.1937 14.893 22.5806 16.1064L27.0649 20.0303L27.0659 6.5H4.93408V21.4629Z" fill="black"/>
</svg>
