<svg width="32" height="32" viewBox="0 0 32 32" fill="none" xmlns="http://www.w3.org/2000/svg">
<path d="M3.43433 4.99998H28.5659L28.5654 27L3.43433 26.9993V4.99998Z" stroke="currentColor" stroke-width="3"/>
<path d="M9.71753 11.2169C10.0456 11.2171 10.3113 11.4835 10.3113 11.8116C10.3111 12.1396 10.0455 12.4052 9.71753 12.4054C9.38941 12.4054 9.12301 12.1397 9.1228 11.8116C9.1228 11.4834 9.38928 11.2169 9.71753 11.2169Z" fill="currentColor" stroke="currentColor" stroke-width="3"/>
<path d="M3.43408 24.3773L9.78442 19.8414C10.3872 19.4108 11.1787 19.3487 11.8413 19.68L13.6634 20.591C14.4335 20.9761 15.3636 20.825 15.9723 20.2161L18.8612 17.3261C19.6057 16.5813 20.8001 16.5414 21.5927 17.2349L28.5616 23.3327" stroke="currentColor" stroke-width="3"/>
</svg>
