<?xml version="1.0" standalone="no"?><!DOCTYPE svg PUBLIC "-//W3C//DTD SVG 1.1//EN" "http://www.w3.org/Graphics/SVG/1.1/DTD/svg11.dtd"><svg t="1761788810465" class="icon" viewBox="0 0 1024 1024" version="1.1" xmlns="http://www.w3.org/2000/svg" p-id="5682" xmlns:xlink="http://www.w3.org/1999/xlink" width="200" height="200"><path d="M428.8 32c28.8 0 51.2 22.4 51.2 51.2v348.8c0 28.8-22.4 51.2-51.2 51.2H83.2C54.4 480 32 457.6 32 428.8V83.2C32 54.4 54.4 32 83.2 32h345.6zM384 128H128v256h256V128zM940.8 32c28.8 0 51.2 22.4 51.2 51.2v348.8c0 28.8-22.4 51.2-51.2 51.2H595.2c-28.8 0-51.2-22.4-51.2-51.2V83.2c0-28.8 22.4-51.2 51.2-51.2h345.6zM896 128h-256v256h256V128zM940.8 544c28.8 0 51.2 22.4 51.2 51.2v348.8c0 28.8-22.4 51.2-51.2 51.2H595.2c-28.8 0-51.2-22.4-51.2-51.2V595.2c0-28.8 22.4-51.2 51.2-51.2h345.6zM896 640h-256v256h256v-256zM428.8 544c28.8 0 51.2 22.4 51.2 51.2v348.8c0 28.8-22.4 51.2-51.2 51.2H83.2C54.4 992 32 969.6 32 940.8V595.2c0-28.8 22.4-51.2 51.2-51.2h345.6zM384 640H128v256h256v-256z" fill="currentColor" p-id="5683"></path></svg>
