<?xml version="1.0" encoding="utf-8"?>
<!-- Generator: Adobe Illustrator 18.0.0, SVG Export Plug-In . SVG Version: 6.00 Build 0)  -->
<!DOCTYPE svg PUBLIC "-//W3C//DTD SVG 1.1//EN" "http://www.w3.org/Graphics/SVG/1.1/DTD/svg11.dtd">
<svg version="1.1" id="Layer_1" xmlns="http://www.w3.org/2000/svg" xmlns:xlink="http://www.w3.org/1999/xlink" x="0px" y="0px"
	 viewBox="0 0 24 24" enable-background="new 0 0 24 24" xml:space="preserve">
<g>
	<!-- Left person head -->
	<path fill="#A3A3A3" d="M8.1,13c2.5,0,4-3.8,4-6s-1.8-4-4-4s-4,1.8-4,4S5.6,13,8.1,13z"/>
	<!-- Right person head -->
	<path fill="#A3A3A3" d="M17.1,13c2.2,0,2.9-2.5,2.9-4.5S19.1,5,17.1,5c-2,0-3.1,1.5-3.1,3.5S14.9,13,17.1,13z"/>
	<!-- Left person body -->
	<path fill="#A3A3A3" d="M8.1,21c7,0,8,0,8-2c0-2.8-3.6-5-8-5s-8,2.2-8,5C0.1,21,1.1,21,8.1,21z"/>
	<!-- Right person body -->
	<path fill="#A3A3A3" d="M14.1,14.4c0.9-0.3,1.9-0.4,3-0.4c3.9,0,6.9,2.1,6.9,4.5c0,1.8-0.8,1.5-6.9,1.5c-0.1,0-0.3,0-0.4,0c0.3-0.5,0.3-1.2,0.3-2C17,16.6,15.8,15.3,14.1,14.4z"/>
</g>
</svg>
