<?xml version="1.0" standalone="no"?><!DOCTYPE svg PUBLIC "-//W3C//DTD SVG 1.1//EN" "http://www.w3.org/Graphics/SVG/1.1/DTD/svg11.dtd"><svg t="1720504411375" class="icon" viewBox="0 0 1024 1024" version="1.1" xmlns="http://www.w3.org/2000/svg" p-id="6402" xmlns:xlink="http://www.w3.org/1999/xlink" width="200" height="200"><path d="M928 64c35.2 0 64 28.8 64 64v768c0 35.2-28.8 64-64 64H96c-35.2 0-64-28.8-64-64V128c0-35.2 28.8-64 64-64h832z m-32 96H128v704h768V160z" p-id="6403"></path><path d="M304 368m-80 0a80 80 0 1 0 160 0 80 80 0 1 0-160 0Z" p-id="6404"></path><path d="M496 320h256c25.6 0 48 22.4 48 48S777.6 416 752 416h-256C470.4 416 448 393.6 448 368S470.4 320 496 320z" p-id="6405"></path><path d="M304 656m-80 0a80 80 0 1 0 160 0 80 80 0 1 0-160 0Z" p-id="6406"></path><path d="M496 608h256c25.6 0 48 22.4 48 48S777.6 704 752 704h-256C470.4 704 448 681.6 448 656S470.4 608 496 608z" p-id="6407"></path></svg>