<?xml version="1.0" standalone="no"?><!DOCTYPE svg PUBLIC "-//W3C//DTD SVG 1.1//EN" "http://www.w3.org/Graphics/SVG/1.1/DTD/svg11.dtd"><svg t="1761880435523" class="icon" viewBox="0 0 1024 1024" version="1.1" xmlns="http://www.w3.org/2000/svg" p-id="24631" xmlns:xlink="http://www.w3.org/1999/xlink" width="200" height="200"><path d="M499.2 531.2c115.2 57.6 198.4 179.2 198.4 316.8 0 147.2-697.6 150.4-697.6 0 0-137.6 80-259.2 198.4-316.8 41.6 25.6 92.8 44.8 150.4 44.8s105.6-16 150.4-44.8z m300.8-3.2c115.2 48 224 163.2 224 281.6 0 54.4-144 92.8-288 102.4 25.6-16 38.4-48 38.4-70.4 0-105.6-57.6-204.8-137.6-268.8h3.2c51.2-3.2 115.2-19.2 160-44.8zM700.8 105.6c25.6 9.6 51.2 25.6 70.4 44.8 41.6 38.4 64 92.8 64 150.4 0 25.6-6.4 51.2-16 76.8-9.6 25.6-25.6 51.2-48 67.2-19.2 19.2-44.8 35.2-70.4 44.8-48 19.2-124.8 25.6-172.8 12.8 16-9.6 51.2-35.2 64-48 32-25.6 64-102.4 64-144s0-128-64-182.4c-12.8-6.4-32-22.4-48-35.2 48-9.6 108.8-6.4 156.8 12.8z m-262.4-25.6c28.8 9.6 54.4 28.8 73.6 48 41.6 41.6 67.2 96 67.2 156.8 0 28.8-6.4 54.4-16 83.2s-28.8 51.2-51.2 70.4c-19.2 19.2-44.8 35.2-73.6 48-54.4 25.6-121.6 25.6-176 3.2-28.8-12.8-51.2-28.8-73.6-48s-41.6-41.6-51.2-70.4c-12.8-25.6-16-54.4-16-83.2s3.2-54.4 16-83.2c9.6-25.6 28.8-51.2 51.2-70.4 19.2-19.2 44.8-35.2 73.6-48 54.4-28.8 121.6-28.8 176-6.4z" fill="#999999" p-id="24632"></path></svg>