<?xml version="1.0" standalone="no"?><!DOCTYPE svg PUBLIC "-//W3C//DTD SVG 1.1//EN" "http://www.w3.org/Graphics/SVG/1.1/DTD/svg11.dtd"><svg t="1718866570524" class="icon" viewBox="0 0 1024 1024" version="1.1" xmlns="http://www.w3.org/2000/svg" p-id="16947" xmlns:xlink="http://www.w3.org/1999/xlink" width="200" height="200"><path d="M98.272 34.272h832c35.2 0 64 28.8 64 64v832c0 35.2-28.8 64-64 64h-832c-35.2 0-64-28.8-64-64v-832c0-35.2 28.8-64 64-64z m128 128c-35.2 0-64 28.8-64 64v576c0 35.2 28.8 64 64 64h576c35.2 0 64-28.8 64-64v-576c0-35.2-28.8-64-64-64h-576z" p-id="16948"></path><path d="M312.672 293.472c44.8 0 80 35.2 80 80s-35.2 80-80 80-80-35.2-80-80 35.2-80 80-80zM312.672 562.272c44.8 0 80 35.2 80 80s-35.2 80-80 80-80-35.2-80-80 35.2-80 80-80zM549.472 293.472h160c44.8 0 80 35.2 80 80s-35.2 80-80 80h-160c-44.8 0-80-35.2-80-80s38.4-80 80-80zM549.472 562.272h160c44.8 0 80 35.2 80 80s-35.2 80-80 80h-160c-44.8 0-80-35.2-80-80s38.4-80 80-80z" fill="#949494" p-id="16949"></path></svg>