<svg width="32" height="32" viewBox="0 0 32 32" fill="none" xmlns="http://www.w3.org/2000/svg">
<path d="M12.8722 18.8668C19.7943 19.0437 23.3837 21.9287 23.3837 25.4633V29.3165H1V25.4633C1 21.8147 4.82396 18.8597 12.1909 18.8595L12.8722 18.8668Z" fill="currentColor"/>
<path d="M19.8091 18.8595C27.1758 18.8597 31 21.8148 31 25.4633V29.3165H25.2882V24.956C25.2882 22.4659 22.9018 20.2553 19.2102 18.865C19.4084 18.8607 19.6087 18.8595 19.8091 18.8595Z" fill="currentColor"/>
<path d="M12.1909 4C13.0665 3.99993 13.9348 4.16993 14.7437 4.50179C15.5526 4.83364 16.2874 5.32072 16.9065 5.9339C17.5256 6.54709 18.0163 7.27537 18.3514 8.07657C18.6864 8.87778 18.8586 9.73659 18.8586 10.6038C18.8586 11.4711 18.6864 12.3298 18.3514 13.1311C18.0163 13.9323 17.5256 14.6605 16.9065 15.2737C16.2874 15.8869 15.5526 16.374 14.7437 16.7058C13.9348 17.0377 13.0665 17.2077 12.1909 17.2076C10.423 17.2074 8.72734 16.5121 7.47723 15.2737C6.22698 14.0353 5.52509 12.3552 5.52509 10.6038C5.52514 8.85248 6.22703 7.17233 7.47723 5.9339C8.72733 4.69568 10.4231 4.00028 12.1909 4Z" fill="currentColor"/>
<path d="M19.8091 4C20.6844 4.00005 21.5532 4.17005 22.3619 4.50179C23.1703 4.83363 23.9058 5.32097 24.5246 5.9339C25.1435 6.54699 25.6345 7.27559 25.9695 8.07657C26.3045 8.87768 26.4767 9.7367 26.4767 10.6038C26.4767 11.4709 26.3044 12.33 25.9695 13.1311C25.6345 13.932 25.1434 14.6606 24.5246 15.2737C23.9058 15.8866 23.1703 16.374 22.3619 16.7058C21.5532 17.0376 20.6844 17.2076 19.8091 17.2076C19.1958 17.2076 18.591 17.1215 18.0107 16.9604C19.7031 15.3944 20.765 13.1555 20.765 10.6679C20.765 8.12765 19.6581 5.84628 17.9027 4.27653C18.5157 4.09533 19.1578 4.00008 19.8091 4Z" fill="currentColor"/>
</svg>
