<svg width="16" height="16" viewBox="0 0 16 16" fill="none" xmlns="http://www.w3.org/2000/svg">
<path d="M5.97002 1.5C6.43695 1.49996 6.89932 1.59103 7.33072 1.76799C7.76211 1.94495 8.15409 2.20434 8.48428 2.53135C8.81446 2.85837 9.07638 3.24659 9.25507 3.67387C9.43377 4.10115 9.52574 4.5591 9.52574 5.02158C9.52574 5.48407 9.43377 5.94202 9.25507 6.3693C9.07638 6.79657 8.81446 7.1848 8.48428 7.51181C8.15409 7.83883 7.76211 8.09822 7.33072 8.27518C6.89932 8.45214 6.43695 8.5432 5.97002 8.54317C5.02711 8.5431 4.12284 8.17204 3.45612 7.51163C2.7894 6.85121 2.41485 5.95552 2.41485 5.02158C2.41485 4.08765 2.7894 3.19196 3.45612 2.53154C4.12284 1.87113 5.02711 1.50007 5.97002 1.5ZM5.97002 9.42356C9.89879 9.42356 11.9381 10.9995 11.9381 12.9451C11.9381 13.6328 11.9381 14.3123 11.9381 14.9999H0.00195312L0.00195312 12.9451C0.00195312 10.9995 2.04125 9.42356 5.97002 9.42356Z" />
<path d="M11.9381 12.9451C11.9381 10.9995 9.89879 9.42356 5.97002 9.42356C2.04125 9.42356 0.00195312 10.9995 0.00195312 12.9451L0.00195312 14.9999H11.9381C11.9381 14.3123 11.9381 13.6328 11.9381 12.9451Z" />
<path d="M10.0322 9.42383C13.961 9.42383 16 10.9996 16 12.9453V15H12.9541V12.6748C12.9541 11.3468 11.6817 10.1681 9.71289 9.42676C9.81875 9.42444 9.92521 9.42383 10.0322 9.42383ZM10.0322 1.5C10.4992 1.49996 10.9622 1.59062 11.3936 1.76758C11.8249 1.94454 12.2168 2.2043 12.5469 2.53125C12.877 2.85824 13.1387 3.2466 13.3174 3.67383C13.4961 4.10107 13.5879 4.55903 13.5879 5.02148C13.5879 5.48393 13.496 5.9419 13.3174 6.36914C13.1387 6.79635 12.877 7.18474 12.5469 7.51172C12.2168 7.83865 11.8248 8.09843 11.3936 8.27539C10.9622 8.45235 10.4992 8.543 10.0322 8.54297C9.70502 8.54293 9.38283 8.49711 9.07324 8.41113C9.97588 7.57608 10.542 6.38229 10.542 5.05566C10.542 3.70094 9.95188 2.48454 9.01562 1.64746C9.34264 1.55075 9.68476 1.50004 10.0322 1.5Z" />
</svg>
