<svg width="16" height="16" viewBox="0 0 16 16" xmlns="http://www.w3.org/2000/svg">
<path d="M5.97 9.19336C9.9 9.19336 11.94 10.7714 11.94 12.7174V14.7504H0V12.7174C0 10.7704 2.04 9.19336 5.97 9.19336Z" />
<path d="M10.0311 9.17353C13.9601 9.17353 15.9991 10.7495 15.9991 12.6945V14.7495H12.9531V12.4245C12.9531 11.0965 11.6811 9.91753 9.71206 9.17653C9.81806 9.17353 9.92406 9.17353 10.0321 9.17353H10.0311ZM5.97106 1.26953C6.91202 1.27027 7.81497 1.64093 8.48506 2.30153C8.81566 2.6267 9.07822 3.01441 9.25744 3.44209C9.43667 3.86976 9.52897 4.32882 9.52897 4.79253C9.52897 5.25624 9.43667 5.71531 9.25744 6.14298C9.07822 6.57065 8.81566 6.95837 8.48506 7.28353C7.81466 7.94428 6.91135 8.31494 5.97006 8.31553C5.02889 8.31587 4.12555 7.94504 3.45606 7.28353C3.1264 6.95777 2.86457 6.5699 2.68572 6.14233C2.50686 5.71477 2.41453 5.256 2.41406 4.79253C2.41406 3.85853 2.78906 2.96253 3.45606 2.30253C4.12557 1.64032 5.02938 1.26909 5.97106 1.26953Z" />
<path d="M10.0316 1.25001C10.9733 1.24741 11.8777 1.61814 12.5466 2.28101C12.8752 2.60725 13.1362 2.99512 13.3147 3.4224C13.4932 3.84968 13.5856 4.30797 13.5866 4.77101C13.587 5.23428 13.4953 5.69299 13.3167 6.12047C13.1382 6.54794 12.8764 6.93564 12.5466 7.26101C11.8778 7.92416 10.9735 8.29525 10.0316 8.29301C9.70462 8.29301 9.38163 8.24701 9.07263 8.16101C9.53618 7.73378 9.90608 7.21503 10.1589 6.63755C10.4118 6.06007 10.5421 5.43642 10.5416 4.80601C10.5423 4.16227 10.4067 3.52567 10.1437 2.93811C9.88064 2.35055 9.4962 1.82533 9.01562 1.39701C9.34262 1.30101 9.68462 1.25001 10.0316 1.25001Z" />
</svg>
