<svg width="20" height="20" viewBox="0 0 20 20" fill="none" xmlns="http://www.w3.org/2000/svg">
<path d="M10 0.5C15.2467 0.5 19.5 4.75329 19.5 10C19.5 15.2467 15.2467 19.5 10 19.5C4.75329 19.5 0.5 15.2467 0.5 10C0.5 4.75329 4.75329 0.5 10 0.5ZM9.78516 13.2754C9.48516 13.2754 9.21488 13.3652 9.00488 13.5752C8.79502 13.7701 8.69046 14.025 8.69043 14.3398C8.69043 14.6398 8.79488 14.8955 9.00488 15.1055C9.21486 15.3154 9.48524 15.4199 9.78516 15.4199C10.0851 15.4199 10.3555 15.3151 10.5654 15.1201C10.7753 14.9101 10.8945 14.6548 10.8945 14.3398C10.8945 14.025 10.79 13.7701 10.5801 13.5752C10.3701 13.3652 10.1001 13.2754 9.78516 13.2754ZM10.0547 4.5C8.94494 4.50006 8.07524 4.81514 7.44531 5.45996C6.81531 6.08996 6.5 6.94504 6.5 8.04004H8.0752C8.0752 7.38004 8.21047 6.86977 8.48047 6.50977C8.78049 6.07502 9.27539 5.86523 9.9502 5.86523C10.4901 5.86527 10.9246 6.01547 11.2246 6.31543C11.5096 6.61541 11.6601 7.01998 11.6602 7.54492C11.6602 7.9348 11.5101 8.29475 11.2402 8.63965L10.9854 8.9248C10.0554 9.7498 9.48504 10.3652 9.29004 10.7852C9.08008 11.1751 8.99024 11.655 8.99023 12.21V12.4648H10.5947V12.21C10.5947 11.85 10.67 11.5197 10.835 11.2197C10.9699 10.9499 11.1801 10.6803 11.4648 10.4404C12.1698 9.82543 12.5896 9.43453 12.7246 9.26953C13.0995 8.78964 13.2948 8.17519 13.2949 7.44043C13.2949 6.54043 12.9945 5.81992 12.3945 5.29492C11.7946 4.75511 11.0145 4.5 10.0547 4.5Z" fill="currentColor"/>
</svg>
