<?xml version="1.0" standalone="no"?><!DOCTYPE svg PUBLIC "-//W3C//DTD SVG 1.1//EN" "http://www.w3.org/Graphics/SVG/1.1/DTD/svg11.dtd"><svg t="1761876990073" class="icon" viewBox="0 0 1024 1024" version="1.1" xmlns="http://www.w3.org/2000/svg" p-id="21249" xmlns:xlink="http://www.w3.org/1999/xlink" width="200" height="200"><path d="M512 32c262.4 0 480 217.6 480 480s-217.6 480-480 480S32 774.4 32 512 249.6 32 512 32z m32 649.6h-64c-9.6 0-16 6.4-16 16v67.2c0 9.6 6.4 16 16 16h64c9.6 0 16-6.4 16-16v-67.2c0-6.4-6.4-16-16-16zM512 243.2c-44.8 0-83.2 16-115.2 38.4-28.8 25.6-48 64-51.2 108.8 0 6.4 0 9.6 3.2 12.8s9.6 6.4 12.8 6.4h64c9.6 0 16-6.4 16-16 9.6-51.2 28.8-73.6 73.6-73.6 22.4 0 38.4 6.4 51.2 19.2s19.2 28.8 19.2 48c0 9.6-3.2 22.4-6.4 25.6s-12.8 19.2-41.6 41.6c-25.6 22.4-44.8 44.8-54.4 64-9.6 22.4-16 51.2-16 92.8 0 9.6 6.4 16 16 16h57.6c9.6 0 16-6.4 16-16 0-32 3.2-51.2 6.4-57.6s16-22.4 44.8-44.8c25.6-25.6 48-44.8 57.6-64 9.6-22.4 16-41.6 16-67.2 3.2-28.8-16-70.4-44.8-96-35.2-25.6-73.6-38.4-124.8-38.4z" fill="#999999" p-id="21250"></path></svg>