<?xml version="1.0" encoding="utf-8"?>
<!-- Generator: Adobe Illustrator 21.0.0, SVG Export Plug-In . SVG Version: 6.00 Build 0)  -->
<svg version="1.1" id="图层_1" xmlns="http://www.w3.org/2000/svg" xmlns:xlink="http://www.w3.org/1999/xlink" x="0px" y="0px"
	 viewBox="0 0 32 32" style="enable-background:new 0 0 32 32;" xml:space="preserve">
<style type="text/css">
	.st0{fill:#999999;}
</style>
<title>helpless-selected</title>
<g id="helpless-selected">
	<path id="形状" class="st0" d="M1.1,19.5c1,1.4,2.6,2.1,4.3,2.2l4.7,0.1c-0.4,1.6-0.5,3.1-0.4,4.4c0.1,1.5,0.5,2.8,1.3,3.8
		c0.5,0.7,1.1,1.2,1.9,1.5c0.6,0.3,1.2,0.4,1.9,0.4c2.6,0,4.6-2,4.6-4.4c0-3.9,2.5-7.1,5.5-7.1h4.3c1.5,0,2.7-1.2,2.7-2.8v-15
		C32,1.2,30.8,0,29.3,0H8.1C6.8,0,5.6,0.4,4.6,1.2c-1,0.8-1.7,1.9-2,3.2L0.1,15C-0.2,16.6,0.1,18.2,1.1,19.5L1.1,19.5z M25.1,0h2.2
		c0,0,0.1,0,0.1,0.1c0,0,0,0.1,0,0.1v20.2c0,0.1,0,0.2-0.1,0.2h-2.2V0L25.1,0z"/>
</g>
</svg>
