<?xml version="1.0" encoding="utf-8"?>
<!-- Generator: Adobe Illustrator 21.0.0, SVG Export Plug-In . SVG Version: 6.00 Build 0)  -->
<svg version="1.1" id="图层_1" xmlns="http://www.w3.org/2000/svg" xmlns:xlink="http://www.w3.org/1999/xlink" x="0px" y="0px"
	 viewBox="0 0 32 32" style="enable-background:new 0 0 32 32;" xml:space="preserve">
<style type="text/css">
	.st0{fill:#999999;}
</style>
<title>helpful</title>
<g id="helpful">
	<path id="形状" class="st0" d="M30.9,12.5c-1-1.4-2.6-2.1-4.3-2.2l-4.7-0.1c0.4-1.6,0.5-3.1,0.4-4.4C22.1,4.3,21.7,3,20.9,2
		c-0.5-0.7-1.1-1.2-1.9-1.5C18.5,0.2,17.9,0,17.2,0c-2.6,0-4.6,2-4.6,4.4c0,3.9-2.5,7.1-5.5,7.1H2.7c-1.5,0-2.7,1.2-2.7,2.8v15
		C0,30.8,1.2,32,2.7,32h21.2c1.3,0,2.5-0.4,3.5-1.2c1-0.8,1.7-1.9,2-3.2L31.9,17C32.2,15.4,31.9,13.8,30.9,12.5L30.9,12.5z
		 M5.8,29.4h-3c0,0-0.1,0-0.1,0c0,0,0-0.1,0-0.1v-15c0-0.1,0.1-0.1,0.1-0.1h3V29.4L5.8,29.4z M29.4,16.4L26.9,27
		c-0.2,0.7-0.5,1.3-1.1,1.7c-0.6,0.4-1.3,0.7-2,0.7H8.3V14c0.7-0.1,1.3-0.4,2-0.7c1-0.5,1.8-1.2,2.6-2.1c1.5-1.8,2.3-4.2,2.3-6.8
		c0-1,0.9-1.7,2.1-1.7c0.1,0,1,0,1.7,0.9c1,1.4,1.1,4.1,0.1,7.6c-0.1,0.4,0,0.8,0.2,1.1c0.2,0.3,0.6,0.5,1,0.5l6.3,0.1
		c0.9,0,1.8,0.4,2.4,1.2C29.4,14.7,29.5,15.6,29.4,16.4L29.4,16.4z"/>
</g>
</svg>
