<?xml version="1.0" encoding="utf-8"?>
<!-- Generator: Adobe Illustrator 21.0.0, SVG Export Plug-In . SVG Version: 6.00 Build 0)  -->
<svg version="1.1" id="图层_1" xmlns="http://www.w3.org/2000/svg" xmlns:xlink="http://www.w3.org/1999/xlink" x="0px" y="0px"
	 viewBox="0 0 32 32" style="enable-background:new 0 0 32 32;" xml:space="preserve">
<style type="text/css">
	.st0{fill:#999999;}
</style>
<title>helpful-selected</title>
<g id="helpful-selected">
	<path id="形状" class="st0" d="M30.9,12.5c-1-1.4-2.6-2.1-4.3-2.2l-4.7-0.1c0.4-1.6,0.5-3.1,0.4-4.4C22.1,4.3,21.7,3,20.9,2
		c-0.5-0.7-1.1-1.2-1.9-1.5C18.5,0.2,17.9,0,17.2,0c-2.6,0-4.6,2-4.6,4.4c0,3.9-2.5,7.1-5.5,7.1H2.7c-1.5,0-2.7,1.2-2.7,2.8v15
		C0,30.8,1.2,32,2.7,32h21.2c1.3,0,2.5-0.4,3.5-1.2c1-0.8,1.7-1.9,2-3.2L31.9,17C32.2,15.4,31.9,13.8,30.9,12.5L30.9,12.5z M6.9,32
		H4.7c0,0-0.1,0-0.1-0.1c0,0,0-0.1,0-0.1V11.6c0-0.1,0-0.2,0.1-0.2h2.2V32L6.9,32z"/>
</g>
</svg>
