<?xml version="1.0" standalone="no"?><!DOCTYPE svg PUBLIC "-//W3C//DTD SVG 1.1//EN" "http://www.w3.org/Graphics/SVG/1.1/DTD/svg11.dtd"><svg t="1761877087025" class="icon" viewBox="0 0 1024 1024" version="1.1" xmlns="http://www.w3.org/2000/svg" p-id="22730" xmlns:xlink="http://www.w3.org/1999/xlink" width="200" height="200"><path d="M512 32c262.4 0 480 214.4 480 480 0 96-28.8 188.8-76.8 262.4l64 150.4c3.2 9.6 0 19.2-9.6 22.4-3.2 0-6.4 3.2-9.6 0l-172.8-44.8c-80 54.4-172.8 83.2-272 83.2C249.6 992 32 774.4 32 512S249.6 32 512 32z" fill="#949494" p-id="22731"></path><path d="M512 368v131.2H390.4V368h-64v326.4h64V560H512v134.4h60.8V368H512z m147.2 67.2c22.4 0 38.4-16 38.4-38.4 0-19.2-16-38.4-38.4-38.4-19.2 0-38.4 19.2-38.4 38.4 3.2 19.2 22.4 38.4 38.4 38.4z m-25.6 259.2h57.6V460.8h-57.6v233.6z" fill="#FFFFFF" p-id="22732"></path></svg>