<?xml version="1.0" standalone="no"?><!DOCTYPE svg PUBLIC "-//W3C//DTD SVG 1.1//EN" "http://www.w3.org/Graphics/SVG/1.1/DTD/svg11.dtd"><svg t="1718865285895" class="icon" viewBox="0 0 1024 1024" version="1.1" xmlns="http://www.w3.org/2000/svg" p-id="16236" xmlns:xlink="http://www.w3.org/1999/xlink" width="200" height="200"><path d="M339.2 630.4c-12.8-28.8-22.4-60.8-22.4-92.8 0-118.4 92.8-211.2 211.2-211.2l83.2-137.6c-28.8-3.2-57.6-9.6-83.2-9.6C310.4 179.2 121.6 320 3.2 537.6 64 646.4 140.8 739.2 233.6 800l105.6-169.6zM774.4 256l-89.6 156.8c67.2 92.8 48 227.2-35.2 297.6-44.8 38.4-102.4 51.2-160 38.4l-76.8 131.2c35.2 9.6 70.4 12.8 112 12.8 204.8 0 384-140.8 496-358.4-64-118.4-147.2-217.6-246.4-278.4zM275.2 950.4c-22.4 0-41.6-19.2-41.6-41.6 0-9.6 0-12.8 3.2-22.4L704 140.8c12.8-19.2 41.6-28.8 60.8-12.8 19.2 12.8 28.8 41.6 12.8 60.8L320 928c-9.6 12.8-25.6 22.4-44.8 22.4z"  p-id="16237"></path></svg>