<?xml version="1.0" encoding="utf-8"?>
<!-- Generator: Adobe Illustrator 21.0.0, SVG Export Plug-In . SVG Version: 6.00 Build 0)  -->
<svg version="1.1" id="图层_1" xmlns="http://www.w3.org/2000/svg" xmlns:xlink="http://www.w3.org/1999/xlink" x="0px" y="0px"
	 viewBox="0 0 32 32" style="enable-background:new 0 0 32 32;" xml:space="preserve">
<style type="text/css">
	.st0{fill:#999999;}
</style>
<path class="st0" d="M16,1C10.9,1,6.5,3.4,3.8,7.3V4.8c0-0.8-0.7-1.4-1.4-1.4S1,4,1,4.8v5.6c0,0.8,0.7,1.4,1.4,1.4h6.1
	c0.5,0,1-0.3,1.2-0.7c0.3-0.5,0.3-1,0-1.4C9.5,9.2,9,9,8.5,9H6.1c2.2-3.1,5.8-5.2,9.9-5.2c6.8,0,12.2,5.4,12.2,12.2
	S22.8,28.2,16,28.2c-5.7,0-10.4-3.8-11.8-9.1c-0.2-0.6-0.7-0.9-1.3-0.9c-0.4,0-0.8,0.2-1,0.4s-0.4,0.7-0.4,1c0,0.1,0,0.3,0.1,0.4
	v0.2C3.3,26.4,9.2,31,16,31c8.2,0,15-6.8,15-15S24.2,1,16,1z M16,7.3c-0.4,0-0.8,0.2-1,0.4c-0.3,0.3-0.4,0.7-0.4,1v8.4
	c0,0.4,0.2,0.8,0.4,1c0.3,0.3,0.7,0.4,1,0.4h6.1c0.5,0,0.9-0.3,1.2-0.7s0.3-0.9,0-1.4s-0.8-0.8-1.2-0.7h-4.7V8.7
	c0-0.4-0.2-0.8-0.4-1C16.8,7.5,16.4,7.3,16,7.3z"/>
</svg>
