<?xml version="1.0" standalone="no"?><!DOCTYPE svg PUBLIC "-//W3C//DTD SVG 1.1//EN" "http://www.w3.org/Graphics/SVG/1.1/DTD/svg11.dtd"><svg t="1763024725335" class="icon" viewBox="0 0 1024 1024" version="1.1" xmlns="http://www.w3.org/2000/svg" p-id="13849" xmlns:xlink="http://www.w3.org/1999/xlink" width="200" height="200"><path d="M512 928c230.4 0 416-185.6 416-416S742.4 96 512 96 96 281.6 96 512s185.6 416 416 416z m0 96C230.4 1024 0 793.6 0 512S230.4 0 512 0s512 230.4 512 512-230.4 512-512 512zM352 496c44.8 0 80-35.2 80-80s-35.2-80-80-80-80 35.2-80 80 35.2 80 80 80z m320 0c44.8 0 80-35.2 80-80s-35.2-80-80-80-80 35.2-80 80 35.2 80 80 80zM512 742.4c-80 0-153.6-51.2-188.8-128 0 0-3.2-32-38.4-32-35.2 0-32 32-32 32 35.2 108.8 137.6 192 256 192s227.2-83.2 256-192c0 0 0-32-32-32s-35.2 32-35.2 32C672 688 595.2 742.4 512 742.4z" fill="#999999" p-id="13850"></path></svg>