<?xml version="1.0" standalone="no"?><!DOCTYPE svg PUBLIC "-//W3C//DTD SVG 1.1//EN" "http://www.w3.org/Graphics/SVG/1.1/DTD/svg11.dtd"><svg t="1719816786766" class="icon" viewBox="0 0 1024 1024" version="1.1" xmlns="http://www.w3.org/2000/svg" p-id="4538" xmlns:xlink="http://www.w3.org/1999/xlink" width="200" height="200"><path d="M896 256v512c0 19.2-12.8 32-32 32H160c-19.2 0-32-12.8-32-32V256c0-19.2 12.8-32 32-32h704c19.2 0 32 12.8 32 32zM32 224v576c0 54.4 41.6 96 96 96h768c54.4 0 96-41.6 96-96V224c0-54.4-41.6-96-96-96H128C73.6 128 32 169.6 32 224z m563.2 224c12.8 0 25.6 6.4 32 16L864 736H160l140.8-172.8c6.4-9.6 19.2-16 32-16s25.6 6.4 32 16l51.2 67.2 144-169.6c9.6-6.4 22.4-12.8 35.2-12.8zM300.8 275.2c32 0 60.8 16 76.8 44.8 16 28.8 16 60.8 0 89.6-16 28.8-44.8 44.8-76.8 44.8-51.2 0-89.6-41.6-89.6-89.6s41.6-89.6 89.6-89.6z" p-id="4539"></path></svg>