<?xml version="1.0" standalone="no"?><!DOCTYPE svg PUBLIC "-//W3C//DTD SVG 1.1//EN" "http://www.w3.org/Graphics/SVG/1.1/DTD/svg11.dtd"><svg t="1762238508940" class="icon" viewBox="0 0 1024 1024" version="1.1" xmlns="http://www.w3.org/2000/svg" p-id="31880" xmlns:xlink="http://www.w3.org/1999/xlink" width="200" height="200"><path d="M800 352l-224-224H192v768h608v-128h96v147.2c0 41.6-35.2 76.8-76.8 76.8H172.8c-19.2 0-41.6-6.4-54.4-22.4s-22.4-32-22.4-54.4V108.8c0-19.2 9.6-41.6 22.4-54.4S153.6 32 172.8 32h432c12.8 0 22.4 3.2 32 12.8l246.4 249.6c9.6 9.6 12.8 19.2 12.8 32V544h-96v-192z" fill="currentColor" p-id="31881"></path><path d="M422.4 633.6l128-131.2c19.2-19.2 54.4-22.4 73.6-3.2 19.2 19.2 16 51.2-3.2 70.4L579.2 608h400c22.4 0 41.6 22.4 41.6 48s-22.4 48-41.6 48H576l41.6 38.4c19.2 19.2 22.4 54.4 3.2 73.6-19.2 19.2-54.4 16-73.6-3.2l-128-137.6c-9.6-9.6-9.6-28.8 3.2-41.6zM585.6 384c-25.6 0-41.6-16-41.6-41.6V105.6c0-25.6 22.4-41.6 48-41.6s48 16 48 41.6V288h182.4c25.6 0 41.6 22.4 41.6 48s-16 48-41.6 48h-236.8z" fill="currentColor" p-id="31882"></path></svg>
