<?xml version="1.0" encoding="utf-8"?>
<!-- Generator: Adobe Illustrator 21.0.0, SVG Export Plug-In . SVG Version: 6.00 Build 0)  -->
<svg version="1.1" id="图层_1" xmlns="http://www.w3.org/2000/svg" xmlns:xlink="http://www.w3.org/1999/xlink" x="0px" y="0px"
	 viewBox="0 0 32 32" style="enable-background:new 0 0 32 32;" xml:space="preserve">
<path class="st0" d="M16,0c8.8,0,16,7.2,16,16s-7.2,16-16,16S0,24.8,0,16S7.2,0,16,0z M16,3C8.8,3,3,8.8,3,16s5.8,13,13,13
	s13-5.8,13-13c0-3.4-1.4-6.8-3.8-9.2S19.4,3,16,3z M17,14c0.6,0,1,0.4,1,1v8c0,0.6-0.4,1-1,1h-2c-0.6,0-1-0.4-1-1v-8
	c0-0.6,0.4-1,1-1H17z" fill="currentColor"/>
<circle class="st0" cx="16" cy="9.4" r="2"/>
</svg>
