<?xml version="1.0" encoding="UTF-8"?>
<svg version="1.1" viewBox="0 0 24 24" xmlns="http://www.w3.org/2000/svg" xmlns:xlink="http://www.w3.org/1999/xlink">
    <!--Generated by IJSVG (https://github.com/curthard89/IJSVG)-->
    <g fill="#999999" fill-rule="evenodd" stroke="none" stroke-width="1">
        <path d="M11,22c-6.07513,0 -11,-4.92487 -11,-11c0,-6.07513 4.92487,-11 11,-11c6.07513,0 11,4.92487 11,11c0,6.07513 -4.92487,11 -11,11Zm-1,-13v8h2v-8h-2Zm1,-2c0.552285,0 1,-0.447715 1,-1c0,-0.552285 -0.447715,-1 -1,-1c-0.552285,0 -1,0.447715 -1,1c0,0.552285 0.447715,1 1,1Z" transform="translate(1, 1)"></path>
    </g>
</svg>