<?xml version="1.0" standalone="no"?><!DOCTYPE svg PUBLIC "-//W3C//DTD SVG 1.1//EN" "http://www.w3.org/Graphics/SVG/1.1/DTD/svg11.dtd"><svg t="1761876877805" class="icon" viewBox="0 0 1024 1024" version="1.1" xmlns="http://www.w3.org/2000/svg" p-id="20419" xmlns:xlink="http://www.w3.org/1999/xlink" width="200" height="200"><path d="M384 608c214.4 0 384 118.4 384 262.4 0 102.4-48 121.6-374.4 121.6h-25.6C44.8 992 0 972.8 0 870.4 0 723.2 169.6 608 384 608zM864 265.6v166.4h160v96h-160v169.6h-86.4v-169.6h-156.8v-96h156.8V265.6H864zM384 32c108.8 0 195.2 96 195.2 211.2s-73.6 313.6-195.2 313.6-195.2-195.2-195.2-313.6S278.4 32 384 32z" fill="#999999" p-id="20420"></path></svg>