<svg width="20" height="20" viewBox="0 0 20 20" fill="none" xmlns="http://www.w3.org/2000/svg">
<path d="M9.04004 10.7021C9.20428 10.7063 9.36573 10.713 9.52441 10.7217C8.87686 11.7324 8.5 12.9332 8.5 14.2227C8.50001 15.7558 9.03207 17.1639 9.91992 18.2754H1V15.168C1.00031 12.6973 3.59021 10.6963 8.5791 10.6963L9.04004 10.7021ZM8.5791 0.77832C9.17198 0.778297 9.75888 0.894458 10.3066 1.11914C10.8544 1.34381 11.3522 1.67275 11.7715 2.08789C12.1908 2.50317 12.524 2.99646 12.751 3.53906C12.9779 4.08163 13.0947 4.66371 13.0947 5.25098C13.0947 5.83807 12.9778 6.4195 12.751 6.96191C12.524 7.50452 12.1908 7.99781 11.7715 8.41309C11.3522 8.82824 10.8544 9.15716 10.3066 9.38184C9.75887 9.60652 9.17199 9.72268 8.5791 9.72266C7.38184 9.72257 6.23336 9.25156 5.38672 8.41309C4.54015 7.57452 4.06457 6.43683 4.06445 5.25098C4.06445 4.06502 4.54012 2.92753 5.38672 2.08887C6.23339 1.25019 7.38168 0.778411 8.5791 0.77832Z" fill="currentColor"/>
<path d="M15 9.22266C17.7614 9.22266 20 11.4612 20 14.2227C20 16.9841 17.7614 19.2226 15 19.2227C12.2386 19.2227 10 16.9841 10 14.2227C10 11.4612 12.2386 9.22266 15 9.22266ZM14.5 11.3008V13.5H12.2998V14.7354H14.5V17.001H15.7354V14.7354H18V13.5H15.7354V11.3008H14.5Z" fill="currentColor"/>
</svg>
