<?xml version="1.0" encoding="utf-8"?>
<!-- Generator: Adobe Illustrator 21.0.0, SVG Export Plug-In . SVG Version: 6.00 Build 0)  -->
<svg version="1.1" id="图层_1" xmlns="http://www.w3.org/2000/svg" xmlns:xlink="http://www.w3.org/1999/xlink" x="0px" y="0px"
	 viewBox="0 0 40 40" style="enable-background:new 0 0 40 40;" xml:space="preserve">
<style type="text/css">
	.st0{fill:#D1E5FD;}
	.st1{fill:#1B80F5;}
</style>
<title>judgment-condition</title>
<g id="页面-1">
	<g id="Seafile_Workflow5" transform="translate(-594.000000, -238.000000)">
		<g id="编组-39" transform="translate(320.000000, 146.000000)">
			<g id="编组-14备份-2" transform="translate(262.000000, 80.000000)">
				<g id="编组-18备份" transform="translate(8.000000, 8.000000)">
					<g id="judgment-condition" transform="translate(4.000000, 4.000000)">
						<path id="矩形" class="st0" d="M6,0h28c3.3,0,6,2.7,6,6v28c0,3.3-2.7,6-6,6H6c-3.3,0-6-2.7-6-6V6C0,2.7,2.7,0,6,0z"/>
						<g id="judging-condition" transform="translate(8.750271, 8.750000)">
							<path id="形状结合" class="st1" d="M4.1,0C6,0,7.5,1.5,7.5,3.4c0,1.5-0.9,2.7-2.2,3.2l0,2.4h8.3c3.2,0,5.9,1.4,5.9,5.2
								v4.6l1.4-1.4l1.6,1.8l-3.3,2.9c-0.3,0.3-1.4,0.4-1.7,0.1l-3.2-3l1.6-1.8l1.4,1.4v-4.6c0-2-1.6-3-3.7-3H5.3v7.6l1.4-1.4
								l1.7,1.8l-3.3,3c-0.3,0.3-1.4,0.3-1.7,0l-3.3-3l1.6-1.8L3,18.9L3,6.6C1.7,6.1,0.7,4.8,0.7,3.4C0.7,1.5,2.3,0,4.1,0z M4.1,2.2
								C3.5,2.2,3,2.8,3,3.4s0.5,1.1,1.1,1.1S5.2,4,5.2,3.4S4.7,2.2,4.1,2.2z"/>
						</g>
					</g>
				</g>
			</g>
		</g>
	</g>
</g>
</svg>
