<?xml version="1.0" encoding="utf-8"?>
<!-- Generator: Adobe Illustrator 21.0.0, SVG Export Plug-In . SVG Version: 6.00 Build 0)  -->
<svg version="1.1" id="图层_1" xmlns="http://www.w3.org/2000/svg" xmlns:xlink="http://www.w3.org/1999/xlink" x="0px" y="0px"
	 viewBox="0 0 32 32" style="enable-background:new 0 0 32 32;" xml:space="preserve">
<style type="text/css">
	.st0{fill:#999999;}
</style>
<title>Kanban</title>
<g id="Kanban">
	<path id="形状" class="st0" d="M28,2c1.7,0,3,1.3,3,3v15c0,1.7-1.3,3-3,3h-5v4c0,1.7-1.3,3-3,3h-8c-1.7,0-3-1.3-3-3V17H4
		c-1.7,0-3-1.3-3-3V5c0-1.7,1.3-3,3-3H28z M20,5h-8v22h8V5z M28,5h-5v15h5V5z M9,5H4v9h5V5z"/>
</g>
</svg>
