<?xml version="1.0" encoding="utf-8"?>
<!-- Generator: Adobe Illustrator 21.0.0, SVG Export Plug-In . SVG Version: 6.00 Build 0)  -->
<svg version="1.1" id="图层_1" xmlns="http://www.w3.org/2000/svg" xmlns:xlink="http://www.w3.org/1999/xlink" x="0px" y="0px"
	 viewBox="0 0 32 32" style="enable-background:new 0 0 32 32;" xml:space="preserve">
<style type="text/css">
	.st0{fill:#999999;}
</style>
<title>light-mode</title>
<g id="light-mode">
	<path id="形状" class="st0" d="M16,7c-5,0-9,4-9,9s4,9,9,9s9-4,9-9S21,7,16,7z M16,10c2.1,0,4.1,1.1,5.2,3c1.1,1.9,1.1,4.1,0,6
		c-1.1,1.9-3.1,3-5.2,3c-3.3,0-6-2.7-6-6S12.7,10,16,10z M16,0c0.8,0,1.5,0.6,1.5,1.4l0,0.2v2.3c0,0.8-0.6,1.5-1.5,1.5
		c-0.8,0-1.5-0.6-1.6-1.4l0-0.2V1.5C14.5,0.7,15.1,0,16,0z M27.3,4.7c0.6,0.6,0.6,1.5,0.1,2.1l-0.1,0.1l-1.6,1.6
		c-0.6,0.6-1.5,0.6-2.1,0C23,8,22.9,7.1,23.4,6.4l0.1-0.1l1.6-1.6C25.7,4.1,26.7,4.1,27.3,4.7L27.3,4.7z M32,16
		c0,0.8-0.6,1.5-1.4,1.5l-0.2,0h-2.3c-0.8,0-1.5-0.6-1.5-1.5c0-0.8,0.6-1.5,1.4-1.6l0.2,0h2.3C31.3,14.5,32,15.1,32,16L32,16z
		 M27.3,27.3c-0.6,0.6-1.5,0.6-2.1,0.1l-0.1-0.1l-1.6-1.6c-0.6-0.6-0.6-1.5,0-2.1c0.5-0.6,1.5-0.7,2.1-0.2l0.1,0.1l1.6,1.6
		C27.9,25.7,27.9,26.7,27.3,27.3L27.3,27.3z M16,32c-0.8,0-1.5-0.6-1.5-1.4l0-0.2v-2.3c0-0.8,0.6-1.5,1.5-1.5c0.8,0,1.5,0.6,1.6,1.4
		l0,0.2v2.3C17.5,31.3,16.9,32,16,32L16,32z M4.7,27.3c-0.6-0.6-0.6-1.5-0.1-2.1l0.1-0.1l1.6-1.6c0.6-0.6,1.5-0.6,2.1,0
		s0.7,1.5,0.2,2.1l-0.1,0.1l-1.6,1.6C6.3,27.9,5.3,27.9,4.7,27.3L4.7,27.3z M0,16c0-0.8,0.6-1.5,1.4-1.5l0.2,0h3.2
		c0.8,0,1.5,0.6,1.5,1.5c0,0.8-0.6,1.5-1.4,1.6l-0.2,0H1.5C0.7,17.5,0,16.9,0,16L0,16z M4.7,4.7c0.6-0.6,1.5-0.6,2.1-0.1l0.1,0.1
		l1.6,1.6c0.6,0.6,0.6,1.5,0,2.1C8,9,7.1,9.1,6.4,8.6L6.3,8.5L4.7,6.9C4.1,6.3,4.1,5.3,4.7,4.7L4.7,4.7z"/>
</g>
</svg>
