<svg width="32" height="32" viewBox="0 0 32 32" fill="none" xmlns="http://www.w3.org/2000/svg">
<path d="M17.4941 32H14.4941V28H17.4941V32Z" fill="currentColor"/>
<path d="M28.3672 26.2559L26.2461 28.377L23.418 25.5488L25.5391 23.4277L28.3672 26.2559Z" fill="currentColor"/>
<path d="M8.56836 25.5469L5.74023 28.375L3.61914 26.2539L6.44727 23.4238L8.56836 25.5469Z" fill="currentColor"/>
<path fill-rule="evenodd" clip-rule="evenodd" d="M16 5.99805C21.5228 5.99805 26 10.4752 26 15.998C25.9995 21.5204 21.5225 25.998 16 25.998C10.4775 25.998 6.00053 21.5204 6 15.998C6 10.4752 10.4772 5.99805 16 5.99805ZM16 8.99805C12.134 8.99805 9 12.1321 9 15.998C9.00053 19.8636 12.1343 22.998 16 22.998C19.8657 22.998 22.9995 19.8636 23 15.998C23 12.1321 19.866 8.99805 16 8.99805Z" fill="currentColor"/>
<path d="M4 17.498H0V14.498H4V17.498Z" fill="currentColor"/>
<path d="M32 17.498H28V14.498H32V17.498Z" fill="currentColor"/>
<path d="M8.56836 6.45703L6.44727 8.57812L3.61914 5.75L5.74023 3.62891L8.56836 6.45703Z" fill="currentColor"/>
<path d="M28.3672 5.74609L25.5391 8.57617L23.418 6.45508L26.2461 3.625L28.3672 5.74609Z" fill="currentColor"/>
<path d="M17.4922 4H14.4922V0H17.4922V4Z" fill="currentColor"/>
</svg>
