<?xml version="1.0" standalone="no"?><!DOCTYPE svg PUBLIC "-//W3C//DTD SVG 1.1//EN" "http://www.w3.org/Graphics/SVG/1.1/DTD/svg11.dtd"><svg t="1725264909280" class="icon" viewBox="0 0 1024 1024" version="1.1" xmlns="http://www.w3.org/2000/svg" p-id="15598" xmlns:xlink="http://www.w3.org/1999/xlink" width="200" height="200"><path d="M240 137.6c-41.6 16-57.6 25.6-89.6 54.4-35.2 35.2-57.6 70.4-73.6 118.4-12.8 38.4-12.8 48-12.8 99.2 0 41.6 6.4 67.2 12.8 89.6 38.4 112 166.4 262.4 361.6 422.4 60.8 51.2 70.4 51.2 115.2 19.2 86.4-67.2 249.6-220.8 300.8-288 70.4-92.8 102.4-169.6 102.4-246.4 0-153.6-108.8-275.2-246.4-275.2-70.4 0-118.4 19.2-169.6 67.2l-32 32-32-32C425.6 147.2 380.8 128 307.2 128c-25.6 0-51.2 3.2-67.2 9.6z" p-id="15599"></path></svg>