<svg width="32" height="32" viewBox="0 0 32 32" fill="none" xmlns="http://www.w3.org/2000/svg">
<path d="M6.91398 2.32199C5.51613 2.85863 4.97849 3.18061 3.90323 4.14657C2.72043 5.32719 1.96774 6.5078 1.43011 8.11773C1 9.40568 1 9.72766 1 11.4449C1 12.8402 1.21505 13.6988 1.43011 14.4501C2.72043 18.2066 7.02151 23.2511 13.5806 28.6175C15.6237 30.3348 15.9462 30.3348 17.4516 29.2615C20.3548 27.0076 25.8387 21.8558 27.5591 19.6019C29.9247 16.4894 31 13.9135 31 11.3376C31 6.18582 27.3441 2.10733 22.7204 2.10733C20.3548 2.10733 18.7419 2.7513 17.0215 4.36123L15.9462 5.43452L14.871 4.36123C13.1505 2.64397 11.6452 2 9.17204 2C8.31183 2 7.45161 2.10733 6.91398 2.32199Z" fill="currentColor"/>
</svg>
