<svg width="20" height="20" viewBox="0 0 20 20" fill="none" xmlns="http://www.w3.org/2000/svg">
<path d="M10 0.5C15.2467 0.5 19.5 4.75329 19.5 10C19.5 15.2467 15.2467 19.5 10 19.5C4.75329 19.5 0.5 15.2467 0.5 10C0.5 4.75329 4.75329 0.5 10 0.5ZM11.4707 9.23633C11.217 8.98267 10.8046 8.98289 10.5508 9.23633C10.297 9.49015 10.297 9.90242 10.5508 10.1562C10.8825 10.488 10.8822 11.0255 10.5508 11.3574L8.7832 13.125C8.256 13.6522 7.40123 13.6522 6.87402 13.125C6.34736 12.5978 6.3472 11.7439 6.87402 11.2168L7.58105 10.5098C7.8345 10.2559 7.83476 9.84356 7.58105 9.58984C7.32738 9.33651 6.91589 9.3367 6.66211 9.58984L5.95508 10.2969C4.92022 11.3317 4.92025 13.01 5.95508 14.0449C6.98997 15.0797 8.66826 15.0798 9.70312 14.0449L11.4707 12.2773C12.3098 11.4377 12.3101 10.0758 11.4707 9.23633ZM14.2988 5.70117C13.2641 4.66647 11.5857 4.66669 10.5508 5.70117L8.7832 7.46875C7.94365 8.30836 7.94365 9.67015 8.7832 10.5098C9.03705 10.7635 9.44933 10.7635 9.70312 10.5098C9.95646 10.2559 9.95668 9.84354 9.70312 9.58984C9.37125 9.25791 9.37125 8.7206 9.70312 8.38867L11.4707 6.62012C11.9978 6.09371 12.8519 6.09358 13.3789 6.62012C13.906 7.1472 13.9057 8.00206 13.3789 8.5293L12.6719 9.23633C12.4182 9.49014 12.4182 9.90246 12.6719 10.1562C12.9257 10.41 13.3379 10.4099 13.5918 10.1562L14.2988 9.44922C15.3333 8.41433 15.3335 6.73594 14.2988 5.70117Z" fill="currentColor"/>
</svg>
