<?xml version="1.0" standalone="no"?><!DOCTYPE svg PUBLIC "-//W3C//DTD SVG 1.1//EN" "http://www.w3.org/Graphics/SVG/1.1/DTD/svg11.dtd"><svg t="1761899759344" class="icon" viewBox="0 0 1024 1024" version="1.1" xmlns="http://www.w3.org/2000/svg" p-id="28286" xmlns:xlink="http://www.w3.org/1999/xlink" width="200" height="200"><path d="M614.4 406.4l35.2 35.2-67.2 67.2-35.2-35.2c-67.2-67.2-176-70.4-246.4-9.6l-6.4 6.4-147.2 147.2c-35.2 35.2-54.4 80-54.4 128s19.2 92.8 54.4 128l3.2 3.2c35.2 35.2 80 54.4 128 54.4s92.8-19.2 128-54.4l73.6-73.6 6.4-6.4 28.8-35.2 73.6 57.6-28.8 35.2-12.8 12.8-73.6 73.6c-51.2 51.2-121.6 80-192 80-73.6 0-144-28.8-195.2-80l-3.2-3.2C28.8 889.6 0 819.2 0 745.6s28.8-144 80-195.2l147.2-147.2c3.2-3.2 9.6-6.4 12.8-12.8 108.8-92.8 272-86.4 374.4 16zM745.6 0c73.6 0 144 28.8 195.2 80l3.2 3.2c51.2 51.2 80 121.6 80 195.2s-28.8 144-80 195.2L796.8 620.8c-3.2 3.2-9.6 6.4-12.8 12.8-51.2 44.8-115.2 67.2-182.4 67.2-73.6 0-140.8-28.8-192-80l-35.2-35.2 67.2-67.2 35.2 35.2c67.2 67.2 176 70.4 246.4 9.6l6.4-6.4 3.2-3.2L880 406.4c35.2-35.2 54.4-80 54.4-128s-19.2-92.8-54.4-128l-3.2-3.2c-35.2-35.2-80-54.4-128-54.4s-92.8 19.2-128 54.4l-73.6 73.6-6.4 6.4-28.8 35.2-73.6-57.6 28.8-35.2 12.8-12.8 73.6-73.6C604.8 28.8 675.2 0 745.6 0z" fill="currentColor" p-id="28287"></path></svg>
