<?xml version="1.0" encoding="utf-8"?>
<!-- Generator: Adobe Illustrator 18.0.0, SVG Export Plug-In . SVG Version: 6.00 Build 0)  -->
<!DOCTYPE svg PUBLIC "-//W3C//DTD SVG 1.1//EN" "http://www.w3.org/Graphics/SVG/1.1/DTD/svg11.dtd">
<svg version="1.1" id="Layer_1" xmlns="http://www.w3.org/2000/svg" xmlns:xlink="http://www.w3.org/1999/xlink" x="0px" y="0px"
	 viewBox="0 0 24 24" enable-background="new 0 0 24 24" xml:space="preserve">
<g>
	<!-- Bottom-left link chain part -->
	<path fill="#A3A3A3" d="M13.8,17.9l-2.4,2.4c-2.1,2.1-5.6,2.1-7.8,0c-2.1-2.1-2.1-5.6,0-7.8L7.2,9c2.1-2.1,5.6-2.1,7.8,0c0.3,0.3,0.5,0.6,0.7,0.9l-2,2.1c-0.1-0.4-0.4-0.8-0.7-1.1c-1.1-1.1-2.8-1.1-3.9,0l-3.7,3.7c-1.1,1.1-1.1,2.8,0,3.9c1.1,1.1,2.8,1.1,3.9,0l0.8-0.8c0.7,0.3,1.4,0.5,2.2,0.5C12.9,18.1,13.3,18,13.8,17.9z"/>
	<!-- Top-right link chain part -->
	<path fill="#A3A3A3" d="M10.3,6.1l2.4-2.4c2.1-2.1,5.6-2.1,7.8,0c2.1,2.1,2.1,5.6,0,7.8L16.8,15c-2.1,2.1-5.6,2.1-7.8,0c-0.3-0.3-0.5-0.5-0.7-0.8l2-1.9c0.1,0.3,0.3,0.6,0.6,0.8c1.1,1.1,2.8,1.1,3.9,0l3.7-3.7c1.1-1.1,1.1-2.8,0-3.9c-1.1-1.1-2.8-1.1-3.9,0l-0.9,0.9c-0.7-0.3-1.5-0.5-2.3-0.5C11,5.9,10.6,6,10.3,6.1z"/>
</g>
</svg>
