<svg width="32" height="32" viewBox="0 0 32 32" fill="none" xmlns="http://www.w3.org/2000/svg">
<path d="M21.3915 16.9723L25.6341 12.7296C27.3915 10.9723 27.3915 8.12302 25.6341 6.36566C23.8768 4.6083 21.0275 4.6083 19.2702 6.36566L15.7346 9.90119L13.6133 7.77987L17.1488 4.24434C20.0778 1.31541 24.8265 1.31541 27.7554 4.24434C30.6844 7.17327 30.6844 11.922 27.7554 14.8509L23.5128 19.0936C20.5839 22.0225 15.8351 22.0225 12.9062 19.0936L15.0275 16.9723C16.7849 18.7296 19.6341 18.7296 21.3915 16.9723Z" fill="currentColor"/>
<path d="M4.2441 17.149L8.48674 12.9064C11.4157 9.97747 16.1644 9.97747 19.0933 12.9064L16.972 15.0277C15.2147 13.2704 12.3654 13.2704 10.6081 15.0277L6.36542 19.2704C4.60806 21.0277 4.60806 23.877 6.36542 25.6343C8.12278 27.3917 10.972 27.3917 12.7294 25.6343L16.2649 22.0988L18.3862 24.2201L14.8507 27.7556C11.9218 30.6846 7.17303 30.6846 4.2441 27.7556C1.31517 24.8267 1.31517 20.078 4.2441 17.149Z" fill="currentColor"/>
</svg>
