<?xml version="1.0" standalone="no"?><!DOCTYPE svg PUBLIC "-//W3C//DTD SVG 1.1//EN" "http://www.w3.org/Graphics/SVG/1.1/DTD/svg11.dtd"><svg t="1730788276176" class="icon" viewBox="0 0 1024 1024" version="1.1" xmlns="http://www.w3.org/2000/svg" p-id="15486" xmlns:xlink="http://www.w3.org/1999/xlink" width="200" height="200"><path d="M108.8 768h816c38.4 0 67.2 35.2 67.2 80s-28.8 76.8-67.2 80H108.8c-38.4 0-67.2-35.2-67.2-80s32-80 67.2-80zM924.8 256H108.8C70.4 256 41.6 220.8 41.6 176S73.6 96 108.8 96h816C963.2 96 992 131.2 992 176S963.2 256 924.8 256z m-432 176h409.6c38.4 0 67.2 35.2 67.2 80s-28.8 80-67.2 80H492.8c-38.4 0-67.2-35.2-67.2-80s28.8-80 67.2-80z m-195.2 105.6L128 630.4c-28.8 19.2-67.2-6.4-67.2-38.4v-185.6c0-35.2 38.4-54.4 67.2-38.4l169.6 92.8c28.8 12.8 28.8 60.8 0 76.8z" p-id="15487"></path></svg>