<?xml version="1.0" standalone="no"?><!DOCTYPE svg PUBLIC "-//W3C//DTD SVG 1.1//EN" "http://www.w3.org/Graphics/SVG/1.1/DTD/svg11.dtd"><svg t="1721785626655" class="icon" viewBox="0 0 1025 1024" version="1.1" xmlns="http://www.w3.org/2000/svg" p-id="19045" xmlns:xlink="http://www.w3.org/1999/xlink" width="200.1953125" height="200"><path d="M0 681.6c0 92.8 76.8 169.6 169.6 169.6h41.6v-41.6H169.6c-70.4 0-128-57.6-128-128s57.6-128 128-128h41.6V512H169.6c-44.8 0-89.6 19.2-121.6 51.2S0 636.8 0 681.6zM681.6 416H339.2C294.4 416 256 460.8 256 512s38.4 96 83.2 96h342.4c32 0 60.8-19.2 73.6-48 16-28.8 16-67.2 0-96S713.6 416 681.6 416z m3.2 320H342.4C294.4 736 256 777.6 256 832s38.4 96 86.4 96h342.4c48 0 83.2-44.8 83.2-96s-38.4-96-83.2-96z m-3.2-640H342.4C294.4 96 256 137.6 256 192s38.4 96 86.4 96h339.2c32 0 60.8-19.2 73.6-48 16-28.8 16-67.2 0-96-12.8-28.8-41.6-48-73.6-48z m172.8 73.6h-41.6v41.6h41.6c35.2 0 67.2 12.8 89.6 38.4 25.6 25.6 38.4 57.6 38.4 89.6 0 35.2-12.8 67.2-38.4 89.6-25.6 25.6-57.6 38.4-89.6 38.4h-41.6V512h41.6c60.8 0 118.4-32 147.2-86.4 32-54.4 32-118.4 0-169.6-32-54.4-86.4-86.4-147.2-86.4z" p-id="19046"></path></svg>