<?xml version="1.0" standalone="no"?><!DOCTYPE svg PUBLIC "-//W3C//DTD SVG 1.1//EN" "http://www.w3.org/Graphics/SVG/1.1/DTD/svg11.dtd"><svg t="1761788302511" class="icon" viewBox="0 0 1024 1024" version="1.1" xmlns="http://www.w3.org/2000/svg" p-id="5330" xmlns:xlink="http://www.w3.org/1999/xlink" width="200" height="200"><path d="M304 128h672c25.6 0 48 22.4 48 48S1001.6 224 976 224h-672C278.4 224 256 201.6 256 176S278.4 128 304 128z m-224-32C124.8 96 160 131.2 160 176S124.8 256 80 256 0 220.8 0 176 35.2 96 80 96z m224 368h672c25.6 0 48 22.4 48 48s-22.4 48-48 48h-672c-25.6 0-48-22.4-48-48s22.4-48 48-48z m-224-32C124.8 432 160 467.2 160 512s-35.2 80-80 80S0 556.8 0 512s35.2-80 80-80z m224 368h672c25.6 0 48 22.4 48 48s-22.4 48-48 48h-672c-25.6 0-48-22.4-48-48S278.4 800 304 800z m-224-32C124.8 768 160 803.2 160 848S124.8 928 80 928 0 892.8 0 848 35.2 768 80 768z" fill="currentColor" p-id="5331"></path></svg>
