<svg width="32" height="32" viewBox="0 0 32 32" fill="none" xmlns="http://www.w3.org/2000/svg">
<path d="M10.1309 24.2773C12.1388 26.1239 14.1255 27.3382 15.1953 27.9258C15.6995 28.2024 16.3024 28.2023 16.8066 27.9258C17.8766 27.338 19.8628 26.1243 21.8691 24.2793C26.6693 24.755 30 25.7923 30 27C30 28.6569 23.732 30 16 30C8.26801 30 2 28.6569 2 27C2 25.7923 5.33062 24.753 10.1309 24.2773Z" fill="currentColor"/>
<path fill-rule="evenodd" clip-rule="evenodd" d="M16 2C21.5228 2 26 6.47715 26 12C26 18.9167 18.5245 24.3382 16.5 25.6797C16.1923 25.8835 15.8077 25.8835 15.5 25.6797C13.4755 24.3382 6 18.9167 6 12C6 6.47715 10.4772 2 16 2ZM16 8C13.7909 8 12 9.79086 12 12C12 14.2091 13.7909 16 16 16C18.2091 16 20 14.2091 20 12C20 9.79086 18.2091 8 16 8Z" fill="currentColor"/>
</svg>
