<?xml version="1.0" standalone="no"?><!DOCTYPE svg PUBLIC "-//W3C//DTD SVG 1.1//EN" "http://www.w3.org/Graphics/SVG/1.1/DTD/svg11.dtd"><svg t="1721898242394" class="icon" viewBox="0 0 1024 1024" version="1.1" xmlns="http://www.w3.org/2000/svg" p-id="18903" xmlns:xlink="http://www.w3.org/1999/xlink" width="200" height="200"><path d="M518.4 32C316.8 32 153.6 192 153.6 390.4c0 156.8 224 454.4 320 582.4 9.6 12.8 25.6 22.4 41.6 22.4 19.2 0 32-9.6 41.6-22.4 96-124.8 320-425.6 320-582.4C880 192 720 32 518.4 32z m0 486.4c-86.4 0-156.8-70.4-156.8-153.6s70.4-153.6 156.8-153.6 156.8 70.4 156.8 153.6c0 86.4-70.4 153.6-156.8 153.6z" fill="#949494" p-id="18904"></path></svg>