<svg width="32" height="32" viewBox="0 0 32 32" fill="none" xmlns="http://www.w3.org/2000/svg">
<path d="M17.5 23.2422H14.5V17.2422H17.5V23.2422Z" fill="black"/>
<path fill-rule="evenodd" clip-rule="evenodd" d="M16.2441 0.49414C20.2537 0.502253 23.5 3.75504 23.5 7.76465V10.3057H29V18.5059C28.9999 25.6855 23.1797 31.5059 16 31.5059C8.82033 31.5059 3.00006 25.6855 3 18.5059V10.3057H8.95898V7.76465C8.95899 3.7436 12.2231 0.486077 16.2441 0.49414ZM6 18.5059C6.00006 24.0287 10.4772 28.5059 16 28.5059C21.5228 28.5059 25.9999 24.0287 26 18.5059V13.3057H6V18.5059ZM16.2383 3.49414C13.8765 3.48943 11.959 5.40282 11.959 7.76465V10.3057H20.5V7.76465C20.5 5.40959 18.5933 3.49902 16.2383 3.49414Z" fill="black"/>
</svg>
