<?xml version="1.0" encoding="utf-8"?>
<!-- Generator: Adobe Illustrator 21.0.0, SVG Export Plug-In . SVG Version: 6.00 Build 0)  -->
<svg version="1.1" id="图层_1" xmlns="http://www.w3.org/2000/svg" xmlns:xlink="http://www.w3.org/1999/xlink" x="0px" y="0px"
	 viewBox="0 0 32 32" style="enable-background:new 0 0 32 32;" xml:space="preserve">
<style type="text/css">
	.st0{fill: currentColor;}
</style>
<title>logout</title>
<desc>Created with Sketch.</desc>
<g id="logout">
	<g id="退出登录-_x28_3_x29_" transform="translate(2.000000, 4.000000)">
		<path id="形状" class="st0" d="M15.9,16.2H7.7C7.3,16.2,7,16,7,15.7c0-0.1,0-0.1,0-0.2V8.4C7,8,7.2,7.7,7.7,7.7H16V7.5V1.2
			c0-0.3,0.1-0.5,0.4-0.6c0.3-0.1,0.5-0.1,0.7,0.2c0.1,0.1,0.2,0.2,0.4,0.4c1.5,1.5,3,3,4.5,4.5c1.9,1.9,3.9,3.9,5.8,5.8
			c0.3,0.3,0.3,0.7,0,1c-2.8,2.8-5.5,5.5-8.3,8.3c-0.8,0.8-1.6,1.6-2.4,2.4c-0.2,0.2-0.4,0.3-0.7,0.2c-0.3-0.1-0.4-0.3-0.4-0.6v-6.6
			H15.9z M10.9,0.7v2.4H4.7C3.4,3.1,2.4,4,2.4,5.3c0,4.4,0,8.9,0,13.3c0,1.2,0.9,2,1.7,2.2c0.2,0,0.4,0,0.6,0c2,0,4,0,6,0h0.2v2.4
			h-0.1c-2.1,0-4.3,0-6.4,0s-3.9-1.6-4.3-3.7C0.1,19.3,0,19,0,18.7c0-4.5,0-9,0-13.5C0.1,3.3,1,2,2.6,1.1c0.6-0.3,1.2-0.4,1.9-0.4
			C6.6,0.7,8.7,0.7,10.9,0.7C10.9,0.7,10.9,0.7,10.9,0.7z"/>
	</g>
</g>
</svg>
