<?xml version="1.0" standalone="no"?><!DOCTYPE svg PUBLIC "-//W3C//DTD SVG 1.1//EN" "http://www.w3.org/Graphics/SVG/1.1/DTD/svg11.dtd"><svg t="1721027943060" class="icon" viewBox="0 0 1024 1024" version="1.1" xmlns="http://www.w3.org/2000/svg" p-id="19390" xmlns:xlink="http://www.w3.org/1999/xlink" width="200" height="200"><path d="M173.856698 465.744548l-35.090343 92.510904c-9.570093 28.71028-41.470405 41.470405-70.180685 31.900311-28.71028-9.570093-41.470405-41.470405-31.900312-70.180685L221.707165 38.280374c0-3.190031 0-3.190031 3.190031-6.380062 6.380062-12.760125 15.950156-22.330218 28.710281-25.52025H256.797508c0-3.190031 6.380062-6.380062 12.760124-6.380062s15.950156 0 22.330218 3.190031c12.760125 6.380062 22.330218 15.950156 28.710281 25.520249 0 3.190031 3.190031 6.380062 3.190031 6.380063l204.161994 488.074766c9.570093 25.520249 0 57.420561-28.710281 66.990654h-3.190031c-28.71028 9.570093-60.610592-3.190031-73.370716-31.900311l-38.280374-95.700935H173.856698z m44.660436-118.031152h118.031153L275.937695 200.971963l-57.420561 146.741433zM639.601246 290.292835h191.401869c35.090343 0 63.800623 28.71028 63.800623 63.800623s-28.71028 63.800623-63.800623 63.800623h-191.401869c-35.090343 0-63.800623-28.71028-63.800623-63.800623s28.71028-63.800623 63.800623-63.800623z m0 191.401869h287.102804c35.090343 0 63.800623 28.71028 63.800623 63.800623s-28.71028 63.800623-63.800623 63.800623h-287.102804c-35.090343 0-63.800623-28.71028-63.800623-63.800623s28.71028-63.800623 63.800623-63.800623zM97.29595 673.096573h829.4081c35.090343 0 63.800623 28.71028 63.800623 63.800623s-28.71028 63.800623-63.800623 63.800623H97.29595c-35.090343 0-63.800623-28.71028-63.800623-63.800623s28.71028-63.800623 63.800623-63.800623z m0 191.401869h669.906542c35.090343 0 63.800623 28.71028 63.800623 63.800623s-28.71028 63.800623-63.800623 63.800623H97.29595c-35.090343 0-63.800623-28.71028-63.800623-63.800623s28.71028-63.800623 63.800623-63.800623z" p-id="19391"></path></svg>