<svg width="32" height="32" viewBox="0 0 32 32" fill="none" xmlns="http://www.w3.org/2000/svg">
<path d="M29.9033 11.875C30.2907 13.1826 30.5 14.5668 30.5 16C30.5 24.0081 24.0081 30.5 16 30.5C12.2302 30.5 8.79742 29.0604 6.21875 26.7021L4.66797 27.9141V21.9053L10.1289 23.6504L8.62695 24.8223C10.6232 26.4927 13.1934 27.5 16 27.5C22.3513 27.5 27.5 22.3513 27.5 16C27.5 15.1168 27.3965 14.2577 27.208 13.4316L29.9033 11.875Z" fill="currentColor"/>
<path d="M16 1.5C19.8739 1.5 23.3914 3.02079 25.9922 5.49609L27.5322 4.33301L27.4814 10.0117L22.0049 8.50977L23.5566 7.33594C21.5357 5.57124 18.8938 4.5 16 4.5C9.64873 4.5 4.5 9.64873 4.5 16C4.5 17.1834 4.67877 18.325 5.01074 19.3994L5 19.4062L2.36035 20.9297C1.80402 19.3907 1.5 17.7309 1.5 16C1.5 7.99187 7.99187 1.5 16 1.5Z" fill="currentColor"/>
<path d="M10.0303 13.0254L9.91699 14.8193L11.4424 14.1602L11.8467 13.9844L12.5 16.0195L13.1533 13.9844L13.5576 14.1602L15.082 14.8193L14.9434 12.5996H17.0566L17.0303 13.0254L16.917 14.8193L18.4424 14.1602L18.8467 13.9844L19.5 16.0195L20.1533 13.9844L20.5576 14.1602L22.082 14.8193L21.9434 12.5996H24.0566L24.0303 13.0254L23.917 14.8193L25.4424 14.1602L25.8467 13.9844L26.5078 16.0439L24.4727 16.6084L25.874 18.2373L25.5596 18.4971L24.5811 19.3076L24.2354 19.5947L23.9912 19.2178L23 17.6924L22.0088 19.2178L21.7646 19.5947L21.4189 19.3076L20.4404 18.4971L20.126 18.2373L21.5264 16.6084L19.499 16.0459L17.4727 16.6084L18.874 18.2373L18.5596 18.4971L17.5811 19.3076L17.2354 19.5947L16.9912 19.2178L16 17.6924L15.0088 19.2178L14.7646 19.5947L14.4189 19.3076L13.4404 18.4971L13.126 18.2373L14.5264 16.6084L12.499 16.0459L10.4727 16.6084L11.874 18.2373L11.5596 18.4971L10.5811 19.3076L10.2354 19.5947L9.99121 19.2178L9 17.6924L8.00879 19.2178L7.76465 19.5947L7.41895 19.3076L6.44043 18.4971L6.12598 18.2373L7.52637 16.6084L5.49219 16.0439L6.15332 13.9844L6.55762 14.1602L8.08203 14.8193L7.94336 12.5996H10.0566L10.0303 13.0254Z" fill="currentColor"/>
</svg>
