<?xml version="1.0" standalone="no"?><!DOCTYPE svg PUBLIC "-//W3C//DTD SVG 1.1//EN" "http://www.w3.org/Graphics/SVG/1.1/DTD/svg11.dtd"><svg t="1763029984207" class="icon" viewBox="0 0 1024 1024" version="1.1" xmlns="http://www.w3.org/2000/svg" p-id="14740" xmlns:xlink="http://www.w3.org/1999/xlink" width="200" height="200"><path d="M793.6 51.2l179.2 179.2c25.6 25.6 25.6 64 0 89.6L320 972.8c-25.6 25.6-64 22.4-89.6 0l-179.2-179.2c-25.6-25.6-25.6-64 0-89.6L704 51.2c25.6-25.6 64-25.6 89.6 0zM832 569.6l48 96 96 48-96 48-48 96-48-96-96-48 96-48 48-96z m-320-147.2L176 758.4l89.6 89.6L601.6 512 512 422.4z m246.4-246.4l-156.8 156.8 89.6 89.6 156.8-156.8-89.6-89.6zM192 48l48 96 96 48-96 48-48 96-48-96-96-48 96-48 48-96z m262.4 0l28.8 57.6 57.6 28.8-57.6 28.8-28.8 60.8-28.8-57.6-57.6-28.8 57.6-28.8 28.8-60.8z" fill="#999999" p-id="14741"></path></svg>