<?xml version="1.0" encoding="utf-8"?>
<!-- Generator: Adobe Illustrator 21.0.0, SVG Export Plug-In . SVG Version: 6.00 Build 0)  -->
<svg version="1.1" id="图层_1" xmlns="http://www.w3.org/2000/svg" xmlns:xlink="http://www.w3.org/1999/xlink" x="0px" y="0px"
	 viewBox="0 0 32 32" style="enable-background:new 0 0 32 32;" xml:space="preserve">
<style type="text/css">
	.st0{fill:#949494;}
</style>
<title>main-view</title>
<desc>Created with Sketch.</desc>
<g id="Symbols">
	<g id="main-view">
		<g id="形状结合" transform="translate(1.071429, 1.071429)">
			<path class="st0" d="M2,0h26c1.1,0,2,0.9,2,2v26c0,1.1-0.9,2-2,2H2c-1.1,0-2-0.9-2-2V2C0,0.9,0.9,0,2,0z M4.7,3.2
				c-0.8,0-1.5,0.7-1.5,1.5v1.7c0,0.8,0.7,1.5,1.5,1.5h4.9c0.8,0,1.5-0.7,1.5-1.5V4.7c0-0.8-0.7-1.5-1.5-1.5H4.7z M4.7,11.1
				c-0.8,0-1.5,0.7-1.5,1.5v3.3c0,0.8,0.7,1.5,1.5,1.5h4.9c0.8,0,1.5-0.7,1.5-1.5v-3.3c0-0.8-0.7-1.5-1.5-1.5H4.7z M4.7,20.5
				c-0.8,0-1.5,0.7-1.5,1.5v3.3c0,0.8,0.7,1.5,1.5,1.5h4.9c0.8,0,1.5-0.7,1.5-1.5V22c0-0.8-0.7-1.5-1.5-1.5H4.7z M14.1,11.1
				c-0.8,0-1.5,0.7-1.5,1.5v3.3c0,0.8,0.7,1.5,1.5,1.5h11.2c0.8,0,1.5-0.7,1.5-1.5v-3.3c0-0.8-0.7-1.5-1.5-1.5H14.1z M14.1,20.5
				c-0.8,0-1.5,0.7-1.5,1.5v3.3c0,0.8,0.7,1.5,1.5,1.5h11.2c0.8,0,1.5-0.7,1.5-1.5V22c0-0.8-0.7-1.5-1.5-1.5H14.1z M14.1,3.2
				c-0.8,0-1.5,0.7-1.5,1.5v1.7c0,0.8,0.7,1.5,1.5,1.5h11.2c0.8,0,1.5-0.7,1.5-1.5V4.7c0-0.8-0.7-1.5-1.5-1.5H14.1z"/>
		</g>
	</g>
</g>
</svg>
