<?xml version="1.0" encoding="utf-8"?>
<!-- Generator: Adobe Illustrator 21.0.0, SVG Export Plug-In . SVG Version: 6.00 Build 0)  -->
<svg version="1.1" id="图层_1" xmlns="http://www.w3.org/2000/svg" xmlns:xlink="http://www.w3.org/1999/xlink" x="0px" y="0px"
	 viewBox="0 0 32 32" style="enable-background:new 0 0 32 32;" xml:space="preserve">
<style type="text/css">
	.st0{fill:#999999;}
</style>
<title>map</title>
<g id="map">
	<g id="形状结合" transform="translate(1.000000, 1.000000)">
		<path class="st0" d="M29.5,6.8C29.8,7,30,7.4,30,7.8v17.6c0,0.5-0.3,1-0.8,1.2l-8.8,3.3c-0.3,0.1-0.6,0.1-0.8,0L10,26.7l-8.3,3.2
			c-0.4,0.1-0.8,0.1-1.2-0.1c-0.3-0.2-0.5-0.6-0.5-1V11.2c0-0.5,0.3-1,0.8-1.2l4-1.5c-0.2,1.1-0.2,2.3,0,3.4l-2,0.9v13.4l5.6-2.4
			l0-5.4l2.8,3.5v2.7l7.5,2.5v-5.2l2.8-3.5l0,8l5.6-2.2V10.4l-1.9,0.8c0.1-1.1,0.1-2.2-0.2-3.3l3.2-1.2C28.7,6.5,29.1,6.6,29.5,6.8z
			 M8.3,2.7c3.7-3.6,9.6-3.6,13.3,0c3.3,3.1,3.7,8,1.1,11.7l-6.2,7.7c-0.1,0.1-0.2,0.2-0.3,0.3c-0.9,0.7-2.1,0.6-2.8-0.3l-6.1-7.6
			C4.7,10.8,5.2,5.9,8.3,2.7z M19.4,4.8c-2.4-2.2-6.4-2.2-8.8,0c-2.2,2-2.4,5.1-0.7,7.4l4.1,5.5c0.5,0.7,1.5,0.7,2,0l4.1-5.5
			C21.8,9.9,21.6,6.8,19.4,4.8z M15,5c2.2,0,4,1.8,4,4c0,1.4-0.8,2.7-2,3.5s-2.8,0.7-4,0s-2-2-2-3.5C11,6.8,12.8,5,15,5z M15,8
			c-0.6,0-1,0.4-1,1s0.4,1,1,1s1-0.4,1-1S15.6,8,15,8z"/>
	</g>
</g>
</svg>
