<svg width="32" height="32" viewBox="0 0 32 32" fill="none" xmlns="http://www.w3.org/2000/svg">
<path fill-rule="evenodd" clip-rule="evenodd" d="M16.0703 7.41223C18.5556 7.41223 20.5703 9.42695 20.5703 11.9122C20.5698 14.3971 18.5553 16.4122 16.0703 16.4122C13.5854 16.4122 11.5708 14.3971 11.5703 11.9122C11.5703 9.42695 13.585 7.41223 16.0703 7.41223ZM16.0703 10.4122C15.2419 10.4122 14.5703 11.0838 14.5703 11.9122C14.5708 12.7402 15.2422 13.4122 16.0703 13.4122C16.8984 13.4122 17.5698 12.7402 17.5703 11.9122C17.5703 11.0838 16.8987 10.4122 16.0703 10.4122Z" fill="currentColor"/>
<path fill-rule="evenodd" clip-rule="evenodd" d="M16.0703 2.03918C21.3806 2.03918 25.5703 6.52501 25.5703 11.9122C25.57 14.9905 23.8501 17.8262 22.0762 19.9611H28.1309L30.9883 29.9611H1.01172L3.86914 19.9611H10.0645C8.29054 17.8262 6.57068 14.9905 6.57031 11.9122C6.57031 6.52501 10.7601 2.03918 16.0703 2.03918ZM6.13086 22.9611L4.98828 26.9611H27.0117L25.8691 22.9611H19.1562C18.8389 23.2444 18.5438 23.5001 18.2773 23.7208C17.8841 24.0467 17.5543 24.3034 17.3203 24.4806C17.2032 24.5693 17.1086 24.6398 17.043 24.6876C17.0108 24.7111 16.9851 24.7292 16.9668 24.7423C16.9576 24.7489 16.9488 24.754 16.9434 24.7579L16.9355 24.7657L16.0703 25.3732L15.207 24.7657L15.1973 24.7579C15.1918 24.754 15.1831 24.7489 15.1738 24.7423C15.1555 24.7292 15.1298 24.7111 15.0977 24.6876C15.032 24.6398 14.9374 24.5693 14.8203 24.4806C14.5863 24.3034 14.2566 24.0467 13.8633 23.7208C13.5969 23.5001 13.3018 23.2444 12.9844 22.9611H6.13086ZM16.0703 5.03918C12.544 5.03918 9.57031 8.05187 9.57031 11.9122C9.57076 14.3061 11.2132 16.8448 13.1699 18.9552C14.1135 19.9729 15.0628 20.8183 15.7773 21.4103C15.879 21.4945 15.9793 21.5694 16.0703 21.6427C16.1613 21.5694 16.2616 21.4945 16.3633 21.4103C17.0778 20.8183 18.0271 19.9729 18.9707 18.9552C20.9275 16.8448 22.5699 14.3061 22.5703 11.9122C22.5703 8.05187 19.5966 5.03918 16.0703 5.03918Z" fill="currentColor"/>
</svg>
