<?xml version="1.0" standalone="no"?><!DOCTYPE svg PUBLIC "-//W3C//DTD SVG 1.1//EN" "http://www.w3.org/Graphics/SVG/1.1/DTD/svg11.dtd"><svg t="1719816754372" class="icon" viewBox="0 0 1024 1024" version="1.1" xmlns="http://www.w3.org/2000/svg" p-id="4252" xmlns:xlink="http://www.w3.org/1999/xlink" width="200" height="200"><path d="M768 992H256c-73.6 0-128-57.6-128-131.2V163.2C128 89.6 182.4 32 256 32h297.6c12.8 0 22.4 3.2 28.8 12.8l297.6 304c9.6 9.6 12.8 16 12.8 32v480C896 934.4 841.6 992 768 992zM265.6 128C240 128 224 144 224 169.6v681.6c0 28.8 16 44.8 41.6 44.8h492.8c25.6 0 41.6-16 41.6-41.6V400L537.6 128H265.6z" p-id="4253"></path><path d="M822.4 448h-297.6c-25.6 0-41.6-16-41.6-41.6V105.6c-3.2-25.6 12.8-41.6 38.4-41.6s41.6 16 41.6 41.6v256h256c25.6 0 41.6 16 41.6 41.6s-12.8 44.8-38.4 44.8zM368 544h288c25.6 0 48 22.4 48 48s-22.4 48-48 48h-288c-25.6 0-48-22.4-48-48s22.4-48 48-48zM368 704h288c25.6 0 48 22.4 48 48s-22.4 48-48 48h-288c-25.6 0-48-22.4-48-48s22.4-48 48-48z" p-id="4254"></path></svg>