<?xml version="1.0" standalone="no"?><!DOCTYPE svg PUBLIC "-//W3C//DTD SVG 1.1//EN" "http://www.w3.org/Graphics/SVG/1.1/DTD/svg11.dtd"><svg t="1761880353327" class="icon" viewBox="0 0 1024 1024" version="1.1" xmlns="http://www.w3.org/2000/svg" p-id="23086" xmlns:xlink="http://www.w3.org/1999/xlink" width="200" height="200"><path d="M694.4 537.6c-54.4 35.2-121.6 51.2-179.2 51.2-64 0-128-19.2-179.2-51.2C192 601.6 96 710.4 96 864c0 169.6 838.4 166.4 838.4 0-3.2-153.6-102.4-262.4-240-326.4z m-358.4-92.8c25.6 22.4 51.2 38.4 80 51.2 60.8 25.6 128 25.6 188.8 0 32-12.8 57.6-28.8 80-51.2 25.6-22.4 41.6-48 54.4-80 12.8-28.8 19.2-60.8 19.2-89.6 0-64-28.8-124.8-73.6-169.6-25.6-22.4-48-38.4-80-51.2-60.8-25.6-128-25.6-188.8 0-32 12.8-57.6 28.8-80 51.2-25.6 22.4-44.8 51.2-57.6 76.8-9.6 32-16 60.8-16 92.8s6.4 64 19.2 89.6c9.6 32 28.8 57.6 54.4 80z" fill="#999999" p-id="23087"></path></svg>