<?xml version="1.0" encoding="utf-8"?>
<!-- Generator: Adobe Illustrator 21.0.0, SVG Export Plug-In . SVG Version: 6.00 Build 0)  -->
<svg version="1.1" id="图层_1" xmlns="http://www.w3.org/2000/svg" xmlns:xlink="http://www.w3.org/1999/xlink" x="0px" y="0px"
	 viewBox="0 0 32 32" style="enable-background:new 0 0 32 32;" xml:space="preserve">
<style type="text/css">
	.st0{fill:#999999;}
</style>
<title>monitor</title>
<g id="monitor">
	<g id="形状" transform="translate(1.000000, 1.000000)">
		<path class="st0" fill="currentColor" d="M25.1,20.8c-0.5-0.2-0.8-0.6-0.9-1.1v-4.7c0-4.4-4.2-7.3-6-8.3c-0.1-0.5-0.4-1.4-1-2
			c-0.6-0.6-1.4-0.9-2.3-0.8h-0.1c-0.8,0-1.6,0.3-2.3,0.8c-0.7,0.6-0.9,1.5-1,2c-1.8,0.9-6,3.8-6,8.3v4.6c0,0.5-0.4,0.9-0.9,1.1
			c-1.6,0.7-1.8,2.1-1.4,3.1c0.2,0.5,0.6,1,3.6,1h2.5c0.2,2.6,2.5,4.6,5.4,4.6s5.3-2.1,5.4-4.6h2.6c3,0,3.4-0.5,3.6-1
			C26.9,22.9,26.7,21.5,25.1,20.8L25.1,20.8z M14.9,27.8c-1.9,0-3.4-1.3-3.6-2.9h7.1C18.3,26.5,16.8,27.8,14.9,27.8L14.9,27.8z
			 M22.9,23.1H7c-0.6,0-1.3,0-1.9-0.1c0-0.3,0.1-0.4,0.5-0.6c1.1-0.5,1.9-1.5,1.9-2.7v-4.7c0-3.9,4.5-6.5,5.3-6.9L13.4,8V7.4
			c0-0.2,0.1-1.7,1.5-1.7H15c1.4,0,1.5,1.5,1.5,1.7V8L17,8.2c0.8,0.3,5.3,2.9,5.3,6.9v4.7c0,1.2,0.8,2.2,1.9,2.7
			c0.4,0.2,0.5,0.3,0.5,0.6C24.2,23.1,23.5,23.1,22.9,23.1L22.9,23.1z"/>
		<path class="st0" d="M23.9,0.2c0.4,0.3,0.6,0.9,0.3,1.3l-2.1,3.2c-0.3,0.4-0.9,0.6-1.3,0.3s-0.6-0.9-0.3-1.3l2.1-3.2
			C22.8,0,23.4-0.1,23.9,0.2z M29.9,7.1c0.2,0.5,0,1.1-0.5,1.3L25.9,10c-0.5,0.2-1,0-1.3-0.5c-0.2-0.5,0-1,0.5-1.3l3.5-1.6
			C29.1,6.4,29.7,6.6,29.9,7.1L29.9,7.1z M0.1,7.1c0.1-0.2,0.3-0.4,0.5-0.5c0.2-0.1,0.5-0.1,0.7,0l3.5,1.6c0.3,0.1,0.5,0.5,0.5,0.8
			c0,0.3-0.1,0.7-0.4,0.9c-0.3,0.2-0.6,0.2-1,0.1L0.6,8.4C0.1,8.2-0.1,7.6,0.1,7.1L0.1,7.1z M6.1,0.2C6.3,0,6.6,0,6.8,0
			s0.5,0.2,0.6,0.4l2.1,3.2c0.2,0.3,0.2,0.7,0.1,1S9.1,5.2,8.8,5.2C8.4,5.2,8.1,5,7.9,4.7L5.8,1.5C5.7,1.3,5.6,1,5.7,0.8
			C5.8,0.5,5.9,0.3,6.1,0.2L6.1,0.2L6.1,0.2z"/>
	</g>
</g>
</svg>
