<svg width="32" height="32" viewBox="0 0 32 32" fill="none" xmlns="http://www.w3.org/2000/svg">
<path fill-rule="evenodd" clip-rule="evenodd" d="M29.0605 27.9395L26.9395 30.0605L22.3789 25.5H3V22.5H4.49219V15.0762C4.49109 12.9354 5.07638 10.9319 6.09375 9.21484L2.93945 6.06055L5.06055 3.93945L29.0605 27.9395ZM8.30859 11.4297C7.78481 12.5345 7.49159 13.7701 7.49219 15.0742V22.459H19.3379L8.30859 11.4297Z" fill="currentColor"/>
<path d="M21 29.5H11V26.5H21V29.5Z" fill="currentColor"/>
<path d="M17.5 3.66992C23.1359 4.40877 27.4889 9.22725 27.4922 15.0645V22.25L24.4922 19.25V15.0664C24.4896 10.3743 20.6842 6.57099 15.9922 6.57031C14.7643 6.57031 13.597 6.83228 12.543 7.30078L10.3125 5.07031C11.5779 4.3502 12.9931 3.86176 14.5 3.66602V1H17.5V3.66992Z" fill="currentColor"/>
</svg>
