<?xml version="1.0" encoding="utf-8"?>
<svg t="1761794364579" class="icon" viewBox="0 0 1024 1024" version="1.1" xmlns="http://www.w3.org/2000/svg" p-id="7661" id="mx_n_1761794364580" data-spm-anchor-id="a313x.manage_type_myprojects.0.i11.69513a812OhUPU" width="200" height="200"><path d="M768 512c0 54.4 41.6 96 96 96s96-41.6 96-96-41.6-96-96-96-96 41.6-96 96z m-352 0c0 54.4 41.6 96 96 96s96-41.6 96-96-41.6-96-96-96-96 41.6-96 96z m-352 6.4c0 54.4 41.6 96 96 96s96-41.6 96-96-41.6-96-96-96-96 44.8-96 96z" fill="currentColor" p-id="7662" data-spm-anchor-id="a313x.manage_type_myprojects.0.i10.69513a812OhUPU" class="selected"></path></svg>
