<?xml version="1.0" encoding="utf-8"?>
<!-- Generator: Adobe Illustrator 21.0.0, SVG Export Plug-In . SVG Version: 6.00 Build 0)  -->
<svg version="1.1" id="图层_1" xmlns="http://www.w3.org/2000/svg" xmlns:xlink="http://www.w3.org/1999/xlink" x="0px" y="0px"
	 viewBox="0 0 32 32" style="enable-background:new 0 0 32 32;" xml:space="preserve">
<style type="text/css">
	.st0{fill:#929292;}
</style>
<title>more</title>
<desc>Created with Sketch.</desc>
<g id="more">
	<path id="形状结合" class="st0" d="M24.3,16c0-2,1.7-3.7,3.7-3.7s3.7,1.7,3.7,3.7S30,19.7,28,19.7S24.3,18,24.3,16z M12,16
		c0-2,1.7-3.7,3.7-3.7s3.7,1.7,3.7,3.7s-1.7,3.7-3.7,3.7S12,18,12,16z M0,16c0-2,1.3-3.7,3.4-3.7s4,1.7,4,3.7s-1.9,3.7-4,3.7
		S0,18,0,16z"/>
</g>
</svg>
