<?xml version="1.0" encoding="utf-8"?>
<!-- Generator: Adobe Illustrator 21.0.0, SVG Export Plug-In . SVG Version: 6.00 Build 0)  -->
<svg version="1.1" id="图层_1" xmlns="http://www.w3.org/2000/svg" xmlns:xlink="http://www.w3.org/1999/xlink" x="0px" y="0px"
	 viewBox="0 0 32 32" style="enable-background:new 0 0 32 32;" xml:space="preserve">
<style type="text/css">
	.st0{fill:#929292;}
</style>
<title>more</title>
<desc>Created with Sketch.</desc>
<g id="more">
	<path id="形状结合" class="st0" d="M15.7,7.4c-2,0-3.7-1.7-3.7-3.7S13.7,0,15.7,0s3.7,1.7,3.7,3.7S17.7,7.4,15.7,7.4z
		 M15.7,19.7c-2,0-3.7-1.7-3.7-3.7s1.7-3.7,3.7-3.7s3.7,1.7,3.7,3.7S17.7,19.7,15.7,19.7z M15.7,32c-2,0-3.7-1.7-3.7-3.7
		s1.7-3.7,3.7-3.7s3.7,1.7,3.7,3.7S17.7,32,15.7,32z"/>
</g>
</svg>
