<svg width="32" height="32" viewBox="0 0 32 32" fill="none" xmlns="http://www.w3.org/2000/svg">
<path d="M16 23.001C17.3805 23.001 18.4997 24.1195 18.5 25.5C18.5 26.8807 17.3807 28 16 28C14.6193 28 13.5 26.8807 13.5 25.5C13.5003 24.1195 14.6195 23.001 16 23.001Z" fill="currentColor"/>
<path d="M16 13.001C17.3805 13.001 18.4997 14.1195 18.5 15.5C18.5 16.8807 17.3807 18 16 18C14.6193 18 13.5 16.8807 13.5 15.5C13.5003 14.1195 14.6195 13.001 16 13.001Z" fill="currentColor"/>
<path d="M16 4C17.3807 4 18.5 5.11929 18.5 6.5C18.5 7.88071 17.3807 9 16 9C14.6193 9 13.5 7.88071 13.5 6.5C13.5 5.11929 14.6193 4 16 4Z" fill="currentColor"/>
</svg>
