<?xml version="1.0" standalone="no"?><!DOCTYPE svg PUBLIC "-//W3C//DTD SVG 1.1//EN" "http://www.w3.org/Graphics/SVG/1.1/DTD/svg11.dtd"><svg t="1762151481495" class="icon" viewBox="0 0 1024 1024" version="1.1" xmlns="http://www.w3.org/2000/svg" p-id="29624" xmlns:xlink="http://www.w3.org/1999/xlink" width="200" height="200"><path d="M928 160h-307.2c-32-35.2-54.4-57.6-70.4-67.2-35.2-25.6-70.4-28.8-86.4-28.8H96c-35.2 0-64 28.8-64 64v768c0 35.2 28.8 64 64 64h832c35.2 0 64-28.8 64-64V224c0-35.2-28.8-64-64-64z m-32 704H128V256h768v608z" fill="currentColor" p-id="29625"></path><path d="M288 512h336l-134.4-134.4 67.2-67.2 249.6 249.6-249.6 249.6-67.2-67.2 134.4-134.4H288v-96z" fill="currentColor" p-id="29626"></path></svg>
