<svg width="32" height="32" viewBox="0 0 32 32" fill="none" xmlns="http://www.w3.org/2000/svg">
<path d="M21.9536 17.463L16.9926 22.9744L14.888 20.7698L16.7523 18.817H11V15.6989H16.3608L14.888 14.1561L16.9926 11.9496L21.9536 17.463Z" fill="currentColor"/>
<path fill-rule="evenodd" clip-rule="evenodd" d="M15.387 5.11805H31V24.2836C31 27.4407 28.5568 30 25.5429 30H6.45715C3.44325 30 1 27.4407 1 24.2836V2H11.4182L15.387 5.11805ZM3.97663 24.2836C3.97663 25.7186 5.08719 26.882 6.45715 26.882H25.5429C26.9128 26.882 28.0234 25.7186 28.0234 24.2836V8.23609H14.3948L10.426 5.11805H3.97663V24.2836Z" fill="currentColor"/>
</svg>
