<?xml version="1.0" encoding="utf-8"?>
<!-- Generator: Adobe Illustrator 21.0.0, SVG Export Plug-In . SVG Version: 6.00 Build 0)  -->
<svg version="1.1" id="图层_1" xmlns="http://www.w3.org/2000/svg" xmlns:xlink="http://www.w3.org/1999/xlink" x="0px" y="0px"
	 viewBox="0 0 32 32" style="enable-background:new 0 0 32 32;" xml:space="preserve">
<style type="text/css">
	.st0{fill:#949494;}
</style>
<title>move-to</title>
<g id="move-to-">
	<g id="export" transform="translate(2.000000, 3.000000)">
		<path id="形状结合" fill="currentColor" class="st0" d="M10.7,0c0.4,0,0.8,0.1,1.4,0.4c0.7,0.3,1.1,0.7,1.5,1s0.6,0.7,0.8,1
			c0.2,0.3,0.3,0.5,0.6,0.6c0.2,0.1,0.5,0.2,0.9,0.2h8.5c1,0,1.9,0.3,2.5,0.9C27.5,4.8,28,5.5,28,6.4v16.3c0,1-0.4,1.7-1.1,2.3
			S25.4,26,24.4,26H3.5c-1.1,0-1.8-0.2-2.5-1c-0.7-0.8-1-1.4-1-2.3l0-10.3c0-0.1,0-0.2,0-0.4l0-8.8l0,0c0-1,0.5-1.6,1.1-2.2
			C1.8,0.3,2.4,0,3.1,0H10.7z M17.4,9.6c-0.8-0.8-1.6-0.8-2.4,0l0,0l-0.1,0.1c-0.7,0.8-0.6,1.5,0.1,2.3l0,0l1.1,1.1l-8.4,0
			c-1.1,0-1.7,0.6-1.7,1.7l0,0L6,15c0.1,1,0.6,1.5,1.7,1.5l0,0l8.3,0l-1.1,1.1c-0.8,0.8-0.8,1.6,0,2.4l0,0l0.1,0.1
			c0.8,0.7,1.5,0.6,2.3-0.1l0,0l3.6-3.6c0.1-0.1,0.3-0.2,0.4-0.3l0,0l0.1-0.1c0.6-0.7,0.6-1.4,0.1-2c-0.1-0.1-0.2-0.2-0.3-0.3l0,0
			l-0.1-0.1l0,0l0,0L17.4,9.6z"/>
	</g>
</g>
</svg>
