<svg width="32" height="32" viewBox="0 0 32 32" fill="none" xmlns="http://www.w3.org/2000/svg">
<path d="M5.5 22.5C7.433 22.5 9 24.067 9 26C9 27.933 7.433 29.5 5.5 29.5C3.567 29.5 2 27.933 2 26C2 24.067 3.567 22.5 5.5 22.5Z" fill="currentColor"/>
<path d="M30 29H12V23H30V29Z" fill="currentColor"/>
<path d="M5.5 12.5C7.433 12.5 9 14.067 9 16C9 17.933 7.433 19.5 5.5 19.5C3.567 19.5 2 17.933 2 16C2 14.067 3.567 12.5 5.5 12.5Z" fill="currentColor"/>
<path d="M30 19H12V13H30V19Z" fill="currentColor"/>
<path d="M5.5 2.5C7.433 2.5 9 4.06701 9 6C9 7.93299 7.433 9.5 5.5 9.5C3.567 9.5 2 7.93299 2 6C2 4.06701 3.567 2.5 5.5 2.5Z" fill="currentColor"/>
<path d="M30 9H12V3H30V9Z" fill="currentColor"/>
</svg>
