<?xml version="1.0" standalone="no"?><!DOCTYPE svg PUBLIC "-//W3C//DTD SVG 1.1//EN" "http://www.w3.org/Graphics/SVG/1.1/DTD/svg11.dtd"><svg t="1723777705850" class="icon" viewBox="0 0 1024 1024" version="1.1" xmlns="http://www.w3.org/2000/svg" p-id="15418" xmlns:xlink="http://www.w3.org/1999/xlink" width="200" height="200"><path d="M128 128C73.6 128 32 169.6 32 224s41.6 96 96 96 96-41.6 96-96-41.6-96-96-96zM128 416c-54.4 0-96 41.6-96 96s41.6 96 96 96 96-41.6 96-96-41.6-96-96-96zM128 704c-54.4 0-96 41.6-96 96s41.6 96 96 96 96-41.6 96-96-41.6-96-96-96zM963.2 736H380.8c-16 0-28.8 12.8-28.8 32v64c0 19.2 12.8 32 28.8 32h582.4c16 0 28.8-12.8 28.8-32v-64c0-19.2-12.8-32-28.8-32zM963.2 160H380.8c-16 0-28.8 12.8-28.8 32v64c0 19.2 12.8 32 28.8 32h582.4c16 0 28.8-12.8 28.8-32V192c0-19.2-12.8-32-28.8-32zM963.2 448H380.8c-16 0-28.8 12.8-28.8 32v64c0 19.2 12.8 32 28.8 32h582.4c16 0 28.8-12.8 28.8-32v-64c0-19.2-12.8-32-28.8-32z" p-id="15419"></path></svg>