<svg width="16" height="16" viewBox="0 0 16 16" fill="none" xmlns="http://www.w3.org/2000/svg">
<path d="M7.94238 2.97754H15.001L15 12.3467C14.9997 13.451 14.1044 14.3457 13 14.3457H3C1.89537 14.3457 0.999915 13.4503 1 12.3457L1.00098 1.6543H6.61816L7.94238 2.97754ZM8.00098 9.2998C6.35527 9.2998 5.50102 9.9563 5.50098 10.7666V11.5H10.501V10.7666C10.5009 10.0069 9.74965 9.3827 8.2998 9.30762L8.00098 9.2998ZM8.00098 6C7.60599 6.00003 7.22655 6.15464 6.94727 6.42969C6.66805 6.70473 6.51172 7.07789 6.51172 7.4668C6.51175 7.85571 6.66801 8.22889 6.94727 8.50391C7.22655 8.77895 7.606 8.93356 8.00098 8.93359C8.19641 8.93355 8.38975 8.89493 8.57031 8.82129C8.751 8.7476 8.91541 8.64007 9.05371 8.50391C9.19198 8.36776 9.3021 8.2062 9.37695 8.02832C9.45179 7.85041 9.49022 7.65937 9.49023 7.4668C9.49023 7.2742 9.45179 7.08321 9.37695 6.90527C9.30211 6.72736 9.19198 6.56586 9.05371 6.42969C8.9154 6.29349 8.75102 6.18503 8.57031 6.11133C8.38982 6.03775 8.19632 6.00005 8.00098 6Z" fill="currentColor" />
</svg>
