<svg width="16" height="16" viewBox="0 0 16 16" fill="none" xmlns="http://www.w3.org/2000/svg">
<path d="M11.79 13.5703C11.7901 13.7491 11.9345 13.8945 12.1133 13.8945H13.7324C13.9109 13.8942 14.0565 13.7489 14.0566 13.5703V13.2471H16V14.8662C15.9999 15.2235 15.7107 15.514 15.3535 15.5146H10.4951C10.1374 15.5146 9.84577 15.2239 9.8457 14.8662V13.2471H11.79V13.5703Z" fill="currentColor"/>
<path d="M7.61621 9.41699C8.41007 9.43728 9.13576 9.51394 9.79199 9.6377L9.08984 13.0664V14.8906H0V13.6484C0.000298542 11.308 2.45406 9.4112 7.17969 9.41113L7.61621 9.41699Z" fill="currentColor"/>
<path d="M15.6768 12.6523H10.1699V11.4834H15.6768V12.6523Z" fill="currentColor"/>
<path d="M15.001 10.8223H10.6738V10H15.001V10.8223Z" fill="currentColor"/>
<path d="M7.17969 0.485352C7.74119 0.485329 8.29761 0.594852 8.81641 0.807617C9.33513 1.02041 9.80702 1.33243 10.2041 1.72559C10.6012 2.11886 10.9159 2.58675 11.1309 3.10059C11.3458 3.61445 11.457 4.16547 11.457 4.72168C11.457 5.27793 11.3457 5.82886 11.1309 6.34277C10.9159 6.85674 10.6012 7.3244 10.2041 7.71777C9.80695 8.11109 9.33528 8.42289 8.81641 8.63574C8.29752 8.84859 7.7413 8.95803 7.17969 8.95801C6.0455 8.95786 4.95724 8.51122 4.15527 7.7168C3.35365 6.92238 2.90332 5.8449 2.90332 4.72168C2.90344 3.59845 3.35353 2.52091 4.15527 1.72656C4.95723 0.932199 6.04555 0.485502 7.17969 0.485352Z" fill="currentColor"/>
</svg>
