<?xml version="1.0" encoding="utf-8"?>
<!-- Generator: Adobe Illustrator 21.0.0, SVG Export Plug-In . SVG Version: 6.00 Build 0)  -->
<svg version="1.1" id="图层_1" xmlns="http://www.w3.org/2000/svg" xmlns:xlink="http://www.w3.org/1999/xlink" x="0px" y="0px"
	 viewBox="0 0 32 32" style="enable-background:new 0 0 32 32;" xml:space="preserve">
<style type="text/css">
	.st0{fill:#999999;}
</style>
<title>navigation-unfold</title>
<g id="navigation-fold" transform="translate(15.439027, 16.000000) scale(-1, 1) translate(-15.439027, -16.000000) ">
	<g id="Icon" >
		<path class="st0" d="M13.8,31.5c0.3,0.3,0.8,0.5,1.2,0.5c0.5,0,0.9-0.2,1.2-0.5l14.1-14.3c0.3-0.3,0.5-0.8,0.5-1.2
			c0-0.5-0.2-0.9-0.5-1.2L16.3,0.5c-0.7-0.7-1.8-0.7-2.4,0s-0.7,1.8,0,2.4L26.7,16L13.8,29.1C13.2,29.8,13.2,30.8,13.8,31.5z"/>
		<path class="st0" d="M0.5,31.5C0.8,31.8,1.3,32,1.7,32s0.9-0.2,1.2-0.5L17,17.2c0.3-0.3,0.5-0.8,0.5-1.2c0-0.5-0.2-0.9-0.5-1.2
			L2.9,0.5c-0.7-0.7-1.8-0.7-2.4,0s-0.7,1.8,0,2.4L13.3,16L0.5,29.1C-0.2,29.8-0.2,30.8,0.5,31.5z"/>
	</g>
</g>
</svg>
