<?xml version="1.0" standalone="no"?><!DOCTYPE svg PUBLIC "-//W3C//DTD SVG 1.1//EN" "http://www.w3.org/Graphics/SVG/1.1/DTD/svg11.dtd"><svg t="1761880440281" class="icon" viewBox="0 0 1024 1024" version="1.1" xmlns="http://www.w3.org/2000/svg" p-id="24779" xmlns:xlink="http://www.w3.org/1999/xlink" width="200" height="200"><path d="M784 480c134.4 0 240 105.6 240 240S918.4 960 784 960 544 854.4 544 720s105.6-240 240-240z m-284.8 51.2c12.8 6.4 22.4 12.8 32 19.2-32 48-51.2 105.6-51.2 169.6 0 83.2 35.2 160 89.6 217.6-198.4 48-569.6 19.2-569.6-89.6 0-137.6 80-259.2 198.4-316.8 41.6 25.6 92.8 44.8 150.4 44.8s105.6-16 150.4-44.8z m307.2 28.8h-44.8c-9.6 0-16 6.4-16 16v102.4h-102.4c-9.6 0-16 6.4-16 16v44.8c0 9.6 6.4 16 16 16h102.4v102.4c0 9.6 6.4 16 16 16h44.8c9.6 0 16-6.4 16-16v-102.4H928c9.6 0 16-6.4 16-16v-44.8c0-9.6-6.4-16-16-16h-102.4V576c0-6.4-9.6-16-19.2-16zM700.8 105.6c25.6 9.6 51.2 25.6 70.4 44.8 41.6 38.4 64 92.8 64 150.4 0 25.6-6.4 51.2-16 76.8-3.2 12.8-9.6 25.6-19.2 38.4h-16c-86.4 0-163.2 35.2-220.8 92.8-12.8 0-25.6-3.2-35.2-6.4 16-9.6 51.2-35.2 64-48 32-25.6 64-102.4 64-144s0-128-64-182.4c-12.8-6.4-32-22.4-48-35.2 48-9.6 108.8-6.4 156.8 12.8z m-262.4-25.6c28.8 9.6 54.4 28.8 73.6 48 41.6 41.6 67.2 96 67.2 156.8 0 28.8-6.4 54.4-16 83.2s-28.8 51.2-51.2 70.4c-19.2 19.2-44.8 35.2-73.6 48-54.4 25.6-121.6 25.6-176 3.2-28.8-12.8-51.2-28.8-73.6-48s-41.6-41.6-51.2-70.4c-12.8-25.6-16-54.4-16-83.2s3.2-54.4 16-83.2c9.6-25.6 28.8-51.2 51.2-70.4 19.2-19.2 44.8-35.2 73.6-48 54.4-28.8 121.6-28.8 176-6.4z" fill="#999999" p-id="24780"></path></svg>