<?xml version="1.0" encoding="utf-8"?>
<!-- Generator: Adobe Illustrator 21.0.0, SVG Export Plug-In . SVG Version: 6.00 Build 0)  -->
<svg version="1.1" id="图层_1" xmlns="http://www.w3.org/2000/svg" xmlns:xlink="http://www.w3.org/1999/xlink" x="0px" y="0px"
	 viewBox="0 0 32 32" style="enable-background:new 0 0 32 32;" xml:space="preserve">
<style type="text/css">
	.st0{fill:#999999;}
</style>
<title>notification</title>
<g id="notification">
	<path id="形状结合" class="st0" d="M14.1,26.2v0.6c0,1.1,0.9,1.9,1.9,1.9s1.9-0.9,1.9-1.9v-0.6H14.1z M21.1,8.4
		c-1.6-1.5-3.7-2.2-5.9-2c-4,0.5-6.9,3.9-6.9,7.9V23h15.3v-9C23.6,11.9,22.7,9.9,21.1,8.4z M21.1,26.9c0,2.8-2.3,5.1-5.1,5.1
		s-5.1-2.3-5.1-5.1v-0.6l-7.3,0c-0.5,0-0.9-0.2-1.2-0.5S2,24.9,2,24.5C2.1,23.6,2.8,23,3.7,23c0.4,0,0.8-0.2,1.1-0.4
		c0.3-0.3,0.4-0.7,0.4-1.1v-7.4c0-5.4,3.9-10,9.2-10.7V1.6c0-0.5,0.2-0.9,0.5-1.2S15.7,0,16.2,0c0.8,0.1,1.4,0.8,1.4,1.7v1.6
		c5.3,0.8,9.2,5.4,9.2,10.7v7.4c0,0.8,0.7,1.5,1.5,1.5c0.8,0,1.6,0.6,1.7,1.4c0,0.5-0.1,0.9-0.4,1.2c-0.3,0.3-0.7,0.5-1.2,0.5
		l-7.3,0V26.9z"/>
</g>
</svg>
