<?xml version="1.0" standalone="no"?><!DOCTYPE svg PUBLIC "-//W3C//DTD SVG 1.1//EN" "http://www.w3.org/Graphics/SVG/1.1/DTD/svg11.dtd"><svg t="1718865224104" class="icon" viewBox="0 0 1024 1024" version="1.1" xmlns="http://www.w3.org/2000/svg" p-id="15668" xmlns:xlink="http://www.w3.org/1999/xlink" width="200" height="200"><path d="M595.2 764.8h-166.4v144c0 44.8-38.4 83.2-83.2 83.2s-83.2-38.4-83.2-83.2v-144H115.2c-44.8 0-83.2-38.4-83.2-83.2s38.4-83.2 83.2-83.2h144v-166.4H115.2C70.4 428.8 32 390.4 32 345.6s38.4-83.2 83.2-83.2h144V115.2C259.2 70.4 297.6 32 345.6 32s83.2 38.4 83.2 83.2v144h166.4V115.2c0-44.8 38.4-83.2 83.2-83.2s83.2 38.4 83.2 83.2v144h144c44.8 0 83.2 38.4 83.2 83.2s-38.4 83.2-83.2 83.2h-144v166.4h144c44.8 0 83.2 38.4 83.2 83.2s-38.4 83.2-83.2 83.2h-144v144c0 44.8-38.4 83.2-83.2 83.2s-83.2-38.4-83.2-83.2v-137.6z m0-169.6v-166.4h-166.4v166.4h166.4z"  p-id="15669"></path></svg>