<svg width="32" height="32" viewBox="0 0 32 32" fill="none" xmlns="http://www.w3.org/2000/svg">
<path d="M16 5.5H8C6.61958 5.5002 5.5002 6.61958 5.5 8V24C5.5 25.3806 6.61946 26.4998 8 26.5H24C25.3807 26.5 26.5 25.3807 26.5 24V16H29.5V24C29.5 27.0376 27.0376 29.5 24 29.5H8C4.9626 29.4998 2.5 27.0374 2.5 24V8C2.5002 4.96272 4.96272 2.5002 8 2.5H16V5.5Z" fill="black"/>
<path d="M28.4092 11.6367H25.4092V8.29785L18.3701 15.3369L16.249 13.2158L23.2881 6.17676H19.9092V3.17676H28.4092V11.6367Z" fill="black"/>
</svg>
