<?xml version="1.0" encoding="utf-8"?>
<!-- Generator: Adobe Illustrator 21.0.0, SVG Export Plug-In . SVG Version: 6.00 Build 0)  -->
<svg version="1.1" id="图层_1" xmlns="http://www.w3.org/2000/svg" xmlns:xlink="http://www.w3.org/1999/xlink" x="0px" y="0px"
	 viewBox="0 0 32 32" style="enable-background:new 0 0 32 32;" xml:space="preserve">
<style type="text/css">
	.st0{fill:#999999;}
</style>
<title>folder-open</title>
<g id="folder-open">
	<path id="形状" class="st0" d="M29.3,13H27V9.5c0-1.7-1.3-3-3-3h-8.8l0,0L11.6,2H2.7C1.2,2,0,3.5,0,5.2v21.5
		C0,28.5,1.2,30,2.7,30h22.2c0.9,0,1.8-0.6,2.3-1.5l4.4-10.7C32.7,15.6,31.4,13,29.3,13z M3.5,5h6.8l0,0l3.5,4.5h9.8
		c0.3,0,0.5,0.2,0.5,0.5v3l0,0H8.5c-0.9,0-1.8,0.6-2.3,1.6L3,22.2V5.5C3,5.2,3.2,5,3.5,5z M24.2,27H5.2c-0.3,0-0.5-0.2-0.5-0.5
		c0-0.1,0-0.1,0-0.2l3.9-10C8.7,16.1,8.9,16,9.1,16h19.4c0.3,0,0.5,0.2,0.5,0.5c0,0.1,0,0.1,0,0.2l-4.3,10
		C24.6,26.9,24.4,27,24.2,27z"/>
</g>
</svg>
