<?xml version="1.0" standalone="no"?><!DOCTYPE svg PUBLIC "-//W3C//DTD SVG 1.1//EN" "http://www.w3.org/Graphics/SVG/1.1/DTD/svg11.dtd"><svg t="1720666076585" class="icon" viewBox="0 0 1024 1024" version="1.1" xmlns="http://www.w3.org/2000/svg" p-id="4232" xmlns:xlink="http://www.w3.org/1999/xlink" width="200" height="200"><path d="M403.2 64c22.4 0 44.8 22.4 44.8 48S432 160 403.2 160H160v243.2c0 22.4-22.4 44.8-48 44.8S64 428.8 64 403.2V108.8C64 80 80 64 108.8 64h294.4z m217.6 896c-19.2 0-44.8-22.4-44.8-48s16-48 44.8-48H864v-243.2c0-19.2 22.4-44.8 48-44.8s48 19.2 48 44.8v297.6c0 25.6-16 44.8-44.8 44.8h-294.4zM960 105.6v300.8c0 19.2-22.4 44.8-48 44.8s-48-19.2-48-48V230.4l-208 198.4c-16 16-41.6 9.6-60.8-6.4s-22.4-48-3.2-64L793.6 160h-172.8c-22.4 0-44.8-22.4-44.8-48S592 64 617.6 64H928c16 3.2 28.8 12.8 35.2 35.2v6.4zM64 918.4v-300.8c0-19.2 22.4-41.6 48-41.6s48 16 48 44.8v172.8l208-198.4c16-16 41.6-9.6 60.8 6.4 16 16 22.4 48 3.2 64L230.4 864h172.8c19.2 0 44.8 22.4 44.8 48s-16 48-41.6 48H99.2c-16-3.2-28.8-12.8-35.2-35.2v-6.4z" fill="#999999" p-id="4233"></path></svg>