<?xml version="1.0" encoding="utf-8"?>
<!-- Generator: Adobe Illustrator 21.0.0, SVG Export Plug-In . SVG Version: 6.00 Build 0)  -->
<svg version="1.1" id="图层_1" xmlns="http://www.w3.org/2000/svg" xmlns:xlink="http://www.w3.org/1999/xlink" x="0px" y="0px"
	 viewBox="0 0 32 32" style="enable-background:new 0 0 32 32;" xml:space="preserve">
<style type="text/css">
	.st0{fill:#999999;}
</style>
<title>open-in-new-tab</title>
<g id="open-in-new-tab">
	<path id="路径" class="st0" d="M3.2,26.5L24.5,5.2l0,0H10.6C9.7,5.2,9,4.4,9,3.6S9.7,2,10.6,2h17l0,0C28.9,2,30,3,30,4.4v17.1
		c0,0.9-0.7,1.6-1.6,1.6c-0.9,0-1.6-0.7-1.6-1.6l0-14.2l0,0L5.5,28.8c-0.6,0.7-1.7,0.7-2.3,0c0,0,0,0,0,0
		C2.5,28.2,2.5,27.1,3.2,26.5C3.2,26.5,3.2,26.5,3.2,26.5z"/>
</g>
</svg>
