<?xml version="1.0" standalone="no"?><!DOCTYPE svg PUBLIC "-//W3C//DTD SVG 1.1//EN" "http://www.w3.org/Graphics/SVG/1.1/DTD/svg11.dtd"><svg t="1718865250054" class="icon" viewBox="0 0 1024 1024" version="1.1" xmlns="http://www.w3.org/2000/svg" p-id="15952" xmlns:xlink="http://www.w3.org/1999/xlink" width="200" height="200"><path d="M681.6 227.2h-64c-35.2 0-64-28.8-64-64V128c0-35.2 28.8-64 64-64H960v342.4c0 35.2-28.8 64-64 64h-35.2c-35.2 0-64-28.8-64-64v-64l-195.2 195.2-115.2-115.2 195.2-195.2zM342.4 796.8h64c35.2 0 64 28.8 64 64V896c0 35.2-28.8 64-64 64H64V617.6c0-35.2 28.8-64 64-64h35.2c35.2 0 64 28.8 64 64v64l195.2-195.2 115.2 115.2-195.2 195.2z" p-id="15953"></path></svg>