<svg width="20" height="20" viewBox="0 0 20 20" fill="none" xmlns="http://www.w3.org/2000/svg">
<path d="M0 14.502H5V19.502H0V14.502Z" fill="currentColor"/>
<path d="M7.5 14.502H12.5V19.502H7.5V14.502Z" fill="currentColor"/>
<path d="M15 14.502H20V19.502H15V14.502Z" fill="currentColor"/>
<path d="M6 0.498047H14V8.49805H6V0.498047Z" fill="currentColor"/>
<path d="M10.9832 6.48657V15.4866H8.98315V6.48657H10.9832Z" fill="currentColor"/>
<path d="M15.488 10.002C17.1418 10.002 18.4837 11.3403 18.488 12.9941L18.4997 17.499L16.4997 17.5049L16.488 12.999C16.4864 12.4479 16.0392 12.002 15.488 12.002H4.48802C3.93486 12.0021 3.48658 12.4517 3.48802 13.0049L3.49974 17.499L1.49974 17.5049L1.48802 13.0098C1.48371 11.35 2.82827 10.0021 4.48802 10.002H15.488Z" fill="currentColor"/>
</svg>
