<?xml version="1.0" encoding="utf-8"?>
<!-- Generator: Adobe Illustrator 21.0.0, SVG Export Plug-In . SVG Version: 6.00 Build 0)  -->
<svg version="1.1" id="图层_1" xmlns="http://www.w3.org/2000/svg" xmlns:xlink="http://www.w3.org/1999/xlink" x="0px" y="0px"
	 viewBox="0 0 40 40" style="enable-background:new 0 0 40 40;" xml:space="preserve">
<style type="text/css">
	.st0{fill:#E7DFFF;}
	.st1{fill:#8A63FF;}
</style>
<title>perform-action</title>
<g id="页面-1">
	<g id="Seafile_Workflow5" transform="translate(-857.000000, -396.000000)">
		<g id="编组-39" transform="translate(320.000000, 146.000000)">
			<g id="编组-14备份-4" transform="translate(525.000000, 238.000000)">
				<g id="编组-18备份" transform="translate(8.000000, 8.000000)">
					<g id="perform-action" transform="translate(4.000000, 4.000000)">
						<path id="矩形" class="st0" d="M6,0h28c3.3,0,6,2.7,6,6v28c0,3.3-2.7,6-6,6H6c-3.3,0-6-2.7-6-6V6C0,2.7,2.7,0,6,0z"/>
						<path id="形状" class="st1" d="M17.5,21.7h-6.1c-1.3,0-2.4,1.1-2.4,2.4v4.3c0,1.3,1.1,2.4,2.4,2.4h6.1
							c1.3,0,2.4-1.1,2.4-2.4v-4.3C19.9,22.8,18.9,21.7,17.5,21.7z M28.5,18.2c1.3,0,2.4-1.1,2.4-2.4v-4.3c0-1.3-1.1-2.4-2.4-2.4
							h-6.1c-1.3,0-2.4,1.1-2.4,2.4v4.2c0,1.3,1.1,2.4,2.4,2.4h6.1V18.2z M31,24.1l-3.2-3.2l-3.2,3.2h2.3c0,2.7-2.1,5-4.9,5V31
							c3.7,0,6.8-3.1,6.8-6.9H31L31,24.1z M12.2,19.8l3.2-3.2h-2.3c0-2.7,2.1-5,4.9-5V9.7c-3.7,0-6.8,3.1-6.8,6.9H9.1L12.2,19.8
							L12.2,19.8z"/>
					</g>
				</g>
			</g>
		</g>
	</g>
</g>
</svg>
