<svg width="32" height="32" viewBox="0 0 32 32" fill="none" xmlns="http://www.w3.org/2000/svg">
<path d="M16 2C19.713 2 23.2739 3.47508 25.8994 6.10059C28.5249 8.7261 30 12.287 30 16C30 19.713 28.5249 23.2739 25.8994 25.8994C23.2739 28.5249 19.713 30 16 30C12.287 30 8.7261 28.5249 6.10059 25.8994C3.47508 23.2739 2 19.713 2 16C2 12.287 3.47508 8.7261 6.10059 6.10059C8.7261 3.47508 12.287 2 16 2ZM13.3789 10.7188C13.1812 10.7188 13.0255 10.8846 13.0254 11.084V20.8633C13.0254 20.9269 13.0414 20.9893 13.0723 21.0449C13.0949 21.0867 13.1257 21.124 13.1631 21.1533C13.2005 21.1827 13.244 21.2037 13.29 21.2158C13.3359 21.2278 13.3838 21.2308 13.4307 21.2236C13.4777 21.2164 13.5232 21.1991 13.5635 21.1738L21.2988 16.2842C21.3505 16.2504 21.3935 16.2047 21.4229 16.1504C21.4522 16.0961 21.4677 16.0353 21.4678 15.9736C21.4678 15.912 21.4521 15.8511 21.4229 15.7969C21.3935 15.7425 21.3505 15.6959 21.2988 15.6621L13.5635 10.7725C13.5086 10.7375 13.4442 10.7188 13.3789 10.7188Z" fill="currentColor"/>
</svg>
