<?xml version="1.0" encoding="UTF-8"?>
<svg width="16px" height="16px" viewBox="0 0 16 16" version="1.1" xmlns="http://www.w3.org/2000/svg" xmlns:xlink="http://www.w3.org/1999/xlink">
    <title>jiahao</title>
    <g id="ai" stroke="none" stroke-width="1" fill="none" fill-rule="evenodd">
        <g id="jiahao">
            <rect id="path2" x="0" y="0" width="16" height="16"></rect>
            <path d="M12.4117647,7.4117647 L8.5882353,7.4117647 L8.5882353,3.5882353 C8.5882353,3.23529412 8.35294118,3 8,3 C7.64705882,3 7.4117647,3.23529412 7.4117647,3.5882353 L7.4117647,7.4117647 L3.5882353,7.4117647 C3.23529412,7.4117647 3,7.64705882 3,8 C3,8.35294118 3.23529412,8.5882353 3.5882353,8.5882353 L7.4117647,8.5882353 L7.4117647,12.4117647 C7.4117647,12.7647059 7.64705882,13 8,13 C8.35294118,13 8.5882353,12.7647059 8.5882353,12.4117647 L8.5882353,8.5882353 L12.4117647,8.5882353 C12.7647059,8.5882353 13,8.35294118 13,8 C13,7.64705882 12.7647059,7.4117647 12.4117647,7.4117647 Z" id="path" fill="#666666" fill-rule="nonzero"></path>
        </g>
    </g>
</svg>