<?xml version="1.0" standalone="no"?><!DOCTYPE svg PUBLIC "-//W3C//DTD SVG 1.1//EN" "http://www.w3.org/Graphics/SVG/1.1/DTD/svg11.dtd"><svg t="1725264913178" class="icon" viewBox="0 0 1024 1024" version="1.1" xmlns="http://www.w3.org/2000/svg" p-id="15740" xmlns:xlink="http://www.w3.org/1999/xlink" width="200" height="200"><path d="M851.68 372.416c28.8 0 54.4 12.8 73.6 35.2s25.6 51.2 22.4 76.8l-64 384c-6.4 44.8-48 80-96 80h-444.8v-576c83.2-83.2 102.4-217.6 121.6-249.6 16-32 48-38.4 57.6-38.4 41.6 0 185.6 32 96 288h233.6z m-566.4 0v576h-89.6c-51.2 0-92.8-41.6-96-92.8l-16-384c0-25.6 9.6-51.2 25.6-70.4 19.2-19.2 44.8-28.8 70.4-28.8h105.6z" p-id="15741"></path></svg>