<svg width="32" height="32" viewBox="0 0 32 32" fill="none" xmlns="http://www.w3.org/2000/svg">
<path d="M26.8663 11.3333C27.7988 11.3333 28.6276 11.7481 29.2493 12.4741C29.871 13.2 30.0782 14.1333 29.9746 14.963L27.9024 27.4074C27.6952 28.8593 26.3482 30 24.7941 30H10.3924V11.3333C13.0862 8.63704 13.7079 4.28148 14.3295 3.24444C14.8476 2.20741 15.8837 2 16.1945 2C17.5414 2 22.2038 3.03704 19.3028 11.3333H26.8663ZM8.5274 11.3333V30H5.62633C3.96858 30 2.62166 28.6519 2.51805 26.9926L2 14.5481C2 13.7185 2.31083 12.8889 2.82888 12.2667C3.45053 11.6444 4.27941 11.3333 5.10828 11.3333H8.5274Z" fill="currentColor"/>
</svg>
