<svg width="32" height="32" viewBox="0 0 32 32" fill="none" xmlns="http://www.w3.org/2000/svg">
<path d="M24 12.5C24.8284 12.5 25.5 13.1716 25.5 14C25.5 14.8284 24.8284 15.5 24 15.5C23.1716 15.5 22.5 14.8284 22.5 14C22.5 13.1716 23.1716 12.5 24 12.5Z" fill="currentColor"/>
<path fill-rule="evenodd" clip-rule="evenodd" d="M25.5 8H27C28.933 8 30.5 9.567 30.5 11.5V21.5C30.5 23.433 28.933 25 27 25H25.5V30.5H6.5V25H5C3.067 25 1.5 23.433 1.5 21.5V11.5C1.5 9.567 3.067 8 5 8H6.5V1.5H25.5V8ZM9.5 27.5H22.5V21H9.5V27.5ZM5 11C4.72386 11 4.5 11.2239 4.5 11.5V21.5C4.5 21.7761 4.72386 22 5 22H6.5V18H25.5V22H27C27.2761 22 27.5 21.7761 27.5 21.5V11.5C27.5 11.2239 27.2761 11 27 11H5ZM9.5 8H22.5V4.5H9.5V8Z" fill="currentColor"/>
</svg>
