<?xml version="1.0" encoding="utf-8"?>
<!-- Generator: Adobe Illustrator 21.0.0, SVG Export Plug-In . SVG Version: 6.00 Build 0)  -->
<svg version="1.1" id="图层_1" xmlns="http://www.w3.org/2000/svg" xmlns:xlink="http://www.w3.org/1999/xlink" x="0px" y="0px"
	 viewBox="0 0 32 32" style="enable-background:new 0 0 32 32;" xml:space="preserve">
<style type="text/css">
	.st0{fill:#999999;}
</style>
<title>print</title>
<g id="print">
	<path id="形状结合" class="st0" d="M25,1c0.6,0,1,0.4,1,1l0,6h3c1.1,0,2,0.9,2,2v13c0,0.6-0.4,1-1,1h-4v6c0,0.6-0.4,1-1,1H7
		c-0.6,0-1-0.4-1-1v-6H2c-0.6,0-1-0.4-1-1V10c0-1.1,0.9-2,2-2h3l0-6c0-0.5,0.4-0.9,0.9-1L7,1H25z M23,21H9v7h14V21z M27,11H5
		c-0.6,0-1,0.4-1,1v8.5C4,20.8,4.2,21,4.5,21H6v-2c0-0.6,0.4-1,1-1h18c0.6,0,1,0.4,1,1v2h1.5c0.3,0,0.5-0.2,0.5-0.5V12
		C28,11.4,27.6,11,27,11z M24.5,13c0.8,0,1.5,0.7,1.5,1.5S25.3,16,24.5,16S23,15.3,23,14.5S23.7,13,24.5,13z M23,4H9l0,4h14L23,4z"
		/>
</g>
</svg>
