<?xml version="1.0" encoding="utf-8"?>
<!-- Generator: Adobe Illustrator 21.0.0, SVG Export Plug-In . SVG Version: 6.00 Build 0)  -->
<svg version="1.1" id="图层_1" xmlns="http://www.w3.org/2000/svg" xmlns:xlink="http://www.w3.org/1999/xlink" x="0px" y="0px"
	 viewBox="0 0 32 32" style="enable-background:new 0 0 32 32;" xml:space="preserve">
<style type="text/css">
	.st0{fill:#949494;}
</style>
<path class="st0" d="M13.5,17.2c0.7,0,1.2,0.5,1.2,1.2v10.3c0,0.7-0.5,1.2-1.2,1.2H3.2c-0.7,0-1.2-0.5-1.2-1.2V18.4
	c0-0.7,0.5-1.2,1.2-1.2C3.2,17.2,13.5,17.2,13.5,17.2z M29.9,27.4v1.3c0,0.7-0.5,1.2-1.2,1.2h-1.3v-2.5H29.9z M24.9,27.4v2.5h-2.5
	v-2.5H24.9z M24.9,17.2v5.1h2.5v-5.1h1.3c0.7,0,1.2,0.5,1.2,1.2v6.4h-7.6v-2.5h-2.5v7.6h-1.3c-0.7,0-1.2-0.5-1.2-1.2V18.4
	c0-0.7,0.5-1.2,1.2-1.2C18.5,17.2,24.9,17.2,24.9,17.2z M12.2,19.8H4.5v7.6h7.6L12.2,19.8L12.2,19.8z M7.6,22.2
	c0.5-0.3,1.1-0.3,1.6,0S10,23,10,23.6S9.7,24.7,9.2,25s-1.1,0.3-1.6,0s-0.8-0.8-0.8-1.4S7.1,22.5,7.6,22.2z M13.5,2
	c0.7,0,1.2,0.5,1.2,1.2v10.3c0,0.7-0.5,1.2-1.2,1.2H3.2c-0.7,0-1.2-0.5-1.2-1.2V3.2C2,2.5,2.5,2,3.2,2H13.5z M28.7,2
	c0.7,0,1.2,0.5,1.2,1.2v10.3c0,0.7-0.5,1.2-1.2,1.2H18.4c-0.7,0-1.2-0.5-1.2-1.2V3.2c0-0.7,0.5-1.2,1.2-1.2H28.7z M12.2,4.5H4.5v7.6
	h7.6L12.2,4.5L12.2,4.5z M27.4,4.5h-7.6v7.6h7.6V4.5z M7.6,7c0.5-0.3,1.1-0.3,1.6,0S10,7.8,10,8.4s-0.4,1-0.9,1.3
	c-0.4,0.3-1,0.3-1.5,0S6.8,8.9,6.8,8.4S7.1,7.3,7.6,7z M23.6,6.8c0.9,0,1.6,0.7,1.6,1.6S24.5,10,23.6,10S22,9.3,22,8.4
	S22.7,6.8,23.6,6.8z"/>
</svg>
