<svg width="32" height="32" viewBox="0 0 32 32" fill="none" xmlns="http://www.w3.org/2000/svg">
<path d="M16.0469 20.6816C16.5073 20.6816 16.9217 20.8118 17.2646 21.0762L17.4072 21.1973L17.4121 21.2021C17.7547 21.547 17.9502 21.9936 17.9502 22.5303C17.9501 23.0647 17.7553 23.5366 17.3848 23.8848C17.0185 24.2287 16.5754 24.4004 16.0469 24.4004C15.5117 24.4003 15.0712 24.2016 14.71 23.8623C14.3366 23.5116 14.1661 23.0605 14.166 22.5303C14.166 21.9998 14.3365 21.5481 14.71 21.1973C15.0762 20.8533 15.5185 20.6817 16.0469 20.6816Z" fill="black"/>
<path d="M16.4404 8C17.8943 8.00001 19.1035 8.38336 20.0225 9.21484L20.1904 9.37109C21.0009 10.1685 21.4004 11.2288 21.4004 12.5303C21.4003 13.6644 21.1066 14.6092 20.5527 15.3525L20.5479 15.3594L20.541 15.3662C20.3348 15.5968 19.6917 16.1985 18.6465 17.1191L18.6436 17.123C18.2718 17.4348 18.0047 17.7861 17.8203 18.1572C17.6161 18.5683 17.5137 18.9995 17.5137 19.4971V20.0049H14.6025V19.4971C14.6025 18.6454 14.7354 17.8871 15.0586 17.2568L15.124 17.1318C15.2913 16.8322 15.5679 16.4768 15.9434 16.0674C16.3726 15.5993 16.9413 15.0488 17.6475 14.4141L17.9043 14.1143C18.2696 13.6633 18.4453 13.1805 18.4453 12.6836C18.4453 12.0006 18.2412 11.481 17.8887 11.1064C17.5227 10.7408 16.9918 10.5537 16.2871 10.5537C15.3677 10.5538 14.7667 10.8253 14.4014 11.3672L14.3965 11.374L14.3955 11.373C14.0601 11.8298 13.8896 12.5065 13.8896 13.4092V13.6094H11V13.4092C11 11.7437 11.4708 10.4106 12.4805 9.44043C13.4645 8.47384 14.7853 8 16.4404 8Z" fill="black"/>
<path fill-rule="evenodd" clip-rule="evenodd" d="M16 0.5C24.5604 0.5 31.5 7.43959 31.5 16C31.5 24.5604 24.5604 31.5 16 31.5C7.43959 31.5 0.5 24.5604 0.5 16C0.5 7.43959 7.43959 0.5 16 0.5ZM16 3.5C9.09644 3.5 3.5 9.09644 3.5 16C3.5 22.9036 9.09644 28.5 16 28.5C22.9036 28.5 28.5 22.9036 28.5 16C28.5 9.09644 22.9036 3.5 16 3.5Z" fill="black"/>
</svg>
