<svg width="32" height="32" viewBox="0 0 32 32" fill="none" xmlns="http://www.w3.org/2000/svg">
<path d="M23.8472 30.5C23.4148 30.5 22.9228 30.3838 22.4755 30.1513L16.0045 26.9985L9.4887 30.1513C9.07122 30.3692 8.609 30.4855 8.11696 30.4855C7.49074 30.4855 6.87942 30.2966 6.38738 29.9334C5.47786 29.265 5.01565 28.1172 5.22439 27.0566L6.55139 20.3297L1.4372 15.6949C0.646961 14.9103 0.348757 13.7916 0.64696 12.731L0.661871 12.7019C1.03463 11.6122 1.95906 10.8567 3.07732 10.7114L10.1746 9.44739L13.3504 3.14178C13.8574 2.13928 14.9011 1.5 16.0045 1.5C17.1525 1.5 18.2261 2.16834 18.6734 3.15631L21.8492 9.44739L28.9465 10.6533C30.0648 10.8131 31.0041 11.5977 31.3172 12.6728C31.6751 13.7189 31.3769 14.8667 30.5717 15.6513L30.5568 15.6658L25.4724 20.3442L26.7547 27.0857C26.9634 28.1608 26.5161 29.2505 25.6066 29.9334C25.0848 30.2966 24.4734 30.5 23.8472 30.5Z" fill="currentColor"/>
</svg>
