<?xml version="1.0" standalone="no"?><!DOCTYPE svg PUBLIC "-//W3C//DTD SVG 1.1//EN" "http://www.w3.org/Graphics/SVG/1.1/DTD/svg11.dtd"><svg t="1725264000108" class="icon" viewBox="0 0 1026 1024" version="1.1" xmlns="http://www.w3.org/2000/svg" p-id="15456" xmlns:xlink="http://www.w3.org/1999/xlink" width="200.390625" height="200"><path d="M537.6 848l214.4 137.6c38.4 25.6 83.2-12.8 76.8-57.6l-57.6-256c-3.2-19.2 3.2-38.4 16-51.2l188.8-169.6c32-32 16-89.6-28.8-92.8l-249.6-22.4c-19.2-3.2-32-12.8-41.6-32l-96-240C540.8 19.2 483.2 19.2 467.2 64l-96 240c-6.4 19.2-25.6 32-41.6 32l-249.6 22.4c-44.8 3.2-64 64-28.8 92.8l188.8 169.6c16 12.8 22.4 32 16 51.2l-60.8 256c-9.6 44.8 35.2 83.2 76.8 57.6l214.4-137.6c19.2-12.8 38.4-12.8 51.2 0z" p-id="15457"></path></svg>