<?xml version="1.0" standalone="no"?><!DOCTYPE svg PUBLIC "-//W3C//DTD SVG 1.1//EN" "http://www.w3.org/Graphics/SVG/1.1/DTD/svg11.dtd"><svg t="1762152470654" class="icon" viewBox="0 0 1024 1024" version="1.1" xmlns="http://www.w3.org/2000/svg" p-id="30455" xmlns:xlink="http://www.w3.org/1999/xlink" width="200" height="200"><path d="M512 32c163.2 0 304 76.8 390.4 201.6V153.6c0-25.6 22.4-44.8 44.8-44.8S992 128 992 153.6v179.2c0 25.6-22.4 44.8-44.8 44.8h-195.2c-16 0-32-9.6-38.4-22.4-9.6-16-9.6-35.2 0-48 6.4-12.8 22.4-19.2 38.4-19.2h76.8c-70.4-99.2-185.6-166.4-316.8-166.4C294.4 121.6 121.6 294.4 121.6 512S294.4 902.4 512 902.4c182.4 0 332.8-121.6 377.6-291.2 6.4-19.2 19.2-32 41.6-32 12.8 0 25.6 3.2 38.4 16 16 16 12.8 32 9.6 51.2C921.6 848 729.6 992 512 992 249.6 992 32 774.4 32 512S249.6 32 512 32z" fill="currentColor" p-id="30456"></path></svg>
