<?xml version="1.0" encoding="utf-8"?>
<!-- Generator: Adobe Illustrator 21.0.0, SVG Export Plug-In . SVG Version: 6.00 Build 0)  -->
<svg version="1.1" id="图层_1" xmlns="http://www.w3.org/2000/svg" xmlns:xlink="http://www.w3.org/1999/xlink" x="0px" y="0px"
	 viewBox="0 0 32 32" style="enable-background:new 0 0 32 32;" xml:space="preserve">
<style type="text/css">
	.st0{fill:#949494;}
</style>
<title>remove-from-folder</title>
<g id="remove-from-folder">
	<g id="export" transform="translate(2.000000, 3.000000)">
		<path id="形状结合" fill="currentColor" class="st0" d="M10.7,0c0.4,0,0.8,0.1,1.4,0.4c0.7,0.3,1.1,0.7,1.5,1s0.6,0.7,0.8,1
			c0.2,0.3,0.3,0.5,0.6,0.6c0.2,0.1,0.5,0.2,0.9,0.2h8.5c1,0,1.9,0.3,2.5,0.9C27.5,4.8,28,5.5,28,6.4v16.3c0,1-0.4,1.7-1.1,2.3
			S25.4,26,24.4,26H3.5c-1.1,0-1.8-0.2-2.5-1c-0.7-0.8-1-1.4-1-2.3l0-10.3c0-0.1,0-0.2,0-0.4l0-8.8l0,0c0-1,0.5-1.6,1.1-2.2
			C1.8,0.3,2.4,0,3.1,0H10.7z M20,13H8c-1.1,0-2,0.9-2,2s0.9,2,2,2l0,0h12c1.1,0,2-0.9,2-2S21.1,13,20,13L20,13z"/>
	</g>
</g>
</svg>
