<?xml version="1.0" standalone="no"?><!DOCTYPE svg PUBLIC "-//W3C//DTD SVG 1.1//EN" "http://www.w3.org/Graphics/SVG/1.1/DTD/svg11.dtd"><svg t="1721788416678" class="icon" viewBox="0 0 1024 1024" version="1.1" xmlns="http://www.w3.org/2000/svg" p-id="22815" xmlns:xlink="http://www.w3.org/1999/xlink" width="200" height="200"><path d="M796.8 22.4L928 153.6c32 32 32 83.2 0 112L336 864l-265.6 19.2 16-262.4L681.6 22.4c28.8-28.8 86.4-28.8 115.2 0z m-204.8 227.2L182.4 662.4l-6.4 115.2 118.4-9.6L704 358.4l-112-108.8z m147.2-147.2l-80 80L768 291.2l80-80-108.8-108.8zM976 1024h-928C22.4 1024 0 1001.6 0 976S22.4 928 48 928h928c25.6 0 48 22.4 48 48s-22.4 48-48 48z" fill="currentColor" p-id="22816"></path></svg>
