<?xml version="1.0" encoding="UTF-8"?>
<svg width="16px" height="16px" viewBox="0 0 16 16" version="1.1" xmlns="http://www.w3.org/2000/svg" xmlns:xlink="http://www.w3.org/1999/xlink">
    <title>icon-rotate</title>
    <g id="seafile" stroke="none" stroke-width="1" fill="none" fill-rule="evenodd">
        <g id="icon-rotate" transform="translate(8, 8) scale(-1, 1) translate(-8, -8)translate(-0, 0)">
            <rect id="image2" transform="translate(8, 8) scale(-1, 1) translate(-8, -8)" x="0" y="0" width="16" height="16"></rect>
            <path d="M13.8526316,16 L4.54736842,16 C3.36370614,16 2.4,15.057073 2.4,13.9003426 L2.4,6.89965737 C2.4,5.74109969 3.36370614,4.8 4.54736842,4.8 L13.8526316,4.8 C15.0362938,4.8 16,5.74292707 16,6.89965737 L16,13.9003426 C16,15.057073 15.0362938,16 13.8526316,16 Z M4.69333334,6.4 C4.31055555,6.4 4,6.69932565 4,7.06652165 L4,13.7334783 C4,14.1006743 4.31055555,14.4 4.69333334,14.4 L13.7066666,14.4 C14.0894445,14.4 14.4,14.1006743 14.4,13.7334783 L14.4,7.06652165 C14.4,6.69932565 14.0894445,6.4 13.7066666,6.4 L4.69333334,6.4 Z" id="image" fill="#666666" fill-rule="nonzero"></path>
            <g id="group" transform="translate(4.8173, 3.52) scale(-1, 1) translate(-4.8173, -3.52)translate(0.0347, 0)" fill="#666666" fill-rule="nonzero">
                <path d="M8.87810624,7.04 C8.61343976,7.04 8.36129136,6.88219178 8.24862928,6.61795476 C6.78581083,3.19571838 3.28255715,2.68559414 1.32438325,2.68559414 C0.945266472,2.68559414 0.637681159,2.3699777 0.637681159,1.98279707 C0.637681159,1.59561644 0.945266472,1.28 1.32438325,1.28 C5.22642483,1.28 8.20928696,3.02139535 9.50758312,6.0564511 C9.65958752,6.41243708 9.50043,6.8271424 9.1535024,6.98311564 C9.064088,7.02165021 8.9693088,7.04 8.87810624,7.04 Z" id="path2"></path>
                <path d="M1.42164886,3.84 C1.29607734,3.84 1.1692245,3.77584105 1.07312386,3.64578912 L0.144150966,2.39035448 C-0.0480503219,2.13025062 -0.0480503219,1.71061639 0.144150966,1.45051253 L1.07312386,0.195077896 C1.26532514,-0.0650259653 1.57669123,-0.0650259653 1.76889251,0.195077896 C1.96109379,0.455181757 1.96109379,0.874815984 1.76889251,1.13491985 L1.18716329,1.9204335 L1.76889251,2.70594717 C1.96109379,2.96605102 1.96109379,3.38568526 1.76889251,3.64578912 C1.67407323,3.77410702 1.54722036,3.84 1.42164886,3.84 Z" id="path1"></path>
            </g>
        </g>
    </g>
</svg>