<svg width="32" height="32" viewBox="0 0 32 32" fill="none" xmlns="http://www.w3.org/2000/svg">
<path fill-rule="evenodd" clip-rule="evenodd" d="M21 7.47375C24.0376 7.47375 26.5 9.93618 26.5 12.9737V24.9737C26.4998 28.0111 24.0374 30.4737 21 30.4737H8.5C5.46255 30.4737 3.0002 28.0111 3 24.9737V12.9737C3 9.93618 5.46243 7.47375 8.5 7.47375H21ZM8.5 10.4737C7.11929 10.4737 6 11.593 6 12.9737V24.9737C6.0002 26.3543 7.11941 27.4737 8.5 27.4737H21C22.3806 27.4737 23.4998 26.3543 23.5 24.9737V12.9737C23.5 11.593 22.3807 10.4737 21 10.4737H8.5Z" fill="black"/>
<path d="M19.7129 0.161247C20.1328 -0.226361 20.8056 0.136688 20.7119 0.700309L20.5 1.97375H23C28.2467 1.97375 32 6.72704 32 11.9737V13.4737H29V11.9737C29 8.3839 26.5899 4.97375 23 4.97375H16.0342C15.4883 4.9734 15.2268 4.30311 15.6279 3.93273C17.1083 2.56619 18.2557 1.50635 19.7129 0.161247Z" fill="black"/>
</svg>