<svg width="32" height="32" viewBox="0 0 32 32" fill="none" xmlns="http://www.w3.org/2000/svg">
<path d="M26 3.80067C26 3.2243 26.7339 2.97883 27.0801 3.43934L31.2793 9.0409C31.5757 9.43626 31.2948 9.99939 30.8008 9.99989H29V28.2011C28.9991 28.7769 28.2657 29.0213 27.9199 28.5604L23.7207 22.9608C23.4242 22.5656 23.7054 22.0007 24.1992 21.9999H26V3.80067Z" fill="currentColor"/>
<path d="M22 27.9999H3V24.9999H22V27.9999Z" fill="currentColor"/>
<path d="M22 22.9999H3V19.9999H22V22.9999Z" fill="currentColor"/>
<path d="M22 16.9999H3V13.9999H22V16.9999Z" fill="currentColor"/>
<path d="M22 11.9999H3V3.99989H22V11.9999Z" fill="currentColor"/>
</svg>
