<?xml version="1.0" standalone="no"?><!DOCTYPE svg PUBLIC "-//W3C//DTD SVG 1.1//EN" "http://www.w3.org/Graphics/SVG/1.1/DTD/svg11.dtd"><svg t="1718866617030" class="icon" viewBox="0 0 1024 1024" version="1.1" xmlns="http://www.w3.org/2000/svg" p-id="17090" xmlns:xlink="http://www.w3.org/1999/xlink" width="200" height="200"><path d="M880 64c-16-9.6-35.2-6.4-44.8 9.6L736 227.2v6.4c0 3.2 3.2 3.2 3.2 3.2h64c3.2 0 3.2 3.2 3.2 6.4v540.8c0 3.2-3.2 6.4-3.2 6.4h-64c-3.2 0-3.2 0-3.2 3.2v6.4l99.2 153.6 9.6 9.6c16 9.6 35.2 6.4 44.8-9.6l99.2-153.6v-6.4c0-3.2-3.2-3.2-3.2-3.2h-64c-3.2 0-3.2-3.2-3.2-6.4V243.2c0-3.2 3.2-6.4 3.2-6.4h64c3.2 0 3.2 0 3.2-3.2v-6.4l-99.2-153.6c0-3.2-3.2-6.4-9.6-9.6zM64 96c-19.2 0-32 12.8-32 32v768c0 19.2 12.8 32 32 32h576c19.2 0 32-12.8 32-32V128c0-19.2-12.8-32-32-32H64z"  p-id="17091"></path></svg>