<?xml version="1.0" encoding="utf-8"?>
<!-- Generator: Adobe Illustrator 21.0.0, SVG Export Plug-In . SVG Version: 6.00 Build 0)  -->
<svg version="1.1" id="图层_1" xmlns="http://www.w3.org/2000/svg" xmlns:xlink="http://www.w3.org/1999/xlink" x="0px" y="0px"
	 viewBox="0 0 32 32" style="enable-background:new 0 0 32 32;" xml:space="preserve">
<path id="形状结合" class="st0" d="M22,1c1.4,0,2.4,0.3,3,1c0.9,1,4,4.8,5,6c0.7,0.8,1,1.8,1,3v17c0,1.7-1.3,3-3,3H4
c-1.7,0-3-1.3-3-3V4c0-1.7,1.3-3,3-3H22z M6,4H5C4.4,4,4,4.4,4,5v22c0,0.6,0.4,1,1,1h22c0.6,0,1-0.4,1-1V10.5l-5-5.9V11
c0,0.6-0.4,1-1,1H7c-0.6,0-1-0.4-1-1V4z M16,15c2.8,0,5,2.2,5,5s-2.2,5-5,5s-5-2.2-5-5S13.2,15,16,15z M16,18c-1.1,0-2,0.9-2,2
s0.9,2,2,2s2-0.9,2-2S17.1,18,16,18z M20,4H9v5h11V4z" fill="currentColor"/>
</svg>
