<?xml version="1.0" encoding="utf-8"?>
<!-- Generator: Adobe Illustrator 21.0.0, SVG Export Plug-In . SVG Version: 6.00 Build 0)  -->
<svg version="1.1" id="图层_1" xmlns="http://www.w3.org/2000/svg" xmlns:xlink="http://www.w3.org/1999/xlink" x="0px" y="0px"
	 viewBox="0 0 32 32" style="enable-background:new 0 0 32 32;" xml:space="preserve">
<style type="text/css">
	.st0{fill:#999999;}
</style>
<path class="st0" d="M29,1c1.1,0,2,0.9,2,2v21c0,1.1-0.9,2-2,2h-5.2l-0.5,3.8c-0.1,0.5-0.4,0.9-0.8,1.1C22.3,31,22.2,31,22,31
	c-0.3,0-0.6-0.1-0.9-0.3L15.8,26H3c-1.1,0-2-0.9-2-2V3c0-1.1,0.9-2,2-2H29z M27,4H5C4.4,4,4,4.4,4,5v17c0,0.6,0.4,1,1,1h11.3
	c0.3,0,0.7,0.1,0.9,0.3l3.9,3.2l0.3-2.4c0.1-0.7,0.7-1.2,1.3-1.1H27c0.6,0,1-0.4,1-1V5C28,4.4,27.6,4,27,4z M23.5,15
	c0.3,0,0.5,0.2,0.5,0.5v2c0,0.3-0.2,0.5-0.5,0.5h-15C8.2,18,8,17.8,8,17.5v-2C8,15.2,8.2,15,8.5,15H23.5z M23.5,8
	C23.8,8,24,8.2,24,8.5v2c0,0.3-0.2,0.5-0.5,0.5h-15C8.2,11,8,10.8,8,10.5v-2C8,8.2,8.2,8,8.5,8H23.5z"/>
</svg>
