<svg width="32" height="32" viewBox="0 0 32 32" fill="none" xmlns="http://www.w3.org/2000/svg">
<path d="M27.5 25.9375C27.4998 25.0273 26.7197 23.7964 24.5254 22.7041C22.4219 21.657 19.41 20.9668 16 20.9668C12.59 20.9668 9.57807 21.657 7.47461 22.7041C5.2803 23.7964 4.50016 25.0273 4.5 25.9375V27.5H27.5V25.9375ZM21.001 9.4707C21.0009 8.8191 20.8717 8.17368 20.6211 7.57129C20.3703 6.96862 20.0021 6.41993 19.5381 5.95801C19.0741 5.49618 18.5231 5.1292 17.916 4.87891C17.3088 4.62857 16.6576 4.49995 16 4.5C14.6719 4.50014 13.3999 5.02602 12.4629 5.95898C11.5261 6.89166 11.0011 8.15467 11.001 9.4707C11.001 10.7869 11.526 12.0506 12.4629 12.9834C13.3999 13.9163 14.6719 14.4422 16 14.4424C16.6576 14.4424 17.3089 14.3138 17.916 14.0635C18.523 13.8132 19.0741 13.4462 19.5381 12.9844C20.0021 12.5225 20.3703 11.9738 20.6211 11.3711C20.8718 10.7685 21.001 10.1225 21.001 9.4707ZM30.5 30.5H1.5V25.9375C1.50015 23.2727 3.62824 21.2678 6.1377 20.0186C8.73861 18.7239 12.2275 17.9668 16 17.9668C19.7725 17.9668 23.2614 18.7239 25.8623 20.0186C28.3718 21.2678 30.4999 23.2727 30.5 25.9375V30.5ZM24.001 9.4707C24.001 10.5183 23.7931 11.5559 23.3906 12.5234C22.988 13.491 22.3985 14.3705 21.6553 15.1104C20.912 15.8502 20.0298 16.4369 19.0596 16.8369C18.0894 17.2369 17.0497 17.4425 16 17.4424C13.8805 17.4422 11.8464 16.6035 10.3457 15.1094C8.84494 13.6151 8.00098 11.5867 8.00098 9.4707C8.00108 7.35486 8.84509 5.32722 10.3457 3.83301C11.8464 2.3389 13.8805 1.50016 16 1.5C17.0497 1.49993 18.0894 1.70547 19.0596 2.10547C20.0297 2.50548 20.9121 3.09218 21.6553 3.83203C22.3983 4.57179 22.9881 5.45057 23.3906 6.41797C23.7932 7.38547 24.0009 8.42308 24.001 9.4707Z" fill="black"/>
</svg>
