<?xml version="1.0" encoding="utf-8"?>
<!-- Generator: Adobe Illustrator 21.0.0, SVG Export Plug-In . SVG Version: 6.00 Build 0)  -->
<svg version="1.1" id="图层_1" xmlns="http://www.w3.org/2000/svg" xmlns:xlink="http://www.w3.org/1999/xlink" x="0px" y="0px"
	 viewBox="0 0 32 32" style="enable-background:new 0 0 32 32;" xml:space="preserve">
<style type="text/css">
	.st0{fill:#999999;}
</style>
<title>search</title>
<g id="search">
	<g id="形状结合">
		<path class="st0" d="M14,0c7.7,0,14,6.3,14,14c0,3-0.9,5.7-2.5,8l5.7,5.7c1,1,1,2.6,0,3.6c-1,1-2.6,1-3.6,0L22,25.6
			c-2.3,1.6-5,2.5-8,2.5c-7.7,0-14-6.3-14-14C0,6.3,6.3,0,14,0z M14,4C8.5,4,4,8.5,4,14s4.5,10,10,10s10-4.5,10-10S19.5,4,14,4z"/>
	</g>
</g>
</svg>
