<svg width="32" height="32" viewBox="0 0 32 32" fill="none" xmlns="http://www.w3.org/2000/svg">
<path fill-rule="evenodd" clip-rule="evenodd" d="M14.2197 0.719727C21.6756 0.719727 27.7197 6.76388 27.7197 14.2197C27.7197 17.4073 26.6141 20.336 24.7666 22.6455L31.2803 29.1582L29.1592 31.2803L22.6455 24.7666C20.336 26.6141 17.4073 27.7197 14.2197 27.7197C6.76388 27.7197 0.719727 21.6756 0.719727 14.2197C0.719727 6.76388 6.76388 0.719727 14.2197 0.719727ZM14.2197 3.71973C8.42074 3.71973 3.71973 8.42074 3.71973 14.2197C3.71973 20.0187 8.42074 24.7197 14.2197 24.7197C20.0187 24.7197 24.7197 20.0187 24.7197 14.2197C24.7197 8.42074 20.0187 3.71973 14.2197 3.71973Z" fill="currentColor"/>
</svg>
