<svg width="32" height="32" viewBox="0 0 32 32" fill="none" xmlns="http://www.w3.org/2000/svg">
<path fill-rule="evenodd" clip-rule="evenodd" d="M11.2383 22C13.1969 22 14.8583 23.2531 15.4766 25H30V28H15.4766C14.8583 29.7469 13.1969 31 11.2383 31C9.27962 31 7.61826 29.7469 7 28H2V25H7C7.61826 23.2531 9.27962 22 11.2383 22ZM11.2383 25C10.4099 25 9.73828 25.6716 9.73828 26.5C9.73828 27.3284 10.4099 28 11.2383 28C12.0667 28 12.7383 27.3284 12.7383 26.5C12.7383 25.6716 12.0667 25 11.2383 25Z" fill="black"/>
<path fill-rule="evenodd" clip-rule="evenodd" d="M22 11.5C23.9587 11.5 25.62 12.7531 26.2383 14.5H30V17.5H26.2383C25.62 19.2468 23.9587 20.5 22 20.5C20.0413 20.5 18.38 19.2468 17.7617 17.5H2V14.5H17.7617C18.38 12.7531 20.0413 11.5 22 11.5ZM22 14.5C21.1716 14.5 20.5 15.1716 20.5 16C20.5 16.8284 21.1716 17.5 22 17.5C22.8284 17.5 23.5 16.8284 23.5 16C23.5 15.1716 22.8284 14.5 22 14.5Z" fill="black"/>
<path fill-rule="evenodd" clip-rule="evenodd" d="M11.2383 1C13.1969 1 14.8583 2.25314 15.4766 4H30V7H15.4766C14.8583 8.74686 13.1969 10 11.2383 10C9.27962 10 7.61826 8.74686 7 7H2V4H7C7.61826 2.25314 9.27962 1 11.2383 1ZM11.2383 4C10.4099 4 9.73828 4.67157 9.73828 5.5C9.73828 6.32843 10.4099 7 11.2383 7C12.0667 7 12.7383 6.32843 12.7383 5.5C12.7383 4.67157 12.0667 4 11.2383 4Z" fill="black"/>
</svg>
