<?xml version="1.0" encoding="utf-8"?>
<!-- Generator: Adobe Illustrator 21.0.0, SVG Export Plug-In . SVG Version: 6.00 Build 0)  -->
<svg version="1.1" id="图层_1" xmlns="http://www.w3.org/2000/svg" xmlns:xlink="http://www.w3.org/1999/xlink" x="0px" y="0px"
	 viewBox="0 0 32 32" style="enable-background:new 0 0 32 32;" xml:space="preserve">
<style type="text/css">
	.st0{fill:#aaa;}
</style>
<title>separator</title>
<g id="separator">
	<g id="路径" transform="translate(1.000000, 2.000000)">
		<path class="st0" fill="currentColor" d="M26.2,18H3.8C1.7,18,0,19.8,0,22v6h2.8v-6c0-0.6,0.4-1,0.9-1h22.5c0.5,0,0.9,0.5,0.9,1v6H30v-6
			c0-1.1-0.4-2.1-1.1-2.9C28.2,18.4,27.2,18,26.2,18z"/>
		<path class="st0" fill="currentColor" d="M30,6V0h-2.8v6c0,0.6-0.4,1-0.9,1H3.8C3.2,7,2.8,6.5,2.8,6V0H0v6c0,2.2,1.7,4,3.8,4h22.5c1,0,1.9-0.4,2.7-1.2
			C29.6,8.1,30,7,30,6z"/>
		<path class="st0" fill="currentColor" d="M3.8,12.5h22.5c1.2,0,1.8,0.5,1.8,1.5s-0.6,1.5-1.8,1.5H3.8C2.6,15.5,2,15,2,14S2.6,12.5,3.8,12.5z"/>
	</g>
</g>
</svg>
