<?xml version="1.0" standalone="no"?><!DOCTYPE svg PUBLIC "-//W3C//DTD SVG 1.1//EN" "http://www.w3.org/Graphics/SVG/1.1/DTD/svg11.dtd"><svg t="1721786317709" class="icon" viewBox="0 0 1024 1024" version="1.1" xmlns="http://www.w3.org/2000/svg" p-id="22672" xmlns:xlink="http://www.w3.org/1999/xlink" width="200" height="200"><path d="M512 304c115.2 0 208 92.8 208 208s-92.8 208-208 208-208-92.8-208-208 92.8-208 208-208z m0 128c-44.8 0-80 35.2-80 80s35.2 80 80 80 80-35.2 80-80-35.2-80-80-80z" p-id="22673"></path><path d="M432 57.6c-9.6-19.2-32-28.8-51.2-22.4-80 19.2-150.4 60.8-208 112-12.8 16-16 35.2-9.6 54.4 6.4 12.8 9.6 25.6 9.6 41.6 0 51.2-41.6 92.8-89.6 92.8-19.2 0-38.4 12.8-41.6 32C22.4 409.6 16 460.8 16 512c0 35.2 3.2 67.2 9.6 99.2 3.2 22.4 25.6 38.4 48 35.2h9.6c51.2 0 89.6 41.6 89.6 92.8 0 22.4-9.6 41.6-22.4 57.6-16 16-12.8 41.6 3.2 60.8 57.6 60.8 131.2 105.6 214.4 131.2 22.4 6.4 48-6.4 54.4-28.8 12.8-38.4 44.8-64 86.4-64s73.6 25.6 86.4 64c6.4 22.4 32 35.2 54.4 28.8 83.2-25.6 156.8-70.4 214.4-131.2 16-16 16-41.6 3.2-60.8-12.8-16-22.4-35.2-22.4-57.6 0-51.2 41.6-92.8 89.6-92.8h9.6c22.4 3.2 44.8-12.8 48-35.2 6.4-32 9.6-67.2 9.6-99.2 0-51.2-6.4-102.4-22.4-150.4-6.4-19.2-22.4-32-41.6-32-51.2 0-89.6-41.6-89.6-92.8 0-16 3.2-28.8 9.6-41.6 9.6-16 3.2-38.4-9.6-51.2-57.6-54.4-128-92.8-204.8-115.2-19.2 0-41.6 9.6-51.2 28.8-16 28.8-44.8 51.2-80 51.2s-67.2-22.4-80-51.2zM288 262.4c0-16-3.2-28.8-6.4-41.6 32-25.6 67.2-44.8 105.6-60.8 28.8 38.4 73.6 60.8 124.8 60.8s96-22.4 124.8-60.8c38.4 12.8 73.6 35.2 105.6 60.8-3.2 12.8-6.4 28.8-6.4 41.6 0 80 57.6 150.4 134.4 163.2 6.4 28.8 9.6 57.6 9.6 86.4 0 16 0 28.8-3.2 44.8-80 9.6-140.8 80-140.8 163.2 0 25.6 6.4 51.2 16 73.6-32 28.8-67.2 51.2-105.6 67.2-28.8-48-80-76.8-137.6-76.8s-108.8 32-137.6 76.8c-38.4-16-73.6-38.4-105.6-67.2 9.6-22.4 16-48 16-73.6 0-83.2-60.8-153.6-140.8-163.2 3.2-12.8 3.2-28.8 3.2-41.6 0-28.8 3.2-57.6 9.6-86.4C230.4 412.8 288 345.6 288 262.4z" p-id="22674"></path></svg>