<svg width="32" height="32" viewBox="0 0 32 32" fill="none" xmlns="http://www.w3.org/2000/svg">
<path fill-rule="evenodd" clip-rule="evenodd" d="M15.9999 10.5001C19.0374 10.5001 21.4999 12.9626 21.4999 16.0001C21.4998 19.0376 19.0374 21.5001 15.9999 21.5001C12.9624 21.5001 10.4999 19.0376 10.4999 16.0001C10.4999 12.9626 12.9624 10.5002 15.9999 10.5001ZM15.9999 13.5001C14.6192 13.5002 13.4999 14.6195 13.4999 16.0001C13.4999 17.3807 14.6193 18.5001 15.9999 18.5001C17.3805 18.5001 18.4998 17.3808 18.4999 16.0001C18.4999 14.6194 17.3806 13.5001 15.9999 13.5001Z" fill="currentColor"/>
<path fill-rule="evenodd" clip-rule="evenodd" d="M12.3046 1.04114C13.0665 0.860115 13.8402 1.29555 14.0799 2.04114C14.3693 2.94059 15.1731 3.53868 16.1122 3.53235L16.3065 3.52356C17.2678 3.44607 18.0374 2.85391 18.3407 2.18958L18.4032 2.06751C18.741 1.47629 19.4424 1.18183 20.1092 1.36829C21.4486 1.74329 22.6894 2.28207 23.9725 3.06946C25.1021 3.76261 26.2906 4.71138 27.2362 5.74133C27.7323 6.28169 27.7651 7.10187 27.3133 7.67981C26.7467 8.4047 26.6344 9.27937 27.0702 10.2081C27.5876 10.9887 28.5744 11.4614 29.4881 11.3986L29.6249 11.3956C30.3003 11.4103 30.891 11.878 31.0506 12.546C31.6677 15.1296 31.6713 18.0019 30.9237 20.6622C30.7122 21.4138 29.9596 21.8778 29.1932 21.7286C28.4483 21.5835 27.5867 21.9404 27.0614 22.7921C26.5364 23.6434 26.6067 24.5665 27.0692 25.1603C27.5505 25.7781 27.4758 26.6626 26.8973 27.1906C24.8545 29.0546 22.2837 30.3441 19.6952 30.9591C18.9333 31.14 18.1595 30.7046 17.9198 29.9591C17.6486 29.116 16.9255 28.5376 16.0624 28.4738L15.8876 28.4679C14.8365 28.4756 13.9824 29.1021 13.659 29.8107C13.3522 30.4825 12.6018 30.8309 11.8905 30.632C10.5512 30.2569 9.31035 29.7182 8.02721 28.9308C6.8977 28.2376 5.70914 27.2889 4.76354 26.2589C4.26751 25.7186 4.23478 24.8984 4.68639 24.3204C5.25336 23.5952 5.36509 22.7204 4.92858 21.7911C4.41092 21.0113 3.42504 20.5389 2.51159 20.6017C1.78059 20.6519 1.11947 20.1668 0.949086 19.4542C0.331995 16.8706 0.328439 13.9983 1.07604 11.338C1.28748 10.5865 2.04014 10.1225 2.80651 10.2716C3.55146 10.4167 4.41296 10.0597 4.93834 9.20813C5.46339 8.35684 5.39314 7.43379 4.93053 6.83997C4.44924 6.22221 4.52404 5.33763 5.10241 4.80969C7.14524 2.94559 9.71599 1.6562 12.3046 1.04114ZM11.8671 4.28235C10.499 4.73728 9.17454 5.41823 8.01354 6.29114C8.54994 7.76563 8.32655 9.43037 7.49205 10.7833C6.6569 12.1371 5.26783 13.0851 3.70787 13.2706C3.44503 14.725 3.4367 16.2403 3.65905 17.6876C5.07713 17.9424 6.41628 18.7337 7.29284 19.9357L7.51256 20.2609L7.5819 20.3859C8.33379 21.8974 8.39353 23.5362 7.75182 24.9923C8.33316 25.5127 8.97616 25.9935 9.59655 26.3741C10.3045 26.8085 10.9823 27.1413 11.6737 27.4044C12.6649 26.2384 14.1903 25.48 15.8661 25.4679C17.6419 25.4558 19.2027 26.3425 20.1317 27.7169C21.4999 27.262 22.8241 26.5811 23.9852 25.7081C23.4494 24.234 23.6734 22.5695 24.5077 21.2169C25.3427 19.8633 26.7313 18.9145 28.2909 18.7286C28.5537 17.2742 28.5622 15.7591 28.3397 14.3116C26.7978 14.0343 25.3489 13.123 24.4872 11.7394C24.462 11.699 24.439 11.657 24.4178 11.6144C23.6659 10.1027 23.6051 8.46316 24.2469 7.00696C23.6658 6.48694 23.0232 6.00654 22.4032 5.6261C21.6949 5.19146 21.0168 4.85799 20.3251 4.59485C19.3338 5.76086 17.8095 6.5203 16.1337 6.53235C14.3574 6.54443 12.7959 5.65737 11.8671 4.28235Z" fill="currentColor"/>
</svg>
