<?xml version="1.0" standalone="no"?><!DOCTYPE svg PUBLIC "-//W3C//DTD SVG 1.1//EN" "http://www.w3.org/Graphics/SVG/1.1/DTD/svg11.dtd"><svg t="1733301494152" class="icon" viewBox="0 0 1024 1024" version="1.1" xmlns="http://www.w3.org/2000/svg" p-id="6527" xmlns:xlink="http://www.w3.org/1999/xlink" width="200" height="200"><path d="M512 320c105.6 0 192 86.4 192 192s-86.4 192-192 192-192-86.4-192-192 86.4-192 192-192z m0 96c-54.4 0-96 41.6-96 96s41.6 96 96 96 96-41.6 96-96-41.6-96-96-96z" p-id="6528" fill="currentColor"></path><path d="M432 60.8c-9.6-19.2-32-28.8-54.4-22.4-83.2 19.2-153.6 60.8-214.4 112-12.8 16-16 35.2-9.6 54.4 6.4 12.8 9.6 25.6 9.6 41.6 0 51.2-44.8 92.8-92.8 92.8-19.2 0-38.4 12.8-44.8 32-19.2 41.6-25.6 92.8-25.6 144 0 35.2 3.2 67.2 9.6 99.2 3.2 22.4 25.6 38.4 51.2 35.2h9.6c54.4 0 92.8 41.6 92.8 92.8 0 22.4-9.6 41.6-22.4 57.6-16 16-12.8 41.6 3.2 60.8 60.8 60.8 137.6 105.6 224 131.2 22.4 6.4 51.2-6.4 57.6-28.8 12.8-38.4 48-64 89.6-64s76.8 25.6 89.6 64c6.4 22.4 32 35.2 57.6 28.8 86.4-25.6 163.2-70.4 224-131.2 16-16 16-41.6 3.2-60.8-12.8-16-22.4-35.2-22.4-57.6 0-51.2 44.8-92.8 92.8-92.8h9.6c22.4 3.2 48-12.8 51.2-35.2 6.4-32 9.6-67.2 9.6-99.2 0-51.2-6.4-102.4-22.4-150.4-6.4-19.2-22.4-32-44.8-32-54.4 0-92.8-41.6-92.8-92.8 0-16 3.2-28.8 9.6-41.6 3.2-16-3.2-38.4-16-51.2-60.8-54.4-134.4-92.8-211.2-115.2-19.2 0-44.8 9.6-54.4 28.8-16 28.8-48 51.2-83.2 51.2s-70.4-22.4-83.2-51.2zM262.4 240c0-16-3.2-32-6.4-44.8 35.2-28.8 76.8-48 118.4-67.2 32 41.6 83.2 67.2 140.8 67.2 57.6 0 108.8-25.6 140.8-67.2 44.8 12.8 83.2 38.4 118.4 67.2-3.2 12.8-6.4 32-6.4 44.8 0 86.4 64 166.4 150.4 179.2 6.4 32 9.6 64 9.6 96 0 16 0 32-3.2 48-89.6 9.6-160 86.4-160 179.2 0 28.8 6.4 57.6 19.2 80-35.2 32-76.8 57.6-118.4 73.6-32-51.2-89.6-83.2-153.6-83.2s-121.6 35.2-153.6 83.2c-44.8-16-83.2-41.6-118.4-73.6 6.4-25.6 16-51.2 16-80 0-89.6-67.2-169.6-160-179.2 3.2-12.8 3.2-32 3.2-44.8 0-32 3.2-64 9.6-96 89.6-16 153.6-89.6 153.6-182.4z" p-id="6529" fill="currentColor"></path></svg>
