<?xml version="1.0" encoding="utf-8"?>
<!-- Generator: Adobe Illustrator 21.0.0, SVG Export Plug-In . SVG Version: 6.00 Build 0)  -->
<svg version="1.1" id="图层_1" xmlns="http://www.w3.org/2000/svg" xmlns:xlink="http://www.w3.org/1999/xlink" x="0px" y="0px"
	 viewBox="0 0 32 32" style="enable-background:new 0 0 32 32;" xml:space="preserve">
<style type="text/css">
	.st0{fill:#949494;}
</style>
<title>settings</title>
<desc>Created with Sketch.</desc>
<g id="settings">
	<g id="形状结合">
		<path class="st0" d="M30.5,13.4c0.1,0.1,0.1,0.1,0.1,0.3l-0.1,4.1c0,0.1-0.1,0.4-0.3,0.4l-3.4,1.2c-0.1,0.4-0.4,0.9-0.6,1.3
			l1.6,3.2c0,0.1,0,0.4-0.1,0.6l-3,3c-0.1,0.1-0.4,0.3-0.6,0.1l-3.2-1.6c-0.4,0.3-0.9,0.4-1.3,0.6l-1.2,3.4c0,0.1-0.1,0.3-0.4,0.3
			h-4.1c-0.1,0-0.4-0.1-0.4-0.3l-1.2-3.4c-0.4-0.1-0.9-0.4-1.3-0.6l-3.2,1.6c-0.1,0-0.4,0-0.6-0.1l-3-3C4,24.5,3.8,24.2,4,24
			l1.6-3.2c-0.3-0.4-0.4-0.9-0.6-1.3l-3.4-1.2c-0.1,0-0.3-0.1-0.3-0.4v-4.1c0-0.1,0.1-0.4,0.3-0.4L5,12.1c0.1-0.4,0.3-0.9,0.6-1.3
			L4,7.5C3.8,7.3,3.8,7.1,4,7.1l3-3C7.1,3.8,7.3,3.8,7.5,4l3.2,1.6c0.4-0.3,0.9-0.4,1.3-0.6l1.2-3.5c0-0.1,0.1-0.3,0.4-0.3h4
			c0.1,0,0.4,0.1,0.4,0.3l1.2,3.4c0.4,0.1,0.9,0.4,1.3,0.6l3.2-1.6c0.1,0,0.4,0,0.6,0.1l3,3c0.1,0.1,0.3,0.4,0.1,0.6l-1.6,3.2
			c0.3,0.4,0.4,0.9,0.6,1.3L30.5,13.4z M17.7,8.8c-5.5-1.5-10.3,3.4-9,9c0.6,2.4,2.7,4.4,5,5c5.5,1.5,10.3-3.4,9-9
			C22.1,11.3,20.2,9.4,17.7,8.8z"/>
	</g>
</g>
</svg>
