<svg width="20" height="20" viewBox="0 0 20 20" fill="none" xmlns="http://www.w3.org/2000/svg">
<path d="M10 1.25C10.7658 1.25 11.6404 1.35973 12.4062 1.57812C12.2969 2.56282 12.7347 3.43756 13.6094 3.98438C14.4846 4.42168 15.5785 4.31247 16.3438 3.76562C17.4374 4.85935 18.3126 6.28149 18.75 7.8125C17.8752 8.1404 17.3281 9.01574 17.3281 10C17.3281 10.9843 17.8753 11.8596 18.75 12.1875C18.3126 13.7185 17.4374 15.1407 16.3438 16.2344C15.5785 15.5781 14.4846 15.4689 13.6094 16.0156C12.7347 16.5624 12.2969 17.5466 12.4062 18.4219C11.6405 18.6403 10.8747 18.75 10 18.75C9.23421 18.75 8.35953 18.6403 7.59375 18.4219C7.70314 17.4372 7.26534 16.5624 6.39062 16.0156C5.51532 15.5783 4.42151 15.6876 3.65625 16.2344C2.56258 15.1407 1.68738 13.7185 1.25 12.1875C2.12478 11.8596 2.67187 10.9842 2.67188 10C2.67188 9.01576 2.12478 8.14042 1.25 7.8125C1.68737 6.28146 2.56257 4.85935 3.65625 3.76562C4.42151 4.42194 5.51532 4.53114 6.39062 3.98438C7.26534 3.43756 7.70313 2.45338 7.59375 1.57812C8.35952 1.3597 9.12525 1.25 10 1.25ZM10 6.25C7.92893 6.25 6.25 7.92893 6.25 10C6.25 12.0711 7.92893 13.75 10 13.75C12.0711 13.75 13.75 12.0711 13.75 10C13.75 7.92893 12.0711 6.25 10 6.25ZM10 7.625C11.3117 7.625 12.375 8.68832 12.375 10C12.375 11.3117 11.3117 12.375 10 12.375C8.68832 12.375 7.625 11.3117 7.625 10C7.625 8.68832 8.68832 7.625 10 7.625Z" />
</svg>
