<?xml version="1.0" standalone="no"?><!DOCTYPE svg PUBLIC "-//W3C//DTD SVG 1.1//EN" "http://www.w3.org/Graphics/SVG/1.1/DTD/svg11.dtd"><svg t="1762151677591" class="icon" viewBox="0 0 1024 1024" version="1.1" xmlns="http://www.w3.org/2000/svg" p-id="30100" xmlns:xlink="http://www.w3.org/1999/xlink" width="200" height="200"><path d="M800 64c-70.4 0-128 54.4-128 128s57.6 128 128 128 128-54.4 128-128-57.6-128-128-128zM224 384c-70.4 0-128 54.4-128 128s57.6 128 128 128 128-54.4 128-128-57.6-128-128-128z m576 320c-70.4 0-128 54.4-128 128s57.6 128 128 128 128-54.4 128-128-60.8-128-128-128z m-425.6-307.2l217.6-134.4 48 83.2-217.6 134.4-48-83.2z m60.8 169.6l220.8 131.2-48 80-220.8-131.2 48-80z" fill="currentColor" p-id="30101"></path></svg>
