<?xml version="1.0" standalone="no"?><!DOCTYPE svg PUBLIC "-//W3C//DTD SVG 1.1//EN" "http://www.w3.org/Graphics/SVG/1.1/DTD/svg11.dtd"><svg t="1761880366725" class="icon" viewBox="0 0 1024 1024" version="1.1" xmlns="http://www.w3.org/2000/svg" p-id="23441" xmlns:xlink="http://www.w3.org/1999/xlink" width="200" height="200"><path d="M723.2 512c131.2 0 240 108.8 240 240S857.6 992 723.2 992s-240-108.8-240-240 108.8-240 240-240z m-422.4 25.6c48 28.8 105.6 48 163.2 51.2-32 48-48 105.6-48 166.4 0 96 44.8 182.4 115.2 240C307.2 998.4 64 956.8 64 864c0-153.6 96-262.4 236.8-326.4z m518.4 278.4c-25.6 0-48 22.4-48 48s19.2 48 48 48c25.6 0 48-22.4 48-48s-22.4-48-48-48z m-144-38.4c0 9.6-3.2 16-9.6 22.4l102.4 60.8c3.2-12.8 6.4-19.2 12.8-25.6l-105.6-57.6z m-48-57.6c-25.6 0-48 22.4-48 48s22.4 48 48 48 48-22.4 48-48-22.4-48-48-48z m166.4-112c-28.8 0-48 22.4-48 48 0 6.4 0 9.6 3.2 16l-89.6 57.6c6.4 6.4 12.8 16 16 25.6l89.6-60.8c-9.6-6.4-12.8-9.6-16-19.2l3.2 3.2c9.6 16 25.6 25.6 41.6 25.6 25.6 0 48-22.4 48-48s-22.4-48-48-48z m-224-556.8c32 12.8 57.6 28.8 80 51.2 44.8 44.8 73.6 108.8 73.6 169.6 0 28.8-6.4 60.8-19.2 89.6-12.8 32-25.6 60.8-54.4 80-6.4 6.4-12.8 9.6-19.2 16-35.2 9.6-67.2 25.6-96 48-51.2 12.8-105.6 9.6-156.8-12.8-28.8-12.8-54.4-28.8-80-51.2-25.6-22.4-44.8-48-54.4-76.8-12.8-25.6-19.2-57.6-19.2-89.6s6.4-60.8 16-92.8c19.2-25.6 38.4-54.4 60.8-80 25.6-22.4 48-38.4 80-51.2 60.8-25.6 131.2-25.6 188.8 0z" fill="#999999" p-id="23442"></path></svg>