<svg width="16" height="16" viewBox="0 0 16 16" fill="none" xmlns="http://www.w3.org/2000/svg">
<path d="M7.71191 8.99945C11.3628 8.99953 13.2578 10.466 13.2578 12.2739V14.3618H2.16504V12.2739C2.16504 10.8005 3.42277 9.55522 5.8623 9.14398C5.91016 9.13591 5.95793 9.1282 6.00684 9.12054L6.00391 9.12152C6.52206 9.04248 7.09177 8.99945 7.71191 8.99945Z" fill="currentColor"/>
<path d="M2.5332 9.57367C1.71038 10.2799 1.23642 11.2136 1.23633 12.2739V13.5248H0V12.0649C0.000398751 10.953 0.860418 9.99791 2.5332 9.57367Z" fill="currentColor"/>
<path d="M12.7129 9.42914C14.8803 9.73467 15.9995 10.7974 16 12.0649V13.5248H14.1875V12.2739C14.1874 11.1401 13.6443 10.1501 12.7129 9.42914Z" fill="currentColor"/>
<path d="M11.8643 4.08441C12.4125 4.18229 12.9232 4.4421 13.3252 4.83832C13.5809 5.08989 13.7841 5.39033 13.9229 5.72113C14.0615 6.05203 14.1337 6.40827 14.1338 6.76703C14.1337 7.12564 14.0614 7.48118 13.9229 7.81195C13.7841 8.14284 13.581 8.44412 13.3252 8.69574C13.0794 8.93785 12.7921 9.12759 12.4814 9.26215C12.4389 9.23314 12.3964 9.20321 12.3525 9.17523C11.7525 8.79307 11.024 8.50489 10.1826 8.31879C10.3643 8.18909 10.5382 8.04578 10.6992 7.88715L10.7002 7.88812C11.095 7.49968 11.409 7.03565 11.623 6.52484C11.837 6.01417 11.9472 5.46524 11.9473 4.91156C11.9473 4.7041 11.932 4.49681 11.9014 4.29242C11.8911 4.22422 11.8788 4.15591 11.8652 4.08832L11.8643 4.08441Z" fill="currentColor"/>
<path d="M3.53027 4.26508C3.49696 4.47727 3.47856 4.69308 3.47852 4.91058V4.91254C3.47858 4.96588 3.48129 5.01948 3.4834 5.07269L3.48438 5.11957C3.49074 5.24504 3.50291 5.37041 3.52051 5.49457C3.52313 5.51303 3.52642 5.53181 3.5293 5.55023C3.5371 5.60039 3.54604 5.65079 3.55566 5.70062C3.56042 5.72524 3.56511 5.75031 3.57031 5.77484C3.57644 5.80374 3.5831 5.83299 3.58984 5.86176C3.59999 5.90503 3.61055 5.94869 3.62207 5.99164C3.62614 6.00682 3.63052 6.0224 3.63477 6.03754C3.68094 6.20203 3.73657 6.36461 3.80273 6.52289C3.86964 6.6828 3.9483 6.83789 4.03418 6.98773C4.05761 7.02862 4.08166 7.06974 4.10645 7.1098C4.20801 7.27382 4.32008 7.43188 4.44336 7.58051C4.5314 7.68665 4.62523 7.78892 4.72363 7.88617L4.87598 8.02972C4.9768 8.11994 5.08224 8.20494 5.19043 8.28461C5.20606 8.29611 5.2225 8.3075 5.23828 8.31879C4.45607 8.49199 3.77175 8.75487 3.19727 9.09808C3.00962 8.98603 2.83387 8.85189 2.67578 8.69574C2.42072 8.44366 2.21754 8.14276 2.0791 7.81195C1.9408 7.48123 1.8696 7.1255 1.86914 6.76703C1.86922 6.04426 2.15976 5.35015 2.67578 4.83929C2.92424 4.59358 3.21517 4.40041 3.53027 4.26508Z" fill="currentColor"/>
<path d="M7.71191 1.63812C8.5861 1.63881 9.42532 1.98339 10.0479 2.59711C10.3549 2.89915 10.5992 3.25945 10.7656 3.65668C10.932 4.05391 11.0176 4.48087 11.0176 4.91156C11.0175 5.34207 10.932 5.76839 10.7656 6.16547C10.5992 6.56268 10.3549 6.923 10.0479 7.22504C9.42503 7.83889 8.58542 8.18348 7.71094 8.18402C6.83666 8.18429 5.9979 7.83951 5.37598 7.22504C5.06981 6.9225 4.82631 6.56253 4.66016 6.16547C4.49406 5.76839 4.40772 5.34198 4.40723 4.91156C4.40723 4.04384 4.75631 3.21125 5.37598 2.59808C5.99793 1.98295 6.83715 1.63775 7.71191 1.63812Z" fill="currentColor"/>
</svg>
