<svg width="16" height="17" viewBox="0 0 16 17" fill="none" xmlns="http://www.w3.org/2000/svg">
<path fill-rule="evenodd" clip-rule="evenodd" d="M12.4102 8.88379C14.3927 8.88379 16 10.4911 16 12.4736C15.9998 14.4561 14.3926 16.0635 12.4102 16.0635C10.4278 16.0634 8.82047 14.456 8.82031 12.4736C8.82031 10.4911 10.4277 8.88387 12.4102 8.88379ZM13.6074 10.6855C13.1999 10.6856 12.8694 11.0163 12.8691 11.4238V11.4297L11.9697 11.9482C11.8094 11.7206 11.5438 11.5713 11.2441 11.5713C10.7552 11.5717 10.3594 11.9689 10.3594 12.458C10.3595 12.947 10.7553 13.3434 11.2441 13.3438C11.4346 13.3438 11.6104 13.2819 11.7549 13.1797L12.5762 13.7275C12.5746 13.747 12.5732 13.7673 12.5732 13.7871C12.5735 14.1945 12.9041 14.5242 13.3115 14.5244C13.7191 14.5244 14.0496 14.1947 14.0498 13.7871C14.0498 13.3794 13.7193 13.0488 13.3115 13.0488C13.0964 13.0489 12.9034 13.1412 12.7686 13.2881L12.0557 12.8125C12.1033 12.7038 12.1308 12.5842 12.1309 12.458C12.1309 12.4397 12.129 12.4213 12.1279 12.4033L13.0293 11.8828C13.1645 12.053 13.3732 12.163 13.6074 12.1631C14.015 12.1629 14.3456 11.8314 14.3457 11.4238C14.3455 11.0164 14.0148 10.6857 13.6074 10.6855Z" fill="currentColor"/>
<path d="M7.17969 8.92676C8.04933 8.92676 8.84202 8.991 9.55664 9.11035C8.66145 9.95217 8.10254 11.1478 8.10254 12.4736C8.10258 13.1638 8.25479 13.8183 8.52637 14.4062H0V13.1631C0.000286801 10.8226 2.45375 8.92676 7.17969 8.92676Z" fill="currentColor"/>
<path d="M7.17969 1.24137e-08C7.74128 -4.25683e-05 8.29753 0.10946 8.81641 0.322266C9.33536 0.53515 9.8069 0.847815 10.2041 1.24121C10.6013 1.63458 10.9169 2.10127 11.1318 2.61523C11.3468 3.12926 11.457 3.68092 11.457 4.2373C11.457 4.79355 11.3467 5.3445 11.1318 5.8584C10.9169 6.37239 10.6013 6.83903 10.2041 7.23242C9.8069 7.62583 9.33537 7.93848 8.81641 8.15137C8.29751 8.36419 7.7413 8.47368 7.17969 8.47363C6.04538 8.47354 4.95732 8.02692 4.15527 7.23242C3.35342 6.43803 2.90343 5.36064 2.90332 4.2373C2.90332 3.11379 3.35328 2.03571 4.15527 1.24121C4.95732 0.446709 6.04538 8.78552e-05 7.17969 1.24137e-08Z" fill="currentColor"/>
</svg>
