<?xml version="1.0" standalone="no"?><!DOCTYPE svg PUBLIC "-//W3C//DTD SVG 1.1//EN" "http://www.w3.org/Graphics/SVG/1.1/DTD/svg11.dtd"><svg t="1761880387364" class="icon" viewBox="0 0 1024 1024" version="1.1" xmlns="http://www.w3.org/2000/svg" p-id="23826" xmlns:xlink="http://www.w3.org/1999/xlink" width="200" height="200"><path d="M659.2 566.4c118.4 54.4 192 137.6 192 265.6 0 70.4-166.4 102.4-329.6 102.4h-3.2C352 934.4 185.6 899.2 185.6 832c0-128 73.6-211.2 188.8-265.6h3.2c80 57.6 195.2 57.6 281.6 0zM169.6 515.2c28.8 22.4 73.6 38.4 108.8 38.4-73.6 64-144 147.2-144 249.6 0 3.2 0 9.6 3.2 12.8-73.6-12.8-105.6-32-105.6-67.2 0-99.2 54.4-192 137.6-233.6z m684.8-6.4c83.2 41.6 137.6 134.4 137.6 233.6 0 35.2-25.6 60.8-96 73.6 0-3.2 3.2-9.6 3.2-12.8 0-102.4-60.8-182.4-160-249.6 32 0 83.2-22.4 115.2-44.8zM515.2 96C636.8 96 736 195.2 736 316.8s-99.2 220.8-220.8 220.8H512c-121.6 0-220.8-99.2-220.8-220.8s99.2-220.8 224-220.8zM265.6 185.6h12.8c-25.6 41.6-38.4 92.8-38.4 144 0 70.4 38.4 140.8 89.6 185.6-19.2 6.4-35.2 9.6-54.4 9.6-41.6 0-80-16-112-48s-44.8-73.6-44.8-118.4c3.2-92.8 60.8-172.8 147.2-172.8z m492.8 0c54.4 0 112 38.4 134.4 83.2s19.2 108.8-9.6 160-76.8 86.4-131.2 86.4c-19.2 0-38.4-3.2-54.4-9.6 92.8-76.8 118.4-217.6 48-320h12.8z" fill="#999999" p-id="23827"></path></svg>