<svg width="16" height="16" viewBox="0 0 16 16" fill="none" xmlns="http://www.w3.org/2000/svg">
<path d="M6.61914 1.66602L7.94336 2.99023H15.002V12.3457C15.0018 13.4508 14.1051 14.3466 13 14.3457L2.99805 14.3369C1.89426 14.3358 1 13.4407 1 12.3369V1.6543L6.61914 1.66602ZM9.85254 5.53027C9.21858 5.53044 8.7041 6.04469 8.7041 6.67871C8.7041 6.68125 8.70408 6.68399 8.7041 6.68652L7.30566 7.49414C7.05638 7.14006 6.64462 6.90732 6.17871 6.90723C5.41796 6.90743 4.80078 7.5253 4.80078 8.28613C4.80108 9.04671 5.41815 9.66288 6.17871 9.66309C6.47475 9.66303 6.7481 9.56814 6.97266 9.40918L8.24902 10.2607C8.24664 10.2909 8.24512 10.3217 8.24512 10.3525C8.24527 10.9865 8.7596 11.4999 9.39355 11.5C10.0275 11.5 10.5418 10.9865 10.542 10.3525C10.542 9.71846 10.0276 9.20415 9.39355 9.2041C9.05883 9.20414 8.75769 9.34761 8.54785 9.57617L7.43945 8.83789C7.5136 8.66882 7.55656 8.48256 7.55664 8.28613C7.55664 8.25774 7.55346 8.22914 7.55176 8.20117L8.95312 7.3916C9.1634 7.65626 9.48829 7.82705 9.85254 7.82715C10.4864 7.82715 11.0006 7.31255 11.001 6.67871C11.001 6.04458 10.4866 5.53027 9.85254 5.53027Z" fill="currentColor" />
</svg>
