<?xml version="1.0" encoding="utf-8"?>
<!-- Generator: Adobe Illustrator 21.0.0, SVG Export Plug-In . SVG Version: 6.00 Build 0)  -->
<svg version="1.1" id="图层_1" xmlns="http://www.w3.org/2000/svg" xmlns:xlink="http://www.w3.org/1999/xlink" x="0px" y="0px"
	 viewBox="0 0 32 32" style="enable-background:new 0 0 32 32;" xml:space="preserve">
<style type="text/css">
	.st0{fill:#999999;}
</style>
<path class="st0" d="M25,2c-2.2,0-4,1.7-4,4s1.8,4,4,4s4-1.7,4-4S27.2,2,25,2z M7,12c-2.2,0-4,1.7-4,4s1.8,4,4,4s4-1.7,4-4
	S9.2,12,7,12z M25,22c-2.2,0-4,1.7-4,4s1.8,4,4,4s4-1.7,4-4S27.1,22,25,22z M11.7,12.4l6.8-4.2l1.5,2.6L13.2,15L11.7,12.4z
	 M13.6,17.7l6.9,4.1L19,24.3l-6.9-4.1C12.1,20.2,13.6,17.7,13.6,17.7z"/>
</svg>
