<svg width="20" height="20" viewBox="0 0 20 20" fill="none" xmlns="http://www.w3.org/2000/svg">
<path d="M13.5 2C14.6045 2.00007 15.5 2.89547 15.5 4V8L9.5 11.375V12.1377L6.72559 10.5234C6.73956 10.4344 6.74998 10.3429 6.75 10.25C6.74995 10.0164 6.70322 9.79357 6.62012 9.58984L9.06152 7.14844C9.27391 7.26375 9.51772 7.32906 9.77637 7.3291C10.6046 7.32905 11.2762 6.65735 11.2764 5.8291C11.2764 5.00071 10.6047 4.32915 9.77637 4.3291C8.94808 4.32925 8.27638 5.00077 8.27637 5.8291C8.2764 5.991 8.3031 6.1469 8.35059 6.29297L5.89551 8.74805C5.63342 8.59144 5.32749 8.50005 5 8.5C4.03374 8.50015 3.25019 9.28374 3.25 10.25C3.25017 11.2163 4.03373 11.9999 5 12C5.42817 11.9999 5.81993 11.8452 6.12402 11.5898L9.5 13.5537V17H2.5C1.39543 17 0.5 16.1046 0.5 15V4C0.5 2.89543 1.39543 2 2.5 2H13.5Z"/>
<path d="M20 12.125V17.375L15.5 20L11 17.375V12.125L15.5 9.5L20 12.125ZM15.5 13.25C14.6716 13.25 14 13.9216 14 14.75C14 15.5784 14.6716 16.25 15.5 16.25C16.3284 16.25 17 15.5784 17 14.75C17 13.9216 16.3284 13.25 15.5 13.25Z"/>
</svg>
