<svg width="32" height="32" viewBox="0 0 32 32" fill="none" xmlns="http://www.w3.org/2000/svg">
<path fill-rule="evenodd" clip-rule="evenodd" d="M24 1.375C27.0375 1.375 29.5 3.83746 29.5 6.875C29.5 9.91257 27.0376 12.375 24 12.375C22.597 12.3749 21.3173 11.8491 20.3457 10.9844L15.21 13.9492C15.3985 14.5577 15.5 15.2045 15.5 15.875C15.5 16.8014 15.3043 17.682 14.9551 18.4795L18.3496 21.0117C19.3207 20.1492 20.599 19.625 22 19.625C25.0376 19.625 27.5 22.0874 27.5 25.125C27.5 28.1625 25.0375 30.625 22 30.625C18.9625 30.625 16.5 28.1625 16.5 25.125C16.5 24.5765 16.581 24.0468 16.7305 23.5469L13.1494 20.877C12.0236 21.812 10.5778 22.3749 9 22.375C5.41015 22.375 2.5 19.4649 2.5 15.875C2.5001 12.2852 5.41021 9.375 9 9.375C10.8391 9.37507 12.4983 10.1405 13.6807 11.3682L18.7305 8.45312C18.581 7.95322 18.5 7.42352 18.5 6.875C18.5 3.83754 20.9626 1.37513 24 1.375ZM22 22.625C20.6193 22.625 19.5 23.7443 19.5 25.125C19.5 26.5057 20.6193 27.625 22 27.625C23.3807 27.625 24.5 26.5057 24.5 25.125C24.5 23.7443 23.3807 22.625 22 22.625ZM9 12.375C7.06706 12.375 5.5001 13.9421 5.5 15.875C5.5 17.808 7.067 19.375 9 19.375C10.9329 19.3749 12.5 17.8079 12.5 15.875C12.4999 13.9422 10.9328 12.3751 9 12.375ZM24 4.375C22.6194 4.37513 21.5 5.4944 21.5 6.875C21.5 8.25563 22.6194 9.37487 24 9.375C25.3807 9.375 26.5 8.25571 26.5 6.875C26.5 5.49432 25.3807 4.375 24 4.375Z" fill="currentColor"/>
</svg>
