<svg width="32" height="32" viewBox="0 0 32 32" fill="none" xmlns="http://www.w3.org/2000/svg">
<path d="M11 23.5H7V20.5H11V23.5Z" fill="currentColor"/>
<path d="M11 17.5H7V14.5H11V17.5Z" fill="currentColor"/>
<path d="M11 11.5H7V8.5H11V11.5Z" fill="currentColor"/>
<path fill-rule="evenodd" clip-rule="evenodd" d="M24.5 2C27.5376 2 30 4.46243 30 7.5V24.5C30 27.5376 27.5376 30 24.5 30H7.5C4.46243 30 2 27.5376 2 24.5V7.5C2 4.46243 4.46243 2 7.5 2H24.5ZM7.5 5C6.11929 5 5 6.11929 5 7.5V24.5C5 25.8807 6.11929 27 7.5 27H12.5V5H7.5ZM15.5 27H24.5C25.8807 27 27 25.8807 27 24.5V7.5C27 6.11929 25.8807 5 24.5 5H15.5V27Z" fill="currentColor"/>
</svg>
