<?xml version="1.0" standalone="no"?><!DOCTYPE svg PUBLIC "-//W3C//DTD SVG 1.1//EN" "http://www.w3.org/Graphics/SVG/1.1/DTD/svg11.dtd"><svg t="1761789064299" class="icon" viewBox="0 0 1024 1024" version="1.1" xmlns="http://www.w3.org/2000/svg" p-id="6094" xmlns:xlink="http://www.w3.org/1999/xlink" width="200" height="200"><path d="M928 32c35.2 0 64 28.8 64 64v832c0 35.2-28.8 64-64 64H96c-35.2 0-64-28.8-64-64V96c0-35.2 28.8-64 64-64h832zM416 128H160c-19.2 0-32 12.8-32 32v704c0 19.2 12.8 32 32 32h256V128z m448 0H512v768h352c19.2 0 32-12.8 32-32V160c0-19.2-12.8-32-32-32zM304 576c25.6 0 48 22.4 48 48S329.6 672 304 672h-64c-25.6 0-48-22.4-48-48S214.4 576 240 576h64z m0-192c25.6 0 48 22.4 48 48S329.6 480 304 480h-64c-25.6 0-48-22.4-48-48S214.4 384 240 384h64z m0-192c25.6 0 48 22.4 48 48S329.6 288 304 288h-64C214.4 288 192 265.6 192 240S214.4 192 240 192h64z" fill="currentColor" p-id="6095"></path></svg>
