<?xml version="1.0" standalone="no"?><!DOCTYPE svg PUBLIC "-//W3C//DTD SVG 1.1//EN" "http://www.w3.org/Graphics/SVG/1.1/DTD/svg11.dtd"><svg t="1721027962649" class="icon" viewBox="0 0 1024 1024" version="1.1" xmlns="http://www.w3.org/2000/svg" p-id="19532" xmlns:xlink="http://www.w3.org/1999/xlink" width="200" height="200"><path d="M12.8 515.2C12.8 243.2 233.6 16 508.8 16s496 224 496 499.2-220.8 496-496 496S12.8 787.2 12.8 515.2z m208-54.4l252.8 284.8c6.4 9.6 16 12.8 32 12.8 12.8 0 22.4-3.2 32-12.8l262.4-284.8c12.8-12.8 16-35.2 9.6-51.2s-22.4-28.8-41.6-32H252.8c-16 0-35.2 12.8-41.6 32-6.4 16-3.2 38.4 9.6 51.2z" p-id="19533"></path></svg>