<svg width="32" height="32" viewBox="0 0 32 32" fill="none" xmlns="http://www.w3.org/2000/svg">
<path d="M21 17.7793H22.8574C23.2933 17.7793 23.5203 18.2989 23.2246 18.6191L18.8672 23.3398C18.5584 23.674 18 23.455 18 23V8.5H21V17.7793Z" fill="currentColor"/>
<path d="M13.0996 8.69922C13.3879 8.31536 13.9995 8.52005 14 9V23.2793H11V15.5H9C8.58843 15.4994 8.35254 15.0286 8.59961 14.6992L13.0996 8.69922Z" fill="currentColor"/>
<path fill-rule="evenodd" clip-rule="evenodd" d="M25 1.5C28.0376 1.5 30.5 3.96243 30.5 7V25C30.5 28.0376 28.0376 30.5 25 30.5H7C3.96243 30.5 1.5 28.0376 1.5 25V7C1.5 3.96243 3.96243 1.5 7 1.5H25ZM7 4.5C5.61929 4.5 4.5 5.61929 4.5 7V25C4.5 26.3807 5.61929 27.5 7 27.5H25C26.3807 27.5 27.5 26.3807 27.5 25V7C27.5 5.61929 26.3807 4.5 25 4.5H7Z" fill="currentColor"/>
</svg>
