<?xml version="1.0" standalone="no"?><!DOCTYPE svg PUBLIC "-//W3C//DTD SVG 1.1//EN" "http://www.w3.org/Graphics/SVG/1.1/DTD/svg11.dtd"><svg t="1726034713002" class="icon" viewBox="0 0 1024 1024" version="1.1" xmlns="http://www.w3.org/2000/svg" p-id="15456" xmlns:xlink="http://www.w3.org/1999/xlink" width="200" height="200"><path d="M643.2 777.6c28.8 0 57.6 35.2 57.6 73.6S672 928 643.2 928h-108.8c-28.8 0-57.6-35.2-57.6-73.6s25.6-73.6 57.6-73.6h108.8v-3.2zM195.2 131.2c19.2-25.6 48-32 67.2-19.2 6.4 3.2 12.8 12.8 16 19.2l153.6 224c12.8 22.4 9.6 57.6-12.8 73.6-6.4 6.4-19.2 12.8-28.8 12.8H304v403.2c0 38.4-32 67.2-67.2 67.2s-67.2-32-67.2-67.2V441.6H86.4c-25.6 0-51.2-22.4-54.4-51.2v-3.2c0-12.8 3.2-22.4 9.6-28.8l153.6-227.2z m569.6 422.4c32 0 60.8 35.2 60.8 73.6s-28.8 76.8-60.8 76.8h-233.6c-32 0-60.8-35.2-60.8-73.6s28.8-73.6 60.8-73.6h233.6v-3.2z m99.2-224c28.8 0 57.6 35.2 57.6 73.6 0 38.4-25.6 73.6-57.6 73.6H528c-28.8 0-57.6-35.2-57.6-73.6 0-38.4 25.6-73.6 57.6-73.6H864z m67.2-224v6.4c28.8 0 51.2 35.2 51.2 73.6 0 38.4-25.6 70.4-51.2 70.4H524.8c-28.8 0-51.2-35.2-51.2-73.6s25.6-73.6 51.2-73.6h406.4z" p-id="15457"></path></svg>