<?xml version="1.0" standalone="no"?><!DOCTYPE svg PUBLIC "-//W3C//DTD SVG 1.1//EN" "http://www.w3.org/Graphics/SVG/1.1/DTD/svg11.dtd"><svg t="1718865263224" class="icon" viewBox="0 0 1024 1024" version="1.1" xmlns="http://www.w3.org/2000/svg" p-id="16094" xmlns:xlink="http://www.w3.org/1999/xlink" width="200" height="200"><path d="M812.8 483.2v428.8c0 25.6-22.4 48-48 48h-83.2c-25.6 0-48-22.4-48-48V483.2h-118.4C608 243.2 678.4 124.8 723.2 124.8s115.2 118.4 208 358.4h-118.4z m-419.2 57.6H512c-89.6 240-160 358.4-208 358.4S185.6 780.8 96 540.8h118.4V112c0-25.6 22.4-48 48-48h83.2c25.6 0 48 22.4 48 48v428.8z"  p-id="16095"></path></svg>