<?xml version="1.0" standalone="no"?><!DOCTYPE svg PUBLIC "-//W3C//DTD SVG 1.1//EN" "http://www.w3.org/Graphics/SVG/1.1/DTD/svg11.dtd"><svg t="1761893222604" class="icon" viewBox="0 0 1024 1024" version="1.1" xmlns="http://www.w3.org/2000/svg" p-id="27634" xmlns:xlink="http://www.w3.org/1999/xlink" width="200" height="200"><path d="M763.345455 961.939394c-31.030303 0-55.854545-21.721212-55.854546-58.957576V310.30303l-99.29697 114.812122c-12.412121 15.515152-24.824242 18.618182-40.339394 18.618181-31.030303 0-58.957576-27.927273-58.957575-58.957575 0-15.515152 3.10303-31.030303 15.515151-43.442425l189.284849-232.727272c18.618182-9.309091 31.030303-15.515152 46.545454-15.515152s31.030303 6.206061 43.442424 18.618182l192.387879 232.727273c9.309091 12.412121 12.412121 27.927273 12.412121 43.442424 0 31.030303-24.824242 58.957576-55.854545 58.957576-15.515152 0-31.030303-6.206061-43.442424-18.618182L812.993939 310.30303v595.781818c6.206061 34.133333-12.412121 55.854545-49.648484 55.854546zM15.515152 217.212121c0 34.133333 27.927273 62.060606 58.957575 62.060606h316.509091c31.030303 0 58.957576-27.927273 58.957576-62.060606s-27.927273-62.060606-58.957576-62.060606H74.472727C40.339394 155.151515 15.515152 183.078788 15.515152 217.212121z m58.957575 372.363637h378.569697c31.030303 0 58.957576-27.927273 58.957576-62.060606s-27.927273-62.060606-58.957576-62.060607H74.472727c-31.030303 0-58.957576 27.927273-58.957575 62.060607 3.10303 34.133333 27.927273 62.060606 58.957575 62.060606z m-3.10303 310.30303h446.836364c31.030303 0 55.854545-27.927273 55.854545-62.060606s-24.824242-62.060606-55.854545-62.060606H71.369697c-31.030303 0-55.854545 27.927273-55.854545 62.060606 3.10303 34.133333 27.927273 62.060606 55.854545 62.060606z" fill="currentColor" p-id="27635"></path></svg>
