<?xml version="1.0" standalone="no"?><!DOCTYPE svg PUBLIC "-//W3C//DTD SVG 1.1//EN" "http://www.w3.org/Graphics/SVG/1.1/DTD/svg11.dtd"><svg t="1720576644983" class="icon" viewBox="0 0 1024 1024" version="1.1" xmlns="http://www.w3.org/2000/svg" p-id="6118" xmlns:xlink="http://www.w3.org/1999/xlink" width="200" height="200"><path d="M294.4 105.6l201.6 204.8c19.2 19.2 19.2 51.2 0 73.6-19.2 19.2-51.2 19.2-70.4 0L320 275.2v604.8c0 25.6-22.4 48-48 48S224 905.6 224 880V275.2L118.4 384c-19.2 19.2-48 19.2-67.2 3.2l-3.2-3.2c-19.2-19.2-19.2-51.2 0-73.6l201.6-204.8c12.8-12.8 32-12.8 44.8 0zM752 96c25.6 0 48 22.4 48 48v604.8l105.6-108.8c19.2-19.2 51.2-19.2 70.4 0 19.2 19.2 19.2 51.2 0 73.6l-201.6 204.8c-12.8 12.8-32 12.8-44.8 0l-201.6-204.8c-19.2-19.2-19.2-51.2 0-73.6l3.2-3.2c19.2-16 48-16 67.2 3.2l105.6 108.8V144c0-25.6 22.4-48 48-48z" p-id="6119"></path></svg>