<?xml version="1.0" standalone="no"?><!DOCTYPE svg PUBLIC "-//W3C//DTD SVG 1.1//EN" "http://www.w3.org/Graphics/SVG/1.1/DTD/svg11.dtd"><svg t="1726034718075" class="icon" viewBox="0 0 1024 1024" version="1.1" xmlns="http://www.w3.org/2000/svg" p-id="15598" xmlns:xlink="http://www.w3.org/1999/xlink" width="200" height="200"><path d="M643.2 777.6c28.8 0 57.6 35.2 57.6 73.6 0 38.4-25.6 73.6-57.6 73.6h-108.8c-28.8 0-57.6-35.2-57.6-73.6 0-38.4 25.6-73.6 57.6-73.6h108.8zM236.8 92.8c38.4 0 67.2 32 67.2 67.2v425.6h86.4c9.6 0 22.4 3.2 28.8 12.8 25.6 19.2 28.8 51.2 12.8 73.6l-153.6 224c-3.2 6.4-9.6 12.8-16 19.2-22.4 16-51.2 6.4-67.2-19.2l-153.6-224c-6.4-6.4-9.6-19.2-9.6-28.8 0-28.8 25.6-57.6 54.4-57.6h83.2V160c0-38.4 28.8-67.2 67.2-67.2z m528 460.8c32 0 60.8 35.2 60.8 73.6s-28.8 76.8-60.8 76.8h-233.6c-32 0-60.8-35.2-60.8-73.6s28.8-73.6 60.8-73.6h233.6v-3.2z m99.2-224c28.8 0 57.6 35.2 57.6 73.6S892.8 480 864 480H528c-28.8 0-57.6-35.2-57.6-73.6s25.6-73.6 57.6-73.6H864v-3.2z m67.2-224v6.4c28.8 0 51.2 35.2 51.2 73.6S960 256 931.2 256H524.8c-28.8 0-51.2-35.2-51.2-73.6s25.6-73.6 51.2-73.6h406.4z" p-id="15599"></path></svg>