<?xml version="1.0" encoding="utf-8"?>
<!-- Generator: Adobe Illustrator 21.0.0, SVG Export Plug-In . SVG Version: 6.00 Build 0)  -->
<svg version="1.1" id="图层_1" xmlns="http://www.w3.org/2000/svg" xmlns:xlink="http://www.w3.org/1999/xlink" x="0px" y="0px"
	 viewBox="0 0 32 32" style="enable-background:new 0 0 32 32;" xml:space="preserve">
<style type="text/css">
	.st0{fill:#999999;}
</style>
<path class="st0" d="M13,29c0,1.7,1.3,3,3,3s3-1.3,3-3s-1.3-3-3-3S13,27.3,13,29z M13,3c0,1.7,1.3,3,3,3s3-1.3,3-3s-1.3-3-3-3
	S13,1.3,13,3z M29,13c-1.7,0-3,1.3-3,3s1.3,3,3,3s3-1.3,3-3S30.7,13,29,13z M0,16c0,1.7,1.3,3,3,3s3-1.3,3-3s-1.3-3-3-3S0,14.3,0,16
	z M23.1,4.7c-0.8,0.8-1.1,1.9-0.8,2.9c0.3,1,1.1,1.8,2.1,2.1s2.1,0,2.9-0.8c1.2-1.2,1.2-3.1,0-4.2S24.2,3.5,23.1,4.7z M23.1,23.1
	C22.3,23.8,22,25,22.3,26c0.3,1.1,1.1,1.9,2.2,2.2c1.1,0.3,2.2-0.1,2.9-0.9c1.2-1.2,1.2-3.1,0-4.2C26.1,21.9,24.2,21.9,23.1,23.1z
	 M8.9,4.7C8.2,3.9,7.1,3.6,6,3.9C5,4.2,4.2,5,3.9,6s0,2.1,0.8,2.9C5.4,9.7,6.6,10,7.6,9.7s1.8-1.1,2.1-2.1S9.7,5.4,8.9,4.7z"/>
</svg>
