<svg width="32" height="32" viewBox="0 0 32 32" fill="none" xmlns="http://www.w3.org/2000/svg">
<path d="M14.3857 7.09754C14.0898 6.82505 13.8534 6.49844 13.6904 6.13687C13.5274 5.77529 13.4411 5.38604 13.4366 4.99195C13.4321 4.59786 13.5095 4.20688 13.6642 3.84194C13.8188 3.47701 14.0477 3.14547 14.3374 2.86679C14.627 2.58811 14.9716 2.3679 15.3509 2.21909C15.7302 2.07027 16.1366 1.99584 16.5462 2.00018C16.9558 2.00451 17.3603 2.08752 17.7362 2.24432C18.112 2.40113 18.4514 2.62858 18.7346 2.91332C19.2906 3.47224 19.5969 4.21839 19.5881 4.99195C19.5792 5.76552 19.2559 6.505 18.6873 7.05202C18.1188 7.59905 17.3502 7.91013 16.5462 7.91863C15.7422 7.92714 14.9666 7.6324 14.3857 7.09754ZM23.7533 9.18208C23.6094 9.04355 23.4953 8.87911 23.4175 8.69815C23.3397 8.5172 23.2997 8.32327 23.2998 8.12744C23.2998 7.9316 23.34 7.7377 23.418 7.55681C23.4959 7.37591 23.6102 7.21156 23.7542 7.07314C23.8981 6.93472 24.0691 6.82494 24.2571 6.75007C24.4452 6.67521 24.6468 6.63671 24.8503 6.63679C25.0539 6.63687 25.2554 6.67552 25.4434 6.75053C25.6314 6.82554 25.8022 6.93545 25.9461 7.07398C26.2367 7.35353 26.3999 7.73269 26.3999 8.12803C26.3999 8.52337 26.2367 8.90253 25.9461 9.18208C25.6556 9.46163 25.2615 9.61868 24.8506 9.61868C24.4397 9.61868 24.0456 9.46163 23.755 9.18208H23.7533ZM26.3221 16.8876C26.1785 16.5514 26.1415 16.1819 26.2157 15.8255C26.2899 15.4691 26.4721 15.1418 26.7392 14.8848C27.0063 14.6278 27.3465 14.4525 27.717 14.3811C28.0874 14.3097 28.4715 14.3453 28.8209 14.4834C29.1113 14.5995 29.3674 14.7826 29.5667 15.0166C29.766 15.2506 29.9023 15.5283 29.9634 15.825C30.0246 16.1218 30.0088 16.4285 29.9175 16.7179C29.8261 17.0074 29.662 17.2707 29.4397 17.4847C29.2173 17.6986 28.9436 17.8565 28.6428 17.9444C28.3419 18.0323 28.0232 18.0474 27.7147 17.9886C27.4063 17.9297 27.1177 17.7986 26.8745 17.6069C26.6313 17.4151 26.441 17.1687 26.3203 16.8893L26.3221 16.8876ZM22.6656 24.2819C22.6656 24.8562 22.9027 25.407 23.3248 25.813C23.7468 26.2191 24.3193 26.4472 24.9161 26.4472C25.513 26.4472 26.0855 26.2191 26.5075 25.813C26.9296 25.407 27.1667 24.8562 27.1667 24.2819C27.1667 23.7077 26.9296 23.1569 26.5075 22.7508C26.0855 22.3448 25.513 22.1166 24.9161 22.1166C24.3193 22.1166 23.7468 22.3448 23.3248 22.7508C22.9027 23.1569 22.6656 23.7077 22.6656 24.2819ZM14.0989 28.4779C13.963 28.1725 13.8914 27.8442 13.8884 27.512C13.8853 27.1798 13.9509 26.8503 14.0811 26.5427C14.2114 26.235 14.4039 25.9553 14.6474 25.7197C14.8909 25.4842 15.1806 25.2974 15.4996 25.1704C15.8187 25.0434 16.1608 24.9785 16.506 24.9796C16.8513 24.9807 17.193 25.0478 17.5111 25.1769C17.8293 25.306 18.1177 25.4946 18.3595 25.7317C18.6013 25.9688 18.7919 26.2498 18.92 26.5583C19.1747 27.1716 19.168 27.8567 18.9012 28.4653C18.6345 29.0738 18.1292 29.5567 17.495 29.8092C16.8607 30.0618 16.1486 30.0637 15.5129 29.8145C14.8772 29.5653 14.3692 29.0851 14.0989 28.4779ZM5.30843 24.1541C5.30843 24.8955 5.61453 25.6065 6.1594 26.1307C6.70427 26.6549 7.44327 26.9494 8.21383 26.9494C8.98439 26.9494 9.72339 26.6549 10.2683 26.1307C10.8131 25.6065 11.1192 24.8955 11.1192 24.1541C11.1192 23.4127 10.8131 22.7017 10.2683 22.1775C9.72339 21.6532 8.98439 21.3587 8.21383 21.3587C7.44327 21.3587 6.70427 21.6532 6.1594 22.1775C5.61453 22.7017 5.30843 23.4127 5.30843 24.1541ZM5.13531 8.19449C5.13531 8.97915 5.45929 9.73167 6.03597 10.2865C6.61264 10.8413 7.39479 11.1531 8.21033 11.1531C9.02588 11.1531 9.80802 10.8413 10.3847 10.2865C10.9614 9.73167 11.2853 8.97915 11.2853 8.19449C11.2853 7.40983 10.9614 6.6573 10.3847 6.10247C9.80802 5.54763 9.02588 5.23592 8.21033 5.23592C7.39479 5.23592 6.61264 5.54763 6.03597 6.10247C5.45929 6.6573 5.13531 7.40983 5.13531 8.19449ZM2.24653 17.172C2.09002 16.8284 2.00632 16.4583 2.00034 16.0832C1.99437 15.7082 2.06622 15.3357 2.2117 14.9877C2.35719 14.6397 2.57337 14.3232 2.8476 14.0565C3.12183 13.7899 3.4486 13.5786 3.80876 13.435C4.16892 13.2914 4.55524 13.2184 4.9451 13.2203C5.33495 13.2221 5.72051 13.2987 6.0792 13.4457C6.43788 13.5927 6.76248 13.8071 7.03398 14.0763C7.30549 14.3454 7.51844 14.664 7.66038 15.0134C7.93962 15.7007 7.92768 16.466 7.62712 17.1449C7.32656 17.8239 6.76133 18.3624 6.05275 18.6449C5.34417 18.9274 4.54871 18.9314 3.8371 18.6561C3.12549 18.3807 2.55444 17.8479 2.24653 17.172Z" fill="currentColor"/>
</svg>
