<?xml version="1.0" standalone="no"?><!DOCTYPE svg PUBLIC "-//W3C//DTD SVG 1.1//EN" "http://www.w3.org/Graphics/SVG/1.1/DTD/svg11.dtd"><svg t="1761876744626" class="icon" viewBox="0 0 1024 1024" version="1.1" xmlns="http://www.w3.org/2000/svg" p-id="19354" xmlns:xlink="http://www.w3.org/1999/xlink" width="200" height="200"><path d="M537.6 80l128 256c3.2 9.6 12.8 12.8 19.2 16l284.8 41.6c22.4 3.2 32 32 16 48L777.6 640c-6.4 6.4-9.6 16-6.4 25.6l48 281.6c3.2 22.4-19.2 38.4-38.4 28.8l-252.8-134.4c-6.4-3.2-16-3.2-25.6 0l-252.8 134.4c-19.2 9.6-44.8-6.4-38.4-28.8l48-281.6c0-9.6 0-19.2-6.4-25.6l-204.8-201.6c-16-16-6.4-44.8 16-48l284.8-41.6c9.6 0 16-6.4 19.2-16l128-256c0-19.2 32-19.2 41.6 3.2z" fill="#999999" p-id="19355"></path></svg>