<svg width="32" height="32" viewBox="0 0 32 32" fill="none" xmlns="http://www.w3.org/2000/svg">
<path d="M23.847 30.5C23.4146 30.5 22.9225 30.3838 22.4752 30.1513L16.0042 26.9985L9.48846 30.1513C9.07097 30.3692 8.60876 30.4855 8.11672 30.4855C7.49049 30.4855 6.87917 30.2966 6.38714 29.9334C5.47762 29.265 5.0154 28.1172 5.22414 27.0566L6.55115 20.3297L1.43696 15.6949C0.646716 14.9103 0.348513 13.7916 0.646716 12.731L0.661627 12.7019C1.03438 11.6122 1.95881 10.8567 3.07708 10.7114L10.1743 9.44739L13.3502 3.14178C13.8571 2.13928 14.9009 1.5 16.0042 1.5C17.1523 1.5 18.2258 2.16834 18.6731 3.15631L21.849 9.44739L28.9462 10.6533C30.0645 10.8131 31.0039 11.5977 31.317 12.6728C31.6748 13.7189 31.3766 14.8667 30.5715 15.6513L30.5565 15.6658L25.4722 20.3442L26.7544 27.0857C26.9632 28.1608 26.5159 29.2505 25.6064 29.9334C25.0845 30.2966 24.4732 30.5 23.847 30.5Z" fill="currentColor"/>
</svg>
