<?xml version="1.0" standalone="no"?><!DOCTYPE svg PUBLIC "-//W3C//DTD SVG 1.1//EN" "http://www.w3.org/Graphics/SVG/1.1/DTD/svg11.dtd"><svg t="1761888716599" class="icon" viewBox="0 0 1024 1024" version="1.1" xmlns="http://www.w3.org/2000/svg" p-id="26389" xmlns:xlink="http://www.w3.org/1999/xlink" width="200" height="200"><path d="M512 32c16 0 32 9.6 38.4 25.6l124.8 256 278.4 41.6c16 3.2 28.8 12.8 35.2 28.8s0 32-9.6 44.8l-201.6 201.6 48 281.6c3.2 16-3.2 32-19.2 41.6-12.8 9.6-32 9.6-44.8 3.2L512 825.6 262.4 960c-16 6.4-32 6.4-44.8-3.2-12.8-9.6-19.2-25.6-19.2-41.6l48-281.6-201.6-201.6c-12.8-16-16-32-9.6-48s19.2-25.6 35.2-28.8l278.4-41.6 124.8-256c6.4-16 22.4-25.6 38.4-25.6z m0 144l-96 198.4c-6.4 12.8-19.2 22.4-32 25.6l-214.4 32 156.8 153.6c9.6 9.6 16 25.6 12.8 38.4l-38.4 217.6 192-102.4c12.8-6.4 28.8-6.4 41.6 0l192 102.4-35.2-217.6c-3.2-12.8 3.2-28.8 12.8-38.4l156.8-153.6-214.4-32c-12.8-3.2-25.6-9.6-32-25.6L512 176z" fill="#999999" p-id="26390"></path></svg>