<?xml version="1.0" encoding="utf-8"?>
<!-- Generator: Adobe Illustrator 21.0.0, SVG Export Plug-In . SVG Version: 6.00 Build 0)  -->
<svg version="1.1" id="图层_1" xmlns="http://www.w3.org/2000/svg" xmlns:xlink="http://www.w3.org/1999/xlink" x="0px" y="0px"
	 viewBox="0 0 32 32" style="enable-background:new 0 0 32 32;" xml:space="preserve">
<style type="text/css">
	.st0{fill:#949494;}
</style>
<title>statistic</title>
<desc>Created with Sketch.</desc>
<g id="statistic">
	<path id="形状结合" class="st0" d="M5.5,15C6.9,15,8,16.1,8,17.5V28H3V17.5C3,16.1,4.1,15,5.5,15z M12.5,4
		C13.9,4,15,5.1,15,6.5V28h-5V6.5C10,5.1,11.1,4,12.5,4z M19.5,10c1.4,0,2.5,1.1,2.5,2.5V28h-5V12.5C17,11.1,18.1,10,19.5,10z
		 M26.5,18c1.4,0,2.5,1.1,2.5,2.5V28h-5v-7.5C24,19.1,25.1,18,26.5,18z"/>
</g>
</svg>
