<?xml version="1.0" encoding="utf-8"?>
<!-- Generator: Adobe Illustrator 21.0.0, SVG Export Plug-In . SVG Version: 6.00 Build 0)  -->
<svg version="1.1" id="图层_1" xmlns="http://www.w3.org/2000/svg" xmlns:xlink="http://www.w3.org/1999/xlink" x="0px" y="0px"
	 viewBox="0 0 32 32" style="enable-background:new 0 0 32 32;" xml:space="preserve">
<style type="text/css">
	.st0{fill:#949494;}
</style>
<title>app-statistics</title>
<g id="app-statistics">
	<g id="统计" transform="translate(1.000000, 1.000000)">
		<path fill="currentColor" id="形状结合" class="st0" d="M12.3,12.9c0.4,0,0.8,0.4,0.8,0.9v15.3c0,0.5-0.3,0.9-0.8,0.9H9.8C9.3,30,9,29.6,9,29.1
			V13.8c0-0.5,0.3-0.9,0.8-0.9H12.3z M29.3,10c0.4,0,0.8,0.4,0.8,0.9v18.2c0,0.5-0.3,0.9-0.8,0.9h-2.5c-0.4,0-0.8-0.4-0.8-0.9V10.9
			c0-0.5,0.3-0.9,0.8-0.9H29.3z M20.3,17.6c0.4,0,0.8,0.4,0.8,0.9v10.6c0,0.5-0.3,0.9-0.8,0.9h-2.5c-0.4,0-0.8-0.4-0.8-0.9V18.5
			c0-0.5,0.3-0.9,0.8-0.9H20.3z M3.3,19.5c0.4,0,0.8,0.4,0.8,0.9v8.7C4,29.6,3.7,30,3.3,30H0.8C0.3,30,0,29.6,0,29.1v-8.7
			c0-0.5,0.3-0.9,0.8-0.9H3.3z M30,0l-0.7,6.6l-1.7-1.8l-7.3,9.6c-0.2,0.3-0.5,0.4-0.9,0.5c-0.3,0-0.7-0.1-0.9-0.4l0,0l-7.1-7
			l-9.3,9c-0.2,0.2-0.5,0.3-0.8,0.3c-0.3,0-0.7-0.1-0.9-0.4c-0.5-0.5-0.4-1.4,0.1-1.9l0,0l10.2-9.8c0.5-0.4,1.2-0.4,1.7,0l0,0
			l6.9,6.8l6.7-8.7l-2-2.2L30,0z"/>
	</g>
</g>
</svg>
