<?xml version="1.0" encoding="utf-8"?>
<!-- Generator: Adobe Illustrator 21.0.0, SVG Export Plug-In . SVG Version: 6.00 Build 0)  -->
<svg version="1.1" id="图层_1" xmlns="http://www.w3.org/2000/svg" xmlns:xlink="http://www.w3.org/1999/xlink" x="0px" y="0px"
	 viewBox="0 0 32 32" style="enable-background:new 0 0 32 32;" xml:space="preserve">
<style type="text/css">
	.st0{fill:#949494;}
</style>
<title>switch</title>
<g id="switch">
	<g id="batch-replacement" transform="translate(1.000000, 3.000000)">
		<path id="形状" class="st0" d="M9.1,11.7V8.9h12.8c1.4,0,2.5,1.2,3,2.3c0.4-0.6,0.7-1.8,0.7-2.7c0-2.1-1.7-4.5-3.8-4.5H9.1V0.7
			c0-0.5-0.5-0.9-1-0.5L0.2,5.7c-0.3,0.2-0.3,0.8,0,1.1l7.8,5.6C8.6,12.6,9.1,12.3,9.1,11.7z M29.8,20.2l-7.8-5.6
			c-0.4-0.3-1,0-1,0.5v3.2H8.1c-1.4,0-2.4-1.4-3.1-2.6c-0.4,0.6-0.8,2-0.8,2.9c0,2.1,1.7,4.3,3.8,4.3h12.8v3.2c0,0.5,0.5,0.9,1,0.5
			l7.8-5.6C30.1,21,30.1,20.5,29.8,20.2L29.8,20.2z"/>
	</g>
</g>
</svg>
