<?xml version="1.0" encoding="utf-8"?>
<!-- Generator: Adobe Illustrator 21.0.0, SVG Export Plug-In . SVG Version: 6.00 Build 0)  -->
<svg version="1.1" id="图层_1" xmlns="http://www.w3.org/2000/svg" xmlns:xlink="http://www.w3.org/1999/xlink" x="0px" y="0px"
	 viewBox="0 0 32 32" style="enable-background:new 0 0 32 32;" xml:space="preserve">
<style type="text/css">
	.st0{fill:#949494;}
</style>
<title>table</title>
<g id="table">
	<g id="form">
		<path id="形状结合" class="st0" d="M27,2c1.7,0,3,1.3,3,3v22c0,1.7-1.3,3-3,3H5c-1.7,0-3-1.3-3-3V5c0-1.7,1.3-3,3-3H27z
			 M10,22H5v4c0,0.5,0.4,0.9,0.9,1L6,27h4V22z M19,22h-6v5h6V22z M27,22h-5v5h4c0.5,0,0.9-0.4,1-0.9l0-0.1V22z M10,13H5v6h5V13z
			 M19,13h-6v6h6V13z M27,13h-5v6h5V13z M26,5H6C5.5,5,5.1,5.4,5,5.9L5,6v4h22V6C27,5.4,26.6,5,26,5z"/>
	</g>
</g>
</svg>
