<svg width="32" height="32" viewBox="0 0 32 32" fill="none" xmlns="http://www.w3.org/2000/svg">
<path fill-rule="evenodd" clip-rule="evenodd" d="M2.33691 6.33796C2.33691 4.12882 4.12873 2.33701 6.33787 2.33701L15.5952 2.33839C16.656 2.33844 17.6735 2.75943 18.4236 3.50953L30.8283 15.9143C32.3904 17.4764 32.3904 20.009 30.8283 21.5711L21.571 30.8284C20.0089 32.3905 17.4763 32.3905 15.9142 30.8284L3.50944 18.4237C2.7594 17.6736 2.33841 16.656 2.3383 15.5953L2.33691 6.33796ZM9.96593 9.66633C8.73062 10.9019 8.73047 12.9055 9.96593 14.141C11.2014 15.3763 13.2051 15.3762 14.4406 14.141C15.6761 12.9055 15.6759 10.9019 14.4406 9.66633C13.205 8.43079 11.2015 8.43079 9.96593 9.66633Z" fill="currentColor"/>
</svg>
