<svg width="32" height="32" viewBox="0 0 32 32" fill="none" xmlns="http://www.w3.org/2000/svg">
<path fill-rule="evenodd" clip-rule="evenodd" d="M9.70996 9.70825C11.4673 7.95089 14.3159 7.95089 16.0732 9.70825C17.8304 11.4656 17.8305 14.3142 16.0732 16.0715C14.3159 17.8287 11.4673 17.8287 9.70996 16.0715C7.95263 14.3142 7.95269 11.4656 9.70996 9.70825ZM13.9521 11.8293C13.3664 11.2436 12.4168 11.2436 11.8311 11.8293C11.2454 12.4151 11.2453 13.3647 11.8311 13.9504C12.4168 14.536 13.3664 14.5361 13.9521 13.9504C14.5379 13.3647 14.5377 12.4151 13.9521 11.8293Z" fill="currentColor"/>
<path fill-rule="evenodd" clip-rule="evenodd" d="M13.8389 1.59888C15.4068 1.50687 16.9391 2.08983 18.0498 3.20044L28.7998 13.9504C30.9477 16.0983 30.9477 19.5799 28.7998 21.7278L21.7295 28.8C19.5818 30.9473 16.0999 30.9472 13.9521 28.8L3.20215 18.05C2.09139 16.9393 1.50653 15.4053 1.59863 13.8372L1.99121 7.15747C2.15537 4.37478 4.37643 2.15347 7.15918 1.9895L13.8389 1.59888ZM14.0127 4.59302L7.33496 4.9856C6.07082 5.06053 5.06237 6.06915 4.9873 7.33325L4.59473 14.0129C4.55298 14.7255 4.81852 15.4222 5.32324 15.927L16.0732 26.679C17.0495 27.6545 18.6323 27.6546 19.6084 26.679L26.6787 19.6067C27.655 18.6304 27.655 17.0478 26.6787 16.0715L15.9287 5.32153C15.4238 4.81667 14.7255 4.55109 14.0127 4.59302Z" fill="currentColor"/>
</svg>
