<?xml version="1.0" encoding="UTF-8"?>
<svg width="15px" height="15px" viewBox="0 0 15 15" version="1.1" xmlns="http://www.w3.org/2000/svg" xmlns:xlink="http://www.w3.org/1999/xlink">
    <path d="M13.7515136,5.93572645 L8.28976642,0.621080351 C7.879571,0.222593643 7.32333684,-0.000847143079 6.7436592,2.41376939e-06 L2.18654926,2.41376939e-06 C0.979680972,2.41376939e-06 0,0.950120356 0,2.12526321 L0,6.55780208 C0,7.12087054 0.230271291,7.66193631 0.64044202,8.06098482 L6.10527317,13.3776312 C6.95834688,14.2074603 8.34132992,14.2074603 9.19440364,13.3776312 L13.7515136,8.94309205 C14.6047509,8.11299113 14.6047509,6.76682748 13.7515136,5.93672657 L13.7515136,5.93572645 Z M12.1129482,8.06825704 L8.34330379,11.7695888 C7.91766113,12.1834794 7.22778724,12.1834794 6.80214458,11.7695888 L2.11187052,7.05109716 C1.90701239,6.85210202 1.79175754,6.58211021 1.79144107,6.30047085 L1.79144107,2.74606218 C1.79169751,2.46489086 1.9068179,2.19534855 2.11144974,1.99679547 C2.31608157,1.79824239 2.59344239,1.68696248 2.88245014,1.68746078 L6.64338195,1.68746078 C6.93283334,1.68746078 7.20969987,1.79859659 7.41396155,1.99731949 L12.1119801,6.56794622 C12.5379286,6.98234468 12.5379286,7.65385856 12.1119801,8.06825704 L12.1129482,8.06825704 Z" id="image2"></path>
    <path d="M5.19151264,2.9941275 C4.08690365,2.9941275 3.19144113,3.86530858 3.19144113,4.93996491 C3.19144113,6.01462124 4.08690365,6.88580232 5.19151264,6.88580232 C6.29612164,6.88580232 7.19158415,6.01462124 7.19158415,4.93996491 C7.19158415,3.86530858 6.29612164,2.9941275 5.19151264,2.9941275 L5.19151264,2.9941275 Z M4.88150156,5.43615345 C4.69675086,5.322975 4.58976949,5.12109806 4.60216374,4.9090349 C4.61455799,4.69697174 4.74437157,4.50819414 4.94111847,4.41611989 C5.13786537,4.32404563 5.37049132,4.34320761 5.54852541,4.4661535 C5.81754925,4.64750572 5.88755949,5.00514843 5.70588358,5.2700074 C5.52420766,5.53486636 5.15787671,5.60921928 4.88250159,5.43712636 L4.88150156,5.43615345 Z" id="image"></path>
</svg>