<?xml version="1.0" encoding="UTF-8"?><svg version="1.1" viewBox="0 0 24 24" xmlns="http://www.w3.org/2000/svg" xmlns:xlink="http://www.w3.org/1999/xlink"><!--Generated by IJSVG (https://github.com/iconjar/IJSVG)--><path d="M13.0123,19.3233l7.07107,-7.07107l-9.40841,-9.40842l-6.84754,-0.297719c-0.0144722,-0.00062923 -0.028965,-0.00062923 -0.0434372,0c-0.275882,0.0119949 -0.489804,0.245365 -0.477809,0.521247l0.297719,6.84754l9.40842,9.40842Zm-10.7052,-16.2125c-0.0359846,-0.827645 0.605783,-1.52776 1.43343,-1.56374c0.0434167,-0.00188768 0.086895,-0.00188768 0.130312,0l7.23616,0.314616l10.3906,10.3906l-8.48528,8.48528l-10.3906,-10.3906l-0.314616,-7.23616Zm5.75544,4.1917c-0.585786,0.585786 -1.53553,0.585786 -2.12132,0c-0.585786,-0.585786 -0.585786,-1.53553 0,-2.12132c0.585786,-0.585786 1.53553,-0.585786 2.12132,0c0.585786,0.585786 0.585786,1.53553 0,2.12132Zm-0.707107,-0.707107c0.195262,-0.195262 0.195262,-0.511845 0,-0.707107c-0.195262,-0.195262 -0.511845,-0.195262 -0.707107,0c-0.195262,0.195262 -0.195262,0.511845 0,0.707107c0.195262,0.195262 0.511845,0.195262 0.707107,0Z" fill="#979797" stroke="none"></path></svg>