<svg width="20" height="20" viewBox="0 0 20 20" fill="none" xmlns="http://www.w3.org/2000/svg">
<path d="M15 1C16.1046 1 17 1.89543 17 3V4.31738L9.67285 11.6445L9.5 15H13L17 11V17C17 18.1046 16.1046 19 15 19H3C1.89543 19 1 18.1046 1 17V3C1 1.89543 1.89543 1 3 1H15ZM3.5 8.25V9.75H8.5V8.25H3.5ZM3.5 4.75V6.25H10.5V4.75H3.5Z" fill="currentColor"/>
<path d="M17.2519 5.585C17.4472 5.38974 17.7638 5.38974 17.959 5.585L19.0832 6.70921C19.2785 6.90447 19.2785 7.22105 19.0832 7.41631L12.4995 14L10.4995 14L10.6213 12.2157L17.2519 5.585Z" fill="currentColor"/>
</svg>
