<?xml version="1.0" standalone="no"?><!DOCTYPE svg PUBLIC "-//W3C//DTD SVG 1.1//EN" "http://www.w3.org/Graphics/SVG/1.1/DTD/svg11.dtd"><svg t="1761877011224" class="icon" viewBox="0 0 1024 1024" version="1.1" xmlns="http://www.w3.org/2000/svg" p-id="21604" xmlns:xlink="http://www.w3.org/1999/xlink" width="200" height="200"><path d="M768 64c35.2 0 64 28.8 64 64v121.6L448 624v166.4h153.6l230.4-224V896c0 35.2-28.8 64-64 64H128c-35.2 0-64-28.8-64-64V128c0-35.2 28.8-64 64-64h640zM275.2 678.4h-3.2c-25.6 3.2-57.6 25.6-96 70.4-25.6 32-44.8 60.8-44.8 64-6.4 6.4-3.2 19.2 6.4 22.4 3.2 0 3.2 3.2 6.4 3.2 6.4 0 16-3.2 19.2-9.6 35.2-54.4 86.4-115.2 112-118.4h3.2s6.4 6.4 0 32v3.2c-3.2 12.8-12.8 54.4 19.2 67.2h6.4c28.8 3.2 44.8-19.2 57.6-32 0 0 0-3.2 3.2-3.2l6.4-6.4h3.2c-6.4 16-3.2 35.2 9.6 44.8 6.4 6.4 19.2 9.6 28.8 9.6 25.6-3.2 35.2-28.8 38.4-38.4 6.4-16 0-22.4-6.4-25.6-9.6-3.2-19.2 0-25.6 6.4-3.2 3.2-6.4 6.4-6.4 9.6 3.2-12.8 6.4-35.2-12.8-48-32-16-57.6 19.2-67.2 28.8-6.4 9.6-9.6 12.8-12.8 12.8h-3.2c0-3.2-3.2-9.6 0-22.4v-3.2c3.2-16 9.6-38.4-6.4-57.6-6.4-9.6-16-12.8-28.8-12.8l-6.4 3.2z m515.2-304c6.4-6.4 16-6.4 19.2-3.2l54.4 54.4c3.2 3.2 3.2 12.8-3.2 19.2l-281.6 281.6c-6.4 6.4-16 6.4-19.2 3.2l-73.6 19.2 19.2-73.6c-3.2-3.2-3.2-12.8 3.2-19.2l281.6-281.6zM480 416H224v96h256v-96z m403.2-134.4c6.4-6.4 16-6.4 22.4 0l51.2 51.2c6.4 6.4 6.4 16 0 22.4L896 412.8c-6.4 6.4-16 6.4-22.4 0l-51.2-51.2c-6.4-6.4-6.4-16 0-22.4l60.8-57.6zM672 224H224v96h448V224z" fill="#999999" p-id="21605"></path></svg>