<?xml version="1.0" encoding="utf-8"?>
<!-- Generator: Adobe Illustrator 21.0.0, SVG Export Plug-In . SVG Version: 6.00 Build 0)  -->
<svg version="1.1" id="图层_1" xmlns="http://www.w3.org/2000/svg" xmlns:xlink="http://www.w3.org/1999/xlink" x="0px" y="0px"
	 viewBox="0 0 32 32" style="enable-background:new 0 0 32 32;" xml:space="preserve">
<style type="text/css">
	.st0{fill:#999999;}
</style>
<title>time</title>
<g id="time">
	<path id="形状" class="st0" d="M28,16c0-6.6-5.4-12-12-12S4,9.4,4,16s5.4,12,12,12S28,22.6,28,16 M31,16c0,8.2-6.8,15-15,15
		S1,24.2,1,16S7.8,1,16,1S31,7.8,31,16 M25,17.5c0,0.8-0.7,1.5-1.5,1.5h-6c-1.7,0-3-1.3-3-3V8.5C14.5,7.7,15.2,7,16,7
		s1.5,0.7,1.5,1.5v6c0,0.8,0.7,1.5,1.5,1.5h4.5C24.3,16,25,16.7,25,17.5"/>
</g>
</svg>
