<svg width="32" height="32" viewBox="0 0 32 32" fill="none" xmlns="http://www.w3.org/2000/svg">
<path d="M30.8577 25.7152C31.6347 27.0483 30.6723 28.7228 29.1292 28.7231H20.0003V29.2856C19.9997 29.67 19.5834 29.9094 19.2503 29.7172L14.7503 27.1195C14.4169 26.9271 14.4169 26.4468 14.7503 26.2543L19.2503 23.6547C19.5834 23.4631 20 23.7039 20.0003 24.0883V25.7231H27.3889L24.9261 21.5024L27.5237 20.0024L30.8577 25.7152Z" fill="currentColor"/>
<path d="M9.25027 13.727C9.58351 13.5351 10.0003 13.7759 10.0003 14.1606V19.3559C10.0003 19.7407 9.58355 19.9816 9.25027 19.7895L8.36746 19.2797L4.6116 25.7231H12.0003V28.7231H2.87137C1.32788 28.7231 0.36538 27.0485 1.14285 25.7152L5.7698 17.7797L4.75027 17.1918C4.41694 16.9994 4.41694 16.5171 4.75027 16.3246L9.25027 13.727Z" fill="currentColor"/>
<path d="M14.43 2.97501C15.2221 1.96198 16.7784 1.96199 17.5706 2.97501L17.7288 3.20744L23.2913 12.7445L24.2503 12.1918C24.5836 11.9996 25.0003 12.2406 25.0003 12.6254V17.8207C25.0002 18.2053 24.5835 18.4461 24.2503 18.2543L19.7503 15.6547C19.417 15.4622 19.4169 14.9819 19.7503 14.7895L20.6917 14.2445L16.0003 6.19767L12.0061 13.0414L9.40848 11.5414L14.2718 3.20744L14.43 2.97501Z" fill="currentColor"/>
</svg>
