<?xml version="1.0" encoding="utf-8"?>
<!-- Generator: Adobe Illustrator 21.0.0, SVG Export Plug-In . SVG Version: 6.00 Build 0)  -->
<svg version="1.1" id="图层_1" xmlns="http://www.w3.org/2000/svg" xmlns:xlink="http://www.w3.org/1999/xlink" x="0px" y="0px"
	 viewBox="0 0 32 32" style="enable-background:new 0 0 32 32;" xml:space="preserve">
<style type="text/css">
	.st0{fill:#999999;}
</style>
<path class="st0" d="M18.8,26.3V25c0-0.6-0.4-1-1-1s-0.9,0.2-1.2,0.4l-3.2,3.2c1.9,2.3,3,3.5,3.2,3.7c0.3,0.3,0.6,0.4,1.1,0.4
	c0.4,0,1.1-0.3,1.1-0.9v-1.4h11.1c1.2,0,2.1-0.9,2.1-2.1c0-0.4-0.1-0.7-0.3-1L26.5,17l-0.4,2.3l-2.2-0.8l4.2,7.9h-9.3V26.3z M8.5,18
	l1.1,0.6c0.4,0.2,1.1,0.1,1.4-0.3c0.3-0.4,0.3-0.8,0.2-1.3c-0.1-0.3-0.5-1.8-1.2-4.3l-4.8,0.9c-0.5,0.1-0.9,0.3-1,0.7
	s-0.1,1.1,0.5,1.4l1.2,0.7L0.3,26C-0.3,27.2,0,28.4,1,29c0.3,0.2,0.7,0.3,1,0.3l10.7,0.2L11,27.9l1.8-1.5l-8.9-0.3L8.5,18z
	 M20.9,13.2l-1.1,0.7c-0.5,0.3-0.7,1-0.4,1.5c0.1,0.2,0.5,0.5,0.9,0.6l4.6,1.2l1.6-4.3c0.2-0.5,0.3-1.2-0.3-1.8
	c-0.5-0.4-1.1-0.2-1.3-0.1l-1.3,0.7L18,2c-0.6-1.1-1.8-1.5-2.8-0.9c-0.3,0.2-0.6,0.5-0.8,0.8l-5.5,9.2l2.2-0.8l0.4,2.3L16.2,5
	L20.9,13.2z"/>
</svg>
