<?xml version="1.0" encoding="utf-8"?>
<!-- Generator: Adobe Illustrator 21.0.0, SVG Export Plug-In . SVG Version: 6.00 Build 0)  -->
<svg version="1.1" id="图层_1" xmlns="http://www.w3.org/2000/svg" xmlns:xlink="http://www.w3.org/1999/xlink" x="0px" y="0px"
	 viewBox="0 0 40 40" style="enable-background:new 0 0 40 40;" xml:space="preserve">
<style type="text/css">
	.st0{fill:#FFEECC;}
	.st1{fill:#FFAA00;}
</style>
<title>trigger</title>
<g id="页面-1">
	<g id="Seafile_Workflow5" transform="translate(-332.000000, -357.000000)">
		<g id="编组-39" transform="translate(320.000000, 146.000000)">
			<g id="编组-14备份" transform="translate(0.000000, 199.000000)">
				<g id="trigger" transform="translate(12.000000, 12.000000)">
					<path id="矩形" class="st0" d="M6,0h28c3.3,0,6,2.7,6,6v28c0,3.3-2.7,6-6,6H6c-3.3,0-6-2.7-6-6V6C0,2.7,2.7,0,6,0z"/>
					<path id="形状" class="st1" d="M31.2,26.4c0.4,0.2,0.3,0.5-0.1,0.6c0,0-2,0.5-3.5,1.1l2.1,3.1c0.2,0.3,0.1,0.7-0.2,0.9
						L29,32.5c-0.1,0.1-0.3,0.1-0.5,0.1c-0.2,0-0.3-0.1-0.4-0.3l-2.1-3.1c-1.1,1.1-2.5,3-2.5,3c-0.2,0.3-0.5,0.3-0.6-0.1L20.7,21
						c-0.1-0.4,0.2-0.6,0.5-0.4L31.2,26.4L31.2,26.4z M30.5,24.6l-2-1.1c0.5-1.2,0.8-2.4,0.8-3.7c0-5-4.1-9.1-9.2-9.1
						c-5.1,0-9.2,4.1-9.2,9.1c0,5,4.1,9.1,9.2,9.1c0.2,0,0.4,0,0.5,0l0.4,2.2c-0.3,0-0.6,0-1,0c-6.3,0-11.5-5.1-11.5-11.3
						c0-6.3,5.2-11.3,11.5-11.3c6.4,0,11.5,5.1,11.5,11.3C31.5,21.5,31.1,23.1,30.5,24.6z"/>
				</g>
			</g>
		</g>
	</g>
</g>
</svg>
