<svg width="32" height="32" viewBox="0 0 32 32" fill="none" xmlns="http://www.w3.org/2000/svg">
<path d="M22.4141 15.9746L17.4648 20.9238L16.0508 19.5098L19.5859 15.9746L16.0508 12.4395L17.4648 11.0254L22.4141 15.9746Z" fill="black"/>
<path fill-rule="evenodd" clip-rule="evenodd" d="M26 3C27.6569 3 29 4.34315 29 6V26C29 27.6569 27.6569 29 26 29H6C4.34315 29 3 27.6569 3 26V6C3 4.34315 4.34315 3 6 3H26ZM6 5C5.44771 5 5 5.44772 5 6V26C5 26.5523 5.44772 27 6 27H9V5H6ZM11 27H26C26.5523 27 27 26.5523 27 26V6C27 5.44771 26.5523 5 26 5H11V27Z" fill="black"/>
</svg>
