<svg width="16" height="16" viewBox="0 0 16 16" fill="none" xmlns="http://www.w3.org/2000/svg">
<path d="M13.5 3C13.5 2.72386 13.2761 2.5 13 2.5H3C2.72386 2.5 2.5 2.72386 2.5 3V13C2.5 13.2761 2.72386 13.5 3 13.5H13C13.2761 13.5 13.5 13.2761 13.5 13V3ZM14.5 13C14.5 13.8284 13.8284 14.5 13 14.5H3C2.17157 14.5 1.5 13.8284 1.5 13V3C1.5 2.17157 2.17157 1.5 3 1.5H13C13.8284 1.5 14.5 2.17157 14.5 3V13Z" fill="currentColor"/>
<path d="M5.5 2.5V14H4.5V2.5H5.5Z" fill="currentColor"/>
<path d="M8.02532 9.75481L9.79308 7.98704L8.02532 6.21927L8.73242 5.51217L11.2073 7.98704L8.73242 10.4619L8.02532 9.75481Z" fill="currentColor"/>
</svg>
