<?xml version="1.0" encoding="utf-8"?>
<!-- Generator: Adobe Illustrator 21.0.0, SVG Export Plug-In . SVG Version: 6.00 Build 0)  -->
<svg version="1.1" id="图层_1" xmlns="http://www.w3.org/2000/svg" xmlns:xlink="http://www.w3.org/1999/xlink" x="0px" y="0px"
	 viewBox="0 0 32 32" style="enable-background:new 0 0 32 32;" xml:space="preserve">
<style type="text/css">
	.st0{fill:#999999;}
</style>
<title>unlock</title>
<g id="unlock">
	<path id="形状结合" class="st0" d="M8,8c0-4.4,3.6-8,8-8c4.1,0,7.6,3,8,6.9c0.1,0.6-0.2,1.8-1.5,1.8c-1.3,0-1.6-1-1.7-1.6
		C20.3,4.8,18.3,3,16,3c-2.8,0-5,2.5-5,5.6V12h14.3c2,0,3.7,1.8,3.7,4v12c0,2.2-1.7,4-3.7,4H6.7c-2,0-3.7-1.8-3.7-4V16
		c0-2.2,1.7-4,3.7-4H8V8z M25,15H7c-0.6,0-1,0.4-1,1v12c0,0.6,0.4,1,1,1h18c0.6,0,1-0.4,1-1V16C26,15.4,25.6,15,25,15z"/>
</g>
</svg>
