<svg width="32" height="32" viewBox="0 0 32 32" fill="none" xmlns="http://www.w3.org/2000/svg">
<path d="M18 24H15V18H18V24Z" fill="currentColor"/>
<path fill-rule="evenodd" clip-rule="evenodd" d="M16.2441 0.494141C20.2535 0.502251 23.4995 3.75447 23.5 7.76367V7.99414H20.5V7.76367C20.4995 5.40902 18.593 3.49902 16.2383 3.49414C13.8767 3.48937 11.9595 5.40221 11.959 7.76367V12H28.5V19.0059C28.4999 25.9094 22.9035 31.5059 16 31.5059C9.09648 31.5059 3.50007 25.9094 3.5 19.0059V12H8.95898V7.76367C8.95947 3.74298 12.2233 0.486012 16.2441 0.494141ZM6.5 19.0059C6.50007 24.2525 10.7533 28.5059 16 28.5059C21.2467 28.5059 25.4999 24.2525 25.5 19.0059V15H6.5V19.0059Z" fill="currentColor"/>
</svg>
