<svg width="32" height="32" viewBox="0 0 32 32" fill="none" xmlns="http://www.w3.org/2000/svg">
<path fill-rule="evenodd" clip-rule="evenodd" d="M17.1377 28.3535L8.47168 21.8535H3.1377V8.85352H8.80762L17.1377 3.64648V28.3535ZM9.66699 11.8535H6.1377V18.8535H9.47168L14.1377 22.3535V9.05859L9.66699 11.8535Z" fill="currentColor"/>
<path d="M24.4951 7.70703C27.1677 9.99955 28.8623 13.4 28.8623 17.1973C28.8622 20.6489 27.4622 23.7732 25.2002 26.0352L23.0791 23.9141C24.7982 22.195 25.8622 19.8205 25.8623 17.1973C25.8623 14.3114 24.5731 11.7286 22.542 9.98633L24.4951 7.70703Z" fill="currentColor"/>
<path d="M20.5889 12.2656C21.9785 13.4577 22.8623 15.2228 22.8623 17.1973C22.8622 18.9921 22.1342 20.6168 20.958 21.793L18.8369 19.6719C19.4702 19.0386 19.8622 18.1637 19.8623 17.1973C19.8623 16.1338 19.3863 15.1829 18.6377 14.541L20.5889 12.2656Z" fill="currentColor"/>
</svg>
