<svg width="32" height="32" viewBox="0 0 32 32" fill="none" xmlns="http://www.w3.org/2000/svg">
<path d="M16.0047 1.60803C17.5628 1.60803 19.0739 2.47856 19.7556 3.89458H19.7566L22.2888 8.82535L27.9685 9.77428H27.9675C29.489 10.0022 30.8082 11.0518 31.282 12.5532H31.283C31.286 12.5618 31.2879 12.5708 31.2908 12.5794C31.2949 12.5928 31.3005 12.6057 31.3045 12.6191H31.3025C31.7931 14.1113 31.3394 15.7003 30.2322 16.7609L30.2185 16.7735C30.2083 16.7833 30.1978 16.7931 30.1873 16.8026L26.2058 20.4045L27.2078 25.5785L27.2537 25.8712C27.4293 27.3308 26.7628 28.7287 25.5916 29.5933C25.5772 29.6039 25.5623 29.6142 25.5476 29.6243C24.8415 30.1075 23.9938 30.392 23.1033 30.392C22.4757 30.3919 21.8098 30.2325 21.2097 29.9325V29.9335L16.0017 27.4395L10.7547 29.9355L10.7537 29.9345C10.1737 30.2242 9.53428 30.3794 8.86501 30.3794C8.00529 30.3794 7.13591 30.1251 6.41384 29.6011V29.6001C5.14778 28.6836 4.46593 27.0931 4.77517 25.5485H4.77614L5.81032 20.3938L1.81716 16.8365C1.80026 16.8214 1.78355 16.8058 1.76735 16.79C0.668293 15.7173 0.238503 14.1611 0.660907 12.6841C0.681207 12.6132 0.708426 12.5447 0.739032 12.4776C1.27702 11.0504 2.53153 10.0457 4.04274 9.82759L9.72927 8.83213L12.2654 3.88295L12.2664 3.88101C12.9825 2.4888 14.4444 1.60804 16.0047 1.60803ZM16.0047 4.58568C15.5674 4.58569 15.1399 4.84313 14.9383 5.23511L14.9373 5.23414L12.0642 10.8434C11.8506 11.2604 11.4522 11.554 10.9881 11.6353L4.56423 12.7597C4.54129 12.7637 4.518 12.7674 4.49489 12.7703C4.04858 12.8274 3.68655 13.1158 3.53493 13.5516C3.44244 13.9419 3.55187 14.3472 3.8611 14.6556L8.44997 18.745C8.84424 19.0963 9.02221 19.628 8.91872 20.1437L7.71852 26.1291C7.65869 26.428 7.76864 26.8107 8.05056 27.0848L8.18239 27.1953L8.18532 27.1972C8.35392 27.3195 8.59131 27.4017 8.86501 27.4017C9.07061 27.4017 9.25277 27.3546 9.41774 27.2699C9.43116 27.263 9.44514 27.257 9.45876 27.2505L15.3562 24.4444C15.7674 24.2489 16.2464 24.2497 16.657 24.4464L22.5144 27.2525L22.5486 27.2689C22.7493 27.3715 22.96 27.4143 23.1033 27.4143C23.3381 27.4143 23.5874 27.3404 23.8191 27.1885C24.2013 26.8965 24.3314 26.4957 24.2634 26.1514L24.2625 26.1455L23.1013 20.1466C23.0029 19.6377 23.1784 19.1145 23.5642 18.7654L28.1511 14.6149C28.4829 14.295 28.5696 13.8753 28.448 13.5254C28.4404 13.5037 28.4331 13.4816 28.4265 13.4595C28.3188 13.0957 27.974 12.7814 27.5095 12.7161C27.4966 12.7142 27.4834 12.7124 27.4705 12.7102L21.0466 11.6372C20.5783 11.559 20.1745 11.2653 19.9588 10.8453L17.0838 5.24674C17.0741 5.22796 17.0652 5.20871 17.0564 5.18955C16.9145 4.88151 16.5038 4.58568 16.0047 4.58568Z" fill="currentColor"/>
</svg>
