<?xml version="1.0" encoding="utf-8"?>
<!-- Generator: Adobe Illustrator 21.0.0, SVG Export Plug-In . SVG Version: 6.00 Build 0)  -->
<svg version="1.1" id="图层_1" xmlns="http://www.w3.org/2000/svg" xmlns:xlink="http://www.w3.org/1999/xlink" x="0px" y="0px"
	 viewBox="0 0 32 32" style="enable-background:new 0 0 32 32;" xml:space="preserve">
<style type="text/css">
	.st0{fill:#949494;}
</style>
<title>upload</title>
<desc>Created with Sketch.</desc>
<g id="upload">
	<g id="路径">
		<path class="st0" d="M7.8,27.4C3.4,27,0,23.6,0,20c0-4.6,3.2-8,7.5-8.5C8,7,11.6,4,16,4s8,3,8.5,7.5C28.8,12,32,15.4,32,20
			c0,3.6-3.4,7-7.8,7.4c-1.6,0-3,0-5,0c-0.4,0-0.7-0.3-0.7-0.7v-5c0-0.4,0.3-0.7,0.7-0.7h2.7c0.7,0,1-0.5,0.5-1.1l-5.6-7.1
			c-0.5-0.6-1.2-0.6-1.7,0L9.5,20C9.1,20.5,9.3,21,10,21h2.8c0.4,0,0.7,0.3,0.7,0.7v5c0,0.4-0.3,0.7-0.7,0.7
			C11.6,27.4,8.8,27.4,7.8,27.4L7.8,27.4z"/>
	</g>
</g>
</svg>
