<?xml version="1.0" standalone="no"?><!DOCTYPE svg PUBLIC "-//W3C//DTD SVG 1.1//EN" "http://www.w3.org/Graphics/SVG/1.1/DTD/svg11.dtd"><svg t="1722496351878" class="icon" viewBox="0 0 1024 1024" version="1.1" xmlns="http://www.w3.org/2000/svg" p-id="31748" xmlns:xlink="http://www.w3.org/1999/xlink" width="200" height="200"><path d="M768 384h192c35.2 0 64 28.8 64 64v384c0 35.2-28.8 64-64 64H352c-35.2 0-64-28.8-64-64V448c0-35.2 28.8-64 64-64h128v128h-32c-19.2 0-32 12.8-32 32v192c0 19.2 12.8 32 32 32h416c19.2 0 32-12.8 32-32v-192c0-19.2-12.8-32-32-32h-96v-128z m-256 256v-128h64c19.2 0 32-12.8 32-32V288c0-19.2-12.8-32-32-32H160c-19.2 0-32 12.8-32 32v192c0 19.2 12.8 32 32 32h96v128H64c-35.2 0-64-28.8-64-64V192c0-35.2 28.8-64 64-64h608c35.2 0 64 28.8 64 64v384c0 35.2-28.8 64-64 64h-160z" p-id="31749"></path></svg>