<svg width="32" height="32" viewBox="0 0 32 32" fill="none" xmlns="http://www.w3.org/2000/svg">
<path d="M16.8936 19.3608C25.5249 19.5813 30 23.1773 30 27.5845V29.9995H2V27.5845C2 23.0352 6.85896 19.3502 16.0449 19.3501L16.8936 19.3608ZM16.0449 2.00049C17.1366 2.00041 18.2179 2.21371 19.2266 2.62744C20.2351 3.04115 21.1519 3.64716 21.9238 4.41162C22.6959 5.17623 23.3087 6.08445 23.7266 7.0835C24.1443 8.08249 24.3594 9.15356 24.3594 10.2349C24.3593 11.3161 24.1443 12.3873 23.7266 13.3862C23.3087 14.3851 22.6958 15.2926 21.9238 16.0571C21.1518 16.8217 20.2352 17.4285 19.2266 17.8423C18.218 18.256 17.1366 18.4683 16.0449 18.4683C13.8404 18.468 11.7258 17.6012 10.167 16.0571C8.60815 14.513 7.7325 12.4185 7.73242 10.2349C7.73242 8.05128 8.60824 5.95674 10.167 4.4126C11.7258 2.86851 13.8403 2.00075 16.0449 2.00049Z" fill="currentColor"/>
</svg>
