<svg width="20" height="20" viewBox="0 0 20 20" fill="none" xmlns="http://www.w3.org/2000/svg">
<path d="M10.5771 12.2881C16.4529 12.4381 19.4998 14.8855 19.5 17.8857V19.5313H0.5V17.8857C0.500251 14.7887 3.74656 12.2803 10 12.2803L10.5771 12.2881ZM10 0.46875C10.7432 0.468723 11.4794 0.613845 12.166 0.895508C12.8525 1.17719 13.4765 1.5899 14.002 2.11035C14.5274 2.63077 14.9441 3.24876 15.2285 3.92871C15.5129 4.60877 15.6591 5.33813 15.6592 6.07422C15.6592 6.81041 15.5129 7.53958 15.2285 8.21973C14.9441 8.89988 14.5275 9.51851 14.002 10.0391C13.4765 10.5595 12.8525 10.9723 12.166 11.2539C11.4794 11.5356 10.7432 11.6807 10 11.6807C8.4991 11.6806 7.0593 11.0894 5.99805 10.0381C4.9369 8.98683 4.34082 7.56081 4.34082 6.07422C4.34091 4.58766 4.93686 3.16155 5.99805 2.11035C7.05929 1.05916 8.49916 0.468864 10 0.46875Z" fill="currentColor"/>
</svg>
