<svg width="20" height="20" viewBox="0 0 20 20" fill="none" xmlns="http://www.w3.org/2000/svg">
<path d="M18.4209 2.85742V11.4287C18.4209 13.7018 17.5341 15.8819 15.9551 17.4893C14.3758 19.0967 12.2334 20 10 20C7.76668 20 5.62511 19.0966 4.0459 17.4893C2.46668 15.8818 1.57914 13.7019 1.5791 11.4287V2.85742L10 0L18.4209 2.85742ZM9.94727 5.5C7.76729 5.50006 6.00008 7.2673 6 9.44727C6 11.6273 7.76724 13.3945 9.94727 13.3945C10.7518 13.3945 11.5 13.1535 12.124 12.7402L14.126 14.7422L15.2422 13.626L13.2402 11.624C13.6535 11 13.8945 10.2518 13.8945 9.44727C13.8945 7.26726 12.1273 5.5 9.94727 5.5ZM9.94727 7.0791C11.2553 7.07911 12.3154 8.13929 12.3154 9.44727C12.3154 10.7553 11.2553 11.8154 9.94727 11.8154C8.63927 11.8154 7.5791 10.7553 7.5791 9.44727C7.57918 8.13932 8.63932 7.07916 9.94727 7.0791Z" fill="currentColor"/>
</svg>
