<?xml version="1.0" encoding="utf-8"?>
<!-- Generator: Adobe Illustrator 21.0.0, SVG Export Plug-In . SVG Version: 6.00 Build 0)  -->
<svg version="1.1" id="图层_1" xmlns="http://www.w3.org/2000/svg" xmlns:xlink="http://www.w3.org/1999/xlink" x="0px" y="0px"
	 viewBox="0 0 32 32" style="enable-background:new 0 0 32 32;" xml:space="preserve">
<style type="text/css">
	.st0{fill:#999999;}
</style>
<path class="st0" d="M16,4c3.1,0,6.1,1,8.9,2.9s5.1,4.5,6.7,7.6c0.3,0.4,0.4,1,0.4,1.4s-0.1,1-0.4,1.4c-1.7,3.2-3.9,5.7-6.7,7.6
	c-2.8,2-5.8,3.1-8.9,3.1s-6.1-1-8.9-2.9S2,20.6,0.4,17.4C0.1,17.1,0,16.4,0,16s0.1-1,0.4-1.4c1.6-3.2,4-5.7,6.7-7.7S12.9,4,16,4z
	 M16,7c-2.5,0-4.9,0.7-7.2,2.2s-4.2,3.4-5.5,5.7C3.1,15.3,3,15.7,3,16c0,0.3,0.1,0.8,0.3,1.1c1.3,2.4,3.2,4.3,5.5,5.7S13.5,25,16,25
	s4.9-0.8,7.2-2.2c2.3-1.5,4.1-3.4,5.5-5.7C29,16.8,29,16.4,29,16s-0.1-0.7-0.3-1.1c-1.3-2.4-3.2-4.3-5.5-5.7S18.5,7,16,7z M16,10
	c3.3,0,6,2.7,6,6s-2.7,6-6,6s-6-2.7-6-6S12.7,10,16,10z M16,13c-1.7,0-3,1.3-3,3s1.3,3,3,3s3-1.3,3-3S17.7,13,16,13z"/>
</svg>
