<?xml version="1.0" encoding="utf-8"?>
<!-- Generator: Adobe Illustrator 21.0.0, SVG Export Plug-In . SVG Version: 6.00 Build 0)  -->
<svg version="1.1" id="图层_1" xmlns="http://www.w3.org/2000/svg" xmlns:xlink="http://www.w3.org/1999/xlink" x="0px" y="0px"
	 viewBox="0 0 32 32" style="enable-background:new 0 0 32 32;" xml:space="preserve">
<style type="text/css">
	.st0{fill:#FFFFFF;}
	.st1{fill:#949494;}
</style>
<g>
	<path id="path-1" class="st0" d="M28.8,12.8H3.2v-8c0-0.9,0.5-1.6,1.4-1.6H10c0.6,0,1.2,0.3,1.4,0.9l1.8,3.7
		c0.5,1.1,1.7,1.8,2.9,1.8H27c0.9,0,1.8,0.7,1.8,1.6V12.8z M28.8,27.2c0,0.9-0.9,1.6-1.8,1.6H4.6c-0.9,0-1.4-0.7-1.4-1.6V16h25.6
		V27.2z M28.6,6.4H17.8c-1.2,0-2.3-0.7-2.9-1.8l-1.4-2.9C13,0.7,11.9,0,10.6,0H3C1.3,0,0,1.4,0,3.2v25.6C0,30.6,1.3,32,3,32h25.6
		c1.8,0,3.4-1.4,3.4-3.2V9.6C32,7.8,30.4,6.4,28.6,6.4L28.6,6.4z"/>
</g>
<title>folder</title>
<g id="folder">
	<g>
		<path id="path-1_1_" class="st1" d="M28.8,12.8H3.2v-8c0-0.9,0.5-1.6,1.4-1.6H10c0.6,0,1.2,0.3,1.4,0.9l1.8,3.7
			c0.5,1.1,1.7,1.8,2.9,1.8H27c0.9,0,1.8,0.7,1.8,1.6V12.8z M28.8,27.2c0,0.9-0.9,1.6-1.8,1.6H4.6c-0.9,0-1.4-0.7-1.4-1.6V16h25.6
			V27.2z M28.6,6.4H17.8c-1.2,0-2.3-0.7-2.9-1.8l-1.4-2.9C13,0.7,11.9,0,10.6,0H3C1.3,0,0,1.4,0,3.2v25.6C0,30.6,1.3,32,3,32h25.6
			c1.8,0,3.4-1.4,3.4-3.2V9.6C32,7.8,30.4,6.4,28.6,6.4L28.6,6.4z"/>
	</g>
</g>
</svg>
