<?xml version="1.0" encoding="utf-8"?>
<!-- Generator: Adobe Illustrator 21.0.0, SVG Export Plug-In . SVG Version: 6.00 Build 0)  -->
<svg version="1.1" id="图层_1" xmlns="http://www.w3.org/2000/svg" xmlns:xlink="http://www.w3.org/1999/xlink" x="0px" y="0px"
	 viewBox="0 0 32 32" style="enable-background:new 0 0 32 32;" xml:space="preserve">
<style type="text/css">
	.st0{fill:#949494;}
</style>
<path class="st0" d="M31.7,13c-0.3-1.5-1.3-2.4-2.7-2.4s-2.5-1.1-2.5-2.5c0-0.3,0.2-0.7,0.2-0.9c0.6-1.3,0.1-2.9-1.1-3.7l-3.8-2.1
	l-0.2-0.1c-0.3-0.1-0.7-0.2-1.1-0.2c-0.9,0-1.8,0.3-2.4,0.9s-1.6,1.2-2,1.2c-0.5,0-1.5-0.7-2-1.3c-0.9-0.9-2.3-1.2-3.6-0.7l-4,2.1
	L6.3,3.6C5.1,4.4,4.7,6,5.3,7.3c0.1,0.2,0.2,0.6,0.2,0.9c0,1.4-1.1,2.5-2.6,2.5c-1.3,0-2.3,1-2.6,2.4c-0.1,0.4-0.3,1.8-0.3,3
	s0.2,2.6,0.3,3.1c0.3,1.4,1.3,2.4,2.6,2.4H3c1.4,0,2.5,1.1,2.5,2.4c0,0.3-0.1,0.7-0.2,0.9c-0.6,1.3-0.1,2.9,1,3.7l3.7,2.1l0.2,0.1
	C10.6,31,11,31,11.4,31c0.9,0,1.8-0.4,2.4-1c0.6-0.6,1.6-1.3,2.1-1.3s1.5,0.7,2.1,1.3s1.5,1,2.4,1c0.4,0,0.8-0.1,1.2-0.2l3.9-2.1
	l0.2-0.1c1.2-0.8,1.6-2.4,1-3.7c-0.1-0.2-0.2-0.6-0.2-0.9c0-1.4,1.1-2.4,2.6-2.4c1.3,0,2.3-0.9,2.6-2.4c0.1-0.4,0.3-1.9,0.3-3.1
	S31.8,13.5,31.7,13z M28.8,18.6c-0.1,0.3-0.2,0.6-0.4,0.6c-2.6,0-4.6,1.9-4.6,4.4c0,0.7,0.3,1.5,0.4,1.7c0.1,0.3,0,0.7-0.2,0.9
	l-3.5,1.9h-0.2c-0.2,0-0.5-0.1-0.6-0.3c-0.2-0.2-1.9-2-3.6-2s-3.6,1.9-3.6,1.9c-0.2,0.2-0.6,0.3-0.9,0.2L8,26.1
	c-0.2-0.2-0.3-0.5-0.2-0.8c0.1-0.2,0.4-0.9,0.4-1.7c0-2.4-2-4.4-4.5-4.4H3.6c-0.1,0-0.2-0.2-0.3-0.6C3.2,18.3,3,17.1,3,16.1
	c0-0.8,0.1-1.8,0.3-2.5c0.1-0.4,0.2-0.5,0.3-0.6h0.1c2.6,0,4.6-1.9,4.6-4.4c0-0.8-0.3-1.5-0.4-1.7C7.7,6.6,7.8,6.3,8.1,6.1l3.6-2
	c0.3-0.1,0.7,0,0.9,0.2c0.1,0.1,1.8,1.8,3.5,1.8s3.4-1.7,3.5-1.8c0.1-0.1,0.4-0.2,0.6-0.2h0.3l3.4,2c0.2,0.2,0.3,0.6,0.2,0.9
	c-0.1,0.2-0.4,0.9-0.4,1.7c0,2.4,2,4.4,4.5,4.4c0.3,0,0.4,0.4,0.4,0.6c0.1,0.7,0.3,1.7,0.3,2.5C29.1,16.9,29,17.9,28.8,18.6z"/>
<path class="st0" d="M16.1,10c-2.2-0.1-4.2,1.1-5.3,3s-1.1,4.2,0,6s3.1,3,5.3,3c3.3-0.1,5.9-2.7,5.9-5.9C22,12.7,19.4,10.1,16.1,10z
	 M16,19c-1.7,0-3-1.3-3-3s1.3-3,3-3s3,1.3,3,3S17.7,19,16,19z"/>
</svg>
