<svg width="32" height="32" viewBox="0 0 32 32" fill="none" xmlns="http://www.w3.org/2000/svg">
<path d="M20.415 23.5H10.415V20.5H20.415V23.5Z" fill="black"/>
<path d="M22.415 18.5H10.415V15.5H22.415V18.5Z" fill="black"/>
<path fill-rule="evenodd" clip-rule="evenodd" d="M28.915 11.0557V25C28.915 28.0376 26.4526 30.5 23.415 30.5H8.58496C5.54739 30.5 3.08496 28.0376 3.08496 25V1.5H19.5859L28.915 11.0557ZM6.08496 25C6.08496 26.3807 7.20425 27.5 8.58496 27.5H23.415C24.7958 27.5 25.915 26.3807 25.915 25V13.167H17.4541V4.5H6.08496V25ZM20.4541 10.167H23.8545L20.4541 6.68359V10.167Z" fill="black"/>
</svg>
