<?xml version="1.0" encoding="utf-8"?>
<!-- Generator: Adobe Illustrator 21.0.0, SVG Export Plug-In . SVG Version: 6.00 Build 0)  -->
<svg version="1.1" id="图层_1" xmlns="http://www.w3.org/2000/svg" xmlns:xlink="http://www.w3.org/1999/xlink" x="0px" y="0px"
	 viewBox="0 0 32 32" style="enable-background:new 0 0 32 32;" xml:space="preserve">
<style type="text/css">
	.st0{fill:#999999;}
</style>
<title>workflow</title>
<g id="workflow">
	<path id="形状结合" class="st0" d="M9.4,10.8C8.6,12.1,7.1,13,5.5,13C3,13,1,11,1,8.5S3,4,5.5,4c1.6,0,3.1,0.9,3.9,2.2
		C9.5,6.5,9.7,6.7,9.7,7l12.5,0c0.6-1.7,2.3-3,4.2-3c1.6,0,3.1,0.9,3.9,2.2s0.8,3.1,0,4.5S28.1,13,26.5,13c-2,0-3.6-1.3-4.2-3
		l-6.9,0c0.6,1.1,1,3.3,1.8,4.8l0.5,1.2c0.8,1.8,1.6,3.4,2.5,4.6c0.7,0.9,1.4,1.4,2,1.6c0.6-1.8,2.3-3.2,4.3-3.2
		c1.6,0,3.1,0.9,3.9,2.2s0.8,3.1,0,4.5S28.1,28,26.5,28c-1.9,0-3.5-1.1-4.2-2.8c-2-0.1-3.4-1.4-4.5-2.8c-1.2-1.5-2.1-3.4-2.9-5.2
		c0,0,0,0,0,0l0-0.1c-0.1-0.2-0.3-0.6-0.5-1.3c-0.6-1.5-1.1-3.5-1.6-4.5c-0.4-0.6-0.7-1-0.9-1.3C11.6,10,11.5,10,11.5,10l-1.8,0
		C9.7,10.3,9.5,10.5,9.4,10.8z M25.7,22.2C25.3,22.5,25,23,25,23.5c0,0.8,0.7,1.5,1.5,1.5c0.8,0,1.5-0.7,1.5-1.5
		c0-0.5-0.3-1-0.7-1.3C26.8,21.9,26.2,21.9,25.7,22.2z M25.7,7.2C25.3,7.5,25,8,25,8.5c0,0.8,0.7,1.5,1.5,1.5c0.8,0,1.5-0.7,1.5-1.5
		c0-0.5-0.3-1-0.7-1.3C26.8,6.9,26.2,6.9,25.7,7.2z M4.7,7.2C4.3,7.5,4,8,4,8.5C4,9.3,4.7,10,5.5,10S7,9.3,7,8.5
		c0-0.5-0.3-1-0.7-1.3C5.8,6.9,5.2,6.9,4.7,7.2z"/>
</g>
</svg>
