<?xml version="1.0" standalone="no"?><!DOCTYPE svg PUBLIC "-//W3C//DTD SVG 1.1//EN" "http://www.w3.org/Graphics/SVG/1.1/DTD/svg11.dtd"><svg t="1761876918827" class="icon" viewBox="0 0 1024 1024" version="1.1" xmlns="http://www.w3.org/2000/svg" p-id="20774" xmlns:xlink="http://www.w3.org/1999/xlink" width="200" height="200"><path d="M796.8 627.2c-9.6 0-22.4 0-28.8 3.2l-230.4-236.8c9.6-25.6 16-57.6 16-86.4 0-137.6-112-246.4-243.2-246.4-19.2 3.2-41.6 19.2-19.2 41.6l38.4 41.6L384 201.6c41.6 64 22.4 147.2-35.2 176l-6.4 6.4c-38.4 25.6-137.6 25.6-179.2-35.2L102.4 265.6C89.6 240 64 265.6 64 288v22.4c0 137.6 105.6 246.4 243.2 246.4 28.8 0 60.8-3.2 86.4-16l240 249.6v9.6c0 89.6 73.6 163.2 163.2 163.2S960 889.6 960 800c0-99.2-73.6-172.8-163.2-172.8z m0 246.4c-41.6 0-80-35.2-80-83.2s35.2-83.2 80-83.2c48 0 80 35.2 80 83.2s-32 83.2-80 83.2z" fill="#999999" p-id="20775"></path></svg>