<?xml version="1.0" standalone="no"?><!DOCTYPE svg PUBLIC "-//W3C//DTD SVG 1.1//EN" "http://www.w3.org/Graphics/SVG/1.1/DTD/svg11.dtd"><svg t="1721721422702" class="icon" viewBox="0 0 1024 1024" version="1.1" xmlns="http://www.w3.org/2000/svg" p-id="6058" xmlns:xlink="http://www.w3.org/1999/xlink" width="200" height="200"><path d="M851.2 172.8c19.2 19.2 19.2 48 0 67.2L579.2 512l272 268.8c16 16 19.2 44.8 3.2 64l-3.2 3.2c-19.2 19.2-48 19.2-67.2 0L512 579.2l-272 272c-19.2 19.2-48 19.2-67.2 0-19.2-19.2-19.2-48 0-67.2l272-268.8-272-272c-16-19.2-16-48-3.2-64l3.2-3.2c19.2-19.2 51.2-19.2 70.4-3.2l272 272 268.8-272c16-16 48-16 67.2 0z" p-id="6059"></path></svg>