<?xml version="1.0" standalone="no"?><!DOCTYPE svg PUBLIC "-//W3C//DTD SVG 1.1//EN" "http://www.w3.org/Graphics/SVG/1.1/DTD/svg11.dtd"><svg t="1762155860854" class="icon" viewBox="0 0 1024 1024" version="1.1" xmlns="http://www.w3.org/2000/svg" p-id="30810" xmlns:xlink="http://www.w3.org/1999/xlink" width="200" height="200"><path d="M880 144c19.2 19.2 19.2 54.4 0 73.6L585.6 512l294.4 294.4c19.2 19.2 19.2 48 3.2 70.4l-3.2 3.2c-19.2 19.2-54.4 19.2-73.6 0L512 585.6l-294.4 294.4c-19.2 19.2-54.4 19.2-73.6 0-19.2-19.2-19.2-54.4 0-73.6l294.4-294.4-294.4-294.4c-19.2-19.2-22.4-51.2-3.2-70.4l3.2-3.2c19.2-19.2 54.4-19.2 73.6 0l294.4 294.4 294.4-294.4c22.4-22.4 54.4-22.4 73.6 0z" fill="currentColor" p-id="30811"></path></svg>
