<?xml version="1.0" encoding="utf-8"?>
<!-- Generator: Adobe Illustrator 18.0.0, SVG Export Plug-In . SVG Version: 6.00 Build 0)  -->
<!DOCTYPE svg PUBLIC "-//W3C//DTD SVG 1.1//EN" "http://www.w3.org/Graphics/SVG/1.1/DTD/svg11.dtd">
<svg version="1.1" id="Layer_1" xmlns="http://www.w3.org/2000/svg" xmlns:xlink="http://www.w3.org/1999/xlink" x="0px" y="0px"
	 viewBox="0 0 24 24" enable-background="new 0 0 24 24" xml:space="preserve">
<path fill="#A3A3A3" d="M14.9,12l6.7-6.7c0.8-0.8,0.8-2.1,0-2.9s-2.1-0.8-2.9,0L12,9.1L5.3,2.5c-0.8-0.8-2.1-0.8-2.9,0
	s-0.8,2.1,0,2.9L9.1,12l-6.7,6.7c-0.8,0.8-0.8,2.1,0,2.9c0.4,0.4,0.9,0.6,1.4,0.6s1-0.2,1.4-0.6l6.7-6.7l6.7,6.7
	c0.4,0.4,0.9,0.6,1.4,0.6c0.5,0,1-0.2,1.4-0.6c0.8-0.8,0.8-2.1,0-2.9L14.9,12z"/>
</svg>
