<?xml version="1.0" encoding="utf-8"?>
<!-- Generator: Adobe Illustrator 21.0.0, SVG Export Plug-In . SVG Version: 6.00 Build 0)  -->
<svg version="1.1" id="图层_1" xmlns="http://www.w3.org/2000/svg" xmlns:xlink="http://www.w3.org/1999/xlink" x="0px" y="0px"
	 viewBox="0 0 32 32" style="enable-background:new 0 0 32 32;" xml:space="preserve">
<style type="text/css">
	.st0{fill:#999999;}
</style>
<title>zoom-to-fit</title>
<g id="zoom-to-fit">
	<path id="形状" class="st0" d="M3,2h10l0,0v3H5v8H2V3C2,2.4,2.4,2,3,2z M29,2H19l0,0v3h8v8h3V3C30,2.4,29.6,2,29,2z M29,30H19
		l0,0v-3h8v-8h3v10C30,29.6,29.6,30,29,30z M3,30h10l0,0v-3H5v-8H2v10C2,29.6,2.4,30,3,30z"/>
</g>
</svg>
