<?xml version="1.0" encoding="utf-8"?>
<!-- Generator: Adobe Illustrator 21.0.0, SVG Export Plug-In . SVG Version: 6.00 Build 0)  -->
<svg version="1.1" id="图层_1" xmlns="http://www.w3.org/2000/svg" xmlns:xlink="http://www.w3.org/1999/xlink" x="0px" y="0px"
	 viewBox="0 0 32 32" style="enable-background:new 0 0 32 32;" xml:space="preserve">
<style type="text/css">
	.st0{fill:#999999;}
</style>
<title>first-page</title>
<g id="first-page">
	
		<g id="首页" transform="translate(15.986134, 16.000000) scale(-1, 1) translate(-15.986134, -16.000000) translate(6.533776, 4.000000)">
		<path id="形状" class="st0" d="M1.7,0c0.4,0,0.9,0.2,1.2,0.5l10.3,10.3c0.7,0.7,0.7,1.8,0,2.4L2.9,23.5c-0.7,0.7-1.8,0.7-2.4,0
			c-0.7-0.7-0.7-1.8,0-2.4L9.6,12L0.5,2.9c-0.7-0.7-0.7-1.8,0-2.4C0.8,0.2,1.3,0,1.7,0z M18.9,1.7v20.6c0,0.9-0.8,1.7-1.7,1.7
			s-1.7-0.8-1.7-1.7V1.7c0-0.9,0.8-1.7,1.7-1.7C18.1,0,18.9,0.8,18.9,1.7z"/>
	</g>
</g>
</svg>
