<?xml version="1.0" encoding="utf-8"?>
<!-- Generator: Adobe Illustrator 21.0.0, SVG Export Plug-In . SVG Version: 6.00 Build 0)  -->
<svg version="1.1" id="图层_1" xmlns="http://www.w3.org/2000/svg" xmlns:xlink="http://www.w3.org/1999/xlink" x="0px" y="0px"
	 viewBox="0 0 32 32" style="enable-background:new 0 0 32 32;" xml:space="preserve">
<style type="text/css">
	.st0{fill:#949494;}
</style>
<path class="st0" d="M24.4,2c0.6,0,1,0.4,1,1v4.6H28c1.7,0,3,1.3,3,3v10.3c0,1.7-1.3,3-3,3h-0.9v5c0,0.6-0.4,1-1,1H5.9
	c-0.6,0-1-0.4-1-1v-5H4c-1.7,0-3-1.3-3-3V10.6c0-1.7,1.3-3,3-3h2.7V3c0-0.6,0.4-1,1-1C7.7,2,24.4,2,24.4,2z M24.1,20H7.9v7h16.2V20z
	 M28,11h-2v2h2V11z M22,5H10v2.8h12V5z"/>
</svg>
