<?xml version="1.0" encoding="utf-8"?>
<!-- Generator: Adobe Illustrator 21.0.0, SVG Export Plug-In . SVG Version: 6.00 Build 0)  -->
<svg version="1.1" id="图层_1" xmlns="http://www.w3.org/2000/svg" xmlns:xlink="http://www.w3.org/1999/xlink" x="0px" y="0px"
	 viewBox="0 0 32 32" style="enable-background:new 0 0 32 32;" xml:space="preserve">
<style type="text/css">
	.st0{fill:#999999;}
</style>
<title>thumbnail</title>
<g id="thumbnail">
	<path id="形状" class="st0" d="M27.4,3C28.3,3,29,3.7,29,4.6v22.8c0,0.9-0.7,1.6-1.6,1.6h-8.8c-0.9,0-1.6-0.7-1.6-1.6V4.6
		C17,3.7,17.7,3,18.6,3H27.4L27.4,3z M27,5h-8v22h8V5z M4.6,3h8.8C14.3,3,15,3.7,15,4.6v8.8c0,0.9-0.7,1.6-1.6,1.6H4.6
		C3.7,15,3,14.3,3,13.4V4.6C3,3.7,3.7,3,4.6,3L4.6,3z M4.6,17h8.8c0.9,0,1.6,0.7,1.6,1.6v8.8c0,0.9-0.7,1.6-1.6,1.6H4.6
		C3.7,29,3,28.3,3,27.4v-8.8C3,17.7,3.7,17,4.6,17z"/>
</g>
</svg>
