<svg height="1667" viewBox="-19.38702699 107.9895 1063.42774683 829.88670491" width="2500" xmlns="http://www.w3.org/2000/svg"><path d="m245.96 421.376a250.71 250.71 0 0 1 -4.097-44.942 268.43 268.43 0 0 1 536.889 0 329.128 329.128 0 0 1 0 44.942 246.613 246.613 0 1 1 -177.806 419.044 61.326 61.326 0 0 1 0-86.557 62.009 62.009 0 0 1 87.21 0 124.018 124.018 0 1 0 4.75-182.613l-6.826 7.51-4.75 4.095-256.854 256.853a246.642 246.642 0 1 1 -178.516-418.332zm0 370.631a124.672 124.672 0 1 0 -86.813-36.494 124.672 124.672 0 0 0 88.177 36.523h-1.365zm262.995-272.497a145.124 145.124 0 1 0 -143.758-143.075 145.806 145.806 0 0 0 145.124 145.095l-1.366-2.048z" fill="#06a7ff"/><path d="m655.445 392.078a28.018 28.018 0 0 1 0-7.48 62.009 62.009 0 1 1 124.018 0 35.616 35.616 0 0 1 0 8.163 268.459 268.459 0 0 1 -535.552 0v-8.164a62.009 62.009 0 0 1 124.018 0v7.481a145.806 145.806 0 0 0 289.564 0z" fill="#ff436a"/></svg>