<?xml version="1.0" encoding="utf-8"?>
<!-- Generator: Adobe Illustrator 21.0.0, SVG Export Plug-In . SVG Version: 6.00 Build 0)  -->
<svg version="1.1" id="图层_1" xmlns="http://www.w3.org/2000/svg" xmlns:xlink="http://www.w3.org/1999/xlink" x="0px" y="0px"
	 viewBox="0 0 32 32" style="enable-background:new 0 0 32 32;" xml:space="preserve">
<style type="text/css">
	.st0{fill:#999999;}
</style>
<title>close-sidebar</title>
<g id="close-sidebar">
	<path id="形状结合" class="st0" d="M17.5,2.4c0.6,0.6,0.6,1.5,0,2.1L5.8,16l11.6,11.5c0.6,0.6,0.6,1.5,0,2.1
		c-0.3,0.3-0.7,0.4-1.1,0.4c-0.4,0-0.8-0.2-1.1-0.4L2.5,17C2.2,16.8,2,16.4,2,16c0-0.4,0.2-0.8,0.5-1.1L15.3,2.4
		C15.9,1.9,16.8,1.9,17.5,2.4z M29.5,2.4c0.6,0.6,0.6,1.5,0,2.1L17.9,16l11.6,11.5c0.6,0.6,0.6,1.5,0,2.1c-0.3,0.3-0.7,0.4-1.1,0.4
		c-0.4,0-0.8-0.2-1.1-0.4L14.5,17c-0.3-0.3-0.5-0.7-0.5-1.1c0-0.4,0.2-0.8,0.5-1.1L27.3,2.4C28,1.9,28.9,1.9,29.5,2.4z"/>
</g>
</svg>
