<?xml version="1.0" encoding="utf-8"?>
<!-- Generator: Adobe Illustrator 21.0.0, SVG Export Plug-In . SVG Version: 6.00 Build 0)  -->
<svg version="1.1" id="图层_1" xmlns="http://www.w3.org/2000/svg" xmlns:xlink="http://www.w3.org/1999/xlink" x="0px" y="0px"
	 viewBox="0 0 32 32" style="enable-background:new 0 0 32 32;" xml:space="preserve">
<style type="text/css">
	.st0{fill:#9D9D9D;}
</style>
<title>data-base</title>
<desc>Created with Sketch.</desc>
<g id="Symbols">
	<g id="data-base">
		<g id="形状" transform="translate(2.000000, 2.000000)">
			<path class="st0" d="M23.8,1.6C21.4,0.5,17.9,0,14,0S6.7,0.5,4.2,1.6C1.4,2.8,0,4.2,0,5.8V22c0,1.6,1.4,3.2,4.2,4.2
				C6.7,27.5,10.1,28,14,28s7.4-0.5,9.8-1.6c2.6-1,4.2-2.6,4.2-4.2V5.8C28,4.2,26.6,2.8,23.8,1.6L23.8,1.6z M22.2,8.8
				C20,9.6,16.8,10,14,10c-3,0-5.9-0.4-8.2-1.2C3.2,8.1,1.9,7,1.9,5.8c0-1.1,1.4-2.1,3.9-3c2.3-0.7,5.2-1,8.2-1c2.8,0,6,0.5,8.2,1.2
				c2.4,0.9,3.9,1.9,3.9,3S24.9,8.1,22.2,8.8L22.2,8.8z M22.4,13.8c-2.3,0.7-5.4,1.2-8.4,1.2s-5.9-0.5-8.4-1.2
				c-2.4-0.9-3.8-1.9-3.8-3V8.9c1.8,0.7,3,1.6,4.9,1.9c2.3,0.5,4.7,0.9,7.3,0.9s5.1-0.4,7.4-0.9c1.9-0.4,3.1-1.2,4.9-1.9V11
				C26.2,11.9,24.9,12.9,22.4,13.8L22.4,13.8z M22.4,19.4c-2.3,0.7-5.4,1.2-8.4,1.2s-5.9-0.5-8.4-1.2c-2.4-0.7-3.8-1.8-3.8-3v-2.6
				c1.8,0.9,3,1.6,4.9,2.1c2.3,0.5,4.7,0.9,7.3,0.9s5.1-0.3,7.4-0.9c1.9-0.5,3.1-1.2,4.9-2.1v2.6C26.2,17.7,24.9,18.7,22.4,19.4
				L22.4,19.4z M14,26.2c-3,0-5.9-0.5-8.4-1.2c-2.4-0.7-3.8-1.8-3.8-2.8v-2.6c1.8,0.9,3,1.6,4.9,2.1c2.1,0.5,4.7,0.9,7.2,0.9
				c2.6,0,5.1-0.4,7.3-0.9c2.1-0.5,3.3-1.2,5.1-2.1v2.6c0,1-1.4,2.1-3.9,3C20.1,25.9,16.8,26.2,14,26.2L14,26.2z"/>
		</g>
	</g>
</g>
</svg>
