<?xml version="1.0" encoding="utf-8"?>
<!-- Generator: Adobe Illustrator 21.0.0, SVG Export Plug-In . SVG Version: 6.00 Build 0)  -->
<svg version="1.1" id="图层_1" xmlns="http://www.w3.org/2000/svg" xmlns:xlink="http://www.w3.org/1999/xlink" x="0px" y="0px"
	 viewBox="0 0 32 32" style="enable-background:new 0 0 32 32;" xml:space="preserve">
<style type="text/css">
	.st0{fill:#9D9D9D;}
</style>
<title>data-base</title>
<desc>Created with Sketch.</desc>
<g id="Symbols">
	<g id="data-base">
		<g id="形状">
			<path class="st0" d="M27.2,1.8C24.4,0.6,20.4,0,16,0S7.6,0.6,4.8,1.8C1.6,3.2,0,4.8,0,6.6v18.6C0,27,1.6,28.8,4.8,30
				c2.8,1.4,6.8,2,11.2,2s8.4-0.6,11.2-1.8c3-1.2,4.8-3,4.8-4.8V6.6C32,4.8,30.4,3.2,27.2,1.8L27.2,1.8z M25.4,10
				c-2.6,1-6.2,1.4-9.4,1.4c-3.4,0-6.8-0.4-9.4-1.4c-3-0.8-4.4-2-4.4-3.4c0-1.2,1.6-2.4,4.4-3.4C9.2,2.4,12.6,2,16,2
				c3.2,0,6.8,0.6,9.4,1.4c2.8,1,4.4,2.2,4.4,3.4S28.4,9.2,25.4,10L25.4,10z M25.6,15.8c-2.6,0.8-6.2,1.4-9.6,1.4s-6.8-0.6-9.6-1.4
				c-2.8-1-4.4-2.2-4.4-3.4v-2.2C4,11,5.4,12,7.6,12.4c2.6,0.6,5.4,1,8.4,1s5.8-0.4,8.4-1C26.6,12,28,11,30,10.2v2.4
				C30,13.6,28.4,14.8,25.6,15.8L25.6,15.8z M25.6,22.2C23,23,19.4,23.6,16,23.6S9.2,23,6.4,22.2c-2.8-0.8-4.4-2-4.4-3.4v-3
				c2,1,3.4,1.8,5.6,2.4c2.6,0.6,5.4,1,8.4,1s5.8-0.4,8.4-1c2.2-0.6,3.6-1.4,5.6-2.4v3C30,20.2,28.4,21.4,25.6,22.2L25.6,22.2z
				 M16,30c-3.4,0-6.8-0.6-9.6-1.4c-2.8-0.8-4.4-2-4.4-3.2v-3c2,1,3.4,1.8,5.6,2.4c2.4,0.6,5.4,1,8.2,1c3,0,5.8-0.4,8.4-1
				c2.4-0.6,3.8-1.4,5.8-2.4v3c0,1.2-1.6,2.4-4.4,3.4C23,29.6,19.2,30,16,30L16,30z"/>
		</g>
	</g>
</g>
</svg>
