<svg width="32" height="32" viewBox="0 0 32 32" fill="none" xmlns="http://www.w3.org/2000/svg">
<path fill-rule="evenodd" clip-rule="evenodd" d="M16 1.99976C20.1421 1.99976 23.5 5.35763 23.5 9.49976V11.9998H24C26.209 11.9998 27.9997 13.7908 28 15.9998V26.0007C27.9997 28.2097 26.209 30.0007 24 30.0007H8C5.79102 30.0007 4.00026 28.2097 4 26.0007V16.0007C4 13.7916 5.79086 11.9998 8 11.9998H8.5V9.49976C8.50002 5.35763 11.8579 1.99976 16 1.99976ZM16 17.0007C14.6193 17.0007 13.5 18.12 13.5 19.5007C13.5002 20.5254 14.1176 21.4049 15 21.7908V26.0007H17V21.7908C17.8824 21.4049 18.4998 20.5254 18.5 19.5007C18.5 18.12 17.3807 17.0007 16 17.0007ZM16 4.99976C13.5147 4.99976 11.5 7.01449 11.5 9.49976V11.9998H20.5V9.49976C20.5 7.01449 18.4853 4.99976 16 4.99976Z" fill="currentColor"/>
</svg>
