<?xml version="1.0" encoding="utf-8"?>
<!-- Generator: Adobe Illustrator 17.0.0, SVG Export Plug-In . SVG Version: 6.00 Build 0)  -->
<!DOCTYPE svg PUBLIC "-//W3C//DTD SVG 1.1//EN" "http://www.w3.org/Graphics/SVG/1.1/DTD/svg11.dtd">
<svg version="1.1" id="Layer_1" xmlns="http://www.w3.org/2000/svg" xmlns:xlink="http://www.w3.org/1999/xlink" x="0px" y="0px"
	 width="156px" height="39px" viewBox="0 0 156 39" enable-background="new 0 0 156 39" xml:space="preserve">
<linearGradient id="SVGID_1_" gradientUnits="userSpaceOnUse" x1="-126.5828" y1="-224.8" x2="-126.5828" y2="-289.873" gradientTransform="matrix(0.5469 0 0 -0.5469 102.2969 -121.9375)">
	<stop  offset="0" style="stop-color:#FAD956"/>
	<stop  offset="1" style="stop-color:#FFA10F"/>
</linearGradient>
<path fill="url(#SVGID_1_)" d="M5.453,16.546c0-0.92,0.746-1.658,1.667-1.658c0.439,0,0.829,0.174,1.128,0.448
	c-0.008-0.149-0.017-0.29-0.017-0.439c0-3.076,2.487-5.564,5.564-5.564c0.796,0,1.55,0.166,2.239,0.473
	c-0.008-0.158-0.017-0.315-0.017-0.464c0-4.61,3.731-8.341,8.341-8.341c4.577,0,8.291,3.69,8.341,8.258
	c-1.509,1.327-2.711,3.001-3.482,4.892c-1.492-0.929-3.25-1.484-5.132-1.484c-3.88,0-7.23,2.206-8.797,5.539H9.342H7.12
	C6.199,18.188,5.453,17.467,5.453,16.546z M49.373,11.563c-2.065-2.065-4.909-3.341-8.059-3.341c-5.746,0-10.505,4.254-11.285,9.792
	c-1.418-1.89-3.681-3.118-6.227-3.118c-4.303,0-7.786,3.491-7.786,7.786c0,1.252,0.298,2.429,0.821,3.482
	c-2.703,0.547-4.71,2.645-4.71,5.141c0,2.919,2.736,5.282,6.119,5.282c1.492,0,2.861-0.464,3.922-1.235L34.68,23.047
	c1.385-1.269,3.225-2.04,5.248-2.04c4.229,0,7.67,3.375,7.786,7.578c0,0,0-0.008-0.008-0.008c0.066,1.244-0.58,2.496-1.774,3.184
	c-1.667,0.962-3.756,0.448-4.668-1.136c-0.92-1.592-0.315-3.657,1.352-4.618c0.39-0.224,0.796-0.365,1.211-0.439
	c-0.357-0.075-0.73-0.108-1.111-0.108c-3.068,0-5.564,2.487-5.564,5.564c0,3.076,2.487,5.564,5.564,5.564
	c0.133,0,0.274-0.008,0.406-0.017l-0.008-0.017l0.158-0.017h10.92v0.041c3.341-0.149,6.5-3.225,6.5-6.973
	c0-3.839-3.283-6.973-7.122-6.973c-0.008,0-0.008,0-0.017,0c-0.622,1.111-1.376,1.758-2.23,2.454c0.895-1.633,1.41-3.491,1.41-5.481
	C52.714,16.464,51.437,13.628,49.373,11.563z"/>
<g>
	<g>
		<path fill="#464646" d="M78.55,23.369l-1.413-0.477c-1.791-0.592-2.728-1.282-2.728-2.678c0-1.43,1.117-2.432,2.547-2.481
			c0.904-0.049,1.972,0.329,2.925,1.216l1.709-1.955c-1.331-1.347-3.023-1.988-4.634-2.021c-2.859-0.049-5.455,1.923-5.455,5.34
			c0,2.777,2.202,4.157,4.404,4.864l1.364,0.509c1.545,0.542,2.728,1.397,2.728,3.04c0,1.495-1.331,2.629-3.073,2.662
			c-1.265,0.049-2.761-0.509-4.108-1.955l-1.709,2.054c1.725,1.791,3.862,2.613,5.833,2.629c3.138,0.016,5.8-2.054,5.8-5.39
			C82.724,25.719,80.654,24.027,78.55,23.369z M92.271,31.47c-2.005,0-3.829-1.183-3.829-3.237h7.263
			c4.552,0,2.531-7.887-3.681-7.887c-3.73,0-6.721,3.089-6.721,6.885c0,4.519,3.533,6.852,7.099,6.885
			c1.742,0,3.5-0.444,4.798-1.561l-1.955-1.972C94.407,31.257,93.29,31.47,92.271,31.47z M92.024,22.909
			c1.347,0,2.317,0.608,2.777,1.232c0.592,0.723,0.46,1.512-0.542,1.512h-5.8C88.524,24.339,89.938,22.909,92.024,22.909z
			 M109.672,33.902h2.432v-7.822c0-3.171-1.988-5.751-5.883-5.751c-1.988,0-3.681,0.411-5.012,1.38l0.969,2.185
			c0.805-0.542,2.12-0.953,3.697-0.953c2.202,0,3.418,1.216,3.451,3.007c-1.265-0.509-2.366-0.723-3.451-0.756
			c-3.385-0.066-5.209,1.791-5.209,4.322c0,3.106,2.038,4.601,4.847,4.585c1.725,0,3.5-0.657,4.157-1.347V33.902z M109.327,30.484
			c-1.265,0.575-2.547,0.887-3.5,0.887c-1.709,0-2.448-0.69-2.448-1.758c0-0.953,0.69-1.84,2.498-1.873
			c0.92,0,2.12,0.164,3.434,0.674v2.07H109.327z M124.198,18.506c0.559,0,1.035-0.477,1.035-1.052s-0.46-1.052-1.035-1.052
			c-0.559,0-1.035,0.477-1.035,1.052C123.179,18.045,123.64,18.506,124.198,18.506z M123.409,33.902h1.594V20.56h-1.594V33.902z
			 M121.766,20.56h-3.122v-2.415c0-1.085,0.969-1.66,1.955-1.66h1.413v-1.479H120.6c-2.054,0-3.599,1.2-3.599,3.155v2.415h-2.136
			v1.577h2.136v11.749h1.627V22.153h3.122V20.56H121.766z M131.247,15.236h-1.594v18.667h1.594V15.236z M146.25,32.456l-1.167-1.167
			c-1.101,1.052-2.514,1.232-3.714,1.232c-2.728,0-5.061-2.005-5.061-4.782h8.577c4.404,0,2.366-7.378-3.697-7.378
			c-3.714,0-6.721,3.089-6.721,6.885c0,4.157,3.319,6.869,6.967,6.869C143.062,34.116,144.853,33.787,146.25,32.456z
			 M141.189,21.907c2.021,0,3.369,1.035,3.944,2.087c0.624,1.085,0.378,2.202-0.871,2.202h-7.92
			C136.489,23.895,138.527,21.907,141.189,21.907z"/>
	</g>
</g>
</svg>
