<?xml version="1.0" standalone="no"?>
<!DOCTYPE svg PUBLIC "-//W3C//DTD SVG 1.1//EN" "http://www.w3.org/Graphics/SVG/1.1/DTD/svg11.dtd">
<svg xmlns="http://www.w3.org/2000/svg">
<metadata>Generated by Fontastic.me</metadata>
<defs>
<font id="seafile-font2" horiz-adv-x="512">
<font-face font-family="seafile-font2" units-per-em="512" ascent="480" descent="-32"/>
<missing-glyph horiz-adv-x="512" />

<glyph glyph-name="untitled-font-3" unicode="&#57344;" d="M128 117l-75 0c-2 0-4 2-4 5l0 128c0 21 17 40 41 40 21 0 40-17 40-40l0-133z m111 0l-75 0c-2 0-4 2-4 5l0 296c0 21 17 41 41 41 21 0 40-17 40-41l0-301z m109 0l-75 0c-2 0-4 2-4 5l0 230c0 21 17 41 40 41 22 0 41-18 41-41l0-235z m117 0l-75 0c-2 0-4 2-4 5l0 81c0 21 17 40 41 40 21 0 40-17 40-40l0-86z m0 0"/>
<glyph glyph-name="untitled-font-3-1" unicode="&#57345;" d="M405 228c-4 0-10 0-15-2l-115 117c4 13 9 28 9 43 0 68-56 122-122 122-8 0-19-9-8-19l19-22 28-28c21-32 10-72-18-87l-4-2c-19-13-68-13-89 17l-30 40c-7 13-19 0-19-10 0-11 0 0 0-11 0-68 53-121 121-121 15 0 30 2 43 8l119-124c0-2 0-2 0-4 0-45 37-81 81-81 45 0 81 36 81 81 0 47-36 83-81 83z m0-121c-21 0-40 17-40 40 0 24 17 41 40 41 24 0 41-17 41-41 0-23-17-40-41-40z m0 0"/>
<glyph glyph-name="untitled-font-3-2" unicode="&#57346;" d="M77 373c-13-25-19-55-19-85 0-113 93-205 207-205 113 0 206 92 206 205 0 113-93 205-206 205-13 0-24 0-35-2l-4-64c13 4 26 4 39 4 81 0 145-64 145-145 0-81-67-145-145-145-79 0-146 64-146 145 0 19 5 38 11 53l21-10c11-7 22-3 22 12l6 139c0 13-6 17-19 11l-113-77c-11-7-11-17 0-24z m183-2c-6 0-10-4-10-13l0-91 74-75c5-4 7-4 2 2l-36 73c0 34 0 91 0 91 0 7-4 11-11 11l-19 0z m0 0"/>
<glyph glyph-name="untitled-font-3-3" unicode="&#57347;" d="M241 79c24 0 45 19 47 43l-94 0c2-24 24-43 47-43z m154 100c-22 7-26 28-26 36l0 146c0 72-55 130-126 130-70 0-128-58-128-130l0-141c0-34-25-41-36-41l-30 0 0-21 386 0 0 21z m0 0"/>
<glyph glyph-name="untitled-font-3-4" unicode="&#57348;" d="M463 469c-2 0-4-2-4-4l0-98c0-2 2-4 4-4l13 0c2 0 4 2 4 4l0 98c0 2-2 4-4 4z m0-128c-2 0-4-2-4-4l0-98c0-2 2-4 4-4l13 0c2 0 4 2 4 4l0 98c0 2-2 4-4 4z m0-128c-2 0-4-2-4-4l0-98c0-2 2-4 4-4l13 0c2 0 4 2 4 4l0 98c0 2-2 4-4 4z m-420 214c-7 0-11-5-11-11 0-6 4-11 11-11l42 0c7 0 11 5 11 11 0 6-4 11-11 11z m0-128c-7 0-11-5-11-11 0-6 4-11 11-11l42 0c7 0 11 5 11 11 0 6-4 11-11 11z m0-128c-7 0-11-5-11-11 0-6 4-11 11-11l42 0c7 0 11 5 11 11 0 6-4 11-11 11z m10 21l0 64 54 0c6 0 10 4 10 11l0 42c0 7-4 11-10 11l-54 0 0 64 54 0c6 0 10 4 10 11l0 42c0 7-4 11-10 11l-54 0 0 53c0 7 5 11 11 11l363 0c6 0 10-4 10-11l0-426c0-7-4-11-10-11l-363 0c-6 0-11 4-11 11l0 53 54 0c6 0 10 4 10 11l0 42c0 7-4 11-10 11z m0 0"/>
<glyph glyph-name="untitled-font-3-5" unicode="&#57349;" d="M85 373l64-277 214 0 64 277z m235-155l-19-20-45 45-45-45-19 20 45 44-45 45 19 19 45-44 45 44 19-19-45-45z m-256 258l384 0 0-43-384 0z m0 0"/>
<glyph glyph-name="deletefix" unicode="&#57350;" d="M309 469l-106 0 0-42 106 0z m-234-64l0-42 362 0 0 42z m42-362l278 0 0 298-278 0z"/>
<glyph glyph-name="untitled-font-3-6" unicode="&#57351;" d="M474 501l-436 0c-6 0-10-4-10-10l0-312c0-6 4-10 10-10l158 0 0-22c0-17-15-32-32-32l-21 0 0-42 230 0 0 42-21 0c-17 0-32 15-32 32l0 22 154 0c6 0 10 4 10 10l0 312c0 6-4 10-10 10z m-30-249l-376 0 0 207 376 0z m0 0"/>
<glyph glyph-name="downloadfix" unicode="&#57352;" d="M395 245l-107 0 0 214-64 0 0-214-107 0 139-117z m-320-149l0-43 362 0 0 43z"/>
<glyph glyph-name="untitled-font-3-7" unicode="&#57353;" d="M429 314l0-231c0-6-4-10-11-10l-324 0c-7 0-11 4-11 10l0 408c0 6 4 10 11 10l188 0 0-134 74 0c32 2 60-21 73-53z m-124 187l0-106 75 0c21 0 49-28 49-28z m0 0"/>
<glyph glyph-name="untitled-font-3-8" unicode="&#57354;" d="M109 365l-98-256 392 0 98 256z m51 51l0 38c0 7-6 13-13 13l-124 0c-6 0-12-6-12-13l0-275 74 211 342 0 0 26z m0 0"/>
<glyph glyph-name="untitled-font-3-9" unicode="&#57355;" d="M215 444c24 36 69 59 120 59 77 0 139-55 139-121 0-26-9-49-26-71-4-8-9-19-9-34 0-19 11-34 11-34 2-4 0-8-4-8 0 0-41-2-51 38-2 90-79 162-180 171z m-179-192c0 77 71 138 158 138 88 0 158-61 158-138 0-77-70-139-158-139-17 0-32 2-47 6-13-27-40-46-72-46-7 0-11 2-11 2-6 0-6 6-4 10 0 0 17 26 17 47 0 17-7 30-11 39-19 23-30 51-30 81z m0 0"/>
<glyph glyph-name="untitled-font-3-10" unicode="&#57356;" d="M173 267c53 0 85 81 85 128 0 47-38 85-85 85-47 0-86-38-86-85 0-47 32-128 86-128z m192 0c47 0 62 53 62 96 0 42-20 74-62 74-43 0-66-32-66-74 0-43 19-96 66-96z m-192-171c149 0 170 0 170 43 0 59-76 106-170 106-94 0-171-47-171-106 0-43 21-43 171-43z m128 141c19 6 40 8 64 8 83 0 147-44 147-96 0-38-17-32-147-32-2 0-7 0-9 0 7 11 7 26 7 43 0 30-26 58-62 77z m0 0"/>
<glyph glyph-name="untitled-font-3-11" unicode="&#57357;" d="M322 267l147 0c7 0 11-5 11-9l0-147c0-4-4-9-11-9l-426 0c-7 0-11 5-11 9l0 147c0 4 4 9 11 9l147 0 0-32c0-5 4-9 11-9l113 0c6 0 10 4 10 9l0 32z m-262 106c-2 0-7-2-7-4l0-75c0-2 2-4 7-4l392 0c2 0 7 2 7 4l0 75c0 2-2 4-7 4z m23 60c-2 0-6-2-6-4l0-32c0-2 2-4 6-4l348 0c2 0 6 2 6 4l0 32c0 2-2 4-6 4z m22 43c-3 0-7-2-7-5l0-12c0-2 2-5 7-5l302 0c3 0 7 3 7 5l0 12c0 3-2 5-7 5z m0 0"/>
<glyph glyph-name="untitled-font-3-12" unicode="&#57358;" d="M294 162l-51-51c-45-45-119-45-166 0-45 45-45 119 0 166l77 75c44 45 119 45 166 0 6-6 11-13 15-19l-43-45c-2 9-8 17-15 23-23 24-59 24-83 0l-79-78c-23-24-23-60 0-84 24-23 60-23 83 0l17 17c15-6 30-10 47-10 13 2 22 4 32 6z m-74 252l51 51c45 45 119 45 166 0 45-45 45-119 0-166l-79-75c-44-45-119-45-166 0-6 6-11 11-15 17l43 41c2-7 6-13 13-17 23-24 59-24 83 0l79 78c23 24 23 60 0 84-24 23-60 23-84 0l-19-20c-15 7-32 11-49 11-8 0-17-2-23-4z m0 0"/>
<glyph glyph-name="untitled-font-3-13" unicode="&#57359;" d="M256 265c58 0 92 87 92 136 0 49-41 94-92 94-51 0-92-43-92-92 0-49 34-138 92-138z m0-184c160 0 183 0 183 45 0 64-81 115-183 115-102 0-183-51-183-115 0-45 23-45 183-45z m0 0"/>
<glyph glyph-name="untitled-font-3-14" unicode="&#57360;" d="M162 489c0 10 9 21 21 21l146 0c10 0 21-9 21-21l0-105c0-11-9-21-21-21l-148 0c-10 0-21 8-21 21l0 105z m21-344c0 15 13 26 30 26l88 0c17 0 30-11 30-26l0-51c0-15-13-26-30-26l-90 0c-17 0-30 11-30 26l0 51z m-170 0c0 15 10 26 25 26l75 0c15 0 26-11 26-26l0-51c0-15-11-26-26-26l-77 0c-15 0-25 11-25 26l0 51z m360 0c0 15 11 26 26 26l75 0c15 0 25-11 25-26l0-51c0-15-10-26-25-26l-75 0c-15 0-26 11-26 26z m-117 143l0 21-21 0 0-21-171 0 0-85 21 0 0 64 150 0 0-64 21 0 0 64 149 0 0-64 22 0 0 85z m0 0"/>
<glyph glyph-name="sharefix01" unicode="&#57361;" d="M380 448c-37 0-64-28-64-64 0-36 27-64 64-64 36 0 64 28 64 64 0 36-28 64-64 64z m-248-128c-36 0-64-28-64-64 0-36 28-64 64-64 37 0 64 28 64 64 0 36-27 64-64 64z m248-128c-37 0-64-28-64-64 0-36 27-64 64-64 36 0 64 28 64 64 0 36-28 64-64 64z m-86 131l-72-36-21 42 73 36z m-9-166l-75 30 17 44 76-30z"/>
<glyph glyph-name="untitled-font-3-15" unicode="&#57362;" d="M256 179l-134-100 51 160-137 98 169 0 51 160 51-160 169 0-137-98 51-160z m0 0"/>
<glyph glyph-name="untitled-font-3-16" unicode="&#57363;" d="M145 480l303 0 0 26c0 4-9 17-15 17l-309 0c-34 0-60-37-60-71l0-320c0-36 26-57 60-57l309 0c6 0 15-2 15 4l0 316-64 0 0-152-32 32-32-32 0 152-175 0c-23 0-43 19-43 42 0 24 20 43 43 43z m0 0"/>
<glyph glyph-name="untitled-font-3-17" unicode="&#57364;" d="M256 516c-126 0-228-102-228-228 0-126 102-228 228-228 126 0 228 102 228 228 0 126-102 228-228 228z m0-437c-116 0-209 93-209 209 0 116 93 209 209 209 116 0 209-93 209-209 0-116-93-209-209-209z m0 384c-5 0-9-5-9-10l0-158-121 0c-10 0-10-5-10-9 0-5 5-7 10-7l130 0c5 0 9 4 9 9l0 165c0 5-4 10-9 10z m0 0"/>
<glyph glyph-name="untitled-font-3-19" unicode="&#57366;" d="M438 465l-103 0 0 23c0 14-12 23-23 23l-112 0c-14 0-23-11-23-23l0-23-105 0c-5 0-7-5-7-7 0-5 5-7 7-7l23 0 0-361c0-14 12-23 24-23l272 0c14 0 23 12 23 23l0 359 24 0c7 0 9 4 9 7 0 7-5 9-9 9z m-247 23c0 5 4 9 9 9l112 0c5 0 7-4 7-7l0-23-128 0z m209-400c0-5-4-7-7-7l-274 0c-5 0-7 5-7 7l0 361 288 0c0 0 0-361 0-361z m-144 39c5 0 7 5 7 7l0 256c0 5-5 7-7 7-5 0-7-4-7-7l0-256c0-2 2-7 7-7z m72 0c5 0 7 5 7 7l0 256c0 5-5 7-7 7-5 0-7-4-7-7l0-256c0-2 2-7 7-7z m-144 0c5 0 7 5 7 7l0 256c0 5-5 7-7 7-5 0-7-4-7-7l0-256c-2-2 2-7 7-7z m0 0"/>
<glyph glyph-name="untitled-font-3-20" unicode="&#57367;" d="M258 531c-49-64-145-72-168-72-3 0-5-2-5-5l0-234c56-135 169-173 169-173 117 34 173 166 173 168l0 244c-124 6-167 68-169 72z m45-324l-51 51-47-47-26 26 47 47-43 42 28 26 43-43 45 47 25-25-47-47 52-51z m0 0"/>
<glyph glyph-name="untitled-font-3-21" unicode="&#57368;" d="M315 406l-220-220-36-87c-3-6 0-8 5-6l90 34 220 220z m97-18l31 31c15 15 13 41-3 56-15 15-41 15-56 2l-31-30z m0 0"/>
<glyph glyph-name="untitled-font-3-22" unicode="&#57369;" d="M444 307c0 0-54 109-188 109-134 0-188-111-188-111-6-11-6-26 0-36 0 0 54-109 188-109 134 0 188 111 188 111 6 8 6 26 0 36z m-188-62c-23 0-43 20-43 43 0 23 20 43 43 43 23 0 43-20 43-43 0-23-20-43-43-43z m0 0"/>
<glyph glyph-name="untitled-font-3-23" unicode="&#57370;" d="M426 53l-340 0c-39 0-74 33-74 74l0 324c0 39 32 74 74 74l340 0c39 0 74-32 74-74l0-326c0-39-35-72-74-72z m-342 449c-28 0-49-25-49-53l0-326c0-28 23-51 51-51l340 0c28 0 51 23 51 51l0 328c0 28-23 51-51 51z m23-144l305 0c5 0 9-7 5-12l-156-156c-3-2-7-2-10 0l-149 159c-2 2 0 9 5 9z m0 0"/>
<glyph glyph-name="untitled-font-3-24" unicode="&#57371;" d="M428 276l49 10-16 90-47-7c-4 10-9 19-14 28l33 38-65 58-28-40c-7 5-14 10-28 14l5 40-94 2 3-37c0-2-24-7-35-12l-37 35-70-60 30-38c-7-4-14-14-19-23l-48 9-17-90 49-10c0-11 2-18 5-28l-44-25 44-79 44 23c7-7 14-14 23-19l-18-49 86-32 16 46c7 0 14-2 19-2 2 0 7 0 11 0l19-49 86 33-19 46c10 7 17 12 24 19l44-26 44 80-42 25c3 9 7 19 7 30z m-174-88c-61 0-110 49-110 109 0 61 49 107 110 107 60 0 109-49 109-109 0-58-49-107-109-107z m0 0"/>
<glyph glyph-name="02" unicode="&#57372;" d="M256 499c-134 0-243-109-243-243 0-134 109-243 243-243 134 0 243 109 243 243 0 134-109 243-243 243z m128-286l-256 0c-15 0-28 17-28 32-2 15 11 32 28 32l256 0c15 0 28-17 28-32 2-15-11-32-28-32z m0 0"/>
<glyph glyph-name="03" unicode="&#57373;" d="M256 501c-134 0-245-111-245-245 0-134 108-245 245-245 137 0 245 111 245 245 0 134-111 245-245 245z m111-315c11-11 11-30 0-41-11-11-30-11-41 0l-70 70-70-70c-11-11-30-11-41 0-11 11-11 30 0 41l70 70-72 73c-13 12-13 29 0 40 11 11 30 11 40 0l71-70 70 70c11 11 30 11 41 0 10-11 10-30 0-40l-71-71z m0 0"/>
<glyph glyph-name="04" unicode="&#57374;" d="M190 87l-164 182 27 23 137-151 269 284 27-24z m0 0"/>
<glyph glyph-name="052" unicode="&#57375;" d="M256 284l-141 141-13 12-27-27 12-13 141-141-141-141-12-13 27-27 13 12 141 141 141-141 13-12 27 27-12 13-141 141 141 141 12 13-27 27-13-12z"/>
<glyph glyph-name="member" unicode="&#57376;" d="M245 241c-55 0-100 58-100 130 0 68 41 115 100 115 60 0 101-47 101-115 0-72-45-130-101-130z m0 220c-44 0-74-36-74-92 0-58 34-104 74-104 41 0 75 46 75 104 0 56-30 92-75 92z m2-433c-119 0-211 45-211 104 0 60 88 101 211 101 122 0 207-43 207-103 0-62-85-102-207-102z m0 179c-115 0-185-38-185-75 0-38 70-79 185-79 114 0 182 39 182 77 0 36-68 77-182 77z"/>
<glyph glyph-name="discussion-2" unicode="&#57377;" d="M81 43c-8 0-15 2-15 2-4 0-8 4-13 8-2 5-2 11 2 17 5 7 15 26 15 39 0 13-4 21-8 32-19 23-30 51-30 81 0 77 73 141 160 141 87 0 160-64 160-141 0-79-73-141-160-141-13 0-26 2-38 4-15-25-43-42-73-42z m-6 21c2 0 2 0 4 0 26 0 47 15 58 36l4 9 10-2c13-5 28-7 41-7 77 0 139 54 139 120 0 66-62 121-139 121-77 0-139-53-139-119 0-26 9-49 26-68 6-13 13-26 13-43-2-19-11-38-17-47z m298 151c-6 92-81 160-183 169l-17 0 10 15c28 45 82 70 137 70 87 0 160-64 160-140 0-30-11-58-30-82-4-8-8-17-8-29 0-17 8-30 8-30 4-7 4-13 2-17-2-5-8-9-15-9l-2 0c-23 0-49 11-60 43m20 15c6-24 23-34 34-37-4 7-9 20-9 35 0 19 7 32 11 42 17 26 26 45 26 71 2 64-60 117-137 117-43 0-83-17-109-45 103-17 179-89 184-183z"/>
<glyph glyph-name="01" unicode="&#57378;" d="M223 130c0 21 7 38 19 54-2 5-2 7-2 11 0 17 7 28 16 40-14 2-30 2-47 2-107 0-193-46-193-102 0-56 96-72 96-72 42-14 107-16 158-9-28 18-47 46-47 76z m-4 70c0 0 0-2 0-5-12-16-19-37-19-58 0-23 7-42 19-60-37-3-75 2-100 11l-3 0c-16 3-76 19-76 49 0 38 69 79 169 79 5 0 7 0 12 3-2-7-2-12-2-19z m4 291l-28 0c-46 0-83-37-83-84l0-58c0-49 39-86 88-86l19 0c49 0 88 40 88 86l0 58c0 47-37 84-84 84z m63-142c0-35-30-63-65-63l-19 0c-37 0-65 28-65 63l0 58c0 33 26 61 58 61l31 0c32 0 60-28 60-61z m84-328c-19 0-35 16-35 35l0 2c-2 3-2 3-5 3l-2-3c-14-14-35-14-49 0-14 14-14 35 0 49l3 2c0 3 0 3-3 5-18 0-35 16-35 35 0 19 17 35 35 35l3 0c0 0 2 2 2 5l-2 2c-14 14-14 35 0 49 14 14 35 14 48 0l3-3c2 0 2 0 4 3l0 2c0 19 17 35 35 35 19 0 35-16 35-35l0-2c3-3 3-3 5-3l2 3c14 14 35 14 49 0 14-14 14-35 0-49l-7-5c0-2 0-2 2-4l3 0c18 0 35-17 35-35 0-19-17-35-35-35l-3 0c-2-3-2-3-2-5l2-2c14-14 14-35 0-49-13-14-34-14-48 0l-3 2c-2 0-2 0-4-2l0-2c2-17-14-33-33-33z m-44 67l7-4c4-3 9-5 16-7l9-3 0-18c0-7 5-12 12-12 7 0 12 5 12 12l0 18 9 3c5 2 12 4 16 7l7 4 14-14c5-4 12-4 17 0 4 5 4 12 0 17l-14 14 4 7c3 4 5 9 7 16l3 9 18 0c7 0 12 5 12 12 0 7-5 12-12 12l-21 0-2 9c-2 5-5 12-7 16l-5 7 14 14c5 5 5 12 0 16-4 5-11 5-16 0l-16-16-5 2c-5 3-9 5-16 7l-10 3 0 18c0 7-4 12-11 12-7 0-12-5-12-12l0-18-7-3c-5-2-12-4-16-7l-7-2-14 14c-5 5-12 5-16 0-5-5-5-12 0-16l14-14-5-7c-2-5-5-9-7-16l-2-10-17 0c-7 0-11-4-11-11 0-7 4-12 11-12l19 0 2-9c3-5 5-12 7-17l5-7-14-14c-5-4-5-11 0-16 5-5 12-5 16 0z m44 17c-23 0-42 18-42 42 0 23 19 42 42 42 23 0 42-19 42-42 0-24-19-42-42-42z m0 60c-9 0-19-9-19-18 0-10 10-19 19-19 9 0 19 9 19 19 0 9-10 18-19 18z"/>
<glyph glyph-name="04-1" unicode="&#57379;" d="M254 440c97 0 184-72 184-156 0-84-84-156-184-156-17 0-33 2-49 5-3 0-3 0-5 0-11 0-18-5-25-14-14-26-42-42-68-45 5 14 14 35 14 56 0 26-9 47-14 59 0 2-2 2-2 4-19 26-31 58-31 89 0 32 14 72 42 97 35 38 84 61 138 61m0 28c-117 0-212-84-210-186 0-42 14-80 40-107 4-12 11-26 11-47 0-23-18-56-18-56-7-5-7-11-5-16 5-2 7-9 14-9 2 0 9-3 19-3 39 0 74 23 95 58 16-2 33-4 56-4 116 0 212 84 212 186 0 102-96 184-214 184z"/>
<glyph glyph-name="021" unicode="&#57380;" d="M254 44l-180 56c-11 5-18 19-18 30l0 317c0 14 14 25 28 21l170-49 179 49c2 0 5 0 7 0 11 0 21-10 21-21l0-317c0-11-7-25-19-30z m-177 401l0-315c0-2 2-7 4-7l173-53 179 56c0 0 2 4 2 7l0 312-181-49z m165-38l23 0 0-349-23 0z"/>
<glyph glyph-name="grid-view" unicode="&#57381;" d="M28 228l200 0 0-171-200 0z m256 0l200 0 0-171-200 0z m-256 227l200 0 0-171-200 0z m256 0l200 0 0-171-200 0z"/>
<glyph glyph-name="list-view" unicode="&#57382;" d="M28 114l456 0 0-57-456 0z m0 114l456 0 0-57-456 0z m0 113l456 0 0-57-456 0z m0 114l456 0 0-57-456 0z"/>
<glyph glyph-name="add" unicode="&#57383;" d="M288 288l0 192-64 0 0-192-192 0 0-64 192 0 0-192 64 0 0 192 192 0 0 64z"/>
<glyph glyph-name="copy241" unicode="&#57384;" d="M160 382l273 0 0-333-273 0z m-79 83l0-333 53 0 0 278 218 0 0 55z"/>
<glyph glyph-name="move241" unicode="&#57385;" d="M256 386l0 51-203 0 0-362 406 0 0 311z m55-226l0 53-181 0 0 52 184 0 0 53 76-77z"/>
<glyph glyph-name="reply" unicode="&#57386;" d="M235 326c108 0 207-98 213-217-53 47-119 77-192 77-6 0-15 0-21 0l0-94c0-7-5-9-9-5l-158 160c-4 5-4 11 0 15l158 163c4 4 9 2 9-5z"/>
<glyph glyph-name="invite01" unicode="&#57387;" d="M303 286l177 0 0-43-177 0z m68 72l39 0 0-189-39 0z m-170-125c53 0 85 87 85 136 0 49-39 92-85 92-47 0-86-41-86-92 0-51 32-136 86-136z m0-184c147 0 168 0 168 45 0 64-75 115-168 115-94 0-169-51-169-115 0-45 21-45 169-45z"/>
<glyph glyph-name="lock" unicode="&#57388;" d="M405 337l-10 0 0 98c0 17-11 28-26 28l-232 0c-11 0-20-9-20-19l0-109-10 0c-7 0-11-4-11-11l0-264c0-5 4-11 11-11l298 0c7 0 11 6 11 11l0 264c2 9-4 13-11 13z m-241 53c0 17 11 28 26 28l141 0c10 0 19-8 19-19l0-62-186 0z m169-155c0-5-4-7-7-7l-34 0c-4 0-6-4-6-6l0-58c0-4-4-6-7-6l-34 0c-4 0-6 4-6 6l0 56c0 4-4 6-6 6l-39 0c-4 0-6 4-6 7l0 34c0 4 4 6 6 6l126 0c4 0 11 0 11-2 2-2 2-4 2-4z"/>
<glyph glyph-name="unlock" unicode="&#57389;" d="M405 337l-241 0 0 53c0 17 11 28 26 28l141 0c10 0 19-8 19-19l0-19 45 0 0 55c0 17-11 28-26 28l-232 0c-11 0-20-9-20-19l0-109-10 0c-7 0-11-4-11-11l0-264c0-5 4-11 11-11l298 0c7 0 11 6 11 11l0 264c2 9-4 13-11 13z m-72-102c0-5-4-7-7-7l-34 0c-4 0-6-4-6-6l0-58c0-4-4-6-7-6l-34 0c-4 0-6 4-6 6l0 56c0 4-4 6-6 6l-39 0c-4 0-6 4-6 7l0 34c0 4 4 6 6 6l126 0c4 0 11 0 11-2 2-2 2-4 2-4z"/>
<glyph glyph-name="fixed02" unicode="&#57390;" d="M345 213c-2 0-4 0-5 0-11-73-64-131-133-145 23-5 64-5 136-5 147 0 167 0 167 43 2 60-73 107-165 107z m0 238c-40 0-74-29-82-69 48-30 78-85 78-146 0 0 0-2 0-2 2 0 2 0 4 0 53 0 83 82 83 130 0 47-37 87-83 87z m-314-151c-9-20-14-42-14-64 0-86 68-156 152-156 84 0 152 70 152 156 0 85-68 155-152 155-9 0-17 0-26-2l-3-48c8 2 19 4 27 4 58 0 106-50 106-109 0-60-48-110-106-110-58 0-106 50-106 110 0 13 4 29 9 40l15-8c9-5 16 0 16 8l5 105c0 10-5 13-14 8l-83-56c-9-5-9-14 0-19z m133-3c-5 0-9-3-9-9l0-68 55-56c3-4 5-4 2 2l-28 54c0 26 0 68 0 68 0 6-3 9-8 9z"/>
<glyph glyph-name="info" unicode="&#57391;" d="M256 21c-130 0-235 105-235 235 0 130 105 235 235 235 130 0 235-105 235-235 0-130-105-235-235-235z m-21 278l0-171 42 0 0 171z m21 42c12 0 21 10 21 22 0 11-9 21-21 21-12 0-21-10-21-21 0-12 9-22 21-22z"/>
<glyph glyph-name="logout" unicode="&#57392;" d="M410 274l-42 42c-7 7-7 19 0 26 7 7 19 7 26 0l73-73c7-7 7-19 0-26l-73-73c-7-7-19-7-26 0-7 7-7 19 0 26l42 42-151 0c-10 0-18 8-18 18 0 10 8 18 18 18z m-24 133c7-7 7-19 0-26-8-7-19-7-26 0-69 69-181 69-250 0-69-69-69-181 0-250 69-69 181-69 250 0 7 7 18 7 26 0 7-7 7-19 0-26-84-83-219-83-302 0-83 83-83 219 0 302 83 83 218 83 302 0z"/>
<glyph glyph-name="menu-new" unicode="&#57393;" d="M85 405l342 0 0-64-342 0z m0-128l342 0 0-64-342 0z m0-128l342 0 0-64-342 0z"/>
<glyph glyph-name="more" unicode="&#57394;" d="M267 341c-30 0-54 24-54 54 0 29 24 53 54 53 29 0 53-24 53-53 0-30-24-54-53-54z m0-149c-30 0-54 24-54 53 0 30 24 54 54 54 29 0 53-24 53-54 0-29-24-53-53-53z m0-149c-30 0-54 24-54 53 0 29 24 53 54 53 29 0 53-24 53-53 0-29-24-53-53-53z"/>
<glyph glyph-name="plus" unicode="&#57395;" d="M235 277l0 150 64 0 0-150 149 0 0-64-149 0 0-149-64 0 0 149-150 0 0 64z"/>
<glyph glyph-name="upload-new" unicode="&#57396;" d="M128 341l139 107 138-107-106 0 0-192-64 0 0 192z m-43-234l363 0 0-43-363 0z"/>
<glyph glyph-name="unshared" unicode="&#57397;" d="M427 392l-35 35-136-136-136 136-35-35 136-136-136-136 35-35 136 136 136-136 35 35-136 136z"/>
<glyph glyph-name="11" unicode="&#57398;" d="M149 64l0 320-128 0 0-320z m22 0l320 0 0 320-320 0z m-150 384l470 0c11 0 21-10 21-21l0-363c0-12-10-21-21-21l-470 0c-11 0-21 9-21 21l0 363c0 11 10 21 21 21z m22-128l85 0 0-21-85 0z m170 0l256 0 0-21-256 0z m-170-43l85 0 0-21-85 0z m0-42l85 0 0-22-85 0z m0-43l85 0 0-21-85 0z"/>
<glyph glyph-name="untitled-font-3-18" unicode="&#57365;" d="M489 325l-63 21c-2 7-5 14-9 21l25 51c3 3 0 7-2 10l-47 46c-2 3-7 3-9 3l-51-26c-7 2-14 7-21 9l-19 54c0 2-4 4-7 4l-63 0c-4 0-7-2-7-4l-18-56c-7-2-14-5-21-9l-51 25c-3 3-7 3-10-2l-46-47c-3 0-3-4 0-7l25-51c-4-7-7-14-9-21l-53-18c-3 0-5-5-5-7l0-66c0-4 2-7 5-7l53-18c2-7 5-14 9-21l-25-51c-3-3 0-7 2-10l47-46c2-3 7-3 9-3l51 26c7-2 14-7 21-9l19-54c0-2 4-4 7-4l65 0c5 0 7 2 7 4l19 54c6 2 13 4 20 9l52-26c2-2 7 0 9 3l47 46c2 3 2 7 2 10l-26 51c3 7 7 14 10 21l53 18c2 0 5 5 5 7l2 66c0 2 0 2-2 4z m-72-81c-3 0-5-3-5-5-2-9-7-16-12-25-2-3-2-5 0-7l24-49-38-38-49 24c-2 2-4 0-7 0-9-5-16-10-25-12-2 0-5-2-5-5l-16-51-56 0-16 51c0 3-3 5-5 5-9 2-16 7-25 12-3 2-5 2-7 0l-49-24-38 38 24 49c2 2 0 4 0 7-5 9-10 16-12 25 0 2-2 5-5 5l-51 16 0 56 51 16c3 0 5 3 5 5 2 9 7 16 12 25 2 3 2 5 0 7l-24 49 38 38 49-24c2-2 4 0 7 0 9 5 16 10 25 12 2 0 5 2 5 5l16 51 54 0 16-51c0-3 2-5 5-5 9-2 16-7 25-12 2-2 5-2 7 0l49 24 37-38-23-49c-2-2 0-4 0-7 5-9 9-16 12-25 0-2 2-5 4-5l56-16 0-54m-184 135c-86 24-163-53-142-142 10-37 42-69 79-79 87-23 163 54 142 142-9 40-39 70-79 79z m-4-202c-73-21-140 46-119 119 7 32 35 60 67 67 75 21 142-46 121-121-9-30-37-58-69-65z m0 0"/>
<glyph glyph-name="tag111" unicode="&#57399;" d="M278 100l150 151-200 200-146 7c-1 0-1 0-1 0-6-1-11-6-10-11l6-147z m-229 346c-1 17 13 32 31 33 1 0 2 0 3 0l154-7 222-221-181-181-222 221z m123-90c-12-12-33-12-45 0-13 13-13 33 0 45 12 13 33 13 45 0 12-12 12-32 0-45z m-15 15c4 4 4 11 0 15-4 5-11 5-15 0-4-4-4-11 0-15 4-4 11-4 15 0z"/>
<glyph glyph-name="file-review" unicode="&#57400;" d="M256 107l0-22-139 0c-17 0-32 15-32 32l0 319c0 18 15 32 32 32l278 0c17 0 32-14 32-32l0-201-22 0 0 201c0 6-4 11-10 11l-278 0c-6 0-10-5-10-11l0-319c0-6 4-10 10-10z m-107 256l0 21 214 0 0-21z m0-64l0 21 214 0 0-21z m0-64l0 21 214 0 0-21z m0-64l0 21 128 0 0-21z m235-96c37 0 70 21 86 53-16 32-49 53-86 53-37 0-70-21-86-53 16-32 49-53 86-53z m-108 57c19 43 61 71 108 71 47 0 89-28 108-71l1-4-1-4c-19-43-61-71-108-71-47 0-89 28-108 71l-1 4z m108-36c-18 0-32 14-32 32 0 18 14 32 32 32 18 0 32-14 32-32 0-18-14-32-32-32z m0 21c6 0 11 5 11 11 0 6-5 11-11 11-6 0-11-5-11-11 0-6 5-11 11-11z"/>
<glyph glyph-name="wiki-2" unicode="&#57401;" d="M107 30c-12 0-23 10-23 28l0 380c0 25 25 44 58 44l228 0c33 0 58-21 58-44l0-380c0-21-11-28-23-28-9 0-16 5-26 12l-118 130c-3 3-7 3-10 0l-116-130c-12-9-19-12-28-12z m149 170c9 0 19-5 26-11l116-131c2-2 5-2 5-2 0 0 0 0 0 2l0 380c0 9-14 18-33 18l-228 0c-19 0-33-9-33-18l0-380c0 0 0 0 0-2 3 0 5 2 7 5l117 128c7 9 14 11 23 11z"/>
<glyph glyph-name="edit24" unicode="&#57402;" d="M68 43c-4 0-6 0-10 4-3 2-7 8-3 19l39 92 226 226 75-75-233-228-87-36c-5-2-5-2-7-2z m45 98l-28-66 66 27 207 207-38 41z m303 192l-75 74 39 39c19 19 51 19 72-2 22-22 22-54 2-73z m-38 74l38-38 21 21c11 9 9 26-2 37-10 10-28 10-36 2z"/>
<glyph glyph-name="recycle-v2" unicode="&#57403;" d="M378 270l8 39c2 5 7 9 13 8 6-1 9-7 8-13l-16-74c-1-5-6-9-12-8l-74 16c-6 1-9 7-8 13 1 5 7 9 12 8l57-12-100 201c-1 2-3 3-5 5-5 2-12 0-15-5l-31-63c-3-6-9-8-14-5-6 3-8 9-5 14l31 63c8 16 28 22 43 15 7-4 12-9 15-15z m-216 57l-45-10c-5-1-11 3-12 8-1 6 2 12 8 13l74 16c6 1 11-3 12-8l16-74c1-6-2-12-8-13-6-1-11 3-13 8l-11 54-94-188c-1-2-1-3-1-5 0-6 5-11 11-11l50 0c6 0 11-4 11-10 0-6-5-11-11-11l-50 0c-18 0-32 14-32 32 0 5 1 10 3 14z m75-229l37-37c4-4 4-11 0-15-4-4-11-4-15 0l-53 53c-4 4-4 11 0 15l53 54c4 4 11 4 15 0 4-5 4-11 0-16l-33-32 172-3c2 0 4 1 5 1 6 3 8 9 5 15l-24 48c-3 5-1 12 5 14 5 3 11 1 14-5l24-48c8-15 2-35-14-43-5-2-10-3-15-3z"/>
</font>
</defs>
</svg>
